<svg id="svg" version="1.1" xmlns="http://www.w3.org/2000/svg" xmlns:xlink="http://www.w3.org/1999/xlink" width="400" height="400" viewBox="0, 0, 400,400"><g id="svgg"><path id="path0" d="M188.500 50.298 C 187.345 50.377,186.400 50.612,186.400 50.821 C 186.400 51.029,185.984 51.200,185.475 51.200 C 184.967 51.200,184.164 51.560,183.692 52.000 C 183.220 52.440,182.636 52.800,182.395 52.800 C 181.881 52.800,177.200 57.480,177.200 57.994 C 177.200 58.186,176.975 58.581,176.700 58.871 C 175.904 59.713,174.800 62.339,174.800 63.390 C 174.800 63.920,174.620 64.464,174.400 64.600 C 174.153 64.753,174.000 68.207,174.000 73.633 L 174.000 82.418 181.300 82.309 L 188.600 82.200 188.709 75.092 C 188.828 67.376,189.235 66.000,191.402 66.000 C 195.316 66.000,194.726 78.352,190.736 79.933 C 190.551 80.007,190.400 80.339,190.400 80.673 C 190.400 81.006,189.860 81.783,189.200 82.400 C 188.540 83.017,188.000 83.737,188.000 84.000 C 188.000 84.263,187.460 84.983,186.800 85.600 C 186.140 86.217,185.600 86.937,185.600 87.200 C 185.600 87.463,185.060 88.183,184.400 88.800 C 183.740 89.417,183.200 90.127,183.200 90.379 C 183.200 90.630,182.795 91.256,182.300 91.768 C 181.167 92.941,180.447 93.832,179.205 95.600 C 178.664 96.370,177.902 97.349,177.511 97.775 C 177.120 98.202,176.800 98.710,176.800 98.904 C 176.800 99.098,176.575 99.508,176.300 99.815 C 175.139 101.109,174.800 101.586,174.800 101.924 C 174.800 102.120,174.260 102.846,173.600 103.537 C 172.940 104.228,172.400 104.992,172.400 105.236 C 172.400 105.480,171.860 106.183,171.200 106.800 L 170.000 107.921 170.000 115.560 L 170.000 123.200 189.400 123.200 L 208.800 123.200 208.800 115.400 L 208.800 107.600 199.371 107.600 L 189.942 107.600 190.771 106.546 C 191.227 105.966,191.600 105.319,191.600 105.107 C 191.600 104.894,192.140 104.217,192.800 103.600 C 193.460 102.983,194.000 102.263,194.000 102.000 C 194.000 101.737,194.540 101.017,195.200 100.400 C 195.860 99.783,196.400 99.063,196.400 98.800 C 196.400 98.537,196.940 97.817,197.600 97.200 C 198.260 96.583,198.800 95.880,198.800 95.636 C 198.800 95.392,199.340 94.628,200.000 93.937 C 200.660 93.246,201.200 92.531,201.200 92.348 C 201.200 92.164,201.649 91.516,202.197 90.907 C 204.331 88.539,205.199 87.380,205.200 86.900 C 205.200 86.625,205.359 86.400,205.554 86.400 C 205.749 86.400,206.199 85.770,206.554 85.000 C 206.909 84.230,207.515 82.925,207.900 82.100 C 209.906 77.801,208.652 61.467,206.116 58.871 C 205.832 58.581,205.600 58.186,205.600 57.994 C 205.600 57.480,200.919 52.800,200.405 52.800 C 200.164 52.800,199.580 52.440,199.108 52.000 C 198.636 51.560,197.848 51.200,197.358 51.200 C 196.868 51.200,196.407 51.047,196.333 50.861 C 196.171 50.446,191.375 50.102,188.500 50.298 M245.600 54.400 C 245.600 55.280,245.442 56.000,245.249 56.000 C 245.055 56.000,244.673 56.540,244.400 57.200 C 244.127 57.860,243.784 58.400,243.638 58.400 C 243.492 58.400,243.028 58.985,242.606 59.700 C 242.185 60.415,241.516 61.349,241.120 61.775 C 240.724 62.202,240.400 62.747,240.400 62.987 C 240.400 63.227,240.040 63.683,239.600 64.000 C 239.160 64.317,238.800 64.807,238.800 65.088 C 238.800 65.370,238.620 65.600,238.400 65.600 C 238.180 65.600,238.000 65.830,238.000 66.112 C 238.000 66.393,237.640 66.883,237.200 67.200 C 236.760 67.517,236.400 68.025,236.400 68.328 C 236.400 68.631,235.860 69.383,235.200 70.000 C 234.540 70.617,234.000 71.369,234.000 71.672 C 234.000 71.975,233.640 72.483,233.200 72.800 C 232.760 73.117,232.400 73.580,232.400 73.829 C 232.400 74.078,231.860 74.846,231.200 75.537 C 230.540 76.228,230.000 76.974,230.000 77.196 C 230.000 77.418,229.859 77.600,229.686 77.600 C 229.514 77.600,229.057 78.133,228.672 78.785 C 228.287 79.437,227.732 80.211,227.438 80.505 C 227.144 80.799,226.626 81.570,226.286 82.220 C 225.946 82.869,225.293 83.797,224.834 84.283 C 224.375 84.769,224.000 85.404,224.000 85.695 C 224.000 85.986,223.640 86.483,223.200 86.800 C 222.760 87.117,222.400 87.580,222.400 87.829 C 222.400 88.078,221.860 88.846,221.200 89.537 C 220.540 90.228,220.000 90.966,220.000 91.178 C 220.000 91.390,219.595 91.990,219.100 92.512 C 216.719 95.020,216.800 94.673,216.800 102.405 L 216.800 109.600 232.400 109.600 L 248.000 109.600 248.000 115.600 L 248.000 121.600 255.800 121.600 L 263.600 121.600 263.600 115.600 L 263.600 109.600 267.600 109.600 L 271.600 109.600 271.600 102.200 L 271.600 94.800 267.600 94.800 L 263.600 94.800 263.600 73.800 L 263.600 52.800 254.600 52.800 L 245.600 52.800 245.600 54.400 M320.662 55.500 C 320.560 55.665,330.342 55.800,342.400 55.800 C 354.458 55.800,364.240 55.665,364.138 55.500 C 364.036 55.335,354.254 55.200,342.400 55.200 C 330.546 55.200,320.764 55.335,320.662 55.500 M195.600 57.722 C 200.289 59.990,202.390 64.408,202.391 72.000 C 202.392 78.599,201.842 79.937,195.847 87.936 C 191.709 93.456,184.461 103.202,180.256 108.900 C 178.998 110.605,177.796 112.000,177.584 112.000 C 176.728 112.000,177.290 110.155,178.730 108.237 C 180.826 105.447,189.018 94.383,191.344 91.200 C 192.389 89.770,193.462 88.330,193.728 88.000 C 193.994 87.670,194.650 86.770,195.186 86.000 C 195.723 85.230,196.269 84.510,196.400 84.400 C 196.531 84.290,197.078 83.570,197.615 82.800 C 198.152 82.030,199.063 80.905,199.639 80.300 C 200.778 79.104,201.200 76.751,201.200 71.587 C 201.200 55.738,182.603 55.340,181.631 71.168 C 181.306 76.475,180.400 76.719,180.400 71.499 C 180.400 60.729,187.853 53.973,195.600 57.722 M252.933 60.300 C 253.032 60.465,251.156 63.300,248.763 66.600 C 246.371 69.900,243.645 73.666,242.707 74.970 C 241.768 76.273,240.190 78.453,239.200 79.815 C 238.210 81.176,236.410 83.665,235.200 85.346 C 233.990 87.027,232.370 89.262,231.600 90.312 C 230.830 91.363,229.120 93.729,227.800 95.570 C 226.480 97.412,225.010 99.386,224.533 99.959 L 223.667 101.000 223.398 99.931 C 223.159 98.982,225.524 94.581,226.800 93.600 C 226.943 93.490,227.807 92.320,228.719 91.000 C 229.632 89.680,232.278 85.990,234.600 82.800 C 236.922 79.610,239.562 75.937,240.468 74.638 C 241.373 73.339,242.351 71.989,242.641 71.638 C 243.267 70.880,246.216 66.812,249.000 62.866 C 250.877 60.205,252.313 59.268,252.933 60.300 M256.800 80.800 L 257.000 101.400 260.700 101.515 C 264.045 101.619,264.400 101.704,264.400 102.400 C 264.400 103.096,264.045 103.181,260.700 103.285 L 257.000 103.400 256.887 108.574 C 256.776 113.705,256.461 114.952,255.382 114.538 C 254.948 114.371,254.797 113.096,254.711 108.861 L 254.600 103.400 239.000 103.200 C 225.489 103.027,223.400 102.920,223.400 102.400 C 223.400 101.880,225.489 101.773,239.000 101.600 L 254.600 101.400 254.704 80.673 L 254.807 59.945 255.704 60.073 L 256.600 60.200 256.800 80.800 M248.000 87.400 L 248.000 94.800 242.600 94.800 C 239.267 94.800,237.200 94.647,237.200 94.400 C 237.200 94.180,237.358 94.000,237.551 94.000 C 237.745 94.000,238.127 93.460,238.400 92.800 C 238.673 92.140,239.010 91.596,239.149 91.591 C 239.287 91.586,239.940 90.777,240.600 89.792 C 241.260 88.807,241.935 88.001,242.100 88.001 C 242.265 88.000,242.400 87.728,242.400 87.396 C 242.400 87.064,242.940 86.228,243.600 85.537 C 244.260 84.846,244.800 84.104,244.800 83.888 C 244.800 83.671,245.116 83.203,245.503 82.847 C 245.889 82.491,246.460 81.705,246.770 81.100 C 247.820 79.056,248.000 79.979,248.000 87.400 M104.000 93.725 C 104.000 93.794,104.585 94.379,105.300 95.025 L 106.600 96.200 105.425 94.900 C 104.330 93.688,104.000 93.416,104.000 93.725 M93.600 104.125 C 93.600 104.194,94.185 104.779,94.900 105.425 L 96.200 106.600 95.025 105.300 C 93.930 104.088,93.600 103.816,93.600 104.125 M202.200 115.200 L 202.200 116.200 189.700 116.306 L 177.200 116.411 177.200 115.472 C 177.200 113.978,177.150 113.984,189.972 114.094 L 202.200 114.200 202.200 115.200 M112.934 155.827 C 112.802 156.172,112.853 156.612,113.047 156.806 C 113.251 157.010,113.424 156.746,113.458 156.180 C 113.523 155.063,113.288 154.905,112.934 155.827 M113.400 186.400 C 115.371 188.380,117.073 190.000,117.183 190.000 C 117.293 190.000,115.771 188.380,113.800 186.400 C 111.829 184.420,110.127 182.800,110.017 182.800 C 109.907 182.800,111.429 184.420,113.400 186.400 M167.660 184.280 C 167.143 184.815,166.797 185.330,166.892 185.425 C 166.986 185.519,167.485 185.148,168.000 184.600 C 168.515 184.052,168.861 183.537,168.768 183.455 C 168.676 183.374,168.177 183.745,167.660 184.280 M204.000 193.725 C 204.000 193.794,204.585 194.379,205.300 195.025 L 206.600 196.200 205.425 194.900 C 204.330 193.688,204.000 193.416,204.000 193.725 M193.600 204.125 C 193.600 204.194,194.185 204.779,194.900 205.425 L 196.200 206.600 195.025 205.300 C 193.930 204.088,193.600 203.816,193.600 204.125 M78.893 206.800 C 79.168 207.240,79.531 207.600,79.700 207.600 C 79.869 207.600,79.782 207.240,79.507 206.800 C 79.232 206.360,78.869 206.000,78.700 206.000 C 78.531 206.000,78.618 206.360,78.893 206.800 M220.400 210.125 C 220.400 210.194,220.985 210.779,221.700 211.425 L 223.000 212.600 221.825 211.300 C 220.730 210.088,220.400 209.816,220.400 210.125 M65.693 213.600 C 65.968 214.040,66.331 214.400,66.500 214.400 C 66.669 214.400,66.582 214.040,66.307 213.600 C 66.032 213.160,65.669 212.800,65.500 212.800 C 65.331 212.800,65.418 213.160,65.693 213.600 " stroke="none" fill="#040404" fill-rule="evenodd"></path><path id="path1" d="M155.800 6.400 C 155.664 6.620,154.933 6.800,154.176 6.800 C 153.419 6.800,152.800 6.980,152.800 7.200 C 152.800 7.420,152.260 7.600,151.600 7.600 C 150.940 7.600,150.400 7.780,150.400 8.000 C 150.400 8.220,150.040 8.400,149.600 8.400 C 149.160 8.400,148.800 8.580,148.800 8.800 C 148.800 9.020,148.440 9.200,148.000 9.200 C 147.560 9.200,147.200 9.399,147.200 9.643 C 147.200 9.886,146.930 9.982,146.600 9.855 C 146.270 9.729,146.000 9.774,146.000 9.957 C 146.000 10.139,145.200 10.713,144.221 11.232 C 143.243 11.751,142.485 12.218,142.536 12.269 C 142.588 12.321,141.144 13.907,139.328 15.793 C 137.512 17.680,135.715 19.893,135.334 20.712 C 134.953 21.530,134.542 22.290,134.420 22.400 C 134.181 22.616,133.307 24.444,132.746 25.900 C 132.556 26.395,132.234 27.205,132.030 27.700 C 131.162 29.812,131.048 31.642,131.025 43.800 L 131.000 56.600 137.400 56.600 L 143.800 56.600 144.056 46.400 C 144.314 36.123,144.581 32.918,145.241 32.220 C 145.438 32.011,145.600 31.426,145.600 30.920 C 145.600 30.414,145.780 30.000,146.000 30.000 C 146.220 30.000,146.400 29.640,146.400 29.200 C 146.400 28.760,146.535 28.399,146.700 28.397 C 146.865 28.396,147.450 27.730,148.000 26.917 C 150.365 23.423,154.566 20.797,159.417 19.782 C 162.360 19.166,363.524 18.857,364.134 19.468 C 364.282 19.615,365.077 19.798,365.901 19.874 C 367.487 20.020,367.862 20.151,370.945 21.635 C 373.539 22.885,377.226 26.266,376.906 27.101 C 376.761 27.478,376.830 27.629,377.075 27.477 C 377.436 27.254,378.721 29.453,379.601 31.800 C 380.702 34.736,380.800 38.801,380.800 81.718 C 380.800 126.295,380.746 128.158,379.387 130.800 C 379.104 131.350,378.859 131.936,378.841 132.102 C 378.746 132.999,377.578 135.200,377.197 135.200 C 376.953 135.200,376.857 135.369,376.985 135.575 C 377.112 135.782,376.898 136.136,376.508 136.363 C 376.119 136.590,375.954 136.781,376.142 136.788 C 376.619 136.805,374.147 139.068,372.751 139.893 C 372.118 140.267,371.600 140.714,371.600 140.886 C 371.600 141.059,371.276 141.200,370.880 141.200 C 370.484 141.200,369.989 141.370,369.780 141.577 C 369.571 141.784,368.278 142.134,366.906 142.354 C 365.534 142.574,364.152 142.899,363.835 143.077 C 362.382 143.890,318.315 143.050,317.843 142.200 C 317.600 141.760,317.310 141.310,317.199 141.200 C 317.089 141.090,316.729 140.463,316.399 139.806 C 315.400 137.815,313.895 136.102,312.000 134.800 C 311.230 134.271,310.510 133.737,310.400 133.614 C 310.045 133.215,306.647 131.707,305.000 131.217 C 302.401 130.443,292.800 131.095,292.800 132.045 C 292.800 132.240,292.528 132.400,292.195 132.400 C 290.401 132.400,283.200 138.782,283.200 140.372 C 283.200 140.572,282.885 141.289,282.500 141.965 L 281.800 143.195 209.490 143.197 L 137.181 143.200 137.290 149.900 L 137.400 156.600 209.100 156.701 L 280.800 156.802 280.800 225.825 C 280.800 271.738,280.666 294.764,280.400 294.600 C 280.180 294.464,280.000 293.654,280.000 292.800 C 280.000 291.946,279.820 291.136,279.600 291.000 C 279.380 290.864,279.200 289.694,279.200 288.400 C 279.200 287.106,279.020 285.936,278.800 285.800 C 278.580 285.664,278.400 284.494,278.400 283.200 C 278.400 281.906,278.220 280.736,278.000 280.600 C 277.780 280.464,277.600 279.294,277.600 278.000 C 277.600 276.706,277.420 275.536,277.200 275.400 C 276.980 275.264,276.800 274.083,276.800 272.776 C 276.800 271.459,276.622 270.400,276.400 270.400 C 276.179 270.400,276.000 269.360,276.000 268.080 C 276.000 266.804,275.835 265.589,275.634 265.380 C 275.432 265.171,275.172 263.830,275.055 262.400 C 274.938 260.970,274.767 258.888,274.674 257.773 C 274.582 256.658,274.294 255.349,274.035 254.865 C 273.775 254.380,273.643 253.852,273.740 253.692 C 273.837 253.531,273.750 252.410,273.547 251.200 C 272.922 247.487,272.808 246.684,272.557 244.200 C 272.260 241.259,272.181 240.762,271.894 240.000 C 271.769 239.670,271.569 238.500,271.447 237.400 C 271.115 234.381,270.172 230.258,269.617 229.400 C 269.475 229.180,269.305 228.370,269.239 227.600 C 269.173 226.830,268.958 225.897,268.760 225.526 C 268.562 225.156,268.400 224.311,268.400 223.650 C 268.400 222.988,268.220 222.336,268.000 222.200 C 267.780 222.064,267.600 221.601,267.600 221.171 C 267.600 220.741,267.443 220.077,267.250 219.695 C 265.752 216.720,265.200 215.447,265.200 214.962 C 265.200 214.653,265.020 214.400,264.800 214.400 C 264.580 214.400,264.400 214.130,264.400 213.800 C 264.400 213.470,264.232 213.200,264.027 213.200 C 263.822 213.200,263.543 212.849,263.406 212.420 C 263.270 211.992,262.628 211.073,261.980 210.378 C 261.331 209.684,260.800 208.958,260.800 208.766 C 260.800 208.129,255.521 203.199,248.600 197.373 C 245.015 194.355,244.800 194.143,244.800 193.629 C 244.800 193.393,244.608 193.200,244.373 193.200 C 243.774 193.200,241.386 191.356,238.936 189.000 C 235.694 185.883,231.592 182.238,230.862 181.826 C 229.847 181.253,229.211 180.523,229.486 180.248 C 229.622 180.111,229.463 180.000,229.132 180.000 C 228.801 180.000,227.619 179.112,226.505 178.027 C 225.391 176.942,224.409 176.124,224.323 176.210 C 224.237 176.296,223.561 175.849,222.820 175.217 C 222.079 174.584,221.006 173.827,220.436 173.534 C 219.866 173.241,219.310 172.911,219.200 172.801 C 218.724 172.323,217.161 171.600,216.605 171.600 C 216.272 171.600,216.000 171.420,216.000 171.200 C 216.000 170.980,215.550 170.800,215.000 170.800 C 214.450 170.800,214.000 170.640,214.000 170.445 C 214.000 170.250,213.505 169.991,212.900 169.870 C 212.295 169.749,210.990 169.425,210.000 169.150 C 206.624 168.214,190.012 168.610,189.374 169.642 C 189.252 169.839,188.713 170.000,188.176 170.000 C 187.639 170.000,187.200 170.180,187.200 170.400 C 187.200 170.620,186.660 170.800,186.000 170.800 C 185.340 170.800,184.800 170.946,184.800 171.125 C 184.800 171.304,184.170 171.698,183.400 172.000 C 182.630 172.302,182.000 172.696,182.000 172.875 C 182.000 173.054,181.680 173.200,181.288 173.200 C 180.897 173.200,180.317 173.560,180.000 174.000 C 179.683 174.440,179.003 174.800,178.488 174.800 C 177.966 174.800,177.662 174.977,177.800 175.200 C 177.936 175.420,177.776 175.600,177.444 175.600 C 177.112 175.600,176.360 176.230,175.773 177.000 C 175.186 177.770,174.426 178.400,174.086 178.400 C 173.745 178.400,173.575 178.508,173.707 178.640 C 174.201 179.134,163.120 189.596,162.100 189.599 C 161.825 189.599,161.600 189.780,161.600 190.000 C 161.600 190.220,161.150 190.400,160.600 190.400 C 160.050 190.400,159.600 190.551,159.600 190.736 C 159.600 192.086,143.617 192.978,142.340 191.700 C 142.065 191.425,141.426 191.200,140.920 191.200 C 140.414 191.200,140.000 191.020,140.000 190.800 C 140.000 190.580,139.640 190.400,139.200 190.400 C 138.760 190.400,138.400 190.220,138.400 190.000 C 138.400 189.780,138.130 189.600,137.800 189.600 C 137.470 189.600,137.200 189.420,137.200 189.200 C 137.200 188.980,136.945 188.800,136.633 188.800 C 136.322 188.800,136.004 188.665,135.927 188.500 C 135.850 188.335,133.614 186.086,130.959 183.502 C 128.303 180.918,126.220 178.713,126.331 178.602 C 126.442 178.491,126.295 178.400,126.004 178.400 C 125.415 178.400,119.934 172.898,118.885 171.253 C 118.516 170.674,117.896 169.965,117.507 169.677 C 117.118 169.390,116.800 168.895,116.800 168.577 C 116.800 168.260,116.665 167.999,116.500 167.997 C 116.141 167.993,115.200 166.056,115.200 165.320 C 115.200 165.034,115.020 164.800,114.800 164.800 C 114.580 164.800,114.400 164.386,114.400 163.880 C 114.400 163.374,114.237 162.789,114.037 162.580 C 112.989 161.484,112.988 150.000,114.036 150.000 C 114.236 150.000,114.400 149.561,114.400 149.024 C 114.400 148.487,114.580 147.936,114.800 147.800 C 115.020 147.664,115.200 147.203,115.200 146.776 C 115.200 146.349,115.336 146.000,115.502 146.000 C 115.669 146.000,116.060 145.423,116.372 144.718 C 117.179 142.895,119.822 139.895,127.100 132.540 C 129.355 130.262,131.200 128.231,131.200 128.027 C 131.200 127.824,131.437 127.419,131.726 127.129 C 132.015 126.838,132.840 125.520,133.559 124.200 C 134.278 122.880,135.031 121.629,135.233 121.420 C 135.435 121.211,135.600 120.662,135.600 120.200 C 135.600 119.738,135.749 119.189,135.930 118.980 C 136.238 118.627,136.503 117.784,137.527 113.905 C 138.482 110.289,137.950 97.027,136.757 94.705 C 136.561 94.323,136.400 93.659,136.400 93.229 C 136.400 92.799,136.220 92.336,136.000 92.200 C 135.780 92.064,135.600 91.603,135.600 91.176 C 135.600 90.749,135.420 90.400,135.200 90.400 C 134.980 90.400,134.800 90.113,134.800 89.762 C 134.800 89.411,134.479 88.646,134.086 88.062 C 133.693 87.478,133.108 86.460,132.786 85.800 C 132.464 85.140,132.020 84.404,131.800 84.163 C 131.580 83.923,130.950 83.120,130.400 82.378 C 129.850 81.635,128.635 80.252,127.700 79.304 C 126.765 78.355,126.000 77.492,126.000 77.386 C 126.000 77.200,124.892 75.891,122.800 73.603 C 122.250 73.002,121.080 71.644,120.200 70.585 C 119.320 69.526,117.909 67.887,117.065 66.943 C 113.698 63.181,113.268 62.612,113.494 62.214 C 113.623 61.986,113.590 61.924,113.422 62.076 C 113.073 62.390,111.200 60.655,111.200 60.018 C 111.200 59.788,111.028 59.600,110.818 59.600 C 110.369 59.600,108.400 57.699,108.400 57.265 C 108.400 57.101,107.812 56.343,107.094 55.582 C 106.375 54.820,104.722 52.938,103.419 51.398 C 98.964 46.135,94.044 42.000,92.238 42.000 C 91.887 42.000,91.600 41.852,91.600 41.671 C 91.600 41.310,88.027 39.600,87.272 39.600 C 87.012 39.600,86.800 39.420,86.800 39.200 C 86.800 38.980,86.260 38.800,85.600 38.800 C 84.940 38.800,84.400 38.639,84.400 38.442 C 84.400 37.839,81.326 37.522,73.700 37.340 C 68.789 37.223,66.400 37.302,66.400 37.583 C 66.400 37.812,65.781 38.000,65.024 38.000 C 64.267 38.000,63.536 38.180,63.400 38.400 C 63.264 38.620,62.623 38.800,61.976 38.800 C 61.329 38.800,60.800 38.980,60.800 39.200 C 60.800 39.420,60.560 39.600,60.267 39.600 C 59.403 39.600,52.761 43.091,51.931 43.982 C 51.512 44.432,51.041 44.805,50.884 44.812 C 50.728 44.819,49.536 45.801,48.235 46.996 C 46.934 48.190,45.692 49.057,45.473 48.922 C 45.255 48.787,45.192 48.864,45.334 49.093 C 45.475 49.322,45.323 49.732,44.996 50.004 C 44.668 50.276,44.400 50.380,44.400 50.237 C 44.400 50.093,43.321 51.051,42.003 52.365 C 40.684 53.680,38.930 55.260,38.104 55.877 C 37.279 56.495,35.819 57.764,34.859 58.698 C 33.900 59.631,32.955 60.296,32.758 60.174 C 32.561 60.052,32.400 60.171,32.400 60.438 C 32.400 61.072,29.156 63.840,28.616 63.667 C 28.387 63.593,28.329 63.662,28.486 63.819 C 28.643 63.977,28.258 64.577,27.631 65.153 C 27.003 65.729,25.209 67.360,23.645 68.778 C 22.080 70.196,20.800 71.515,20.800 71.710 C 20.800 71.904,20.080 72.754,19.200 73.600 C 18.320 74.446,17.600 75.331,17.600 75.569 C 17.600 75.806,17.445 76.000,17.256 76.000 C 17.066 76.000,16.481 76.810,15.956 77.800 C 15.431 78.790,14.888 79.600,14.749 79.600 C 14.611 79.600,14.273 80.140,14.000 80.800 C 13.727 81.460,13.315 82.000,13.085 82.000 C 12.855 82.000,12.770 82.103,12.896 82.230 C 13.023 82.356,12.603 83.454,11.963 84.670 C 11.323 85.886,10.800 87.124,10.800 87.421 C 10.800 87.717,10.503 88.126,10.140 88.330 C 9.713 88.568,9.559 88.999,9.703 89.550 C 9.825 90.018,9.772 90.306,9.584 90.190 C 9.183 89.943,8.405 92.516,8.402 94.100 C 8.401 94.705,8.220 95.200,8.000 95.200 C 7.780 95.200,7.600 95.830,7.600 96.600 C 7.600 97.370,7.420 98.000,7.200 98.000 C 6.980 98.000,6.800 98.990,6.800 100.200 C 6.800 101.410,6.620 102.400,6.400 102.400 C 6.145 102.400,6.000 105.667,6.000 111.400 C 6.000 117.133,6.145 120.400,6.400 120.400 C 6.620 120.400,6.800 121.289,6.800 122.376 C 6.800 123.463,6.980 124.464,7.200 124.600 C 7.420 124.736,7.600 125.456,7.600 126.200 C 7.600 126.944,7.780 127.664,8.000 127.800 C 8.220 127.936,8.400 128.577,8.400 129.224 C 8.400 129.871,8.574 130.400,8.787 130.400 C 9.001 130.400,9.069 130.677,8.939 131.015 C 8.809 131.353,8.995 131.953,9.352 132.347 C 9.710 132.742,9.907 133.159,9.792 133.275 C 9.596 133.471,13.252 140.893,13.987 141.789 C 14.172 142.015,14.910 143.280,15.628 144.600 C 16.345 145.920,17.037 147.090,17.166 147.200 C 17.295 147.310,17.837 148.210,18.370 149.200 C 18.904 150.190,19.444 151.090,19.571 151.200 C 19.698 151.310,20.071 151.940,20.401 152.600 C 20.730 153.260,21.315 154.149,21.700 154.575 C 22.085 155.002,22.400 155.587,22.400 155.875 C 22.400 156.164,22.580 156.400,22.800 156.400 C 23.020 156.400,23.200 156.636,23.200 156.925 C 23.200 157.213,23.560 157.836,24.000 158.308 C 24.440 158.780,24.800 159.443,24.800 159.780 C 24.800 160.117,25.160 160.618,25.600 160.893 C 26.040 161.168,26.400 161.682,26.400 162.035 C 26.400 162.388,26.756 163.088,27.192 163.590 C 27.627 164.092,27.884 164.664,27.762 164.862 C 27.640 165.059,27.717 165.170,27.933 165.110 C 28.149 165.049,29.454 166.709,30.833 168.799 C 32.212 170.888,33.573 172.830,33.856 173.113 C 34.140 173.397,34.687 174.163,35.072 174.815 C 35.457 175.467,35.914 176.000,36.086 176.000 C 36.259 176.000,36.400 176.225,36.400 176.500 C 36.401 176.775,36.866 177.540,37.435 178.200 C 38.004 178.860,38.763 179.895,39.121 180.500 C 39.479 181.105,39.914 181.600,40.086 181.600 C 40.259 181.600,40.400 181.799,40.400 182.042 C 40.400 182.285,40.805 182.984,41.300 183.595 C 41.795 184.206,42.650 185.289,43.200 186.002 C 43.750 186.715,44.602 187.771,45.094 188.349 C 46.388 189.871,46.534 190.058,47.618 191.577 C 48.883 193.349,49.974 194.686,51.100 195.841 C 51.595 196.348,52.002 196.907,52.004 197.082 C 52.007 197.257,52.825 198.285,53.822 199.367 C 54.819 200.448,56.213 202.050,56.918 202.926 C 57.623 203.802,58.692 205.004,59.294 205.597 C 59.896 206.190,60.941 207.379,61.616 208.238 C 62.723 209.647,66.958 214.293,71.500 219.081 C 72.435 220.067,73.200 220.960,73.200 221.065 C 73.200 221.171,73.470 221.527,73.800 221.857 C 74.130 222.187,74.400 222.349,74.400 222.217 C 74.400 222.085,75.005 222.567,75.744 223.289 C 76.483 224.010,77.012 224.735,76.920 224.900 C 76.828 225.065,76.917 225.200,77.117 225.200 C 77.317 225.200,79.719 227.405,82.453 230.100 C 86.854 234.437,92.499 239.718,95.093 241.922 C 95.584 242.340,95.854 242.827,95.693 243.005 C 95.532 243.183,95.595 243.217,95.834 243.081 C 96.072 242.946,97.189 243.682,98.315 244.717 C 102.137 248.232,102.813 248.800,103.174 248.800 C 103.371 248.800,103.593 248.947,103.667 249.126 C 103.740 249.306,104.880 250.322,106.200 251.385 C 107.520 252.448,108.690 253.430,108.800 253.566 C 108.910 253.703,110.755 255.135,112.900 256.748 C 115.045 258.361,116.800 259.843,116.800 260.041 C 116.800 260.238,117.061 260.400,117.380 260.400 C 117.699 260.400,118.144 260.715,118.368 261.100 C 118.592 261.485,118.781 261.663,118.788 261.497 C 118.795 261.330,119.367 261.735,120.059 262.397 C 120.752 263.058,121.522 263.600,121.771 263.600 C 122.020 263.600,122.483 263.960,122.800 264.400 C 123.117 264.840,123.562 265.202,123.788 265.205 C 124.015 265.208,124.650 265.565,125.200 265.999 C 129.888 269.695,132.022 271.181,137.529 274.586 C 138.228 275.019,138.800 275.514,138.800 275.686 C 138.800 275.859,139.160 276.000,139.600 276.000 C 140.040 276.000,140.400 276.138,140.400 276.306 C 140.400 276.474,141.120 277.056,142.000 277.600 C 142.880 278.144,143.600 278.726,143.600 278.894 C 143.600 279.062,143.878 279.200,144.217 279.200 C 144.556 279.200,145.194 279.536,145.634 279.946 C 146.075 280.357,147.237 281.105,148.218 281.609 C 149.198 282.113,150.000 282.677,150.000 282.863 C 150.000 283.048,150.270 283.200,150.600 283.200 C 150.930 283.200,151.200 283.359,151.200 283.553 C 151.200 283.748,151.515 284.007,151.900 284.129 C 152.676 284.375,154.887 285.661,155.200 286.048 C 155.310 286.184,156.345 286.772,157.500 287.354 C 158.655 287.937,159.600 288.590,159.600 288.807 C 159.600 289.023,159.915 289.206,160.300 289.213 C 161.130 289.228,162.471 290.167,162.194 290.540 C 162.087 290.683,162.115 290.715,162.256 290.611 C 162.496 290.433,164.760 291.525,165.200 292.030 C 165.310 292.156,166.210 292.696,167.200 293.230 C 168.190 293.763,169.060 294.335,169.133 294.500 C 169.207 294.665,169.524 294.800,169.839 294.800 C 170.153 294.800,170.768 294.980,171.205 295.200 C 171.642 295.420,172.358 295.780,172.795 296.000 C 173.232 296.220,173.862 296.400,174.195 296.400 C 174.528 296.400,174.800 296.580,174.800 296.800 C 174.800 297.020,175.239 297.200,175.776 297.200 C 176.313 297.200,176.864 297.380,177.000 297.600 C 177.136 297.820,177.766 298.000,178.400 298.000 C 179.034 298.000,179.664 298.180,179.800 298.400 C 179.936 298.620,180.566 298.800,181.200 298.800 C 181.834 298.800,182.464 298.980,182.600 299.200 C 182.736 299.420,183.636 299.600,184.600 299.600 C 185.564 299.600,186.464 299.780,186.600 300.000 C 186.913 300.506,204.087 300.545,204.620 300.041 C 204.829 299.844,205.720 299.580,206.600 299.456 C 209.989 298.978,211.215 298.699,211.427 298.356 C 211.548 298.160,211.999 298.000,212.429 298.000 C 212.859 298.000,213.523 297.832,213.905 297.627 C 214.287 297.421,215.455 297.022,216.500 296.739 C 217.545 296.457,218.400 296.085,218.400 295.913 C 218.400 295.741,218.760 295.600,219.200 295.600 C 219.640 295.600,220.000 295.454,220.000 295.275 C 220.000 295.096,220.630 294.702,221.400 294.400 C 222.170 294.098,222.800 293.704,222.800 293.525 C 222.800 293.346,223.083 293.200,223.428 293.200 C 223.773 293.200,224.841 292.660,225.800 292.000 C 226.759 291.340,227.654 290.800,227.789 290.800 C 227.924 290.800,228.251 290.616,228.517 290.391 C 228.783 290.166,229.900 289.311,231.000 288.491 C 232.100 287.671,233.694 286.313,234.542 285.473 C 236.671 283.365,237.200 283.701,237.200 287.164 C 237.200 288.698,237.380 290.064,237.600 290.200 C 237.820 290.336,238.000 291.686,238.000 293.200 C 238.000 294.714,238.180 296.064,238.400 296.200 C 238.620 296.336,238.800 297.697,238.800 299.224 C 238.800 300.808,238.972 302.000,239.200 302.000 C 239.431 302.000,239.600 303.267,239.600 305.000 C 239.600 306.733,239.769 308.000,240.000 308.000 C 240.228 308.000,240.400 309.192,240.400 310.776 C 240.400 312.303,240.580 313.664,240.800 313.800 C 241.020 313.936,241.200 315.286,241.200 316.800 C 241.200 318.314,241.352 319.647,241.538 319.762 C 241.724 319.877,241.995 321.904,242.139 324.267 C 242.284 326.629,242.582 328.742,242.801 328.961 C 243.021 329.181,243.200 329.851,243.200 330.451 C 243.200 331.052,243.470 331.813,243.800 332.143 C 244.130 332.473,244.400 332.996,244.400 333.305 C 244.400 333.614,244.535 334.002,244.700 334.167 C 244.865 334.332,245.005 334.587,245.010 334.733 C 245.036 335.411,248.491 340.759,249.770 342.101 C 250.556 342.926,251.201 343.736,251.202 343.901 C 251.203 344.065,251.704 344.740,252.315 345.400 C 252.926 346.060,253.863 347.230,254.397 348.000 C 254.932 348.770,255.871 349.877,256.485 350.460 C 257.098 351.044,257.600 351.636,257.600 351.777 C 257.600 351.918,257.783 352.251,258.007 352.517 C 259.347 354.106,260.252 355.201,261.545 356.800 C 262.345 357.790,263.090 358.690,263.200 358.800 C 264.198 359.798,266.247 363.357,267.229 365.800 C 267.940 367.568,268.116 370.311,268.266 381.900 L 268.423 394.000 318.811 394.000 L 369.200 394.000 369.200 381.606 C 369.200 366.836,369.551 364.765,372.956 359.442 C 373.746 358.206,374.350 357.147,374.296 357.088 C 374.243 357.029,374.605 356.547,375.100 356.015 C 375.595 355.484,376.000 354.813,376.000 354.525 C 376.000 354.236,376.180 354.000,376.400 354.000 C 376.620 354.000,376.800 353.745,376.800 353.433 C 376.800 353.122,376.951 352.807,377.135 352.733 C 377.320 352.660,379.149 350.080,381.200 347.000 C 383.251 343.920,385.080 341.340,385.265 341.267 C 385.449 341.193,385.600 340.982,385.600 340.798 C 385.600 340.614,386.365 339.287,387.300 337.850 C 389.749 334.088,391.600 330.769,391.600 330.143 C 391.600 329.844,391.780 329.600,392.000 329.600 C 392.220 329.600,392.400 329.161,392.400 328.624 C 392.400 328.087,392.580 327.536,392.800 327.400 C 393.020 327.264,393.200 326.533,393.200 325.776 C 393.200 325.019,393.380 324.400,393.600 324.400 C 393.864 324.400,394.000 310.875,394.000 284.624 C 394.000 258.537,393.862 244.762,393.600 244.600 C 393.380 244.464,393.200 243.823,393.200 243.176 C 393.200 242.529,393.020 242.000,392.800 242.000 C 392.580 242.000,392.400 241.730,392.400 241.400 C 392.400 241.070,392.220 240.800,392.000 240.800 C 391.780 240.800,391.600 240.530,391.600 240.200 C 391.600 239.870,391.420 239.600,391.200 239.600 C 390.980 239.600,390.800 239.292,390.800 238.915 C 390.800 237.745,386.536 234.117,383.279 232.515 L 380.200 231.000 374.707 230.949 C 371.642 230.920,369.309 231.053,369.430 231.249 C 369.550 231.442,369.397 231.600,369.091 231.600 C 368.785 231.600,368.304 231.105,368.021 230.500 C 367.738 229.895,367.348 229.087,367.153 228.705 C 366.959 228.323,366.800 227.828,366.800 227.605 C 366.800 227.159,366.345 226.601,363.737 223.853 C 362.770 222.834,361.817 222.000,361.618 222.000 C 361.420 222.000,361.007 221.750,360.702 221.445 C 359.937 220.680,356.803 219.200,355.948 219.200 C 355.563 219.200,355.136 219.020,355.000 218.800 C 354.858 218.570,352.737 218.400,350.000 218.400 C 347.263 218.400,345.142 218.570,345.000 218.800 C 344.539 219.546,343.200 219.248,343.200 218.400 C 343.200 217.960,343.020 217.600,342.800 217.600 C 342.580 217.600,342.400 217.240,342.400 216.800 C 342.400 216.360,342.220 216.000,342.000 216.000 C 341.780 216.000,341.600 215.732,341.600 215.405 C 341.600 215.077,341.285 214.424,340.900 213.952 C 338.577 211.109,337.199 209.593,337.025 209.690 C 336.916 209.750,336.492 209.530,336.083 209.200 C 334.899 208.244,333.660 207.600,333.005 207.600 C 332.672 207.600,332.400 207.420,332.400 207.200 C 332.400 206.980,331.961 206.800,331.424 206.800 C 330.887 206.800,330.336 206.620,330.200 206.400 C 330.057 206.168,327.863 206.000,324.976 206.000 C 321.925 206.000,320.000 206.155,320.000 206.400 C 320.000 206.620,319.820 206.800,319.600 206.800 C 319.338 206.800,319.200 198.200,319.200 181.800 L 319.200 156.800 341.900 156.774 C 366.089 156.746,368.428 156.666,370.972 155.779 C 371.867 155.467,373.005 155.209,373.500 155.206 C 373.995 155.203,374.400 155.020,374.400 154.800 C 374.400 154.580,374.760 154.400,375.200 154.400 C 375.640 154.400,376.000 154.220,376.000 154.000 C 376.000 153.780,376.360 153.600,376.800 153.600 C 377.240 153.600,377.600 153.420,377.600 153.200 C 377.600 152.980,377.790 152.800,378.021 152.800 C 378.908 152.800,383.704 149.090,385.754 146.819 C 386.439 146.060,387.360 145.062,387.800 144.601 C 388.240 144.141,388.663 143.592,388.739 143.382 C 388.816 143.172,389.491 141.955,390.239 140.679 C 390.988 139.402,391.600 138.007,391.600 137.579 C 391.600 137.150,391.780 136.800,392.000 136.800 C 392.220 136.800,392.400 136.361,392.400 135.824 C 392.400 135.287,392.580 134.736,392.800 134.600 C 393.020 134.464,393.200 133.834,393.200 133.200 C 393.200 132.566,393.380 131.936,393.600 131.800 C 394.153 131.458,394.153 30.942,393.600 30.600 C 393.380 30.464,393.200 29.823,393.200 29.176 C 393.200 28.529,393.020 28.000,392.800 28.000 C 392.580 28.000,392.400 27.460,392.400 26.800 C 392.400 26.140,392.220 25.600,392.000 25.600 C 391.780 25.600,391.597 25.285,391.594 24.900 C 391.591 24.515,391.334 23.750,391.023 23.200 C 390.713 22.650,390.165 21.636,389.805 20.946 C 388.761 18.940,384.669 14.339,382.382 12.600 C 381.225 11.720,379.950 10.689,379.548 10.309 C 379.147 9.929,378.567 9.714,378.261 9.832 C 377.954 9.950,377.599 9.776,377.473 9.445 C 377.346 9.115,376.603 8.724,375.821 8.578 C 375.039 8.431,374.400 8.151,374.400 7.955 C 374.400 7.760,373.961 7.600,373.424 7.600 C 372.887 7.600,372.336 7.420,372.200 7.200 C 372.064 6.980,371.434 6.800,370.800 6.800 C 370.166 6.800,369.536 6.620,369.400 6.400 C 369.057 5.846,156.143 5.846,155.800 6.400 M303.600 50.200 C 303.600 50.530,303.420 50.800,303.200 50.800 C 302.980 50.800,302.800 51.340,302.800 52.000 C 302.800 52.660,302.620 53.200,302.400 53.200 C 302.180 53.200,302.000 53.729,302.000 54.376 C 302.000 55.023,301.820 55.664,301.600 55.800 C 301.380 55.936,301.200 56.476,301.200 57.000 C 301.200 57.524,301.020 58.064,300.800 58.200 C 300.580 58.336,300.400 58.977,300.400 59.624 C 300.400 60.271,300.240 60.800,300.045 60.800 C 299.850 60.800,299.574 61.385,299.431 62.100 C 298.806 65.224,298.690 65.600,298.355 65.600 C 298.160 65.600,298.000 65.915,298.000 66.300 C 297.999 67.603,296.163 72.829,295.816 72.514 C 295.627 72.341,295.603 72.429,295.764 72.708 C 295.925 72.987,295.827 73.887,295.545 74.708 C 295.264 75.529,295.010 76.290,294.981 76.400 C 294.310 78.923,293.770 80.400,293.517 80.400 C 293.343 80.400,293.200 80.904,293.200 81.520 C 293.200 82.136,293.015 82.825,292.789 83.051 C 292.564 83.276,292.268 84.392,292.134 85.531 C 291.999 86.669,291.734 87.600,291.544 87.600 C 291.355 87.600,291.200 88.140,291.200 88.800 C 291.200 89.460,291.020 90.000,290.800 90.000 C 290.580 90.000,290.400 90.540,290.400 91.200 C 290.400 91.860,290.220 92.400,290.000 92.400 C 289.780 92.400,289.600 92.929,289.600 93.576 C 289.600 94.223,289.420 94.864,289.200 95.000 C 288.980 95.136,288.800 95.676,288.800 96.200 C 288.800 96.724,288.620 97.264,288.400 97.400 C 288.180 97.536,288.000 98.166,288.000 98.800 C 288.000 99.434,287.820 100.064,287.600 100.200 C 287.380 100.336,287.200 100.851,287.200 101.344 C 287.200 101.837,287.051 102.411,286.870 102.620 C 286.688 102.829,286.310 103.810,286.031 104.800 C 285.751 105.790,285.360 106.913,285.161 107.295 C 284.962 107.677,284.800 108.431,284.800 108.971 C 284.800 109.511,284.620 110.064,284.400 110.200 C 284.180 110.336,284.000 110.887,284.000 111.424 C 284.000 111.961,283.820 112.400,283.600 112.400 C 283.380 112.400,283.200 112.852,283.200 113.405 C 283.200 113.958,283.038 114.723,282.841 115.105 C 282.644 115.487,282.085 117.150,281.600 118.800 C 281.115 120.450,280.556 122.113,280.359 122.495 C 280.162 122.877,280.000 123.516,280.000 123.915 C 280.000 124.314,279.835 124.811,279.633 125.020 C 279.430 125.229,279.205 126.030,279.133 126.800 L 279.000 128.200 283.426 128.312 C 288.417 128.439,288.130 128.613,289.226 124.800 C 289.511 123.810,289.890 122.803,290.069 122.563 C 290.247 122.323,290.290 122.023,290.164 121.897 C 290.038 121.772,290.167 121.248,290.450 120.734 C 290.732 120.220,290.918 119.501,290.863 119.135 C 290.807 118.770,290.950 118.354,291.181 118.212 C 291.411 118.069,291.600 117.423,291.600 116.776 C 291.600 116.129,291.780 115.600,292.000 115.600 C 292.220 115.600,292.400 115.298,292.400 114.928 C 292.400 114.176,293.113 111.767,293.649 110.705 C 293.842 110.323,294.000 109.659,294.000 109.229 C 294.000 108.799,294.180 108.336,294.400 108.200 C 294.620 108.064,294.800 107.513,294.800 106.976 C 294.800 106.439,294.980 106.000,295.200 106.000 C 295.420 106.000,295.600 105.370,295.600 104.600 C 295.600 103.830,295.780 103.200,296.000 103.200 C 296.220 103.200,296.400 102.660,296.400 102.000 C 296.400 101.340,296.580 100.800,296.800 100.800 C 297.020 100.800,297.200 100.271,297.200 99.624 C 297.200 98.977,297.380 98.336,297.600 98.200 C 297.820 98.064,298.000 97.524,298.000 97.000 C 298.000 96.476,298.180 95.936,298.400 95.800 C 298.620 95.664,298.800 95.124,298.800 94.600 C 298.800 94.076,298.980 93.536,299.200 93.400 C 299.420 93.264,299.600 92.711,299.600 92.171 C 299.600 91.631,299.780 90.832,300.000 90.395 C 300.220 89.958,300.580 89.242,300.800 88.805 C 301.020 88.368,301.200 87.558,301.200 87.005 C 301.200 86.452,301.380 86.000,301.600 86.000 C 301.820 86.000,302.000 85.558,302.000 85.019 C 302.000 84.479,302.202 83.534,302.450 82.919 C 303.283 80.846,303.507 80.206,303.961 78.600 C 304.210 77.720,305.040 75.032,305.807 72.626 C 306.573 70.221,307.200 67.941,307.200 67.560 C 307.200 67.178,307.369 66.807,307.576 66.733 C 307.975 66.592,308.364 65.180,308.688 62.700 C 308.796 61.875,309.045 61.200,309.242 61.200 C 309.439 61.200,309.600 60.660,309.600 60.000 C 309.600 59.340,309.780 58.800,310.000 58.800 C 310.220 58.800,310.400 58.260,310.400 57.600 C 310.400 56.940,310.580 56.400,310.800 56.400 C 311.020 56.400,311.200 55.871,311.200 55.224 C 311.200 54.577,311.380 53.936,311.600 53.800 C 311.820 53.664,312.000 53.149,312.000 52.656 C 312.000 52.163,312.204 51.556,312.453 51.307 C 312.702 51.058,312.798 50.572,312.666 50.227 C 312.316 49.315,303.600 49.289,303.600 50.200 M75.753 50.724 C 75.863 50.902,76.819 51.092,77.877 51.146 C 78.934 51.201,79.971 51.415,80.180 51.622 C 80.389 51.830,80.859 52.000,81.224 52.000 C 82.078 52.000,86.800 54.428,86.800 54.867 C 86.800 55.050,87.036 55.200,87.324 55.200 C 87.851 55.200,93.600 60.534,93.600 61.023 C 93.600 61.391,97.442 65.893,102.200 71.101 C 103.300 72.305,104.257 73.441,104.327 73.625 C 104.396 73.809,105.529 75.049,106.844 76.380 C 108.158 77.711,109.102 78.800,108.941 78.800 C 108.779 78.800,108.928 79.025,109.271 79.300 C 109.614 79.575,111.131 81.240,112.642 83.000 C 116.214 87.162,117.167 88.252,118.506 89.701 C 119.115 90.360,119.919 91.416,120.293 92.049 C 120.667 92.682,121.114 93.200,121.286 93.200 C 121.459 93.200,121.600 93.560,121.600 94.000 C 121.600 94.440,121.780 94.800,122.000 94.800 C 122.220 94.800,122.400 95.149,122.400 95.576 C 122.400 96.003,122.580 96.464,122.800 96.600 C 123.020 96.736,123.200 97.251,123.200 97.744 C 123.200 98.237,123.363 98.811,123.563 99.020 C 123.763 99.229,124.028 100.300,124.152 101.400 C 124.277 102.500,124.493 104.272,124.632 105.337 C 124.792 106.553,124.721 107.439,124.443 107.717 C 124.199 107.961,124.000 109.024,124.000 110.080 C 124.000 111.136,123.833 112.000,123.629 112.000 C 123.425 112.000,123.200 112.298,123.129 112.662 C 123.043 113.103,112.989 103.318,93.071 83.411 C 76.610 66.959,63.290 53.362,63.471 53.196 C 64.238 52.490,68.800 51.200,70.527 51.200 C 71.557 51.200,72.400 51.020,72.400 50.800 C 72.400 50.325,75.463 50.255,75.753 50.724 M320.500 56.263 C 319.754 56.567,319.815 63.072,320.571 63.829 C 321.047 64.304,323.699 64.400,336.316 64.400 L 351.489 64.400 351.298 65.400 C 351.193 65.950,350.948 66.400,350.753 66.400 C 350.559 66.400,350.400 66.850,350.400 67.400 C 350.400 67.950,350.220 68.400,350.000 68.400 C 349.780 68.400,349.600 68.672,349.600 69.005 C 349.600 69.338,349.441 69.923,349.247 70.305 C 348.782 71.219,348.194 72.674,347.593 74.400 C 347.325 75.170,346.767 76.563,346.353 77.496 C 345.939 78.428,345.600 79.261,345.600 79.347 C 345.600 79.432,345.298 80.199,344.929 81.051 C 344.560 81.903,344.210 82.867,344.151 83.193 C 344.092 83.519,343.854 83.849,343.622 83.926 C 343.390 84.003,343.200 84.502,343.200 85.033 C 343.200 85.565,343.040 86.000,342.845 86.000 C 342.650 86.000,342.369 86.810,342.221 87.800 C 342.072 88.790,341.782 89.600,341.575 89.600 C 341.369 89.600,341.200 90.039,341.200 90.576 C 341.200 91.113,341.020 91.664,340.800 91.800 C 340.580 91.936,340.400 92.397,340.400 92.824 C 340.400 93.251,340.253 93.600,340.072 93.600 C 339.892 93.600,339.500 94.500,339.200 95.600 C 338.900 96.700,338.508 97.600,338.328 97.600 C 338.147 97.600,338.000 97.949,338.000 98.376 C 338.000 98.803,337.820 99.264,337.600 99.400 C 337.380 99.536,337.200 99.997,337.200 100.424 C 337.200 100.851,337.020 101.200,336.800 101.200 C 336.580 101.200,336.400 101.562,336.400 102.005 C 336.400 102.448,336.220 103.168,336.000 103.605 C 335.780 104.042,335.420 104.758,335.200 105.195 C 334.980 105.632,334.800 106.352,334.800 106.795 C 334.800 107.238,334.620 107.600,334.400 107.600 C 334.180 107.600,334.000 107.960,334.000 108.400 C 334.000 108.840,333.820 109.200,333.600 109.200 C 333.380 109.200,333.200 109.639,333.200 110.176 C 333.200 110.713,333.020 111.264,332.800 111.400 C 332.580 111.536,332.400 111.997,332.400 112.424 C 332.400 112.851,332.220 113.200,332.000 113.200 C 331.780 113.200,331.600 113.562,331.600 114.005 C 331.600 114.448,331.435 115.123,331.234 115.505 C 328.660 120.384,328.789 120.577,334.698 120.712 L 339.586 120.825 340.593 118.737 C 341.147 117.589,341.600 116.324,341.600 115.925 C 341.600 115.526,341.780 115.200,342.000 115.200 C 342.220 115.200,342.400 114.851,342.400 114.424 C 342.400 113.997,342.580 113.536,342.800 113.400 C 343.020 113.264,343.200 112.713,343.200 112.176 C 343.200 111.639,343.380 111.200,343.600 111.200 C 343.820 111.200,344.000 110.851,344.000 110.424 C 344.000 109.997,344.180 109.536,344.400 109.400 C 344.620 109.264,344.800 108.713,344.800 108.176 C 344.800 107.639,344.980 107.200,345.200 107.200 C 345.420 107.200,345.600 106.851,345.600 106.424 C 345.600 105.997,345.780 105.536,346.000 105.400 C 346.220 105.264,346.400 104.803,346.400 104.376 C 346.400 103.949,346.580 103.600,346.800 103.600 C 347.020 103.600,347.200 103.161,347.200 102.624 C 347.200 102.087,347.380 101.536,347.600 101.400 C 347.820 101.264,348.000 100.803,348.000 100.376 C 348.000 99.949,348.147 99.600,348.328 99.600 C 348.508 99.600,348.900 98.700,349.200 97.600 C 349.500 96.500,349.892 95.600,350.072 95.600 C 350.253 95.600,350.400 95.161,350.400 94.624 C 350.400 94.087,350.580 93.536,350.800 93.400 C 351.020 93.264,351.200 92.803,351.200 92.376 C 351.200 91.949,351.380 91.600,351.600 91.600 C 351.820 91.600,352.000 91.328,352.000 90.995 C 352.000 90.662,352.165 90.077,352.366 89.695 C 352.917 88.651,353.731 86.593,355.174 82.600 C 355.889 80.620,356.638 78.687,356.837 78.305 C 357.037 77.923,357.200 77.360,357.200 77.054 C 357.200 76.748,357.468 76.276,357.796 76.004 C 358.123 75.732,358.300 75.362,358.189 75.182 C 358.078 75.002,358.170 74.742,358.393 74.604 C 358.617 74.466,358.800 73.924,358.800 73.400 C 358.800 72.876,358.980 72.336,359.200 72.200 C 359.420 72.064,359.600 71.603,359.600 71.176 C 359.600 70.749,359.780 70.400,360.000 70.400 C 360.220 70.400,360.400 69.950,360.400 69.400 C 360.400 68.850,360.580 68.400,360.800 68.400 C 361.020 68.400,361.200 67.961,361.200 67.424 C 361.200 66.887,361.380 66.336,361.600 66.200 C 361.820 66.064,362.000 65.603,362.000 65.176 C 362.000 64.749,362.141 64.400,362.313 64.400 C 362.485 64.400,362.871 63.545,363.171 62.500 C 363.471 61.455,363.881 60.388,364.083 60.130 C 364.284 59.871,364.393 58.881,364.324 57.930 L 364.200 56.200 342.600 56.130 C 330.720 56.091,320.775 56.151,320.500 56.263 M189.400 57.696 C 187.399 58.381,186.258 58.961,185.257 59.800 C 184.145 60.733,182.399 63.356,182.401 64.092 C 182.402 64.371,182.756 64.022,183.187 63.315 C 184.080 61.850,187.463 59.225,188.476 59.210 C 188.848 59.204,189.264 59.020,189.400 58.800 C 189.706 58.304,192.564 58.273,193.505 58.756 C 193.887 58.951,194.895 59.446,195.743 59.856 C 196.592 60.265,197.987 61.390,198.843 62.356 C 200.538 64.269,200.847 64.218,199.618 62.230 C 197.400 58.640,192.714 56.561,189.400 57.696 M249.753 63.073 C 248.694 64.573,247.719 65.890,247.587 66.000 C 247.455 66.110,246.738 67.100,245.993 68.200 C 245.248 69.300,244.411 70.432,244.133 70.715 C 243.855 70.998,243.313 71.763,242.928 72.415 C 242.543 73.067,242.086 73.600,241.914 73.600 C 241.741 73.600,241.600 73.836,241.600 74.125 C 241.600 74.413,241.280 74.998,240.889 75.425 C 240.498 75.851,239.738 76.830,239.200 77.600 C 238.662 78.370,238.072 79.180,237.888 79.400 C 237.705 79.620,236.480 81.330,235.166 83.200 C 233.852 85.070,232.554 86.870,232.283 87.200 C 232.011 87.530,231.350 88.430,230.814 89.200 C 230.277 89.970,229.740 90.690,229.619 90.800 C 229.499 90.910,228.599 92.170,227.621 93.600 C 226.643 95.030,225.725 96.290,225.581 96.400 C 225.261 96.645,224.400 98.251,224.400 98.602 C 224.400 98.742,224.670 98.587,225.000 98.257 C 225.330 97.927,225.600 97.504,225.600 97.317 C 225.600 97.130,225.960 96.717,226.400 96.400 C 226.840 96.083,227.200 95.627,227.200 95.387 C 227.200 95.147,227.515 94.602,227.900 94.175 C 228.285 93.749,229.140 92.630,229.800 91.688 C 230.460 90.747,231.630 89.102,232.400 88.032 C 233.170 86.963,235.324 83.953,237.187 81.344 C 239.050 78.735,240.798 76.368,241.073 76.085 C 241.347 75.802,241.887 75.037,242.272 74.385 C 242.657 73.733,243.114 73.200,243.286 73.200 C 243.459 73.200,243.600 73.019,243.600 72.798 C 243.600 72.577,244.545 71.144,245.700 69.612 C 249.341 64.784,252.088 60.755,251.880 60.547 C 251.769 60.436,250.812 61.573,249.753 63.073 M255.696 80.671 C 255.612 98.664,255.524 101.219,254.971 101.771 C 254.426 102.317,252.357 102.412,239.271 102.493 L 224.200 102.586 239.800 102.793 L 255.400 103.000 255.589 108.600 L 255.777 114.200 255.989 108.600 L 256.200 103.000 260.000 102.777 L 263.800 102.553 260.349 102.477 C 255.605 102.371,256.023 104.413,255.900 80.763 L 255.793 60.200 255.696 80.671 M83.782 93.439 C 101.062 110.730,115.200 124.939,115.200 125.014 C 115.200 125.090,113.516 126.827,111.459 128.876 C 108.015 132.304,103.600 138.075,103.600 139.148 C 103.600 139.397,103.420 139.600,103.200 139.600 C 102.980 139.600,102.800 139.949,102.800 140.376 C 102.800 140.803,102.620 141.264,102.400 141.400 C 102.180 141.536,102.000 142.087,102.000 142.624 C 102.000 143.161,101.820 143.600,101.600 143.600 C 101.380 143.600,101.200 144.039,101.200 144.576 C 101.200 145.113,101.039 145.652,100.842 145.774 C 99.939 146.332,99.146 162.506,99.981 163.341 C 100.212 163.572,100.400 164.356,100.400 165.085 C 100.400 166.359,100.509 166.706,101.538 168.695 C 101.792 169.187,102.000 169.952,102.000 170.395 C 102.000 170.838,102.180 171.200,102.400 171.200 C 102.620 171.200,102.800 171.545,102.800 171.967 C 102.800 172.388,102.935 172.793,103.100 172.867 C 103.265 172.940,103.833 173.855,104.363 174.900 C 104.892 175.945,105.477 176.800,105.663 176.800 C 105.848 176.800,106.000 177.070,106.000 177.400 C 106.000 177.730,106.180 178.000,106.400 178.000 C 106.620 178.000,106.800 178.173,106.800 178.385 C 106.800 178.992,113.547 186.024,120.316 192.473 C 121.859 193.943,123.019 195.248,122.894 195.373 C 122.769 195.498,122.880 195.600,123.140 195.600 C 123.581 195.600,124.504 196.494,126.367 198.726 C 126.792 199.236,127.198 199.603,127.270 199.543 C 127.341 199.483,128.480 200.151,129.800 201.028 C 131.120 201.904,132.740 202.863,133.400 203.157 C 134.060 203.452,134.913 203.852,135.295 204.047 C 135.677 204.241,136.262 204.400,136.595 204.400 C 136.928 204.400,137.200 204.560,137.200 204.755 C 137.200 204.950,137.695 205.211,138.300 205.334 C 138.905 205.458,140.390 205.775,141.600 206.037 C 149.916 207.842,166.262 205.240,169.600 201.581 C 169.710 201.460,170.430 200.926,171.200 200.393 C 171.970 199.860,173.637 198.384,174.905 197.112 C 176.172 195.840,177.393 194.800,177.617 194.800 C 177.842 194.800,178.143 194.485,178.288 194.100 C 178.589 193.298,180.715 191.200,181.226 191.200 C 181.413 191.200,192.624 202.266,206.137 215.791 C 231.538 241.213,232.091 241.834,230.958 243.669 C 230.796 243.931,230.853 244.014,231.093 243.866 C 231.359 243.702,231.597 244.586,231.750 246.304 C 231.882 247.787,232.170 250.260,232.390 251.800 C 232.610 253.340,232.905 255.999,233.047 257.708 C 233.188 259.418,233.460 260.914,233.652 261.032 C 235.421 262.125,231.873 270.076,229.144 271.133 C 228.955 271.207,228.800 271.445,228.800 271.662 C 228.800 272.112,227.797 273.200,227.381 273.200 C 227.046 273.200,224.815 275.689,224.806 276.073 C 224.803 276.223,224.412 276.469,223.938 276.620 C 223.463 276.770,222.651 277.351,222.134 277.909 C 221.616 278.468,221.084 278.818,220.953 278.686 C 220.822 278.555,220.238 278.893,219.657 279.438 C 218.525 280.499,212.919 283.367,211.100 283.816 C 210.495 283.965,210.000 284.247,210.000 284.443 C 210.000 284.640,209.471 284.800,208.824 284.800 C 208.177 284.800,207.536 284.980,207.400 285.200 C 207.264 285.420,206.544 285.600,205.800 285.600 C 205.056 285.600,204.336 285.780,204.200 286.000 C 204.064 286.220,202.624 286.400,201.000 286.400 C 199.376 286.400,197.936 286.580,197.800 286.800 C 197.498 287.288,193.732 287.337,193.435 286.856 C 193.318 286.668,191.914 286.480,190.314 286.440 C 188.715 286.399,187.234 286.194,187.023 285.983 C 186.812 285.772,186.057 285.600,185.344 285.600 C 184.631 285.600,183.936 285.420,183.800 285.200 C 183.664 284.980,183.124 284.800,182.600 284.800 C 182.076 284.800,181.536 284.620,181.400 284.400 C 181.264 284.180,180.848 284.000,180.475 284.000 C 179.099 284.000,166.594 277.256,167.818 277.175 C 168.028 277.161,167.750 276.953,167.200 276.712 C 166.650 276.472,166.086 276.296,165.948 276.322 C 165.809 276.347,165.376 276.015,164.986 275.584 C 164.595 275.153,163.944 274.800,163.538 274.800 C 163.132 274.800,162.800 274.620,162.800 274.400 C 162.800 274.180,162.564 274.000,162.275 274.000 C 161.987 274.000,161.364 273.640,160.892 273.200 C 160.420 272.760,159.756 272.400,159.417 272.400 C 159.078 272.400,158.800 272.250,158.800 272.068 C 158.800 271.885,158.305 271.480,157.700 271.168 C 157.095 270.855,156.251 270.285,155.825 269.900 C 155.398 269.515,154.813 269.200,154.525 269.200 C 154.236 269.200,154.000 269.020,154.000 268.800 C 154.000 268.580,153.812 268.400,153.582 268.400 C 153.352 268.400,151.830 267.500,150.200 266.400 C 148.570 265.300,147.112 264.400,146.961 264.400 C 146.810 264.400,146.128 263.815,145.444 263.100 C 144.761 262.385,144.111 261.843,144.001 261.895 C 143.605 262.083,142.400 261.539,142.400 261.173 C 142.400 260.968,142.124 260.800,141.787 260.800 C 141.451 260.800,141.072 260.531,140.946 260.202 C 140.819 259.874,140.555 259.704,140.358 259.826 C 140.161 259.948,140.000 259.857,140.000 259.624 C 140.000 259.391,139.775 259.200,139.500 259.200 C 139.225 259.199,138.460 258.734,137.800 258.165 C 137.140 257.596,136.105 256.837,135.500 256.479 C 134.895 256.121,134.400 255.686,134.400 255.514 C 134.400 255.341,134.130 255.200,133.800 255.200 C 133.470 255.200,133.200 255.059,133.200 254.886 C 133.200 254.714,132.667 254.257,132.015 253.872 C 131.363 253.487,130.598 252.947,130.315 252.673 C 130.032 252.398,129.170 251.736,128.400 251.200 C 127.630 250.664,126.797 250.040,126.549 249.813 C 126.301 249.586,125.691 249.130,125.194 248.800 C 124.697 248.470,123.909 247.840,123.445 247.400 C 122.980 246.960,121.835 246.102,120.900 245.494 C 119.965 244.886,119.200 244.216,119.200 244.005 C 119.200 243.793,118.692 243.358,118.070 243.036 C 117.449 242.715,116.324 241.876,115.570 241.171 C 114.817 240.466,113.570 239.420,112.800 238.846 C 112.030 238.272,110.950 237.350,110.400 236.797 C 109.850 236.245,108.410 234.988,107.200 234.005 C 105.990 233.023,103.920 231.199,102.600 229.952 C 101.280 228.706,99.575 227.172,98.811 226.543 C 96.324 224.497,82.400 210.496,82.400 210.042 C 82.400 209.799,82.248 209.600,82.062 209.600 C 81.630 209.600,77.822 205.841,76.000 203.615 C 75.230 202.674,74.313 201.611,73.962 201.252 C 73.235 200.510,69.849 196.675,68.500 195.067 C 68.005 194.477,67.600 193.892,67.600 193.768 C 67.600 193.644,67.330 193.273,67.000 192.943 C 66.670 192.613,66.400 192.472,66.400 192.629 C 66.400 192.786,65.735 192.034,64.922 190.958 C 64.109 189.881,63.119 188.709,62.722 188.353 C 62.325 187.997,62.000 187.594,62.000 187.458 C 62.000 187.183,61.037 185.958,59.791 184.650 C 59.347 184.182,58.545 183.170,58.011 182.400 C 57.476 181.630,56.939 180.910,56.817 180.800 C 56.123 180.174,54.400 177.579,54.400 177.160 C 54.400 176.889,54.287 176.780,54.148 176.918 C 54.010 177.057,53.013 175.962,51.932 174.485 C 50.852 173.008,49.705 171.483,49.384 171.095 C 49.063 170.708,48.800 170.258,48.800 170.095 C 48.799 169.933,48.334 169.260,47.765 168.600 C 47.196 167.940,46.437 166.905,46.079 166.300 C 45.721 165.695,45.286 165.200,45.114 165.200 C 44.941 165.200,44.800 164.930,44.800 164.600 C 44.800 164.270,44.662 164.000,44.494 164.000 C 44.326 164.000,43.744 163.280,43.200 162.400 C 42.656 161.520,42.074 160.800,41.906 160.800 C 41.738 160.800,41.600 160.564,41.600 160.275 C 41.600 159.987,41.240 159.364,40.800 158.892 C 40.360 158.420,40.000 157.892,40.000 157.720 C 40.000 157.443,38.604 155.230,36.340 151.916 C 35.933 151.320,35.600 150.645,35.600 150.416 C 35.600 150.187,35.420 150.000,35.200 150.000 C 34.980 150.000,34.800 149.764,34.800 149.475 C 34.800 149.187,34.428 148.552,33.974 148.065 C 33.520 147.577,33.122 146.831,33.090 146.406 C 33.059 145.982,32.959 145.708,32.869 145.798 C 32.618 146.049,31.600 144.919,31.600 144.390 C 31.600 143.867,30.002 141.473,29.514 141.267 C 29.342 141.193,29.200 140.788,29.200 140.367 C 29.200 139.945,29.020 139.600,28.800 139.600 C 28.580 139.600,28.400 139.364,28.400 139.075 C 28.400 138.787,28.040 138.164,27.600 137.692 C 27.160 137.220,26.800 136.571,26.800 136.250 C 26.800 135.929,26.650 135.607,26.466 135.533 C 25.948 135.326,22.517 128.015,21.993 126.000 C 21.736 125.010,21.362 123.887,21.163 123.505 C 20.963 123.123,20.800 122.437,20.800 121.979 C 20.800 121.522,20.640 120.844,20.445 120.474 C 19.312 118.319,19.304 103.400,20.436 102.220 C 20.636 102.011,20.800 101.246,20.800 100.520 C 20.800 99.794,20.991 99.200,21.224 99.200 C 21.457 99.200,21.544 99.033,21.418 98.829 C 21.292 98.625,21.570 97.500,22.037 96.329 C 22.503 95.158,22.928 94.020,22.981 93.800 C 23.218 92.813,23.986 91.256,24.345 91.034 C 24.561 90.900,24.857 90.253,25.001 89.595 C 25.145 88.938,25.429 88.400,25.632 88.400 C 25.834 88.400,26.000 88.130,26.000 87.800 C 26.000 87.470,26.168 87.200,26.373 87.200 C 26.578 87.200,26.860 86.843,26.998 86.406 C 27.471 84.916,36.147 75.200,37.004 75.200 C 37.227 75.200,39.138 73.527,41.350 71.396 C 42.038 70.733,43.230 69.715,44.000 69.133 C 44.770 68.551,46.075 67.428,46.901 66.638 C 47.726 65.847,48.536 65.197,48.701 65.193 C 48.865 65.190,49.707 64.470,50.570 63.593 C 51.434 62.717,52.191 62.000,52.252 62.000 C 52.313 62.000,66.501 76.147,83.782 93.439 M177.600 115.200 C 177.600 115.458,181.875 115.600,189.624 115.600 C 197.537 115.600,201.563 115.463,201.400 115.200 C 201.244 114.948,196.796 114.800,189.376 114.800 C 181.792 114.800,177.600 114.942,177.600 115.200 M300.800 144.400 C 300.800 144.620,301.166 144.800,301.613 144.800 C 302.655 144.800,305.200 147.328,305.200 148.363 C 305.200 148.797,305.380 149.264,305.600 149.400 C 305.864 149.563,306.000 173.141,306.000 218.834 L 306.000 288.020 312.500 287.910 L 319.000 287.800 319.102 256.218 C 319.168 235.965,319.348 224.492,319.602 224.238 C 319.821 224.019,320.000 223.502,320.000 223.089 C 320.000 222.118,322.118 220.000,323.089 220.000 C 323.502 220.000,324.044 219.796,324.293 219.547 C 324.559 219.281,325.047 219.223,325.473 219.407 C 325.873 219.579,326.555 219.788,326.990 219.871 C 328.086 220.081,329.857 221.861,330.238 223.137 C 330.413 223.722,330.656 238.510,330.778 256.000 L 331.000 287.800 337.500 287.910 L 344.000 288.020 344.000 262.386 C 344.000 245.399,344.135 236.836,344.400 237.000 C 344.632 237.143,344.800 236.759,344.800 236.088 C 344.800 234.778,347.063 232.400,348.309 232.400 C 348.711 232.400,349.213 232.227,349.425 232.015 C 350.503 230.937,355.200 234.142,355.200 235.955 C 355.200 236.394,355.380 236.864,355.600 237.000 C 355.860 237.161,356.000 246.141,356.000 262.634 L 356.000 288.020 362.500 287.910 L 369.000 287.800 369.200 268.400 C 369.341 254.714,369.539 248.705,369.872 248.000 C 370.584 246.489,372.210 244.800,372.952 244.800 C 373.314 244.800,373.964 244.580,374.395 244.310 C 375.015 243.923,375.283 243.923,375.670 244.310 C 375.940 244.580,376.492 244.800,376.898 244.800 C 377.891 244.800,379.416 246.385,380.178 248.208 C 380.724 249.516,380.800 253.844,380.800 283.749 C 380.800 318.988,380.759 320.015,379.163 324.397 C 378.643 325.826,374.070 332.892,373.510 333.133 C 373.339 333.207,373.200 333.440,373.200 333.651 C 373.200 334.067,369.369 339.875,368.550 340.702 C 368.276 340.979,367.938 341.564,367.799 342.002 C 367.660 342.441,367.378 342.800,367.173 342.800 C 366.968 342.800,366.800 343.070,366.800 343.400 C 366.800 343.730,366.620 344.000,366.400 344.000 C 366.180 344.000,366.000 344.251,366.000 344.557 C 366.000 344.864,365.719 345.222,365.375 345.354 C 365.031 345.486,364.849 345.755,364.970 345.952 C 365.092 346.148,364.920 346.535,364.588 346.810 C 364.257 347.085,363.699 347.914,363.349 348.652 C 362.999 349.389,362.547 349.891,362.346 349.767 C 362.145 349.642,362.006 349.689,362.037 349.870 C 362.185 350.722,361.957 351.221,361.538 350.962 C 361.282 350.804,361.184 350.850,361.317 351.066 C 361.450 351.281,361.171 352.074,360.698 352.828 C 360.225 353.583,359.829 354.342,359.819 354.515 C 359.809 354.688,359.599 354.958,359.354 355.115 C 359.109 355.272,358.782 355.850,358.629 356.400 C 358.335 357.454,357.743 358.935,357.153 360.095 C 356.959 360.477,356.800 361.321,356.800 361.971 C 356.800 362.621,356.620 363.264,356.400 363.400 C 356.153 363.552,356.000 366.937,356.000 372.224 L 356.000 380.800 318.800 380.800 L 281.600 380.800 281.600 372.824 C 281.600 367.937,281.445 364.751,281.200 364.600 C 280.980 364.464,280.800 363.821,280.800 363.171 C 280.800 362.521,280.620 361.632,280.400 361.195 C 280.180 360.758,279.820 360.042,279.600 359.605 C 279.380 359.168,279.200 358.538,279.200 358.205 C 279.200 357.872,279.020 357.600,278.800 357.600 C 278.580 357.600,278.400 357.240,278.400 356.800 C 278.400 356.360,278.220 356.000,278.000 356.000 C 277.780 356.000,277.600 355.764,277.600 355.475 C 277.600 355.187,277.240 354.564,276.800 354.092 C 276.360 353.620,276.000 353.091,276.000 352.917 C 275.999 352.743,275.553 352.082,275.008 351.448 C 274.463 350.814,274.131 350.111,274.270 349.886 C 274.410 349.661,274.343 349.588,274.122 349.725 C 273.901 349.861,273.483 349.529,273.193 348.986 C 272.902 348.444,272.518 348.000,272.338 348.000 C 272.158 348.000,271.514 347.235,270.906 346.300 C 270.298 345.365,269.611 344.420,269.380 344.200 C 269.148 343.980,268.255 342.900,267.394 341.800 C 266.533 340.700,265.507 339.509,265.114 339.153 C 264.721 338.797,264.400 338.302,264.400 338.053 C 264.400 337.804,264.220 337.600,264.000 337.600 C 263.780 337.600,263.600 337.415,263.600 337.189 C 263.600 336.962,263.060 336.197,262.401 335.489 C 260.265 333.192,258.800 331.305,258.800 330.847 C 258.800 330.601,258.620 330.400,258.400 330.400 C 258.180 330.400,258.036 330.265,258.081 330.100 C 258.125 329.935,257.762 329.035,257.273 328.100 C 256.784 327.165,256.473 326.400,256.582 326.400 C 256.691 326.400,256.619 325.977,256.423 325.460 C 256.226 324.944,256.022 323.549,255.970 322.360 C 255.917 321.172,255.734 319.919,255.563 319.575 C 255.392 319.232,255.170 317.882,255.069 316.575 C 254.968 315.269,254.789 313.930,254.671 313.600 C 254.554 313.270,254.360 312.010,254.241 310.800 C 253.995 308.293,253.318 302.940,252.800 299.400 C 252.607 298.080,252.246 295.470,251.998 293.600 C 251.750 291.730,251.374 288.940,251.162 287.400 C 250.592 283.251,250.075 278.932,249.797 276.000 C 249.661 274.570,249.389 273.040,249.192 272.600 C 248.995 272.160,248.733 270.630,248.610 269.200 C 248.487 267.770,248.285 265.430,248.161 264.000 C 248.037 262.570,247.770 261.229,247.568 261.020 C 247.365 260.811,247.200 259.427,247.200 257.944 C 247.200 256.461,247.020 255.136,246.800 255.000 C 246.580 254.864,246.400 253.503,246.400 251.976 C 246.400 250.392,246.228 249.200,246.000 249.200 C 245.772 249.200,245.600 248.008,245.600 246.424 C 245.600 244.897,245.420 243.536,245.200 243.400 C 244.980 243.264,244.800 241.982,244.800 240.550 C 244.800 239.119,244.603 237.580,244.363 237.131 C 244.047 236.540,244.047 236.193,244.363 235.877 C 244.603 235.637,244.800 235.198,244.800 234.902 C 244.800 234.176,246.617 232.400,247.358 232.400 C 247.685 232.400,248.064 232.220,248.200 232.000 C 249.295 230.229,256.800 232.831,256.800 234.982 C 256.800 235.322,256.980 235.600,257.200 235.600 C 257.422 235.600,257.600 236.659,257.600 237.976 C 257.600 239.283,257.780 240.464,258.000 240.600 C 258.220 240.736,258.400 241.917,258.400 243.224 C 258.400 244.531,258.558 245.600,258.751 245.600 C 258.944 245.600,259.013 246.384,258.905 247.341 C 258.789 248.378,258.919 249.471,259.228 250.041 C 259.514 250.569,259.719 251.982,259.683 253.182 C 259.648 254.382,259.772 255.462,259.959 255.582 C 260.146 255.702,260.399 256.610,260.522 257.600 C 260.787 259.732,261.112 262.066,261.414 264.000 C 262.087 268.310,262.317 270.611,262.110 270.946 C 261.981 271.154,262.084 271.195,262.338 271.038 C 262.651 270.845,262.803 271.179,262.810 272.076 C 262.815 272.804,262.984 274.120,263.185 275.000 C 263.386 275.880,263.607 277.707,263.675 279.060 C 263.744 280.414,263.918 281.448,264.063 281.360 C 264.208 281.271,264.423 282.144,264.543 283.299 C 264.832 286.102,266.102 294.519,266.638 297.193 C 266.792 297.959,267.252 299.180,267.659 299.905 C 268.067 300.631,268.400 301.489,268.400 301.812 C 268.400 302.135,268.580 302.400,268.800 302.400 C 269.020 302.400,269.200 302.670,269.200 303.000 C 269.200 303.330,269.380 303.600,269.600 303.600 C 269.820 303.600,270.000 303.781,270.000 304.003 C 270.000 304.654,275.060 309.600,275.726 309.600 C 276.060 309.600,276.393 309.735,276.467 309.900 C 276.715 310.459,280.070 312.000,281.038 312.000 C 281.567 312.000,282.000 312.180,282.000 312.400 C 282.000 312.649,284.267 312.800,288.000 312.800 L 294.000 312.800 294.000 231.024 C 294.000 176.937,294.135 149.164,294.400 149.000 C 294.620 148.864,294.800 148.487,294.800 148.163 C 294.800 147.397,297.397 144.800,298.163 144.800 C 298.487 144.800,298.864 144.620,299.000 144.400 C 299.136 144.180,299.597 144.000,300.024 144.000 C 300.451 144.000,300.800 144.180,300.800 144.400 M202.800 181.929 C 202.800 182.109,203.745 182.299,204.900 182.351 C 206.055 182.403,207.171 182.615,207.380 182.823 C 207.589 183.030,208.163 183.200,208.656 183.200 C 209.149 183.200,209.664 183.380,209.800 183.600 C 209.936 183.820,210.397 184.000,210.824 184.000 C 211.251 184.000,211.600 184.136,211.600 184.302 C 211.600 184.469,212.099 184.826,212.709 185.096 C 213.866 185.608,219.269 189.965,222.439 192.942 C 223.450 193.892,224.652 194.931,225.111 195.252 C 225.861 195.778,231.262 200.585,233.367 202.600 C 233.826 203.040,235.417 204.376,236.901 205.570 C 238.386 206.763,239.600 207.918,239.600 208.137 C 239.600 208.355,239.708 208.425,239.840 208.293 C 239.973 208.161,240.853 208.806,241.797 209.726 C 242.741 210.647,245.062 212.815,246.956 214.545 C 251.085 218.316,251.103 218.400,247.794 218.400 C 245.205 218.400,242.000 219.118,242.000 219.697 C 242.000 219.864,241.640 220.000,241.200 220.000 C 240.760 220.000,240.400 220.180,240.400 220.400 C 240.400 220.620,240.133 220.800,239.807 220.800 C 239.229 220.800,237.699 221.994,235.730 223.981 L 234.759 224.961 229.421 219.581 C 226.485 216.621,224.182 214.037,224.303 213.838 C 224.424 213.639,224.346 213.586,224.129 213.720 C 223.617 214.037,207.506 197.837,207.900 197.402 C 208.065 197.220,208.009 197.180,207.777 197.312 C 207.544 197.444,204.167 194.361,200.272 190.461 C 192.688 182.866,192.432 182.407,195.780 182.394 C 196.671 182.391,197.670 182.213,198.000 182.000 C 198.729 181.529,202.800 181.468,202.800 181.929 " stroke="none" fill="#44346c" fill-rule="evenodd"></path><path id="path2" d="M65.800 56.000 C 67.106 57.320,68.265 58.400,68.375 58.400 C 68.485 58.400,67.506 57.320,66.200 56.000 C 64.894 54.680,63.735 53.600,63.625 53.600 C 63.515 53.600,64.494 54.680,65.800 56.000 M331.928 55.900 C 337.718 55.962,347.078 55.962,352.728 55.900 C 358.378 55.837,353.640 55.786,342.200 55.786 C 330.760 55.786,326.138 55.837,331.928 55.900 M188.196 57.309 C 185.464 58.422,181.361 62.295,182.115 63.048 C 182.239 63.173,182.620 62.736,182.960 62.077 C 185.762 56.660,193.229 55.625,198.141 59.975 C 199.273 60.978,199.930 61.439,199.601 60.999 C 197.053 57.603,191.715 55.876,188.196 57.309 M188.754 59.329 C 185.662 60.483,181.937 64.473,182.018 66.546 C 182.027 66.796,182.407 66.280,182.861 65.400 C 187.283 56.832,197.687 57.793,200.594 67.038 C 201.412 69.639,201.254 78.371,200.369 79.438 C 200.017 79.861,200.016 80.000,200.365 80.000 C 200.989 80.000,200.381 81.134,198.113 84.200 C 197.137 85.520,196.007 87.050,195.604 87.600 C 195.200 88.150,193.451 90.490,191.716 92.800 C 187.800 98.012,186.688 99.600,186.950 99.600 C 187.063 99.600,188.191 98.205,189.457 96.500 C 190.724 94.795,193.601 90.941,195.851 87.936 C 201.810 79.978,202.389 78.581,202.396 72.150 C 202.401 67.450,202.020 64.735,201.590 66.400 C 201.340 67.367,201.309 67.349,200.671 65.865 C 198.460 60.719,193.021 57.737,188.754 59.329 M250.440 60.900 C 249.901 61.776,249.908 61.781,250.675 61.100 C 252.556 59.429,252.802 60.272,251.138 62.690 C 249.540 65.012,250.184 64.669,251.895 62.286 C 252.598 61.307,253.059 60.393,252.920 60.253 C 252.357 59.690,250.959 60.054,250.440 60.900 M255.500 60.262 L 256.400 60.456 256.400 81.028 C 256.400 92.343,256.535 101.600,256.700 101.600 C 256.865 101.600,256.910 92.285,256.800 80.900 L 256.600 60.200 255.600 60.134 C 254.719 60.077,254.707 60.092,255.500 60.262 M55.000 65.200 C 56.750 66.960,58.271 68.400,58.381 68.400 C 58.491 68.400,57.150 66.960,55.400 65.200 C 53.650 63.440,52.129 62.000,52.019 62.000 C 51.909 62.000,53.250 63.440,55.000 65.200 M200.000 62.129 C 200.000 62.571,201.571 65.300,201.584 64.880 C 201.602 64.302,200.487 62.000,200.190 62.000 C 200.085 62.000,200.000 62.058,200.000 62.129 M249.123 62.700 C 248.102 63.891,245.854 67.337,246.265 67.083 C 246.710 66.808,250.136 62.000,249.888 62.000 C 249.798 62.000,249.454 62.315,249.123 62.700 M247.496 67.700 C 246.321 69.295,244.791 71.410,244.096 72.400 C 243.401 73.390,241.784 75.640,240.501 77.400 C 239.219 79.160,236.753 82.580,235.022 85.000 C 233.290 87.420,231.677 89.660,231.437 89.977 C 231.103 90.418,231.121 90.481,231.516 90.243 C 231.800 90.072,232.464 89.273,232.990 88.466 C 233.517 87.660,235.138 85.380,236.591 83.400 C 238.045 81.420,239.938 78.810,240.799 77.600 C 242.367 75.396,246.079 70.262,248.680 66.700 C 249.444 65.655,249.970 64.800,249.850 64.800 C 249.730 64.800,248.670 66.105,247.496 67.700 M180.676 66.810 C 180.173 68.691,180.351 75.283,180.900 75.102 C 181.434 74.925,182.068 67.572,181.581 67.200 C 181.438 67.090,181.235 66.735,181.130 66.410 C 181.003 66.015,180.853 66.146,180.676 66.810 M244.379 69.300 C 243.705 70.235,242.767 71.508,242.294 72.130 C 241.821 72.751,240.887 74.043,240.217 75.000 C 238.598 77.315,233.304 84.666,232.079 86.300 C 231.544 87.015,231.196 87.600,231.307 87.600 C 231.501 87.600,235.196 82.683,238.031 78.653 C 238.784 77.582,240.030 75.844,240.800 74.791 C 244.146 70.216,245.960 67.600,245.789 67.600 C 245.688 67.600,245.054 68.365,244.379 69.300 M181.093 73.300 C 181.009 74.235,180.940 73.470,180.940 71.600 C 180.940 69.730,181.009 68.965,181.093 69.900 C 181.177 70.835,181.177 72.365,181.093 73.300 M81.800 72.000 C 83.328 73.540,84.669 74.800,84.779 74.800 C 84.889 74.800,83.728 73.540,82.200 72.000 C 80.672 70.460,79.331 69.200,79.221 69.200 C 79.111 69.200,80.272 70.460,81.800 72.000 M71.800 82.000 C 73.328 83.540,74.669 84.800,74.779 84.800 C 74.889 84.800,73.728 83.540,72.200 82.000 C 70.672 80.460,69.331 79.200,69.221 79.200 C 69.111 79.200,70.272 80.460,71.800 82.000 M198.989 80.915 C 198.162 81.892,196.751 84.000,196.925 84.000 C 197.023 84.000,197.767 83.190,198.579 82.200 C 199.390 81.210,199.907 80.407,199.727 80.415 C 199.547 80.424,199.215 80.649,198.989 80.915 M96.200 86.400 C 97.950 88.160,99.471 89.600,99.581 89.600 C 99.691 89.600,98.350 88.160,96.600 86.400 C 94.850 84.640,93.329 83.200,93.219 83.200 C 93.109 83.200,94.450 84.640,96.200 86.400 M195.511 85.500 C 195.147 86.105,194.490 87.050,194.051 87.600 C 193.612 88.150,192.396 89.770,191.348 91.200 C 189.736 93.401,181.041 105.150,179.878 106.700 C 179.671 106.975,179.597 107.200,179.712 107.200 C 179.828 107.200,183.301 102.655,187.430 97.100 C 191.559 91.545,195.378 86.415,195.916 85.700 C 196.455 84.985,196.732 84.400,196.534 84.400 C 196.335 84.400,195.875 84.895,195.511 85.500 M230.323 88.700 C 229.302 89.891,227.054 93.337,227.465 93.083 C 227.910 92.808,231.336 88.000,231.088 88.000 C 230.998 88.000,230.654 88.315,230.323 88.700 M229.890 92.100 C 226.118 97.260,224.329 99.597,223.991 99.805 C 223.024 100.403,223.756 98.488,225.387 96.156 C 226.369 94.750,227.044 93.604,226.887 93.608 C 226.116 93.631,223.145 98.927,223.380 99.861 C 223.691 101.103,224.050 100.858,225.990 98.075 C 226.862 96.824,228.401 94.675,229.411 93.300 C 230.421 91.925,231.156 90.800,231.044 90.800 C 230.932 90.800,230.413 91.385,229.890 92.100 M86.200 96.400 C 87.950 98.160,89.471 99.600,89.581 99.600 C 89.691 99.600,88.350 98.160,86.600 96.400 C 84.850 94.640,83.329 93.200,83.219 93.200 C 83.109 93.200,84.450 94.640,86.200 96.400 M184.910 101.907 C 184.201 102.948,183.066 104.565,182.388 105.500 C 181.711 106.435,181.234 107.200,181.330 107.200 C 181.426 107.200,182.278 106.165,183.224 104.900 C 184.170 103.635,185.383 102.015,185.920 101.300 C 186.456 100.585,186.739 100.003,186.547 100.007 C 186.356 100.011,185.620 100.866,184.910 101.907 M114.200 104.400 C 116.392 106.600,118.275 108.400,118.385 108.400 C 118.495 108.400,116.792 106.600,114.600 104.400 C 112.408 102.200,110.525 100.400,110.415 100.400 C 110.305 100.400,112.008 102.200,114.200 104.400 M239.000 101.593 C 225.557 101.771,223.400 101.882,223.400 102.395 C 223.400 102.722,223.719 103.018,224.108 103.054 C 224.603 103.099,224.633 103.062,224.208 102.930 C 221.876 102.206,225.153 102.000,238.976 102.000 C 248.796 102.000,254.442 101.855,254.600 101.600 C 254.736 101.380,254.792 101.242,254.724 101.293 C 254.656 101.344,247.580 101.479,239.000 101.593 M260.736 101.898 C 263.460 102.009,264.032 102.141,263.849 102.617 C 263.726 102.938,263.799 103.200,264.013 103.200 C 264.226 103.200,264.400 102.840,264.400 102.400 C 264.400 101.655,264.160 101.606,260.900 101.681 L 257.400 101.763 260.736 101.898 M256.400 108.533 C 256.400 114.015,256.262 114.716,255.337 113.948 C 254.999 113.667,254.800 113.653,254.800 113.908 C 254.800 114.550,255.900 114.803,256.347 114.263 C 256.816 113.699,257.151 103.198,256.700 103.199 C 256.535 103.200,256.400 105.600,256.400 108.533 M178.220 108.938 C 177.167 110.319,176.824 112.192,177.678 111.907 C 178.275 111.708,181.348 107.600,180.900 107.600 C 180.720 107.600,180.280 108.095,179.921 108.700 C 179.563 109.305,178.895 110.233,178.435 110.761 C 177.158 112.231,177.319 110.644,178.620 108.938 C 179.182 108.202,179.551 107.600,179.441 107.600 C 179.331 107.600,178.782 108.202,178.220 108.938 M104.200 114.400 C 106.392 116.600,108.275 118.400,108.385 118.400 C 108.495 118.400,106.792 116.600,104.600 114.400 C 102.408 112.200,100.525 110.400,100.415 110.400 C 100.305 110.400,102.008 112.200,104.200 114.400 M177.472 114.261 C 177.323 114.411,177.203 114.728,177.206 114.967 C 177.210 115.220,177.346 115.189,177.533 114.894 C 178.111 113.984,201.749 114.388,201.926 115.311 C 202.055 115.982,201.364 116.016,189.631 115.911 C 182.794 115.850,177.200 115.938,177.200 116.106 C 177.200 116.274,182.825 116.364,189.700 116.306 L 202.200 116.200 202.200 115.200 L 202.200 114.200 189.972 114.094 C 183.247 114.036,177.622 114.111,177.472 114.261 M110.975 128.900 L 109.800 130.200 111.100 129.025 C 111.815 128.379,112.400 127.794,112.400 127.725 C 112.400 127.416,112.070 127.688,110.975 128.900 M132.400 185.000 C 133.595 186.210,134.663 187.200,134.773 187.200 C 134.883 187.200,133.995 186.210,132.800 185.000 C 131.605 183.790,130.537 182.800,130.427 182.800 C 130.317 182.800,131.205 183.790,132.400 185.000 M186.200 196.400 C 187.950 198.160,189.471 199.600,189.581 199.600 C 189.691 199.600,188.350 198.160,186.600 196.400 C 184.850 194.640,183.329 193.200,183.219 193.200 C 183.109 193.200,184.450 194.640,186.200 196.400 M204.200 214.400 C 206.392 216.600,208.275 218.400,208.385 218.400 C 208.495 218.400,206.792 216.600,204.600 214.400 C 202.408 212.200,200.525 210.400,200.415 210.400 C 200.305 210.400,202.008 212.200,204.200 214.400 M233.558 223.688 C 234.396 224.639,235.200 224.845,235.200 224.110 C 235.200 223.976,235.078 223.988,234.930 224.137 C 234.781 224.286,234.196 224.001,233.630 223.504 L 232.600 222.600 233.558 223.688 M221.800 232.000 C 223.328 233.540,224.669 234.800,224.779 234.800 C 224.889 234.800,223.728 233.540,222.200 232.000 C 220.672 230.460,219.331 229.200,219.221 229.200 C 219.111 229.200,220.272 230.460,221.800 232.000 " stroke="none" fill="#241c37" fill-rule="evenodd"></path><path id="path3" d="M254.800 81.080 C 254.690 92.564,254.737 101.824,254.904 101.657 C 255.071 101.489,255.161 92.093,255.104 80.776 L 255.000 60.200 254.800 81.080 M256.186 80.800 C 256.186 92.130,256.237 96.765,256.300 91.100 C 256.362 85.435,256.362 76.165,256.300 70.500 C 256.237 64.835,256.186 69.470,256.186 80.800 M181.200 66.200 C 181.200 66.750,181.355 67.200,181.545 67.200 C 181.734 67.200,181.803 66.750,181.698 66.200 C 181.593 65.650,181.438 65.200,181.353 65.200 C 181.269 65.200,181.200 65.650,181.200 66.200 M180.940 71.600 C 180.940 73.470,181.009 74.235,181.093 73.300 C 181.177 72.365,181.177 70.835,181.093 69.900 C 181.009 68.965,180.940 69.730,180.940 71.600 M239.688 103.097 L 254.777 103.210 254.906 108.305 L 255.035 113.400 255.017 108.200 L 255.000 103.000 239.800 102.993 L 224.600 102.985 239.688 103.097 M258.512 103.095 C 259.564 103.177,261.184 103.176,262.112 103.092 C 263.040 103.008,262.180 102.941,260.200 102.942 C 258.220 102.943,257.460 103.012,258.512 103.095 M255.998 108.881 C 255.889 111.896,255.941 114.221,256.112 114.049 C 256.284 113.876,256.374 111.410,256.311 108.568 L 256.197 103.400 255.998 108.881 M122.400 137.400 C 121.428 138.390,120.723 139.200,120.833 139.200 C 120.943 139.200,121.828 138.390,122.800 137.400 C 123.772 136.410,124.477 135.600,124.367 135.600 C 124.257 135.600,123.372 136.410,122.400 137.400 M179.375 192.900 L 178.200 194.200 179.500 193.025 C 180.712 191.930,180.984 191.600,180.675 191.600 C 180.606 191.600,180.021 192.185,179.375 192.900 M205.200 195.400 C 207.060 197.270,208.672 198.800,208.782 198.800 C 208.892 198.800,207.460 197.270,205.600 195.400 C 203.740 193.530,202.128 192.000,202.018 192.000 C 201.908 192.000,203.340 193.530,205.200 195.400 M219.200 209.310 C 219.200 209.371,220.595 210.766,222.300 212.410 L 225.400 215.400 222.410 212.300 C 219.633 209.421,219.200 209.017,219.200 209.310 " stroke="none" fill="#312450" fill-rule="evenodd"></path><path id="path4" d="M198.000 61.800 C 198.746 62.570,199.447 63.200,199.557 63.200 C 199.667 63.200,199.146 62.570,198.400 61.800 C 197.654 61.030,196.953 60.400,196.843 60.400 C 196.733 60.400,197.254 61.030,198.000 61.800 M255.386 80.800 C 255.386 92.130,255.437 96.765,255.500 91.100 C 255.562 85.435,255.562 76.165,255.500 70.500 C 255.437 64.835,255.386 69.470,255.386 80.800 M184.412 61.788 C 183.901 62.331,183.342 62.688,183.169 62.581 C 182.997 62.474,182.761 62.540,182.645 62.727 C 182.126 63.566,183.687 62.953,184.664 61.933 C 185.261 61.310,185.657 60.800,185.545 60.800 C 185.432 60.800,184.922 61.244,184.412 61.788 M181.784 64.946 C 181.630 65.766,181.616 66.549,181.752 66.685 C 181.888 66.822,182.000 66.579,182.000 66.147 C 182.000 65.714,182.173 65.187,182.383 64.977 C 182.609 64.751,182.622 64.360,182.415 64.024 C 182.159 63.611,181.987 63.862,181.784 64.946 M200.457 65.220 C 200.920 66.108,201.367 66.766,201.451 66.682 C 201.753 66.381,200.588 63.798,200.108 63.703 C 199.795 63.641,199.923 64.195,200.457 65.220 M198.637 82.200 C 198.276 82.750,198.145 83.200,198.345 83.200 C 198.545 83.200,199.003 82.750,199.363 82.200 C 199.724 81.650,199.855 81.200,199.655 81.200 C 199.455 81.200,198.997 81.650,198.637 82.200 M197.280 84.080 C 196.670 84.690,196.664 85.200,197.267 85.200 C 197.523 85.200,197.616 85.083,197.473 84.940 C 197.330 84.796,197.525 84.442,197.906 84.152 C 198.288 83.863,198.411 83.620,198.180 83.613 C 197.949 83.606,197.544 83.816,197.280 84.080 M233.796 86.007 C 233.658 86.230,233.390 86.317,233.200 86.200 C 233.010 86.083,232.725 86.198,232.566 86.455 C 232.372 86.769,232.451 86.816,232.806 86.596 C 233.191 86.358,233.266 86.451,233.081 86.934 C 232.711 87.898,233.009 87.752,233.763 86.600 C 234.124 86.050,234.335 85.600,234.233 85.600 C 234.131 85.600,233.934 85.783,233.796 86.007 M194.602 87.598 C 193.931 88.340,193.928 88.400,194.562 88.400 C 194.939 88.400,195.145 88.235,195.021 88.034 C 194.897 87.833,195.021 87.588,195.298 87.489 C 195.574 87.390,195.694 87.194,195.564 87.052 C 195.435 86.911,195.002 87.156,194.602 87.598 M190.073 93.687 C 189.813 93.947,189.600 94.385,189.600 94.660 C 189.600 94.935,189.285 95.344,188.900 95.568 C 188.279 95.930,188.274 95.977,188.857 95.988 C 189.469 95.999,189.875 95.484,189.915 94.645 C 189.924 94.449,190.167 94.144,190.454 93.966 C 190.742 93.789,190.880 93.547,190.762 93.428 C 190.643 93.310,190.334 93.426,190.073 93.687 M185.022 100.553 C 183.800 102.177,182.800 103.606,182.800 103.728 C 182.800 103.851,182.260 104.542,181.600 105.264 C 180.940 105.987,180.400 106.743,180.400 106.945 C 180.400 107.147,180.085 107.551,179.700 107.843 C 179.073 108.319,179.068 108.376,179.657 108.387 C 180.202 108.398,180.987 107.351,180.799 106.864 C 180.770 106.789,181.004 106.519,181.318 106.264 C 182.319 105.450,188.045 97.600,187.637 97.600 C 187.421 97.600,186.245 98.929,185.022 100.553 M256.345 101.672 C 256.873 102.372,264.003 102.957,264.001 102.300 C 264.000 102.135,262.416 102.000,260.480 102.000 C 258.230 102.000,256.758 101.820,256.399 101.500 C 255.925 101.077,255.917 101.104,256.345 101.672 M224.000 102.300 C 223.999 102.573,235.487 102.567,249.200 102.286 C 252.170 102.225,247.715 102.136,239.300 102.088 C 230.885 102.039,224.000 102.135,224.000 102.300 M255.198 108.519 L 255.397 114.200 255.511 108.832 C 255.573 105.880,255.484 103.323,255.312 103.151 C 255.140 102.978,255.089 105.394,255.198 108.519 M189.186 114.700 C 196.228 114.767,201.131 114.971,201.366 115.206 C 201.625 115.465,197.573 115.632,189.580 115.694 L 177.400 115.787 189.195 115.900 C 201.701 116.019,202.403 115.968,201.596 114.995 C 201.176 114.489,199.335 114.414,189.251 114.494 L 177.400 114.587 189.186 114.700 " stroke="none" fill="#342c54" fill-rule="evenodd"></path></g></svg>