<svg id="svg" version="1.1" xmlns="http://www.w3.org/2000/svg" xmlns:xlink="http://www.w3.org/1999/xlink" width="400" height="400" viewBox="0, 0, 400,400"><g id="svgg"><path id="path0" d="M179.003 0.275 C 177.025 0.362,175.234 0.606,175.023 0.817 C 174.812 1.028,173.427 1.200,171.944 1.200 C 170.461 1.200,169.136 1.380,169.000 1.600 C 168.864 1.820,167.773 2.000,166.576 2.000 C 165.379 2.000,164.400 2.180,164.400 2.400 C 164.400 2.620,163.410 2.800,162.200 2.800 C 160.990 2.800,160.000 2.980,160.000 3.200 C 160.000 3.420,159.280 3.600,158.400 3.600 C 157.520 3.600,156.800 3.780,156.800 4.000 C 156.800 4.220,156.001 4.400,155.024 4.400 C 154.047 4.400,153.136 4.580,153.000 4.800 C 152.864 5.020,152.043 5.200,151.176 5.200 C 150.309 5.200,149.600 5.380,149.600 5.600 C 149.600 5.820,149.060 6.000,148.400 6.000 C 147.740 6.000,147.200 6.180,147.200 6.400 C 147.200 6.620,146.480 6.800,145.600 6.800 C 144.720 6.800,144.000 6.980,144.000 7.200 C 144.000 7.420,143.460 7.600,142.800 7.600 C 142.140 7.600,141.600 7.780,141.600 8.000 C 141.600 8.220,140.981 8.400,140.224 8.400 C 139.467 8.400,138.734 8.583,138.596 8.807 C 138.458 9.030,138.214 9.133,138.055 9.034 C 137.738 8.838,132.575 10.492,132.138 10.929 C 131.989 11.078,131.447 11.200,130.933 11.200 C 130.420 11.200,130.000 11.380,130.000 11.600 C 130.000 11.820,129.645 12.000,129.212 12.000 C 128.779 12.000,127.783 12.360,127.000 12.800 C 126.217 13.240,125.221 13.600,124.788 13.600 C 124.355 13.600,124.000 13.780,124.000 14.000 C 124.000 14.220,123.651 14.400,123.224 14.400 C 122.797 14.400,122.336 14.580,122.200 14.800 C 122.064 15.020,121.513 15.200,120.976 15.200 C 120.439 15.200,120.000 15.380,120.000 15.600 C 120.000 15.820,119.640 16.000,119.200 16.000 C 118.760 16.000,118.400 16.180,118.400 16.400 C 118.400 16.620,118.040 16.800,117.600 16.800 C 117.160 16.800,116.800 16.980,116.800 17.200 C 116.800 17.420,116.440 17.600,116.000 17.600 C 115.560 17.600,115.200 17.780,115.200 18.000 C 115.200 18.220,114.750 18.400,114.200 18.400 C 113.650 18.400,113.200 18.580,113.200 18.800 C 113.200 19.020,112.840 19.200,112.400 19.200 C 111.960 19.200,111.600 19.380,111.600 19.600 C 111.600 19.820,111.240 20.000,110.800 20.000 C 110.360 20.000,110.000 20.145,110.000 20.321 C 110.000 20.498,109.103 21.083,108.006 21.621 C 106.910 22.160,106.010 22.735,106.006 22.900 C 106.003 23.065,105.629 23.200,105.176 23.200 C 104.723 23.200,104.464 23.380,104.600 23.600 C 104.740 23.827,104.404 24.000,103.824 24.000 C 103.261 24.000,102.800 24.180,102.800 24.400 C 102.800 24.620,102.566 24.800,102.280 24.800 C 101.520 24.800,99.607 25.746,99.603 26.124 C 99.601 26.302,99.420 26.336,99.200 26.200 C 98.980 26.064,98.800 26.244,98.800 26.600 C 98.800 26.956,98.637 27.147,98.438 27.023 C 98.014 26.761,94.800 28.396,94.800 28.874 C 94.800 29.053,94.564 29.200,94.275 29.200 C 93.987 29.200,93.364 29.560,92.892 30.000 C 92.420 30.440,91.846 30.800,91.617 30.800 C 91.388 30.800,91.200 30.980,91.200 31.200 C 91.200 31.420,90.964 31.600,90.675 31.600 C 90.387 31.600,89.764 31.960,89.292 32.400 C 88.820 32.840,88.244 33.200,88.013 33.200 C 87.782 33.200,87.028 33.740,86.337 34.400 C 85.646 35.060,84.878 35.600,84.629 35.600 C 84.380 35.600,83.917 35.960,83.600 36.400 C 83.283 36.840,82.743 37.200,82.400 37.200 C 82.057 37.200,81.517 37.560,81.200 38.000 C 80.883 38.440,80.393 38.800,80.112 38.800 C 79.830 38.800,79.600 38.980,79.600 39.200 C 79.600 39.420,79.402 39.600,79.160 39.600 C 78.919 39.600,78.217 40.140,77.600 40.800 C 76.983 41.460,76.326 42.002,76.140 42.003 C 75.953 42.005,75.137 42.635,74.327 43.403 C 73.516 44.172,72.677 44.800,72.462 44.800 C 72.246 44.800,70.973 45.880,69.632 47.200 C 68.292 48.520,67.030 49.600,66.828 49.600 C 66.627 49.600,64.693 51.393,62.531 53.584 C 57.759 58.421,58.421 57.759,53.584 62.531 C 51.393 64.693,49.600 66.627,49.600 66.828 C 49.600 67.030,48.520 68.292,47.200 69.632 C 45.880 70.973,44.800 72.246,44.800 72.462 C 44.800 72.677,44.172 73.516,43.403 74.327 C 42.635 75.137,42.005 75.953,42.003 76.140 C 42.002 76.326,41.460 76.983,40.800 77.600 C 40.140 78.217,39.600 78.919,39.600 79.160 C 39.600 79.402,39.420 79.600,39.200 79.600 C 38.980 79.600,38.800 79.830,38.800 80.112 C 38.800 80.393,38.440 80.883,38.000 81.200 C 37.560 81.517,37.200 82.057,37.200 82.400 C 37.200 82.743,36.840 83.283,36.400 83.600 C 35.960 83.917,35.600 84.380,35.600 84.629 C 35.600 84.878,35.060 85.646,34.400 86.337 C 33.740 87.028,33.200 87.782,33.200 88.013 C 33.200 88.244,32.840 88.820,32.400 89.292 C 31.960 89.764,31.600 90.387,31.600 90.675 C 31.600 90.964,31.420 91.200,31.200 91.200 C 30.980 91.200,30.800 91.388,30.800 91.617 C 30.800 91.846,30.440 92.420,30.000 92.892 C 29.560 93.364,29.200 93.987,29.200 94.275 C 29.200 94.564,29.053 94.800,28.874 94.800 C 28.396 94.800,26.761 98.014,27.023 98.438 C 27.147 98.637,26.956 98.800,26.600 98.800 C 26.244 98.800,26.064 98.980,26.200 99.200 C 26.336 99.420,26.302 99.601,26.124 99.603 C 25.746 99.607,24.800 101.520,24.800 102.280 C 24.800 102.566,24.620 102.800,24.400 102.800 C 24.180 102.800,24.000 103.261,24.000 103.824 C 24.000 104.404,23.827 104.740,23.600 104.600 C 23.380 104.464,23.200 104.723,23.200 105.176 C 23.200 105.629,23.065 106.003,22.900 106.006 C 22.735 106.010,22.160 106.910,21.621 108.006 C 21.083 109.103,20.498 110.000,20.321 110.000 C 20.145 110.000,20.000 110.360,20.000 110.800 C 20.000 111.240,19.820 111.600,19.600 111.600 C 19.380 111.600,19.200 111.960,19.200 112.400 C 19.200 112.840,19.020 113.200,18.800 113.200 C 18.580 113.200,18.400 113.650,18.400 114.200 C 18.400 114.750,18.220 115.200,18.000 115.200 C 17.780 115.200,17.600 115.560,17.600 116.000 C 17.600 116.440,17.420 116.800,17.200 116.800 C 16.980 116.800,16.800 117.160,16.800 117.600 C 16.800 118.040,16.620 118.400,16.400 118.400 C 16.180 118.400,16.000 118.760,16.000 119.200 C 16.000 119.640,15.820 120.000,15.600 120.000 C 15.380 120.000,15.200 120.439,15.200 120.976 C 15.200 121.513,15.020 122.064,14.800 122.200 C 14.580 122.336,14.400 122.797,14.400 123.224 C 14.400 123.651,14.220 124.000,14.000 124.000 C 13.780 124.000,13.600 124.355,13.600 124.788 C 13.600 125.221,13.240 126.217,12.800 127.000 C 12.360 127.783,12.000 128.779,12.000 129.212 C 12.000 129.645,11.820 130.000,11.600 130.000 C 11.380 130.000,11.200 130.420,11.200 130.933 C 11.200 131.447,11.078 131.989,10.929 132.138 C 10.492 132.575,8.838 137.738,9.034 138.055 C 9.133 138.214,9.030 138.458,8.807 138.596 C 8.583 138.734,8.400 139.467,8.400 140.224 C 8.400 140.981,8.220 141.600,8.000 141.600 C 7.780 141.600,7.600 142.140,7.600 142.800 C 7.600 143.460,7.420 144.000,7.200 144.000 C 6.980 144.000,6.800 144.720,6.800 145.600 C 6.800 146.480,6.620 147.200,6.400 147.200 C 6.180 147.200,6.000 147.740,6.000 148.400 C 6.000 149.060,5.820 149.600,5.600 149.600 C 5.380 149.600,5.200 150.309,5.200 151.176 C 5.200 152.043,5.020 152.864,4.800 153.000 C 4.580 153.136,4.400 154.047,4.400 155.024 C 4.400 156.001,4.220 156.800,4.000 156.800 C 3.780 156.800,3.600 157.520,3.600 158.400 C 3.600 159.280,3.420 160.000,3.200 160.000 C 2.980 160.000,2.800 160.990,2.800 162.200 C 2.800 163.410,2.620 164.400,2.400 164.400 C 2.180 164.400,2.000 165.379,2.000 166.576 C 2.000 167.773,1.820 168.864,1.600 169.000 C 1.380 169.136,1.200 170.461,1.200 171.944 C 1.200 173.567,1.001 174.839,0.700 175.140 C -0.029 175.869,-0.029 224.131,0.700 224.860 C 1.001 225.161,1.200 226.433,1.200 228.056 C 1.200 229.539,1.380 230.864,1.600 231.000 C 1.820 231.136,2.000 232.227,2.000 233.424 C 2.000 234.621,2.180 235.600,2.400 235.600 C 2.620 235.600,2.800 236.590,2.800 237.800 C 2.800 239.010,2.980 240.000,3.200 240.000 C 3.420 240.000,3.600 240.720,3.600 241.600 C 3.600 242.480,3.780 243.200,4.000 243.200 C 4.220 243.200,4.400 243.999,4.400 244.976 C 4.400 245.953,4.580 246.864,4.800 247.000 C 5.020 247.136,5.200 247.957,5.200 248.824 C 5.200 249.691,5.380 250.400,5.600 250.400 C 5.820 250.400,6.000 250.940,6.000 251.600 C 6.000 252.260,6.180 252.800,6.400 252.800 C 6.620 252.800,6.800 253.520,6.800 254.400 C 6.800 255.280,6.980 256.000,7.200 256.000 C 7.420 256.000,7.600 256.540,7.600 257.200 C 7.600 257.860,7.780 258.400,8.000 258.400 C 8.220 258.400,8.400 259.019,8.400 259.776 C 8.400 260.533,8.583 261.266,8.807 261.404 C 9.030 261.542,9.133 261.786,9.034 261.945 C 8.838 262.262,10.492 267.425,10.929 267.862 C 11.078 268.011,11.200 268.553,11.200 269.067 C 11.200 269.580,11.380 270.000,11.600 270.000 C 11.820 270.000,12.000 270.355,12.000 270.788 C 12.000 271.221,12.360 272.217,12.800 273.000 C 13.240 273.783,13.600 274.779,13.600 275.212 C 13.600 275.645,13.780 276.000,14.000 276.000 C 14.220 276.000,14.400 276.349,14.400 276.776 C 14.400 277.203,14.580 277.664,14.800 277.800 C 15.020 277.936,15.200 278.487,15.200 279.024 C 15.200 279.561,15.380 280.000,15.600 280.000 C 15.820 280.000,16.000 280.360,16.000 280.800 C 16.000 281.240,16.180 281.600,16.400 281.600 C 16.620 281.600,16.800 281.960,16.800 282.400 C 16.800 282.840,16.980 283.200,17.200 283.200 C 17.420 283.200,17.600 283.560,17.600 284.000 C 17.600 284.440,17.780 284.800,18.000 284.800 C 18.220 284.800,18.400 285.250,18.400 285.800 C 18.400 286.350,18.580 286.800,18.800 286.800 C 19.020 286.800,19.200 287.160,19.200 287.600 C 19.200 288.040,19.380 288.400,19.600 288.400 C 19.820 288.400,20.000 288.760,20.000 289.200 C 20.000 289.640,20.145 290.000,20.321 290.000 C 20.498 290.000,21.083 290.897,21.621 291.994 C 22.160 293.090,22.735 293.990,22.900 293.994 C 23.065 293.997,23.200 294.360,23.200 294.800 C 23.200 295.240,23.380 295.600,23.600 295.600 C 23.820 295.600,24.000 295.960,24.000 296.400 C 24.000 296.840,24.180 297.200,24.400 297.200 C 24.620 297.200,24.800 297.434,24.800 297.720 C 24.800 298.480,25.746 300.393,26.124 300.397 C 26.302 300.399,26.336 300.580,26.200 300.800 C 26.064 301.020,26.244 301.200,26.600 301.200 C 26.956 301.200,27.147 301.363,27.023 301.562 C 26.761 301.986,28.396 305.200,28.874 305.200 C 29.053 305.200,29.200 305.436,29.200 305.725 C 29.200 306.013,29.560 306.636,30.000 307.108 C 30.440 307.580,30.800 308.154,30.800 308.383 C 30.800 308.612,30.980 308.800,31.200 308.800 C 31.420 308.800,31.600 309.036,31.600 309.325 C 31.600 309.613,31.960 310.236,32.400 310.708 C 32.840 311.180,33.200 311.756,33.200 311.987 C 33.200 312.218,33.740 312.972,34.400 313.663 C 35.060 314.354,35.600 315.122,35.600 315.371 C 35.600 315.620,35.960 316.083,36.400 316.400 C 36.840 316.717,37.200 317.257,37.200 317.600 C 37.200 317.943,37.560 318.483,38.000 318.800 C 38.440 319.117,38.800 319.607,38.800 319.888 C 38.800 320.170,38.980 320.400,39.200 320.400 C 39.420 320.400,39.600 320.598,39.600 320.840 C 39.600 321.081,40.140 321.783,40.800 322.400 C 41.460 323.017,42.002 323.674,42.003 323.860 C 42.005 324.047,42.635 324.863,43.403 325.673 C 44.172 326.484,44.800 327.323,44.800 327.538 C 44.800 327.754,45.880 329.027,47.200 330.368 C 48.520 331.708,49.600 332.974,49.600 333.180 C 49.600 333.386,51.390 335.320,53.579 337.478 C 58.410 342.241,57.759 341.590,62.522 346.421 C 64.680 348.610,66.614 350.400,66.820 350.400 C 67.026 350.400,68.292 351.480,69.632 352.800 C 70.973 354.120,72.258 355.200,72.488 355.200 C 72.718 355.200,73.197 355.524,73.553 355.921 C 73.909 356.317,74.920 357.170,75.800 357.816 C 76.680 358.462,77.691 359.308,78.047 359.696 C 78.403 360.083,78.898 360.400,79.147 360.400 C 79.396 360.400,79.600 360.580,79.600 360.800 C 79.600 361.020,79.830 361.200,80.112 361.200 C 80.393 361.200,80.883 361.560,81.200 362.000 C 81.517 362.440,82.057 362.800,82.400 362.800 C 82.743 362.800,83.283 363.160,83.600 363.600 C 83.917 364.040,84.380 364.400,84.629 364.400 C 84.878 364.400,85.646 364.940,86.337 365.600 C 87.028 366.260,87.782 366.800,88.013 366.800 C 88.244 366.800,88.820 367.160,89.292 367.600 C 89.764 368.040,90.387 368.400,90.675 368.400 C 90.964 368.400,91.200 368.580,91.200 368.800 C 91.200 369.020,91.388 369.200,91.617 369.200 C 91.846 369.200,92.420 369.560,92.892 370.000 C 93.364 370.440,93.987 370.800,94.275 370.800 C 94.564 370.800,94.800 370.952,94.800 371.137 C 94.800 371.323,95.655 371.905,96.700 372.432 C 97.745 372.958,98.690 373.502,98.800 373.639 C 99.168 374.099,101.553 375.200,102.180 375.200 C 102.521 375.200,102.800 375.380,102.800 375.600 C 102.800 375.820,103.160 376.000,103.600 376.000 C 104.040 376.000,104.400 376.180,104.400 376.400 C 104.400 376.620,104.760 376.800,105.200 376.800 C 105.640 376.800,106.003 376.935,106.006 377.100 C 106.010 377.265,106.910 377.840,108.006 378.379 C 109.103 378.917,110.000 379.502,110.000 379.679 C 110.000 379.855,110.360 380.000,110.800 380.000 C 111.240 380.000,111.600 380.180,111.600 380.400 C 111.600 380.620,111.960 380.800,112.400 380.800 C 112.840 380.800,113.200 380.980,113.200 381.200 C 113.200 381.420,113.650 381.600,114.200 381.600 C 114.750 381.600,115.200 381.780,115.200 382.000 C 115.200 382.220,115.560 382.400,116.000 382.400 C 116.440 382.400,116.800 382.580,116.800 382.800 C 116.800 383.020,117.160 383.200,117.600 383.200 C 118.040 383.200,118.400 383.380,118.400 383.600 C 118.400 383.820,118.760 384.000,119.200 384.000 C 119.640 384.000,120.000 384.180,120.000 384.400 C 120.000 384.620,120.439 384.800,120.976 384.800 C 121.513 384.800,122.064 384.980,122.200 385.200 C 122.336 385.420,122.797 385.600,123.224 385.600 C 123.651 385.600,124.000 385.780,124.000 386.000 C 124.000 386.220,124.355 386.400,124.788 386.400 C 125.221 386.400,126.217 386.760,127.000 387.200 C 127.783 387.640,128.779 388.000,129.212 388.000 C 129.645 388.000,130.000 388.180,130.000 388.400 C 130.000 388.620,130.362 388.800,130.805 388.800 C 131.248 388.800,131.923 388.976,132.305 389.191 C 133.632 389.938,139.224 391.600,140.408 391.600 C 141.064 391.600,141.600 391.780,141.600 392.000 C 141.600 392.220,142.140 392.400,142.800 392.400 C 143.460 392.400,144.000 392.580,144.000 392.800 C 144.000 393.020,144.720 393.200,145.600 393.200 C 146.480 393.200,147.200 393.380,147.200 393.600 C 147.200 393.820,147.740 394.000,148.400 394.000 C 149.060 394.000,149.600 394.180,149.600 394.400 C 149.600 394.620,150.399 394.800,151.376 394.800 C 152.353 394.800,153.264 394.980,153.400 395.200 C 153.536 395.420,154.357 395.600,155.224 395.600 C 156.091 395.600,156.800 395.780,156.800 396.000 C 156.800 396.220,157.520 396.400,158.400 396.400 C 159.280 396.400,160.000 396.563,160.000 396.762 C 160.000 396.960,160.942 397.131,162.093 397.139 C 163.244 397.148,164.249 397.346,164.326 397.578 C 164.404 397.811,165.528 398.000,166.833 398.000 C 168.144 398.000,169.200 398.178,169.200 398.400 C 169.200 398.627,170.373 398.800,171.920 398.800 C 173.563 398.800,174.838 398.998,175.140 399.300 C 175.529 399.689,181.045 399.800,200.000 399.800 C 218.955 399.800,224.471 399.689,224.860 399.300 C 225.162 398.998,226.437 398.800,228.080 398.800 C 229.627 398.800,230.800 398.627,230.800 398.400 C 230.800 398.178,231.867 398.000,233.200 398.000 C 234.533 398.000,235.600 397.822,235.600 397.600 C 235.600 397.380,236.590 397.200,237.800 397.200 C 239.010 397.200,240.000 397.020,240.000 396.800 C 240.000 396.580,240.720 396.400,241.600 396.400 C 242.480 396.400,243.200 396.220,243.200 396.000 C 243.200 395.780,243.909 395.600,244.776 395.600 C 245.643 395.600,246.464 395.420,246.600 395.200 C 246.736 394.980,247.647 394.800,248.624 394.800 C 249.601 394.800,250.400 394.620,250.400 394.400 C 250.400 394.180,250.940 394.000,251.600 394.000 C 252.260 394.000,252.800 393.820,252.800 393.600 C 252.800 393.380,253.520 393.200,254.400 393.200 C 255.280 393.200,256.000 393.020,256.000 392.800 C 256.000 392.580,256.540 392.400,257.200 392.400 C 257.860 392.400,258.400 392.220,258.400 392.000 C 258.400 391.780,258.936 391.600,259.592 391.600 C 260.776 391.600,266.368 389.938,267.695 389.191 C 268.077 388.976,268.752 388.800,269.195 388.800 C 269.638 388.800,270.000 388.620,270.000 388.400 C 270.000 388.180,270.355 388.000,270.788 388.000 C 271.221 388.000,272.217 387.640,273.000 387.200 C 273.783 386.760,274.779 386.400,275.212 386.400 C 275.645 386.400,276.000 386.220,276.000 386.000 C 276.000 385.780,276.349 385.600,276.776 385.600 C 277.203 385.600,277.664 385.420,277.800 385.200 C 277.936 384.980,278.487 384.800,279.024 384.800 C 279.561 384.800,280.000 384.620,280.000 384.400 C 280.000 384.180,280.360 384.000,280.800 384.000 C 281.240 384.000,281.600 383.820,281.600 383.600 C 281.600 383.380,281.960 383.200,282.400 383.200 C 282.840 383.200,283.200 383.020,283.200 382.800 C 283.200 382.580,283.560 382.400,284.000 382.400 C 284.440 382.400,284.800 382.220,284.800 382.000 C 284.800 381.780,285.250 381.600,285.800 381.600 C 286.350 381.600,286.800 381.420,286.800 381.200 C 286.800 380.980,287.160 380.800,287.600 380.800 C 288.040 380.800,288.400 380.620,288.400 380.400 C 288.400 380.180,288.745 380.000,289.167 380.000 C 289.588 380.000,289.993 379.865,290.067 379.700 C 290.234 379.324,292.364 378.025,293.300 377.729 C 293.685 377.607,294.000 377.348,294.000 377.153 C 294.000 376.959,294.360 376.800,294.800 376.800 C 295.240 376.800,295.600 376.620,295.600 376.400 C 295.600 376.180,295.960 376.000,296.400 376.000 C 296.840 376.000,297.200 375.820,297.200 375.600 C 297.200 375.380,297.479 375.200,297.820 375.200 C 298.447 375.200,300.832 374.099,301.200 373.639 C 301.310 373.502,302.255 372.958,303.300 372.432 C 304.345 371.905,305.200 371.323,305.200 371.137 C 305.200 370.952,305.436 370.800,305.725 370.800 C 306.013 370.800,306.636 370.440,307.108 370.000 C 307.580 369.560,308.154 369.200,308.383 369.200 C 308.612 369.200,308.800 369.020,308.800 368.800 C 308.800 368.580,309.036 368.400,309.325 368.400 C 309.613 368.400,310.236 368.040,310.708 367.600 C 311.180 367.160,311.756 366.800,311.987 366.800 C 312.218 366.800,312.972 366.260,313.663 365.600 C 314.354 364.940,315.122 364.400,315.371 364.400 C 315.620 364.400,316.083 364.040,316.400 363.600 C 316.717 363.160,317.257 362.800,317.600 362.800 C 317.943 362.800,318.483 362.440,318.800 362.000 C 319.117 361.560,319.607 361.200,319.888 361.200 C 320.170 361.200,320.400 361.020,320.400 360.800 C 320.400 360.580,320.604 360.400,320.853 360.400 C 321.102 360.400,321.597 360.083,321.953 359.696 C 322.309 359.308,323.320 358.462,324.200 357.816 C 325.080 357.170,326.091 356.317,326.447 355.921 C 326.803 355.524,327.282 355.200,327.512 355.200 C 327.742 355.200,329.027 354.120,330.368 352.800 C 331.708 351.480,332.974 350.400,333.180 350.400 C 333.386 350.400,335.320 348.610,337.478 346.421 C 342.241 341.590,341.590 342.241,346.421 337.478 C 348.610 335.320,350.400 333.386,350.400 333.180 C 350.400 332.974,351.480 331.708,352.800 330.368 C 354.120 329.027,355.200 327.742,355.200 327.512 C 355.200 327.282,355.524 326.803,355.921 326.447 C 356.317 326.091,357.170 325.080,357.816 324.200 C 358.462 323.320,359.308 322.309,359.696 321.953 C 360.083 321.597,360.400 321.102,360.400 320.853 C 360.400 320.604,360.580 320.400,360.800 320.400 C 361.020 320.400,361.200 320.170,361.200 319.888 C 361.200 319.607,361.560 319.117,362.000 318.800 C 362.440 318.483,362.800 317.943,362.800 317.600 C 362.800 317.257,363.160 316.717,363.600 316.400 C 364.040 316.083,364.400 315.620,364.400 315.371 C 364.400 315.122,364.940 314.354,365.600 313.663 C 366.260 312.972,366.800 312.218,366.800 311.987 C 366.800 311.756,367.160 311.180,367.600 310.708 C 368.040 310.236,368.400 309.613,368.400 309.325 C 368.400 309.036,368.580 308.800,368.800 308.800 C 369.020 308.800,369.200 308.612,369.200 308.383 C 369.200 308.154,369.560 307.580,370.000 307.108 C 370.440 306.636,370.800 306.013,370.800 305.725 C 370.800 305.436,370.952 305.200,371.137 305.200 C 371.323 305.200,371.905 304.345,372.432 303.300 C 372.958 302.255,373.502 301.310,373.639 301.200 C 374.099 300.832,375.200 298.447,375.200 297.820 C 375.200 297.479,375.380 297.200,375.600 297.200 C 375.820 297.200,376.000 296.840,376.000 296.400 C 376.000 295.960,376.180 295.600,376.400 295.600 C 376.620 295.600,376.800 295.255,376.800 294.833 C 376.800 294.412,376.935 294.007,377.100 293.933 C 377.476 293.766,378.775 291.636,379.071 290.700 C 379.193 290.315,379.452 290.000,379.647 290.000 C 379.841 290.000,380.000 289.640,380.000 289.200 C 380.000 288.760,380.180 288.400,380.400 288.400 C 380.620 288.400,380.800 288.040,380.800 287.600 C 380.800 287.160,380.980 286.800,381.200 286.800 C 381.420 286.800,381.600 286.350,381.600 285.800 C 381.600 285.250,381.780 284.800,382.000 284.800 C 382.220 284.800,382.400 284.440,382.400 284.000 C 382.400 283.560,382.580 283.200,382.800 283.200 C 383.020 283.200,383.200 282.840,383.200 282.400 C 383.200 281.960,383.380 281.600,383.600 281.600 C 383.820 281.600,384.000 281.240,384.000 280.800 C 384.000 280.360,384.180 280.000,384.400 280.000 C 384.620 280.000,384.800 279.561,384.800 279.024 C 384.800 278.487,384.980 277.936,385.200 277.800 C 385.420 277.664,385.600 277.203,385.600 276.776 C 385.600 276.349,385.780 276.000,386.000 276.000 C 386.220 276.000,386.400 275.645,386.400 275.212 C 386.400 274.779,386.760 273.783,387.200 273.000 C 387.640 272.217,388.000 271.221,388.000 270.788 C 388.000 270.355,388.180 270.000,388.400 270.000 C 388.620 270.000,388.800 269.638,388.800 269.195 C 388.800 268.752,388.976 268.077,389.191 267.695 C 389.938 266.368,391.600 260.776,391.600 259.592 C 391.600 258.936,391.780 258.400,392.000 258.400 C 392.220 258.400,392.400 257.860,392.400 257.200 C 392.400 256.540,392.580 256.000,392.800 256.000 C 393.020 256.000,393.200 255.280,393.200 254.400 C 393.200 253.520,393.380 252.800,393.600 252.800 C 393.820 252.800,394.000 252.260,394.000 251.600 C 394.000 250.940,394.180 250.400,394.400 250.400 C 394.620 250.400,394.800 249.601,394.800 248.624 C 394.800 247.647,394.980 246.736,395.200 246.600 C 395.420 246.464,395.600 245.643,395.600 244.776 C 395.600 243.909,395.780 243.200,396.000 243.200 C 396.220 243.200,396.400 242.480,396.400 241.600 C 396.400 240.720,396.580 240.000,396.800 240.000 C 397.020 240.000,397.200 239.010,397.200 237.800 C 397.200 236.590,397.380 235.600,397.600 235.600 C 397.822 235.600,398.000 234.533,398.000 233.200 C 398.000 231.867,398.178 230.800,398.400 230.800 C 398.627 230.800,398.800 229.627,398.800 228.080 C 398.800 226.437,398.998 225.162,399.300 224.860 C 400.029 224.131,400.029 175.869,399.300 175.140 C 398.998 174.838,398.800 173.563,398.800 171.920 C 398.800 170.373,398.627 169.200,398.400 169.200 C 398.178 169.200,398.000 168.144,398.000 166.833 C 398.000 165.528,397.811 164.404,397.578 164.326 C 397.346 164.249,397.148 163.244,397.139 162.093 C 397.131 160.942,396.960 160.000,396.762 160.000 C 396.563 160.000,396.400 159.280,396.400 158.400 C 396.400 157.520,396.220 156.800,396.000 156.800 C 395.780 156.800,395.600 156.091,395.600 155.224 C 395.600 154.357,395.420 153.536,395.200 153.400 C 394.980 153.264,394.800 152.353,394.800 151.376 C 394.800 150.399,394.620 149.600,394.400 149.600 C 394.180 149.600,394.000 149.060,394.000 148.400 C 394.000 147.740,393.820 147.200,393.600 147.200 C 393.380 147.200,393.200 146.480,393.200 145.600 C 393.200 144.720,393.020 144.000,392.800 144.000 C 392.580 144.000,392.400 143.460,392.400 142.800 C 392.400 142.140,392.220 141.600,392.000 141.600 C 391.780 141.600,391.600 141.064,391.600 140.408 C 391.600 139.224,389.938 133.632,389.191 132.305 C 388.976 131.923,388.800 131.248,388.800 130.805 C 388.800 130.362,388.620 130.000,388.400 130.000 C 388.180 130.000,388.000 129.645,388.000 129.212 C 388.000 128.779,387.640 127.783,387.200 127.000 C 386.760 126.217,386.400 125.221,386.400 124.788 C 386.400 124.355,386.220 124.000,386.000 124.000 C 385.780 124.000,385.600 123.651,385.600 123.224 C 385.600 122.797,385.420 122.336,385.200 122.200 C 384.980 122.064,384.800 121.513,384.800 120.976 C 384.800 120.439,384.620 120.000,384.400 120.000 C 384.180 120.000,384.000 119.640,384.000 119.200 C 384.000 118.760,383.820 118.400,383.600 118.400 C 383.380 118.400,383.200 118.040,383.200 117.600 C 383.200 117.160,383.020 116.800,382.800 116.800 C 382.580 116.800,382.400 116.440,382.400 116.000 C 382.400 115.560,382.220 115.200,382.000 115.200 C 381.780 115.200,381.600 114.750,381.600 114.200 C 381.600 113.650,381.420 113.200,381.200 113.200 C 380.980 113.200,380.800 112.840,380.800 112.400 C 380.800 111.960,380.620 111.600,380.400 111.600 C 380.180 111.600,380.000 111.240,380.000 110.800 C 380.000 110.360,379.855 110.000,379.679 110.000 C 379.502 110.000,378.917 109.103,378.379 108.006 C 377.840 106.910,377.265 106.010,377.100 106.006 C 376.935 106.003,376.800 105.640,376.800 105.200 C 376.800 104.760,376.620 104.400,376.400 104.400 C 376.180 104.400,376.000 104.040,376.000 103.600 C 376.000 103.160,375.820 102.800,375.600 102.800 C 375.380 102.800,375.200 102.521,375.200 102.180 C 375.200 101.553,374.099 99.168,373.639 98.800 C 373.502 98.690,372.958 97.745,372.432 96.700 C 371.905 95.655,371.323 94.800,371.137 94.800 C 370.952 94.800,370.800 94.564,370.800 94.275 C 370.800 93.987,370.440 93.364,370.000 92.892 C 369.560 92.420,369.200 91.846,369.200 91.617 C 369.200 91.388,369.020 91.200,368.800 91.200 C 368.580 91.200,368.400 90.964,368.400 90.675 C 368.400 90.387,368.040 89.764,367.600 89.292 C 367.160 88.820,366.800 88.244,366.800 88.013 C 366.800 87.782,366.260 87.028,365.600 86.337 C 364.940 85.646,364.400 84.878,364.400 84.629 C 364.400 84.380,364.040 83.917,363.600 83.600 C 363.160 83.283,362.800 82.743,362.800 82.400 C 362.800 82.057,362.440 81.517,362.000 81.200 C 361.560 80.883,361.200 80.393,361.200 80.112 C 361.200 79.830,361.020 79.600,360.800 79.600 C 360.580 79.600,360.400 79.396,360.400 79.147 C 360.400 78.898,360.083 78.403,359.696 78.047 C 359.308 77.691,358.462 76.680,357.816 75.800 C 357.170 74.920,356.317 73.909,355.921 73.553 C 355.524 73.197,355.200 72.718,355.200 72.488 C 355.200 72.258,354.120 70.973,352.800 69.632 C 351.480 68.292,350.400 67.026,350.400 66.820 C 350.400 66.614,348.610 64.680,346.421 62.522 C 341.590 57.759,342.241 58.410,337.478 53.579 C 335.320 51.390,333.386 49.600,333.180 49.600 C 332.974 49.600,331.708 48.520,330.368 47.200 C 329.027 45.880,327.754 44.800,327.538 44.800 C 327.323 44.800,326.484 44.172,325.673 43.403 C 324.863 42.635,324.047 42.005,323.860 42.003 C 323.674 42.002,323.017 41.460,322.400 40.800 C 321.783 40.140,321.081 39.600,320.840 39.600 C 320.598 39.600,320.400 39.420,320.400 39.200 C 320.400 38.980,320.170 38.800,319.888 38.800 C 319.607 38.800,319.117 38.440,318.800 38.000 C 318.483 37.560,317.943 37.200,317.600 37.200 C 317.257 37.200,316.717 36.840,316.400 36.400 C 316.083 35.960,315.620 35.600,315.371 35.600 C 315.122 35.600,314.354 35.060,313.663 34.400 C 312.972 33.740,312.218 33.200,311.987 33.200 C 311.756 33.200,311.180 32.840,310.708 32.400 C 310.236 31.960,309.613 31.600,309.325 31.600 C 309.036 31.600,308.800 31.420,308.800 31.200 C 308.800 30.980,308.612 30.800,308.383 30.800 C 308.154 30.800,307.580 30.440,307.108 30.000 C 306.636 29.560,306.013 29.200,305.725 29.200 C 305.436 29.200,305.200 29.053,305.200 28.874 C 305.200 28.396,301.986 26.761,301.562 27.023 C 301.363 27.147,301.200 26.956,301.200 26.600 C 301.200 26.244,301.020 26.064,300.800 26.200 C 300.580 26.336,300.399 26.302,300.397 26.124 C 300.393 25.746,298.480 24.800,297.720 24.800 C 297.434 24.800,297.200 24.620,297.200 24.400 C 297.200 24.180,296.840 24.000,296.400 24.000 C 295.960 24.000,295.600 23.820,295.600 23.600 C 295.600 23.380,295.240 23.200,294.800 23.200 C 294.360 23.200,293.997 23.065,293.994 22.900 C 293.990 22.735,293.090 22.160,291.994 21.621 C 290.897 21.083,290.000 20.498,290.000 20.321 C 290.000 20.145,289.640 20.000,289.200 20.000 C 288.760 20.000,288.400 19.820,288.400 19.600 C 288.400 19.380,288.040 19.200,287.600 19.200 C 287.160 19.200,286.800 19.020,286.800 18.800 C 286.800 18.580,286.350 18.400,285.800 18.400 C 285.250 18.400,284.800 18.220,284.800 18.000 C 284.800 17.780,284.440 17.600,284.000 17.600 C 283.560 17.600,283.200 17.420,283.200 17.200 C 283.200 16.980,282.840 16.800,282.400 16.800 C 281.960 16.800,281.600 16.620,281.600 16.400 C 281.600 16.180,281.240 16.000,280.800 16.000 C 280.360 16.000,280.000 15.820,280.000 15.600 C 280.000 15.380,279.561 15.200,279.024 15.200 C 278.487 15.200,277.936 15.020,277.800 14.800 C 277.664 14.580,277.203 14.400,276.776 14.400 C 276.349 14.400,276.000 14.220,276.000 14.000 C 276.000 13.780,275.645 13.600,275.212 13.600 C 274.779 13.600,273.783 13.240,273.000 12.800 C 272.217 12.360,271.221 12.000,270.788 12.000 C 270.355 12.000,270.000 11.820,270.000 11.600 C 270.000 11.380,269.580 11.200,269.067 11.200 C 268.553 11.200,268.011 11.078,267.862 10.929 C 267.425 10.492,262.262 8.838,261.945 9.034 C 261.786 9.133,261.542 9.030,261.404 8.807 C 261.266 8.583,260.533 8.400,259.776 8.400 C 259.019 8.400,258.400 8.220,258.400 8.000 C 258.400 7.780,257.860 7.600,257.200 7.600 C 256.540 7.600,256.000 7.420,256.000 7.200 C 256.000 6.980,255.280 6.800,254.400 6.800 C 253.520 6.800,252.800 6.620,252.800 6.400 C 252.800 6.180,252.260 6.000,251.600 6.000 C 250.940 6.000,250.400 5.820,250.400 5.600 C 250.400 5.380,249.691 5.200,248.824 5.200 C 247.957 5.200,247.136 5.020,247.000 4.800 C 246.864 4.580,245.953 4.400,244.976 4.400 C 243.999 4.400,243.200 4.220,243.200 4.000 C 243.200 3.780,242.480 3.600,241.600 3.600 C 240.720 3.600,240.000 3.420,240.000 3.200 C 240.000 2.980,239.010 2.800,237.800 2.800 C 236.590 2.800,235.600 2.620,235.600 2.400 C 235.600 2.178,234.533 2.000,233.200 2.000 C 231.867 2.000,230.800 1.822,230.800 1.600 C 230.800 1.373,229.627 1.200,228.080 1.200 C 226.483 1.200,225.160 1.000,224.875 0.715 C 224.394 0.234,187.860 -0.116,179.003 0.275 M209.400 21.200 C 209.541 21.428,211.577 21.600,214.144 21.600 C 216.617 21.600,218.811 21.766,219.020 21.969 C 219.229 22.172,220.660 22.435,222.200 22.554 C 227.099 22.932,229.378 23.229,230.200 23.597 C 230.640 23.793,231.720 24.050,232.600 24.168 C 239.787 25.125,241.200 25.371,241.200 25.664 C 241.200 25.849,241.920 26.000,242.800 26.000 C 243.680 26.000,244.400 26.180,244.400 26.400 C 244.400 26.620,245.030 26.800,245.800 26.800 C 246.570 26.800,247.200 26.980,247.200 27.200 C 247.200 27.420,247.830 27.600,248.600 27.600 C 249.370 27.600,250.000 27.780,250.000 28.000 C 250.000 28.220,250.630 28.400,251.400 28.400 C 252.170 28.400,252.800 28.580,252.800 28.800 C 252.800 29.020,253.340 29.200,254.000 29.200 C 254.660 29.200,255.200 29.380,255.200 29.600 C 255.200 29.820,255.740 30.000,256.400 30.000 C 257.060 30.000,257.600 30.180,257.600 30.400 C 257.600 30.620,258.039 30.800,258.576 30.800 C 259.113 30.800,259.664 30.980,259.800 31.200 C 259.936 31.420,260.487 31.600,261.024 31.600 C 261.561 31.600,262.000 31.780,262.000 32.000 C 262.000 32.220,262.360 32.400,262.800 32.400 C 263.240 32.400,263.600 32.580,263.600 32.800 C 263.600 33.020,264.140 33.200,264.800 33.200 C 265.460 33.200,266.000 33.380,266.000 33.600 C 266.000 33.820,266.360 34.000,266.800 34.000 C 267.240 34.000,267.600 34.180,267.600 34.400 C 267.600 34.620,268.140 34.800,268.800 34.800 C 269.460 34.800,270.000 34.980,270.000 35.200 C 270.000 35.420,270.360 35.600,270.800 35.600 C 271.240 35.600,271.600 35.780,271.600 36.000 C 271.600 36.220,271.960 36.400,272.400 36.400 C 272.840 36.400,273.200 36.580,273.200 36.800 C 273.200 37.020,273.549 37.200,273.976 37.200 C 274.403 37.200,274.864 37.380,275.000 37.600 C 275.136 37.820,275.597 38.000,276.024 38.000 C 276.451 38.000,276.800 38.180,276.800 38.400 C 276.800 38.620,277.160 38.800,277.600 38.800 C 278.040 38.800,278.400 38.980,278.400 39.200 C 278.400 39.420,278.760 39.600,279.200 39.600 C 279.640 39.600,280.000 39.738,280.000 39.906 C 280.000 40.227,282.920 41.600,283.603 41.600 C 283.821 41.600,284.000 41.780,284.000 42.000 C 284.000 42.220,284.360 42.400,284.800 42.400 C 285.240 42.400,285.600 42.580,285.600 42.800 C 285.600 43.020,285.960 43.200,286.400 43.200 C 286.840 43.200,287.200 43.380,287.200 43.600 C 287.200 43.820,287.520 44.000,287.912 44.000 C 288.303 44.000,288.883 44.360,289.200 44.800 C 289.517 45.240,290.097 45.600,290.488 45.600 C 290.880 45.600,291.200 45.780,291.200 46.000 C 291.200 46.220,291.436 46.400,291.725 46.400 C 292.013 46.400,292.636 46.760,293.108 47.200 C 293.580 47.640,294.154 48.000,294.383 48.000 C 294.612 48.000,294.800 48.180,294.800 48.400 C 294.800 48.620,295.120 48.800,295.512 48.800 C 295.903 48.800,296.483 49.160,296.800 49.600 C 297.117 50.040,297.657 50.400,298.000 50.400 C 298.343 50.400,298.883 50.760,299.200 51.200 C 299.517 51.640,300.015 52.000,300.306 52.000 C 300.598 52.000,301.286 52.450,301.836 53.000 C 302.386 53.550,302.980 54.000,303.156 54.000 C 303.332 54.000,303.999 54.450,304.638 55.000 C 305.277 55.549,305.943 55.999,306.118 56.000 C 306.293 56.000,306.886 56.450,307.436 57.000 C 307.986 57.550,308.601 58.000,308.801 58.000 C 309.002 58.000,309.923 58.720,310.848 59.600 C 311.773 60.480,312.680 61.200,312.862 61.200 C 313.045 61.200,314.292 62.280,315.632 63.600 C 316.973 64.920,318.236 66.000,318.440 66.000 C 318.924 66.000,334.000 81.076,334.000 81.560 C 334.000 81.764,335.080 83.027,336.400 84.368 C 337.720 85.708,338.800 86.962,338.800 87.154 C 338.800 87.346,339.520 88.245,340.400 89.152 C 341.280 90.059,342.000 90.982,342.000 91.203 C 342.000 91.424,342.450 91.997,343.000 92.475 C 343.550 92.953,344.000 93.537,344.000 93.772 C 344.001 94.007,344.451 94.723,345.000 95.362 C 345.550 96.001,346.000 96.668,346.000 96.844 C 346.000 97.020,346.450 97.614,347.000 98.164 C 347.550 98.714,348.000 99.402,348.000 99.694 C 348.000 99.985,348.360 100.483,348.800 100.800 C 349.240 101.117,349.600 101.657,349.600 102.000 C 349.600 102.343,349.960 102.883,350.400 103.200 C 350.840 103.517,351.200 104.097,351.200 104.488 C 351.200 104.880,351.380 105.200,351.600 105.200 C 351.820 105.200,352.000 105.388,352.000 105.617 C 352.000 105.846,352.360 106.420,352.800 106.892 C 353.240 107.364,353.600 107.987,353.600 108.275 C 353.600 108.564,353.780 108.800,354.000 108.800 C 354.220 108.800,354.400 109.120,354.400 109.512 C 354.400 109.903,354.760 110.483,355.200 110.800 C 355.640 111.117,356.000 111.697,356.000 112.088 C 356.000 112.480,356.180 112.800,356.400 112.800 C 356.620 112.800,356.800 113.160,356.800 113.600 C 356.800 114.040,356.980 114.400,357.200 114.400 C 357.420 114.400,357.600 114.760,357.600 115.200 C 357.600 115.640,357.744 116.000,357.920 116.000 C 358.095 116.000,358.467 116.630,358.746 117.400 C 359.024 118.170,359.439 118.800,359.669 118.800 C 359.898 118.800,359.982 119.070,359.855 119.400 C 359.729 119.730,359.799 120.000,360.013 120.000 C 360.226 120.000,360.400 120.360,360.400 120.800 C 360.400 121.240,360.580 121.600,360.800 121.600 C 361.020 121.600,361.200 121.960,361.200 122.400 C 361.200 122.840,361.380 123.200,361.600 123.200 C 361.820 123.200,362.000 123.549,362.000 123.976 C 362.000 124.403,362.180 124.864,362.400 125.000 C 362.620 125.136,362.800 125.597,362.800 126.024 C 362.800 126.451,362.980 126.800,363.200 126.800 C 363.420 126.800,363.600 127.160,363.600 127.600 C 363.600 128.040,363.780 128.400,364.000 128.400 C 364.220 128.400,364.400 128.760,364.400 129.200 C 364.400 129.640,364.580 130.000,364.800 130.000 C 365.020 130.000,365.200 130.540,365.200 131.200 C 365.200 131.860,365.380 132.400,365.600 132.400 C 365.820 132.400,366.000 132.760,366.000 133.200 C 366.000 133.640,366.180 134.000,366.400 134.000 C 366.620 134.000,366.800 134.540,366.800 135.200 C 366.800 135.860,366.980 136.400,367.200 136.400 C 367.420 136.400,367.600 136.760,367.600 137.200 C 367.600 137.640,367.780 138.000,368.000 138.000 C 368.220 138.000,368.400 138.439,368.400 138.976 C 368.400 139.513,368.580 140.064,368.800 140.200 C 369.020 140.336,369.200 140.887,369.200 141.424 C 369.200 141.961,369.380 142.400,369.600 142.400 C 369.820 142.400,370.000 142.940,370.000 143.600 C 370.000 144.260,370.180 144.800,370.400 144.800 C 370.620 144.800,370.800 145.340,370.800 146.000 C 370.800 146.660,370.980 147.200,371.200 147.200 C 371.420 147.200,371.600 147.830,371.600 148.600 C 371.600 149.370,371.780 150.000,372.000 150.000 C 372.220 150.000,372.400 150.630,372.400 151.400 C 372.400 152.170,372.580 152.800,372.800 152.800 C 373.020 152.800,373.200 153.430,373.200 154.200 C 373.200 154.970,373.380 155.600,373.600 155.600 C 373.820 155.600,374.000 156.320,374.000 157.200 C 374.000 158.080,374.180 158.800,374.400 158.800 C 374.620 158.800,374.800 159.520,374.800 160.400 C 374.800 161.280,374.994 162.000,375.232 162.000 C 375.496 162.000,375.569 162.432,375.419 163.113 C 375.284 163.726,375.415 164.941,375.708 165.813 C 376.002 166.686,376.207 167.850,376.165 168.400 C 376.123 168.950,376.259 169.611,376.468 169.870 C 376.839 170.329,377.066 172.135,377.465 177.800 C 377.574 179.340,377.828 180.771,378.031 180.980 C 378.234 181.189,378.400 183.383,378.400 185.856 C 378.400 188.423,378.572 190.459,378.800 190.600 C 379.303 190.911,379.348 209.062,378.846 209.371 C 378.652 209.491,378.463 211.610,378.426 214.078 C 378.390 216.547,378.205 218.754,378.016 218.983 C 377.826 219.212,377.581 220.660,377.470 222.200 C 377.056 227.948,376.838 229.673,376.468 230.130 C 376.259 230.389,376.123 231.050,376.165 231.600 C 376.207 232.150,376.002 233.314,375.708 234.187 C 375.415 235.059,375.284 236.274,375.419 236.887 C 375.569 237.568,375.496 238.000,375.232 238.000 C 374.994 238.000,374.800 238.720,374.800 239.600 C 374.800 240.480,374.620 241.200,374.400 241.200 C 374.180 241.200,374.000 241.920,374.000 242.800 C 374.000 243.680,373.820 244.400,373.600 244.400 C 373.380 244.400,373.200 245.019,373.200 245.776 C 373.200 246.533,373.020 247.264,372.800 247.400 C 372.580 247.536,372.400 248.177,372.400 248.824 C 372.400 249.471,372.220 250.000,372.000 250.000 C 371.780 250.000,371.600 250.630,371.600 251.400 C 371.600 252.170,371.420 252.800,371.200 252.800 C 370.980 252.800,370.800 253.340,370.800 254.000 C 370.800 254.660,370.620 255.200,370.400 255.200 C 370.180 255.200,370.000 255.740,370.000 256.400 C 370.000 257.060,369.820 257.600,369.600 257.600 C 369.380 257.600,369.200 258.039,369.200 258.576 C 369.200 259.113,369.020 259.664,368.800 259.800 C 368.580 259.936,368.400 260.361,368.400 260.744 C 368.400 261.619,367.501 263.593,367.100 263.597 C 366.935 263.599,366.800 264.140,366.800 264.800 C 366.800 265.460,366.620 266.000,366.400 266.000 C 366.180 266.000,366.000 266.360,366.000 266.800 C 366.000 267.240,365.820 267.600,365.600 267.600 C 365.380 267.600,365.200 268.140,365.200 268.800 C 365.200 269.460,365.020 270.000,364.800 270.000 C 364.580 270.000,364.400 270.360,364.400 270.800 C 364.400 271.240,364.220 271.600,364.000 271.600 C 363.780 271.600,363.600 271.960,363.600 272.400 C 363.600 272.840,363.420 273.200,363.200 273.200 C 362.980 273.200,362.800 273.549,362.800 273.976 C 362.800 274.403,362.620 274.864,362.400 275.000 C 362.180 275.136,362.000 275.597,362.000 276.024 C 362.000 276.451,361.820 276.800,361.600 276.800 C 361.380 276.800,361.200 277.160,361.200 277.600 C 361.200 278.040,361.020 278.400,360.800 278.400 C 360.580 278.400,360.400 278.760,360.400 279.200 C 360.400 279.640,360.226 280.000,360.013 280.000 C 359.799 280.000,359.729 280.270,359.855 280.600 C 359.982 280.930,359.898 281.200,359.669 281.200 C 359.439 281.200,359.024 281.830,358.746 282.600 C 358.467 283.370,358.095 284.000,357.920 284.000 C 357.744 284.000,357.600 284.360,357.600 284.800 C 357.600 285.240,357.420 285.600,357.200 285.600 C 356.980 285.600,356.800 285.960,356.800 286.400 C 356.800 286.840,356.620 287.200,356.400 287.200 C 356.180 287.200,356.000 287.520,356.000 287.912 C 356.000 288.303,355.640 288.883,355.200 289.200 C 354.760 289.517,354.400 290.097,354.400 290.488 C 354.400 290.880,354.220 291.200,354.000 291.200 C 353.780 291.200,353.600 291.436,353.600 291.725 C 353.600 292.013,353.240 292.636,352.800 293.108 C 352.360 293.580,352.000 294.154,352.000 294.383 C 352.000 294.612,351.820 294.800,351.600 294.800 C 351.380 294.800,351.200 295.120,351.200 295.512 C 351.200 295.903,350.840 296.483,350.400 296.800 C 349.960 297.117,349.600 297.657,349.600 298.000 C 349.600 298.343,349.240 298.883,348.800 299.200 C 348.360 299.517,348.000 300.015,348.000 300.306 C 348.000 300.598,347.550 301.286,347.000 301.836 C 346.450 302.386,346.000 302.980,346.000 303.156 C 346.000 303.332,345.550 303.999,345.000 304.638 C 344.451 305.277,344.001 305.993,344.000 306.228 C 344.000 306.463,343.550 307.047,343.000 307.525 C 342.450 308.003,342.000 308.604,342.000 308.860 C 342.000 309.116,341.280 310.031,340.400 310.893 C 339.520 311.756,338.800 312.642,338.800 312.862 C 338.800 313.082,338.068 313.966,337.173 314.826 C 336.278 315.686,335.658 316.569,335.794 316.790 C 335.930 317.011,335.797 317.097,335.496 316.981 C 335.174 316.858,334.714 317.225,334.375 317.877 C 333.731 319.115,319.020 334.000,318.440 334.000 C 318.236 334.000,316.973 335.080,315.632 336.400 C 314.292 337.720,313.030 338.800,312.828 338.800 C 312.627 338.800,311.756 339.520,310.893 340.400 C 310.031 341.280,309.116 342.000,308.860 342.000 C 308.604 342.000,308.003 342.450,307.525 343.000 C 307.047 343.550,306.463 344.000,306.228 344.000 C 305.993 344.001,305.277 344.451,304.638 345.000 C 303.999 345.550,303.332 346.000,303.156 346.000 C 302.980 346.000,302.386 346.450,301.836 347.000 C 301.286 347.550,300.598 348.000,300.306 348.000 C 300.015 348.000,299.517 348.360,299.200 348.800 C 298.883 349.240,298.343 349.600,298.000 349.600 C 297.657 349.600,297.117 349.960,296.800 350.400 C 296.483 350.840,295.903 351.200,295.512 351.200 C 295.120 351.200,294.800 351.380,294.800 351.600 C 294.800 351.820,294.612 352.000,294.383 352.000 C 294.154 352.000,293.580 352.360,293.108 352.800 C 292.636 353.240,292.013 353.600,291.725 353.600 C 291.436 353.600,291.200 353.780,291.200 354.000 C 291.200 354.220,290.880 354.400,290.488 354.400 C 290.097 354.400,289.517 354.760,289.200 355.200 C 288.883 355.640,288.303 356.000,287.912 356.000 C 287.520 356.000,287.200 356.180,287.200 356.400 C 287.200 356.620,286.840 356.800,286.400 356.800 C 285.960 356.800,285.600 356.980,285.600 357.200 C 285.600 357.420,285.240 357.600,284.800 357.600 C 284.360 357.600,284.000 357.744,284.000 357.920 C 284.000 358.095,283.370 358.467,282.600 358.746 C 281.830 359.024,281.200 359.439,281.200 359.669 C 281.200 359.898,280.930 359.982,280.600 359.855 C 280.270 359.729,280.000 359.799,280.000 360.013 C 280.000 360.226,279.640 360.400,279.200 360.400 C 278.760 360.400,278.400 360.580,278.400 360.800 C 278.400 361.020,278.040 361.200,277.600 361.200 C 277.160 361.200,276.800 361.380,276.800 361.600 C 276.800 361.820,276.451 362.000,276.024 362.000 C 275.597 362.000,275.136 362.180,275.000 362.400 C 274.864 362.620,274.403 362.800,273.976 362.800 C 273.549 362.800,273.200 362.980,273.200 363.200 C 273.200 363.420,272.840 363.600,272.400 363.600 C 271.960 363.600,271.600 363.780,271.600 364.000 C 271.600 364.220,271.240 364.400,270.800 364.400 C 270.360 364.400,270.000 364.580,270.000 364.800 C 270.000 365.020,269.460 365.200,268.800 365.200 C 268.140 365.200,267.600 365.380,267.600 365.600 C 267.600 365.820,267.240 366.000,266.800 366.000 C 266.360 366.000,266.000 366.180,266.000 366.400 C 266.000 366.620,265.460 366.800,264.800 366.800 C 264.140 366.800,263.599 366.935,263.597 367.100 C 263.593 367.501,261.619 368.400,260.744 368.400 C 260.361 368.400,259.936 368.580,259.800 368.800 C 259.664 369.020,259.113 369.200,258.576 369.200 C 258.039 369.200,257.600 369.380,257.600 369.600 C 257.600 369.820,257.060 370.000,256.400 370.000 C 255.740 370.000,255.200 370.180,255.200 370.400 C 255.200 370.620,254.660 370.800,254.000 370.800 C 253.340 370.800,252.800 370.980,252.800 371.200 C 252.800 371.420,252.170 371.600,251.400 371.600 C 250.630 371.600,250.000 371.780,250.000 372.000 C 250.000 372.220,249.471 372.400,248.824 372.400 C 248.177 372.400,247.536 372.580,247.400 372.800 C 247.264 373.020,246.533 373.200,245.776 373.200 C 245.019 373.200,244.400 373.380,244.400 373.600 C 244.400 373.820,243.680 374.000,242.800 374.000 C 241.920 374.000,241.200 374.180,241.200 374.400 C 241.200 374.620,240.480 374.800,239.600 374.800 C 238.720 374.800,238.000 374.994,238.000 375.232 C 238.000 375.496,237.568 375.569,236.887 375.419 C 236.274 375.284,235.059 375.415,234.187 375.708 C 233.314 376.002,232.150 376.207,231.600 376.165 C 231.050 376.123,230.389 376.259,230.130 376.468 C 229.673 376.838,227.948 377.056,222.200 377.470 C 220.660 377.581,219.212 377.826,218.983 378.016 C 218.754 378.205,216.547 378.390,214.078 378.426 C 211.610 378.463,209.491 378.652,209.371 378.846 C 209.062 379.348,190.911 379.303,190.600 378.800 C 190.459 378.572,188.423 378.400,185.856 378.400 C 183.383 378.400,181.189 378.234,180.980 378.031 C 180.771 377.828,179.340 377.574,177.800 377.465 C 172.135 377.066,170.329 376.839,169.870 376.468 C 169.611 376.259,168.950 376.123,168.400 376.165 C 167.850 376.207,166.686 376.002,165.813 375.708 C 164.941 375.415,163.726 375.284,163.113 375.419 C 162.432 375.569,162.000 375.496,162.000 375.232 C 162.000 374.994,161.280 374.800,160.400 374.800 C 159.520 374.800,158.800 374.620,158.800 374.400 C 158.800 374.180,158.080 374.000,157.200 374.000 C 156.320 374.000,155.600 373.820,155.600 373.600 C 155.600 373.380,154.970 373.200,154.200 373.200 C 153.430 373.200,152.800 373.020,152.800 372.800 C 152.800 372.580,152.170 372.400,151.400 372.400 C 150.630 372.400,150.000 372.220,150.000 372.000 C 150.000 371.780,149.370 371.600,148.600 371.600 C 147.830 371.600,147.200 371.420,147.200 371.200 C 147.200 370.980,146.660 370.800,146.000 370.800 C 145.340 370.800,144.800 370.620,144.800 370.400 C 144.800 370.180,144.260 370.000,143.600 370.000 C 142.940 370.000,142.400 369.820,142.400 369.600 C 142.400 369.380,141.961 369.200,141.424 369.200 C 140.887 369.200,140.336 369.020,140.200 368.800 C 140.064 368.580,139.513 368.400,138.976 368.400 C 138.439 368.400,138.000 368.220,138.000 368.000 C 138.000 367.780,137.640 367.600,137.200 367.600 C 136.760 367.600,136.400 367.420,136.400 367.200 C 136.400 366.980,135.860 366.800,135.200 366.800 C 134.540 366.800,134.000 366.620,134.000 366.400 C 134.000 366.180,133.640 366.000,133.200 366.000 C 132.760 366.000,132.400 365.820,132.400 365.600 C 132.400 365.380,131.860 365.200,131.200 365.200 C 130.540 365.200,130.000 365.020,130.000 364.800 C 130.000 364.580,129.640 364.400,129.200 364.400 C 128.760 364.400,128.400 364.220,128.400 364.000 C 128.400 363.780,128.040 363.600,127.600 363.600 C 127.160 363.600,126.800 363.420,126.800 363.200 C 126.800 362.980,126.451 362.800,126.024 362.800 C 125.597 362.800,125.136 362.620,125.000 362.400 C 124.864 362.180,124.403 362.000,123.976 362.000 C 123.549 362.000,123.200 361.820,123.200 361.600 C 123.200 361.380,122.840 361.200,122.400 361.200 C 121.960 361.200,121.600 361.020,121.600 360.800 C 121.600 360.580,121.240 360.400,120.800 360.400 C 120.360 360.400,120.000 360.226,120.000 360.013 C 120.000 359.799,119.730 359.729,119.400 359.855 C 119.070 359.982,118.800 359.898,118.800 359.669 C 118.800 359.439,118.170 359.024,117.400 358.746 C 116.630 358.467,116.000 358.095,116.000 357.920 C 116.000 357.744,115.640 357.600,115.200 357.600 C 114.760 357.600,114.400 357.420,114.400 357.200 C 114.400 356.980,114.040 356.800,113.600 356.800 C 113.160 356.800,112.800 356.620,112.800 356.400 C 112.800 356.180,112.480 356.000,112.088 356.000 C 111.697 356.000,111.117 355.640,110.800 355.200 C 110.483 354.760,109.903 354.400,109.512 354.400 C 109.120 354.400,108.800 354.220,108.800 354.000 C 108.800 353.780,108.564 353.600,108.275 353.600 C 107.987 353.600,107.364 353.240,106.892 352.800 C 106.420 352.360,105.846 352.000,105.617 352.000 C 105.388 352.000,105.200 351.820,105.200 351.600 C 105.200 351.380,104.880 351.200,104.488 351.200 C 104.097 351.200,103.517 350.840,103.200 350.400 C 102.883 349.960,102.343 349.600,102.000 349.600 C 101.657 349.600,101.117 349.240,100.800 348.800 C 100.483 348.360,99.943 348.000,99.600 348.000 C 99.257 348.000,98.717 347.640,98.400 347.200 C 98.083 346.760,97.638 346.400,97.412 346.399 C 97.185 346.399,96.370 345.859,95.600 345.200 C 94.830 344.541,94.007 344.001,93.772 344.001 C 93.537 344.000,92.953 343.550,92.475 343.000 C 91.997 342.450,91.424 342.000,91.203 342.000 C 90.982 342.000,90.059 341.280,89.152 340.400 C 88.245 339.520,87.346 338.800,87.154 338.800 C 86.962 338.800,85.708 337.720,84.368 336.400 C 83.027 335.080,81.764 334.000,81.560 334.000 C 81.076 334.000,66.000 318.924,66.000 318.440 C 66.000 318.236,64.920 316.973,63.600 315.632 C 62.280 314.292,61.200 313.045,61.200 312.862 C 61.200 312.680,60.480 311.773,59.600 310.848 C 58.720 309.923,58.000 309.002,58.000 308.801 C 58.000 308.601,57.550 307.986,57.000 307.436 C 56.450 306.886,56.000 306.293,56.000 306.118 C 55.999 305.943,55.549 305.277,55.000 304.638 C 54.450 303.999,54.000 303.332,54.000 303.156 C 54.000 302.980,53.550 302.386,53.000 301.836 C 52.450 301.286,52.000 300.598,52.000 300.306 C 52.000 300.015,51.640 299.517,51.200 299.200 C 50.760 298.883,50.400 298.343,50.400 298.000 C 50.400 297.657,50.040 297.117,49.600 296.800 C 49.160 296.483,48.800 295.903,48.800 295.512 C 48.800 295.120,48.620 294.800,48.400 294.800 C 48.180 294.800,48.000 294.612,48.000 294.383 C 48.000 294.154,47.640 293.580,47.200 293.108 C 46.760 292.636,46.400 292.013,46.400 291.725 C 46.400 291.436,46.220 291.200,46.000 291.200 C 45.780 291.200,45.600 290.880,45.600 290.488 C 45.600 290.097,45.240 289.517,44.800 289.200 C 44.360 288.883,44.000 288.303,44.000 287.912 C 44.000 287.520,43.820 287.200,43.600 287.200 C 43.380 287.200,43.200 286.840,43.200 286.400 C 43.200 285.960,43.020 285.600,42.800 285.600 C 42.580 285.600,42.400 285.240,42.400 284.800 C 42.400 284.360,42.220 284.000,42.000 284.000 C 41.780 284.000,41.600 283.821,41.600 283.603 C 41.600 282.920,40.227 280.000,39.906 280.000 C 39.738 280.000,39.600 279.640,39.600 279.200 C 39.600 278.760,39.420 278.400,39.200 278.400 C 38.980 278.400,38.800 278.040,38.800 277.600 C 38.800 277.160,38.620 276.800,38.400 276.800 C 38.180 276.800,38.000 276.451,38.000 276.024 C 38.000 275.597,37.820 275.136,37.600 275.000 C 37.380 274.864,37.200 274.403,37.200 273.976 C 37.200 273.549,37.020 273.200,36.800 273.200 C 36.580 273.200,36.400 272.840,36.400 272.400 C 36.400 271.960,36.220 271.600,36.000 271.600 C 35.780 271.600,35.600 271.240,35.600 270.800 C 35.600 270.360,35.420 270.000,35.200 270.000 C 34.980 270.000,34.800 269.460,34.800 268.800 C 34.800 268.140,34.620 267.600,34.400 267.600 C 34.180 267.600,34.000 267.240,34.000 266.800 C 34.000 266.360,33.820 266.000,33.600 266.000 C 33.380 266.000,33.200 265.460,33.200 264.800 C 33.200 264.140,33.020 263.600,32.800 263.600 C 32.580 263.600,32.400 263.240,32.400 262.800 C 32.400 262.360,32.220 262.000,32.000 262.000 C 31.780 262.000,31.600 261.561,31.600 261.024 C 31.600 260.487,31.420 259.936,31.200 259.800 C 30.980 259.664,30.800 259.113,30.800 258.576 C 30.800 258.039,30.620 257.600,30.400 257.600 C 30.180 257.600,30.000 257.060,30.000 256.400 C 30.000 255.740,29.820 255.200,29.600 255.200 C 29.380 255.200,29.200 254.660,29.200 254.000 C 29.200 253.340,29.020 252.800,28.800 252.800 C 28.580 252.800,28.400 252.170,28.400 251.400 C 28.400 250.630,28.220 250.000,28.000 250.000 C 27.780 250.000,27.600 249.370,27.600 248.600 C 27.600 247.830,27.420 247.200,27.200 247.200 C 26.980 247.200,26.800 246.570,26.800 245.800 C 26.800 245.030,26.620 244.400,26.400 244.400 C 26.180 244.400,26.000 243.680,26.000 242.800 C 26.000 241.920,25.849 241.200,25.664 241.200 C 25.371 241.200,25.125 239.787,24.168 232.600 C 24.050 231.720,23.793 230.640,23.597 230.200 C 23.229 229.378,22.932 227.099,22.554 222.200 C 22.435 220.660,22.172 219.229,21.969 219.020 C 21.766 218.811,21.600 216.617,21.600 214.144 C 21.600 211.577,21.428 209.541,21.200 209.400 C 20.658 209.065,20.658 190.935,21.200 190.600 C 21.428 190.459,21.600 188.423,21.600 185.856 C 21.600 183.383,21.766 181.189,21.969 180.980 C 22.172 180.771,22.435 179.340,22.554 177.800 C 22.932 172.901,23.229 170.622,23.597 169.800 C 23.793 169.360,24.050 168.280,24.168 167.400 C 25.125 160.213,25.371 158.800,25.664 158.800 C 25.849 158.800,26.000 158.080,26.000 157.200 C 26.000 156.320,26.180 155.600,26.400 155.600 C 26.620 155.600,26.800 154.970,26.800 154.200 C 26.800 153.430,26.980 152.800,27.200 152.800 C 27.420 152.800,27.600 152.170,27.600 151.400 C 27.600 150.630,27.780 150.000,28.000 150.000 C 28.220 150.000,28.400 149.370,28.400 148.600 C 28.400 147.830,28.580 147.200,28.800 147.200 C 29.020 147.200,29.200 146.660,29.200 146.000 C 29.200 145.340,29.380 144.800,29.600 144.800 C 29.820 144.800,30.000 144.260,30.000 143.600 C 30.000 142.940,30.180 142.400,30.400 142.400 C 30.620 142.400,30.800 141.961,30.800 141.424 C 30.800 140.887,30.980 140.336,31.200 140.200 C 31.420 140.064,31.600 139.513,31.600 138.976 C 31.600 138.439,31.780 138.000,32.000 138.000 C 32.220 138.000,32.400 137.640,32.400 137.200 C 32.400 136.760,32.580 136.400,32.800 136.400 C 33.020 136.400,33.200 135.860,33.200 135.200 C 33.200 134.540,33.380 134.000,33.600 134.000 C 33.820 134.000,34.000 133.640,34.000 133.200 C 34.000 132.760,34.180 132.400,34.400 132.400 C 34.620 132.400,34.800 131.860,34.800 131.200 C 34.800 130.540,34.980 130.000,35.200 130.000 C 35.420 130.000,35.600 129.640,35.600 129.200 C 35.600 128.760,35.801 128.400,36.047 128.400 C 36.296 128.400,36.401 128.047,36.284 127.600 C 36.148 127.080,36.272 126.800,36.637 126.800 C 36.947 126.800,37.200 126.451,37.200 126.024 C 37.200 125.597,37.380 125.136,37.600 125.000 C 37.820 124.864,38.000 124.403,38.000 123.976 C 38.000 123.549,38.180 123.200,38.400 123.200 C 38.620 123.200,38.800 122.840,38.800 122.400 C 38.800 121.960,38.980 121.600,39.200 121.600 C 39.420 121.600,39.600 121.240,39.600 120.800 C 39.600 120.360,39.738 120.000,39.906 120.000 C 40.227 120.000,41.600 117.080,41.600 116.397 C 41.600 116.179,41.780 116.000,42.000 116.000 C 42.220 116.000,42.400 115.640,42.400 115.200 C 42.400 114.760,42.580 114.400,42.800 114.400 C 43.020 114.400,43.200 114.040,43.200 113.600 C 43.200 113.160,43.380 112.800,43.600 112.800 C 43.820 112.800,44.000 112.480,44.000 112.088 C 44.000 111.697,44.360 111.117,44.800 110.800 C 45.240 110.483,45.600 109.903,45.600 109.512 C 45.600 109.120,45.780 108.800,46.000 108.800 C 46.220 108.800,46.400 108.530,46.400 108.200 C 46.400 107.870,46.580 107.600,46.800 107.600 C 47.020 107.600,47.200 107.330,47.200 107.000 C 47.200 106.670,47.380 106.400,47.600 106.400 C 47.820 106.400,48.000 106.130,48.000 105.800 C 48.000 105.470,48.180 105.200,48.400 105.200 C 48.620 105.200,48.800 104.880,48.800 104.488 C 48.800 104.097,49.160 103.517,49.600 103.200 C 50.040 102.883,50.400 102.343,50.400 102.000 C 50.400 101.657,50.760 101.117,51.200 100.800 C 51.640 100.483,52.000 99.943,52.000 99.600 C 52.000 99.257,52.360 98.717,52.800 98.400 C 53.240 98.083,53.600 97.638,53.601 97.412 C 53.601 97.185,54.141 96.370,54.800 95.600 C 55.459 94.830,55.999 94.063,55.999 93.896 C 56.000 93.729,56.540 93.028,57.200 92.337 C 57.860 91.646,58.400 90.951,58.400 90.791 C 58.400 90.631,59.030 89.813,59.800 88.972 C 60.570 88.131,61.200 87.300,61.200 87.124 C 61.200 86.949,62.280 85.708,63.600 84.368 C 64.920 83.027,66.000 81.768,66.000 81.570 C 66.000 81.100,81.100 66.000,81.570 66.000 C 81.768 66.000,83.027 64.920,84.368 63.600 C 85.708 62.280,86.949 61.200,87.124 61.200 C 87.300 61.200,88.131 60.570,88.972 59.800 C 89.813 59.030,90.631 58.400,90.791 58.400 C 90.951 58.400,91.646 57.860,92.337 57.200 C 93.028 56.540,93.729 56.000,93.896 55.999 C 94.063 55.999,94.830 55.459,95.600 54.800 C 96.370 54.141,97.185 53.601,97.412 53.601 C 97.638 53.600,98.083 53.240,98.400 52.800 C 98.717 52.360,99.257 52.000,99.600 52.000 C 99.943 52.000,100.483 51.640,100.800 51.200 C 101.117 50.760,101.657 50.400,102.000 50.400 C 102.343 50.400,102.883 50.040,103.200 49.600 C 103.517 49.160,104.097 48.800,104.488 48.800 C 104.880 48.800,105.200 48.620,105.200 48.400 C 105.200 48.180,105.470 48.000,105.800 48.000 C 106.130 48.000,106.400 47.820,106.400 47.600 C 106.400 47.380,106.670 47.200,107.000 47.200 C 107.330 47.200,107.600 47.020,107.600 46.800 C 107.600 46.580,107.870 46.400,108.200 46.400 C 108.530 46.400,108.800 46.220,108.800 46.000 C 108.800 45.780,109.120 45.600,109.512 45.600 C 109.903 45.600,110.483 45.240,110.800 44.800 C 111.117 44.360,111.697 44.000,112.088 44.000 C 112.480 44.000,112.800 43.820,112.800 43.600 C 112.800 43.380,113.160 43.200,113.600 43.200 C 114.040 43.200,114.400 43.020,114.400 42.800 C 114.400 42.580,114.760 42.400,115.200 42.400 C 115.640 42.400,116.000 42.220,116.000 42.000 C 116.000 41.780,116.179 41.600,116.397 41.600 C 117.080 41.600,120.000 40.227,120.000 39.906 C 120.000 39.738,120.360 39.600,120.800 39.600 C 121.240 39.600,121.600 39.420,121.600 39.200 C 121.600 38.980,121.960 38.800,122.400 38.800 C 122.840 38.800,123.200 38.620,123.200 38.400 C 123.200 38.180,123.549 38.000,123.976 38.000 C 124.403 38.000,124.864 37.820,125.000 37.600 C 125.136 37.380,125.597 37.200,126.024 37.200 C 126.451 37.200,126.800 36.947,126.800 36.637 C 126.800 36.272,127.080 36.148,127.600 36.284 C 128.047 36.401,128.400 36.296,128.400 36.047 C 128.400 35.801,128.760 35.600,129.200 35.600 C 129.640 35.600,130.000 35.420,130.000 35.200 C 130.000 34.980,130.540 34.800,131.200 34.800 C 131.860 34.800,132.400 34.620,132.400 34.400 C 132.400 34.180,132.760 34.000,133.200 34.000 C 133.640 34.000,134.000 33.820,134.000 33.600 C 134.000 33.380,134.540 33.200,135.200 33.200 C 135.860 33.200,136.400 33.020,136.400 32.800 C 136.400 32.580,136.760 32.400,137.200 32.400 C 137.640 32.400,138.000 32.220,138.000 32.000 C 138.000 31.780,138.439 31.600,138.976 31.600 C 139.513 31.600,140.064 31.420,140.200 31.200 C 140.336 30.980,140.887 30.800,141.424 30.800 C 141.961 30.800,142.400 30.620,142.400 30.400 C 142.400 30.180,142.940 30.000,143.600 30.000 C 144.260 30.000,144.800 29.820,144.800 29.600 C 144.800 29.380,145.340 29.200,146.000 29.200 C 146.660 29.200,147.200 29.020,147.200 28.800 C 147.200 28.580,147.830 28.400,148.600 28.400 C 149.370 28.400,150.000 28.220,150.000 28.000 C 150.000 27.780,150.630 27.600,151.400 27.600 C 152.170 27.600,152.800 27.420,152.800 27.200 C 152.800 26.980,153.430 26.800,154.200 26.800 C 154.970 26.800,155.600 26.620,155.600 26.400 C 155.600 26.180,156.320 26.000,157.200 26.000 C 158.080 26.000,158.800 25.849,158.800 25.664 C 158.800 25.371,160.213 25.125,167.400 24.168 C 168.280 24.050,169.360 23.793,169.800 23.597 C 170.622 23.229,172.901 22.932,177.800 22.554 C 179.340 22.435,180.771 22.172,180.980 21.969 C 181.189 21.766,183.383 21.600,185.856 21.600 C 188.423 21.600,190.459 21.428,190.600 21.200 C 190.753 20.952,194.330 20.800,200.000 20.800 C 205.670 20.800,209.247 20.952,209.400 21.200 M109.200 100.800 C 109.200 101.020,108.660 101.200,108.000 101.200 C 107.340 101.200,106.800 101.380,106.800 101.600 C 106.800 101.820,106.525 102.000,106.189 102.000 C 105.396 102.000,102.000 105.396,102.000 106.189 C 102.000 106.525,101.820 106.800,101.600 106.800 C 101.380 106.800,101.200 107.340,101.200 108.000 C 101.200 108.660,101.020 109.200,100.800 109.200 C 100.580 109.200,100.400 110.179,100.400 111.376 C 100.400 112.573,100.580 113.664,100.800 113.800 C 101.020 113.936,101.200 114.399,101.200 114.829 C 101.200 115.624,101.720 116.701,102.800 118.139 C 103.130 118.579,121.535 137.102,143.700 159.302 C 165.865 181.502,184.000 199.816,184.000 200.000 C 184.000 200.184,165.865 218.498,143.700 240.698 C 121.535 262.898,103.130 281.421,102.800 281.861 C 101.720 283.299,101.200 284.376,101.200 285.171 C 101.200 285.601,101.020 286.064,100.800 286.200 C 100.279 286.522,100.279 290.678,100.800 291.000 C 101.020 291.136,101.200 291.687,101.200 292.224 C 101.200 292.761,101.380 293.200,101.600 293.200 C 101.820 293.200,102.000 293.475,102.000 293.811 C 102.000 294.604,105.396 298.000,106.189 298.000 C 106.525 298.000,106.800 298.180,106.800 298.400 C 106.800 298.620,107.340 298.800,108.000 298.800 C 108.660 298.800,109.200 298.980,109.200 299.200 C 109.200 299.420,110.179 299.600,111.376 299.600 C 112.573 299.600,113.664 299.420,113.800 299.200 C 113.936 298.980,114.399 298.800,114.829 298.800 C 116.776 298.800,114.104 301.356,160.088 255.500 C 181.874 233.775,199.876 216.000,200.094 216.000 C 200.312 216.000,208.775 224.275,218.901 234.389 C 229.027 244.503,237.495 252.665,237.718 252.527 C 237.941 252.389,238.006 252.467,237.862 252.700 C 237.717 252.934,246.988 262.505,258.552 274.062 C 283.664 299.157,283.279 298.800,285.171 298.800 C 285.601 298.800,286.064 298.980,286.200 299.200 C 286.336 299.420,287.416 299.600,288.600 299.600 C 289.784 299.600,290.864 299.420,291.000 299.200 C 291.136 298.980,291.687 298.800,292.224 298.800 C 292.761 298.800,293.200 298.620,293.200 298.400 C 293.200 298.180,293.475 298.000,293.811 298.000 C 294.146 298.000,295.226 297.195,296.211 296.211 C 297.195 295.226,298.000 294.146,298.000 293.811 C 298.000 293.475,298.180 293.200,298.400 293.200 C 298.620 293.200,298.800 292.761,298.800 292.224 C 298.800 291.687,298.980 291.136,299.200 291.000 C 299.741 290.665,299.708 287.106,299.150 285.719 C 297.594 281.849,301.843 286.312,256.300 240.698 C 234.135 218.498,216.000 200.144,216.000 199.911 C 216.000 199.677,233.775 181.714,255.500 159.993 C 301.066 114.435,298.800 116.798,298.800 114.829 C 298.800 114.399,298.980 113.936,299.200 113.800 C 299.420 113.664,299.600 112.573,299.600 111.376 C 299.600 110.179,299.420 109.200,299.200 109.200 C 298.980 109.200,298.800 108.660,298.800 108.000 C 298.800 107.340,298.620 106.800,298.400 106.800 C 298.180 106.800,298.000 106.525,298.000 106.189 C 298.000 105.396,294.604 102.000,293.811 102.000 C 293.475 102.000,293.200 101.820,293.200 101.600 C 293.200 101.380,292.761 101.200,292.224 101.200 C 291.687 101.200,291.136 101.020,291.000 100.800 C 290.678 100.279,286.522 100.279,286.200 100.800 C 286.064 101.020,285.601 101.200,285.171 101.200 C 284.376 101.200,283.299 101.720,281.861 102.800 C 281.421 103.130,262.898 121.535,240.698 143.700 C 218.498 165.865,200.184 184.000,200.000 184.000 C 199.816 184.000,181.502 165.865,159.302 143.700 C 137.102 121.535,118.579 103.130,118.139 102.800 C 116.701 101.720,115.624 101.200,114.829 101.200 C 114.399 101.200,113.936 101.020,113.800 100.800 C 113.664 100.580,112.573 100.400,111.376 100.400 C 110.179 100.400,109.200 100.580,109.200 100.800 " stroke="none" fill="#543c84" fill-rule="evenodd"></path><path id="path1" d="" stroke="none" fill="#583c84" fill-rule="evenodd"></path><path id="path2" d="" stroke="none" fill="#583c84" fill-rule="evenodd"></path><path id="path3" d="" stroke="none" fill="#583c84" fill-rule="evenodd"></path><path id="path4" d="" stroke="none" fill="#583c84" fill-rule="evenodd"></path></g></svg>