<svg id="svg" version="1.1" xmlns="http://www.w3.org/2000/svg" xmlns:xlink="http://www.w3.org/1999/xlink" width="400" height="400" viewBox="0, 0, 400,400"><g id="svgg"><path id="path0" d="M193.500 75.627 C 192.675 76.063,192.000 76.625,192.000 76.876 C 192.000 77.128,191.892 77.225,191.760 77.093 C 191.408 76.741,188.800 79.467,188.800 80.187 C 188.800 80.524,188.620 80.800,188.400 80.800 C 188.180 80.800,188.000 81.160,188.000 81.600 C 188.000 82.040,187.820 82.400,187.600 82.400 C 187.335 82.400,187.200 100.133,187.200 134.800 L 187.200 187.200 134.800 187.200 C 100.133 187.200,82.400 187.335,82.400 187.600 C 82.400 187.820,82.040 188.000,81.600 188.000 C 81.160 188.000,80.800 188.180,80.800 188.400 C 80.800 188.620,80.524 188.800,80.187 188.800 C 79.467 188.800,76.741 191.408,77.093 191.760 C 77.225 191.892,77.127 192.000,76.875 192.000 C 74.831 192.000,73.865 202.999,75.608 206.416 C 76.053 207.287,76.623 208.000,76.875 208.000 C 77.127 208.000,77.225 208.108,77.093 208.240 C 76.741 208.592,79.467 211.200,80.187 211.200 C 80.524 211.200,80.800 211.380,80.800 211.600 C 80.800 211.820,81.160 212.000,81.600 212.000 C 82.040 212.000,82.400 212.180,82.400 212.400 C 82.400 212.665,100.133 212.800,134.800 212.800 L 187.200 212.800 187.200 265.200 C 187.200 299.867,187.335 317.600,187.600 317.600 C 187.820 317.600,188.000 317.960,188.000 318.400 C 188.000 318.840,188.180 319.200,188.400 319.200 C 188.620 319.200,188.800 319.488,188.800 319.840 C 188.800 320.659,192.058 323.747,193.791 324.569 C 195.672 325.462,204.328 325.462,206.209 324.569 C 207.942 323.747,211.200 320.659,211.200 319.840 C 211.200 319.488,211.380 319.200,211.600 319.200 C 211.820 319.200,212.000 318.840,212.000 318.400 C 212.000 317.960,212.180 317.600,212.400 317.600 C 212.665 317.600,212.800 299.867,212.800 265.200 L 212.800 212.800 265.200 212.800 C 299.867 212.800,317.600 212.665,317.600 212.400 C 317.600 212.180,317.960 212.000,318.400 212.000 C 318.840 212.000,319.200 211.820,319.200 211.600 C 319.200 211.380,319.488 211.200,319.840 211.200 C 320.659 211.200,323.747 207.942,324.569 206.209 C 325.462 204.328,325.462 195.672,324.569 193.791 C 323.747 192.058,320.659 188.800,319.840 188.800 C 319.488 188.800,319.200 188.620,319.200 188.400 C 319.200 188.180,318.840 188.000,318.400 188.000 C 317.960 188.000,317.600 187.820,317.600 187.600 C 317.600 187.335,299.867 187.200,265.200 187.200 L 212.800 187.200 212.800 134.800 C 212.800 100.133,212.665 82.400,212.400 82.400 C 212.180 82.400,212.000 82.040,212.000 81.600 C 212.000 81.160,211.820 80.800,211.600 80.800 C 211.380 80.800,211.200 80.524,211.200 80.187 C 211.200 79.467,208.592 76.741,208.240 77.093 C 208.108 77.225,208.000 77.127,208.000 76.875 C 208.000 74.838,196.817 73.876,193.500 75.627 " stroke="none" fill="#543c84" fill-rule="evenodd"></path><path id="path1" d="" stroke="none" fill="#583c84" fill-rule="evenodd"></path><path id="path2" d="" stroke="none" fill="#583c84" fill-rule="evenodd"></path><path id="path3" d="" stroke="none" fill="#583c84" fill-rule="evenodd"></path><path id="path4" d="" stroke="none" fill="#583c84" fill-rule="evenodd"></path></g></svg>