<?xml version="1.0" standalone="no"?>
<!DOCTYPE svg PUBLIC "-//W3C//DTD SVG 20010904//EN"
 "http://www.w3.org/TR/2001/REC-SVG-20010904/DTD/svg10.dtd">
<svg version="1.0" xmlns="http://www.w3.org/2000/svg"
 width="512.000000pt" height="512.000000pt" viewBox="0 0 512.000000 512.000000"
 preserveAspectRatio="xMidYMid meet">

<g transform="translate(0.000000,512.000000) scale(0.100000,-0.100000)"
fill="#000000" stroke="none">
<path d="M3440 5105 c-517 -105 -931 -589 -931 -1087 0 -142 2 -144 114 -142
425 8 839 382 958 867 25 106 36 312 17 347 -16 31 -62 35 -158 15z"/>
<path d="M3381 3899 c-114 -11 -257 -49 -430 -115 -266 -102 -282 -106 -356
-108 -78 -1 -94 4 -345 99 -246 94 -316 109 -485 109 -247 0 -452 -64 -680
-212 -92 -61 -279 -247 -343 -344 -196 -294 -283 -636 -269 -1068 20 -635 264
-1276 695 -1828 161 -207 312 -336 461 -396 69 -27 87 -30 191 -30 138 0 182
11 405 100 200 79 275 96 430 97 148 0 228 -17 377 -79 214 -88 281 -106 408
-112 185 -7 309 36 466 162 125 101 330 362 478 609 111 187 266 540 266 607
0 14 -25 32 -87 64 -277 144 -473 386 -555 684 -18 66 -22 105 -22 267 0 179
1 195 27 280 74 245 228 458 441 609 36 26 66 54 66 63 0 22 -55 97 -128 175
-162 171 -384 292 -629 343 -68 14 -260 36 -288 33 -5 0 -48 -4 -94 -9z"/>
</g>
</svg>
