<svg id="svg" version="1.1" xmlns="http://www.w3.org/2000/svg" xmlns:xlink="http://www.w3.org/1999/xlink" width="400" height="400" viewBox="0, 0, 400,400"><g id="svgg"><path id="path0" d="M179.003 0.275 C 177.025 0.362,175.234 0.606,175.023 0.817 C 174.812 1.028,173.427 1.200,171.944 1.200 C 170.461 1.200,169.136 1.380,169.000 1.600 C 168.864 1.820,167.773 2.000,166.576 2.000 C 165.379 2.000,164.400 2.180,164.400 2.400 C 164.400 2.620,163.410 2.800,162.200 2.800 C 160.990 2.800,160.000 2.980,160.000 3.200 C 160.000 3.420,159.280 3.600,158.400 3.600 C 157.520 3.600,156.800 3.780,156.800 4.000 C 156.800 4.220,155.900 4.400,154.800 4.400 C 153.700 4.400,152.800 4.580,152.800 4.800 C 152.800 5.020,152.080 5.200,151.200 5.200 C 150.320 5.200,149.600 5.380,149.600 5.600 C 149.600 5.820,148.970 6.000,148.200 6.000 C 147.430 6.000,146.800 6.180,146.800 6.400 C 146.800 6.620,146.170 6.800,145.400 6.800 C 144.630 6.800,144.000 6.980,144.000 7.200 C 144.000 7.420,143.370 7.600,142.600 7.600 C 141.830 7.600,141.200 7.780,141.200 8.000 C 141.200 8.220,140.753 8.400,140.206 8.400 C 139.350 8.400,132.162 10.584,129.800 11.562 C 127.245 12.620,126.531 12.928,125.905 13.247 C 125.523 13.441,124.938 13.600,124.605 13.600 C 124.272 13.600,124.000 13.780,124.000 14.000 C 124.000 14.220,123.561 14.400,123.024 14.400 C 122.487 14.400,121.936 14.580,121.800 14.800 C 121.664 15.020,121.203 15.200,120.776 15.200 C 120.349 15.200,120.000 15.380,120.000 15.600 C 120.000 15.820,119.640 16.000,119.200 16.000 C 118.760 16.000,118.400 16.180,118.400 16.400 C 118.400 16.620,118.040 16.800,117.600 16.800 C 117.160 16.800,116.800 16.980,116.800 17.200 C 116.800 17.420,116.528 17.600,116.195 17.600 C 115.862 17.600,115.277 17.760,114.895 17.956 C 114.513 18.152,113.300 18.737,112.200 19.256 C 111.100 19.775,110.140 20.335,110.067 20.500 C 109.993 20.665,109.588 20.800,109.167 20.800 C 108.745 20.800,108.400 20.980,108.400 21.200 C 108.400 21.420,108.040 21.600,107.600 21.600 C 107.160 21.600,106.800 21.780,106.800 22.000 C 106.800 22.220,106.440 22.400,106.000 22.400 C 105.560 22.400,105.200 22.580,105.200 22.800 C 105.200 23.020,104.964 23.200,104.675 23.200 C 104.387 23.200,103.764 23.560,103.292 24.000 C 102.820 24.440,102.225 24.800,101.971 24.800 C 101.389 24.800,97.447 26.895,97.267 27.300 C 97.193 27.465,96.956 27.600,96.739 27.600 C 96.522 27.600,95.559 28.140,94.600 28.800 C 93.641 29.460,92.703 30.000,92.516 30.000 C 92.329 30.000,91.917 30.360,91.600 30.800 C 91.283 31.240,90.743 31.600,90.400 31.600 C 90.057 31.600,89.517 31.960,89.200 32.400 C 88.883 32.840,88.343 33.200,88.000 33.200 C 87.657 33.200,87.117 33.560,86.800 34.000 C 86.483 34.440,85.943 34.800,85.600 34.800 C 85.257 34.800,84.717 35.160,84.400 35.600 C 84.083 36.040,83.593 36.400,83.312 36.400 C 83.030 36.400,82.800 36.580,82.800 36.800 C 82.800 37.020,82.570 37.200,82.288 37.200 C 82.007 37.200,81.517 37.560,81.200 38.000 C 80.883 38.440,80.375 38.800,80.072 38.800 C 79.769 38.800,79.017 39.340,78.400 40.000 C 77.783 40.660,77.164 41.200,77.023 41.200 C 76.752 41.200,76.352 41.514,74.349 43.300 C 73.671 43.905,72.958 44.400,72.766 44.400 C 72.574 44.400,71.427 45.390,70.217 46.600 C 69.007 47.810,67.843 48.800,67.629 48.800 C 67.416 48.800,65.297 50.770,62.921 53.179 C 57.684 58.486,58.486 57.684,53.179 62.921 C 50.770 65.297,48.800 67.416,48.800 67.629 C 48.800 67.843,47.810 69.007,46.600 70.217 C 45.390 71.427,44.400 72.574,44.400 72.766 C 44.400 72.958,43.859 73.719,43.199 74.458 C 41.469 76.390,41.200 76.736,41.200 77.023 C 41.200 77.164,40.660 77.783,40.000 78.400 C 39.340 79.017,38.800 79.769,38.800 80.072 C 38.800 80.375,38.440 80.883,38.000 81.200 C 37.560 81.517,37.200 82.007,37.200 82.288 C 37.200 82.570,37.020 82.800,36.800 82.800 C 36.580 82.800,36.400 83.030,36.400 83.312 C 36.400 83.593,36.040 84.083,35.600 84.400 C 35.160 84.717,34.800 85.257,34.800 85.600 C 34.800 85.943,34.440 86.483,34.000 86.800 C 33.560 87.117,33.200 87.657,33.200 88.000 C 33.200 88.343,32.840 88.883,32.400 89.200 C 31.960 89.517,31.600 90.057,31.600 90.400 C 31.600 90.743,31.240 91.283,30.800 91.600 C 30.360 91.917,30.000 92.329,30.000 92.516 C 30.000 92.703,29.460 93.641,28.800 94.600 C 28.140 95.559,27.600 96.522,27.600 96.739 C 27.600 96.956,27.465 97.193,27.300 97.267 C 26.895 97.447,24.800 101.389,24.800 101.971 C 24.800 102.225,24.440 102.820,24.000 103.292 C 23.560 103.764,23.200 104.387,23.200 104.675 C 23.200 104.964,23.020 105.200,22.800 105.200 C 22.580 105.200,22.400 105.560,22.400 106.000 C 22.400 106.440,22.220 106.800,22.000 106.800 C 21.780 106.800,21.600 107.160,21.600 107.600 C 21.600 108.040,21.420 108.400,21.200 108.400 C 20.980 108.400,20.800 108.745,20.800 109.167 C 20.800 109.588,20.665 109.993,20.500 110.067 C 20.335 110.140,19.775 111.100,19.256 112.200 C 18.737 113.300,18.152 114.513,17.956 114.895 C 17.760 115.277,17.600 115.862,17.600 116.195 C 17.600 116.528,17.420 116.800,17.200 116.800 C 16.980 116.800,16.800 117.160,16.800 117.600 C 16.800 118.040,16.620 118.400,16.400 118.400 C 16.180 118.400,16.000 118.760,16.000 119.200 C 16.000 119.640,15.820 120.000,15.600 120.000 C 15.380 120.000,15.200 120.349,15.200 120.776 C 15.200 121.203,15.020 121.664,14.800 121.800 C 14.580 121.936,14.400 122.487,14.400 123.024 C 14.400 123.561,14.220 124.000,14.000 124.000 C 13.780 124.000,13.600 124.272,13.600 124.605 C 13.600 124.938,13.441 125.523,13.247 125.905 C 13.052 126.287,12.716 127.050,12.500 127.600 C 12.284 128.150,11.910 129.050,11.669 129.600 C 10.701 131.808,8.400 139.274,8.400 140.206 C 8.400 140.753,8.220 141.200,8.000 141.200 C 7.780 141.200,7.600 141.830,7.600 142.600 C 7.600 143.370,7.420 144.000,7.200 144.000 C 6.980 144.000,6.800 144.630,6.800 145.400 C 6.800 146.170,6.620 146.800,6.400 146.800 C 6.180 146.800,6.000 147.430,6.000 148.200 C 6.000 148.970,5.820 149.600,5.600 149.600 C 5.380 149.600,5.200 150.320,5.200 151.200 C 5.200 152.080,5.020 152.800,4.800 152.800 C 4.580 152.800,4.400 153.700,4.400 154.800 C 4.400 155.900,4.220 156.800,4.000 156.800 C 3.780 156.800,3.600 157.520,3.600 158.400 C 3.600 159.280,3.420 160.000,3.200 160.000 C 2.980 160.000,2.800 160.990,2.800 162.200 C 2.800 163.410,2.620 164.400,2.400 164.400 C 2.180 164.400,2.000 165.379,2.000 166.576 C 2.000 167.773,1.820 168.864,1.600 169.000 C 1.380 169.136,1.200 170.461,1.200 171.944 C 1.200 173.567,1.001 174.839,0.700 175.140 C -0.029 175.869,-0.029 224.131,0.700 224.860 C 1.001 225.161,1.200 226.433,1.200 228.056 C 1.200 229.539,1.380 230.864,1.600 231.000 C 1.820 231.136,2.000 232.227,2.000 233.424 C 2.000 234.621,2.180 235.600,2.400 235.600 C 2.620 235.600,2.800 236.590,2.800 237.800 C 2.800 239.010,2.980 240.000,3.200 240.000 C 3.420 240.000,3.600 240.720,3.600 241.600 C 3.600 242.480,3.780 243.200,4.000 243.200 C 4.220 243.200,4.400 244.100,4.400 245.200 C 4.400 246.300,4.580 247.200,4.800 247.200 C 5.020 247.200,5.200 247.920,5.200 248.800 C 5.200 249.680,5.380 250.400,5.600 250.400 C 5.820 250.400,6.000 251.030,6.000 251.800 C 6.000 252.570,6.180 253.200,6.400 253.200 C 6.620 253.200,6.800 253.830,6.800 254.600 C 6.800 255.370,6.980 256.000,7.200 256.000 C 7.420 256.000,7.600 256.630,7.600 257.400 C 7.600 258.170,7.780 258.800,8.000 258.800 C 8.220 258.800,8.400 259.247,8.400 259.794 C 8.400 260.650,10.584 267.838,11.562 270.200 C 12.620 272.755,12.928 273.469,13.247 274.095 C 13.441 274.477,13.600 275.062,13.600 275.395 C 13.600 275.728,13.780 276.000,14.000 276.000 C 14.220 276.000,14.400 276.439,14.400 276.976 C 14.400 277.513,14.580 278.064,14.800 278.200 C 15.020 278.336,15.200 278.797,15.200 279.224 C 15.200 279.651,15.380 280.000,15.600 280.000 C 15.820 280.000,16.000 280.360,16.000 280.800 C 16.000 281.240,16.180 281.600,16.400 281.600 C 16.620 281.600,16.800 281.960,16.800 282.400 C 16.800 282.840,16.980 283.200,17.200 283.200 C 17.420 283.200,17.600 283.472,17.600 283.805 C 17.600 284.138,17.760 284.723,17.956 285.105 C 18.152 285.487,18.737 286.700,19.256 287.800 C 19.775 288.900,20.335 289.860,20.500 289.933 C 20.665 290.007,20.800 290.412,20.800 290.833 C 20.800 291.255,20.980 291.600,21.200 291.600 C 21.420 291.600,21.600 291.960,21.600 292.400 C 21.600 292.840,21.780 293.200,22.000 293.200 C 22.220 293.200,22.400 293.560,22.400 294.000 C 22.400 294.440,22.580 294.800,22.800 294.800 C 23.020 294.800,23.200 295.036,23.200 295.325 C 23.200 295.613,23.560 296.236,24.000 296.708 C 24.440 297.180,24.800 297.775,24.800 298.029 C 24.800 298.611,26.895 302.553,27.300 302.733 C 27.465 302.807,27.600 303.044,27.600 303.261 C 27.600 303.478,28.140 304.441,28.800 305.400 C 29.460 306.359,30.000 307.297,30.000 307.484 C 30.000 307.671,30.360 308.083,30.800 308.400 C 31.240 308.717,31.600 309.257,31.600 309.600 C 31.600 309.943,31.960 310.483,32.400 310.800 C 32.840 311.117,33.200 311.657,33.200 312.000 C 33.200 312.343,33.560 312.883,34.000 313.200 C 34.440 313.517,34.800 314.057,34.800 314.400 C 34.800 314.743,35.160 315.283,35.600 315.600 C 36.040 315.917,36.400 316.407,36.400 316.688 C 36.400 316.970,36.580 317.200,36.800 317.200 C 37.020 317.200,37.200 317.430,37.200 317.712 C 37.200 317.993,37.560 318.483,38.000 318.800 C 38.440 319.117,38.800 319.625,38.800 319.928 C 38.800 320.231,39.340 320.983,40.000 321.600 C 40.660 322.217,41.200 322.836,41.200 322.977 C 41.200 323.264,41.469 323.610,43.199 325.542 C 43.859 326.281,44.400 327.042,44.400 327.234 C 44.400 327.426,45.390 328.573,46.600 329.783 C 47.810 330.993,48.800 332.157,48.800 332.371 C 48.800 332.584,50.770 334.703,53.179 337.079 C 58.486 342.316,57.684 341.514,62.921 346.821 C 65.297 349.230,67.416 351.200,67.629 351.200 C 67.843 351.200,69.007 352.190,70.217 353.400 C 71.427 354.610,72.571 355.600,72.758 355.600 C 72.946 355.600,73.887 356.320,74.849 357.200 C 75.812 358.080,76.753 358.800,76.939 358.800 C 77.126 358.800,77.783 359.340,78.400 360.000 C 79.017 360.660,79.769 361.200,80.072 361.200 C 80.375 361.200,80.883 361.560,81.200 362.000 C 81.517 362.440,82.007 362.800,82.288 362.800 C 82.570 362.800,82.800 362.980,82.800 363.200 C 82.800 363.420,83.030 363.600,83.312 363.600 C 83.593 363.600,84.083 363.960,84.400 364.400 C 84.717 364.840,85.257 365.200,85.600 365.200 C 85.943 365.200,86.483 365.560,86.800 366.000 C 87.117 366.440,87.657 366.800,88.000 366.800 C 88.343 366.800,88.883 367.160,89.200 367.600 C 89.517 368.040,90.057 368.400,90.400 368.400 C 90.743 368.400,91.283 368.760,91.600 369.200 C 91.917 369.640,92.329 370.000,92.516 370.000 C 92.703 370.000,93.641 370.540,94.600 371.200 C 95.559 371.860,96.522 372.400,96.739 372.400 C 96.956 372.400,97.193 372.535,97.267 372.700 C 97.447 373.105,101.389 375.200,101.971 375.200 C 102.225 375.200,102.820 375.560,103.292 376.000 C 103.764 376.440,104.387 376.800,104.675 376.800 C 104.964 376.800,105.200 376.980,105.200 377.200 C 105.200 377.420,105.560 377.600,106.000 377.600 C 106.440 377.600,106.800 377.780,106.800 378.000 C 106.800 378.220,107.160 378.400,107.600 378.400 C 108.040 378.400,108.400 378.580,108.400 378.800 C 108.400 379.020,108.745 379.200,109.167 379.200 C 109.588 379.200,109.993 379.335,110.067 379.500 C 110.140 379.665,111.100 380.225,112.200 380.744 C 113.300 381.263,114.513 381.848,114.895 382.044 C 115.277 382.240,115.862 382.400,116.195 382.400 C 116.528 382.400,116.800 382.580,116.800 382.800 C 116.800 383.020,117.160 383.200,117.600 383.200 C 118.040 383.200,118.400 383.380,118.400 383.600 C 118.400 383.820,118.760 384.000,119.200 384.000 C 119.640 384.000,120.000 384.180,120.000 384.400 C 120.000 384.620,120.349 384.800,120.776 384.800 C 121.203 384.800,121.664 384.980,121.800 385.200 C 121.936 385.420,122.487 385.600,123.024 385.600 C 123.561 385.600,124.000 385.780,124.000 386.000 C 124.000 386.220,124.272 386.400,124.605 386.400 C 124.938 386.400,125.523 386.559,125.905 386.753 C 126.531 387.072,127.245 387.380,129.800 388.438 C 132.162 389.416,139.350 391.600,140.206 391.600 C 140.753 391.600,141.200 391.780,141.200 392.000 C 141.200 392.220,141.830 392.400,142.600 392.400 C 143.370 392.400,144.000 392.580,144.000 392.800 C 144.000 393.020,144.630 393.200,145.400 393.200 C 146.170 393.200,146.800 393.380,146.800 393.600 C 146.800 393.820,147.430 394.000,148.200 394.000 C 148.970 394.000,149.600 394.180,149.600 394.400 C 149.600 394.620,150.320 394.800,151.200 394.800 C 152.080 394.800,152.800 394.980,152.800 395.200 C 152.800 395.420,153.700 395.600,154.800 395.600 C 155.900 395.600,156.800 395.780,156.800 396.000 C 156.800 396.220,157.520 396.400,158.400 396.400 C 159.280 396.400,160.000 396.580,160.000 396.800 C 160.000 397.020,160.990 397.200,162.200 397.200 C 163.410 397.200,164.400 397.380,164.400 397.600 C 164.400 397.820,165.379 398.000,166.576 398.000 C 167.773 398.000,168.864 398.180,169.000 398.400 C 169.136 398.620,170.461 398.800,171.944 398.800 C 173.567 398.800,174.839 398.999,175.140 399.300 C 175.529 399.689,181.045 399.800,200.000 399.800 C 218.955 399.800,224.471 399.689,224.860 399.300 C 225.161 398.999,226.433 398.800,228.056 398.800 C 229.539 398.800,230.864 398.620,231.000 398.400 C 231.136 398.180,232.227 398.000,233.424 398.000 C 234.621 398.000,235.600 397.820,235.600 397.600 C 235.600 397.380,236.590 397.200,237.800 397.200 C 239.010 397.200,240.000 397.020,240.000 396.800 C 240.000 396.580,240.720 396.400,241.600 396.400 C 242.480 396.400,243.200 396.220,243.200 396.000 C 243.200 395.780,244.100 395.600,245.200 395.600 C 246.300 395.600,247.200 395.420,247.200 395.200 C 247.200 394.980,247.920 394.800,248.800 394.800 C 249.680 394.800,250.400 394.620,250.400 394.400 C 250.400 394.180,251.030 394.000,251.800 394.000 C 252.570 394.000,253.200 393.820,253.200 393.600 C 253.200 393.380,253.830 393.200,254.600 393.200 C 255.370 393.200,256.000 393.020,256.000 392.800 C 256.000 392.580,256.630 392.400,257.400 392.400 C 258.170 392.400,258.800 392.220,258.800 392.000 C 258.800 391.780,259.241 391.600,259.780 391.600 C 260.960 391.600,269.744 388.755,269.933 388.312 C 270.007 388.140,270.414 388.000,270.839 388.000 C 271.263 388.000,271.968 387.820,272.405 387.600 C 272.842 387.380,273.558 387.020,273.995 386.800 C 274.432 386.580,275.062 386.400,275.395 386.400 C 275.728 386.400,276.000 386.220,276.000 386.000 C 276.000 385.780,276.439 385.600,276.976 385.600 C 277.513 385.600,278.064 385.420,278.200 385.200 C 278.336 384.980,278.797 384.800,279.224 384.800 C 279.651 384.800,280.000 384.620,280.000 384.400 C 280.000 384.180,280.360 384.000,280.800 384.000 C 281.240 384.000,281.600 383.820,281.600 383.600 C 281.600 383.380,281.960 383.200,282.400 383.200 C 282.840 383.200,283.200 383.020,283.200 382.800 C 283.200 382.580,283.472 382.400,283.805 382.400 C 284.138 382.400,284.723 382.240,285.105 382.044 C 285.487 381.848,286.700 381.263,287.800 380.744 C 288.900 380.225,289.860 379.665,289.933 379.500 C 290.007 379.335,290.412 379.200,290.833 379.200 C 291.255 379.200,291.600 379.020,291.600 378.800 C 291.600 378.580,291.960 378.400,292.400 378.400 C 292.840 378.400,293.200 378.220,293.200 378.000 C 293.200 377.780,293.560 377.600,294.000 377.600 C 294.440 377.600,294.800 377.420,294.800 377.200 C 294.800 376.980,295.036 376.800,295.325 376.800 C 295.613 376.800,296.236 376.440,296.708 376.000 C 297.180 375.560,297.775 375.200,298.029 375.200 C 298.611 375.200,302.553 373.105,302.733 372.700 C 302.807 372.535,303.044 372.400,303.261 372.400 C 303.478 372.400,304.441 371.860,305.400 371.200 C 306.359 370.540,307.297 370.000,307.484 370.000 C 307.671 370.000,308.083 369.640,308.400 369.200 C 308.717 368.760,309.257 368.400,309.600 368.400 C 309.943 368.400,310.483 368.040,310.800 367.600 C 311.117 367.160,311.657 366.800,312.000 366.800 C 312.343 366.800,312.883 366.440,313.200 366.000 C 313.517 365.560,314.009 365.200,314.292 365.200 C 314.575 365.200,315.372 364.660,316.063 364.000 C 316.754 363.340,317.522 362.800,317.771 362.800 C 318.020 362.800,318.483 362.440,318.800 362.000 C 319.117 361.560,319.625 361.200,319.928 361.200 C 320.231 361.200,320.983 360.660,321.600 360.000 C 322.217 359.340,322.874 358.800,323.061 358.800 C 323.247 358.800,324.188 358.080,325.151 357.200 C 326.113 356.320,327.054 355.600,327.242 355.600 C 327.429 355.600,328.573 354.610,329.783 353.400 C 330.993 352.190,332.157 351.200,332.371 351.200 C 332.584 351.200,334.703 349.230,337.079 346.821 C 342.316 341.514,341.514 342.316,346.821 337.079 C 349.230 334.703,351.200 332.584,351.200 332.371 C 351.200 332.157,352.190 330.993,353.400 329.783 C 354.610 328.573,355.600 327.429,355.600 327.242 C 355.600 327.054,356.320 326.113,357.200 325.151 C 358.080 324.188,358.800 323.247,358.800 323.061 C 358.800 322.874,359.340 322.217,360.000 321.600 C 360.660 320.983,361.200 320.231,361.200 319.928 C 361.200 319.625,361.560 319.117,362.000 318.800 C 362.440 318.483,362.800 318.020,362.800 317.771 C 362.800 317.522,363.340 316.754,364.000 316.063 C 364.660 315.372,365.200 314.575,365.200 314.292 C 365.200 314.009,365.560 313.517,366.000 313.200 C 366.440 312.883,366.800 312.343,366.800 312.000 C 366.800 311.657,367.160 311.117,367.600 310.800 C 368.040 310.483,368.400 309.943,368.400 309.600 C 368.400 309.257,368.760 308.717,369.200 308.400 C 369.640 308.083,370.000 307.671,370.000 307.484 C 370.000 307.297,370.540 306.359,371.200 305.400 C 371.860 304.441,372.400 303.463,372.400 303.228 C 372.400 302.993,372.580 302.800,372.800 302.800 C 373.020 302.800,373.200 302.440,373.200 302.000 C 373.200 301.560,373.347 301.200,373.526 301.200 C 373.874 301.200,375.200 298.642,375.200 297.970 C 375.200 297.748,375.560 297.180,376.000 296.708 C 376.440 296.236,376.800 295.613,376.800 295.325 C 376.800 295.036,376.980 294.800,377.200 294.800 C 377.420 294.800,377.600 294.440,377.600 294.000 C 377.600 293.560,377.780 293.200,378.000 293.200 C 378.220 293.200,378.400 292.840,378.400 292.400 C 378.400 291.960,378.580 291.600,378.800 291.600 C 379.020 291.600,379.200 291.255,379.200 290.833 C 379.200 290.412,379.335 290.007,379.500 289.933 C 379.665 289.860,380.225 288.900,380.744 287.800 C 381.263 286.700,381.848 285.487,382.044 285.105 C 382.240 284.723,382.400 284.138,382.400 283.805 C 382.400 283.472,382.580 283.200,382.800 283.200 C 383.020 283.200,383.200 282.840,383.200 282.400 C 383.200 281.960,383.380 281.600,383.600 281.600 C 383.820 281.600,384.000 281.240,384.000 280.800 C 384.000 280.360,384.180 280.000,384.400 280.000 C 384.620 280.000,384.800 279.651,384.800 279.224 C 384.800 278.797,384.980 278.336,385.200 278.200 C 385.420 278.064,385.600 277.513,385.600 276.976 C 385.600 276.439,385.780 276.000,386.000 276.000 C 386.220 276.000,386.400 275.728,386.400 275.395 C 386.400 275.062,386.580 274.432,386.800 273.995 C 387.020 273.558,387.380 272.842,387.600 272.405 C 387.820 271.968,388.000 271.263,388.000 270.839 C 388.000 270.414,388.140 270.007,388.312 269.933 C 388.755 269.744,391.600 260.960,391.600 259.780 C 391.600 259.241,391.780 258.800,392.000 258.800 C 392.220 258.800,392.400 258.170,392.400 257.400 C 392.400 256.630,392.580 256.000,392.800 256.000 C 393.020 256.000,393.200 255.370,393.200 254.600 C 393.200 253.830,393.380 253.200,393.600 253.200 C 393.820 253.200,394.000 252.570,394.000 251.800 C 394.000 251.030,394.180 250.400,394.400 250.400 C 394.620 250.400,394.800 249.680,394.800 248.800 C 394.800 247.920,394.980 247.200,395.200 247.200 C 395.420 247.200,395.600 246.300,395.600 245.200 C 395.600 244.100,395.780 243.200,396.000 243.200 C 396.220 243.200,396.400 242.480,396.400 241.600 C 396.400 240.720,396.580 240.000,396.800 240.000 C 397.020 240.000,397.200 239.010,397.200 237.800 C 397.200 236.590,397.380 235.600,397.600 235.600 C 397.820 235.600,398.000 234.621,398.000 233.424 C 398.000 232.227,398.180 231.136,398.400 231.000 C 398.620 230.864,398.800 229.539,398.800 228.056 C 398.800 226.433,398.999 225.161,399.300 224.860 C 400.029 224.131,400.029 175.869,399.300 175.140 C 398.999 174.839,398.800 173.567,398.800 171.944 C 398.800 170.461,398.620 169.136,398.400 169.000 C 398.180 168.864,398.000 167.773,398.000 166.576 C 398.000 165.379,397.820 164.400,397.600 164.400 C 397.380 164.400,397.200 163.410,397.200 162.200 C 397.200 160.990,397.020 160.000,396.800 160.000 C 396.580 160.000,396.400 159.280,396.400 158.400 C 396.400 157.520,396.220 156.800,396.000 156.800 C 395.780 156.800,395.600 155.900,395.600 154.800 C 395.600 153.700,395.420 152.800,395.200 152.800 C 394.980 152.800,394.800 152.080,394.800 151.200 C 394.800 150.320,394.620 149.600,394.400 149.600 C 394.180 149.600,394.000 148.970,394.000 148.200 C 394.000 147.430,393.820 146.800,393.600 146.800 C 393.380 146.800,393.200 146.170,393.200 145.400 C 393.200 144.630,393.020 144.000,392.800 144.000 C 392.580 144.000,392.400 143.370,392.400 142.600 C 392.400 141.830,392.220 141.200,392.000 141.200 C 391.780 141.200,391.600 140.759,391.600 140.220 C 391.600 139.040,388.755 130.256,388.312 130.067 C 388.140 129.993,388.000 129.586,388.000 129.161 C 388.000 128.737,387.820 128.032,387.600 127.595 C 387.380 127.158,387.020 126.442,386.800 126.005 C 386.580 125.568,386.400 124.938,386.400 124.605 C 386.400 124.272,386.220 124.000,386.000 124.000 C 385.780 124.000,385.600 123.561,385.600 123.024 C 385.600 122.487,385.420 121.936,385.200 121.800 C 384.980 121.664,384.800 121.203,384.800 120.776 C 384.800 120.349,384.620 120.000,384.400 120.000 C 384.180 120.000,384.000 119.640,384.000 119.200 C 384.000 118.760,383.820 118.400,383.600 118.400 C 383.380 118.400,383.200 118.040,383.200 117.600 C 383.200 117.160,383.020 116.800,382.800 116.800 C 382.580 116.800,382.400 116.528,382.400 116.195 C 382.400 115.862,382.240 115.277,382.044 114.895 C 381.848 114.513,381.263 113.300,380.744 112.200 C 380.225 111.100,379.665 110.140,379.500 110.067 C 379.335 109.993,379.200 109.588,379.200 109.167 C 379.200 108.745,379.020 108.400,378.800 108.400 C 378.580 108.400,378.400 108.040,378.400 107.600 C 378.400 107.160,378.220 106.800,378.000 106.800 C 377.780 106.800,377.600 106.440,377.600 106.000 C 377.600 105.560,377.420 105.200,377.200 105.200 C 376.980 105.200,376.800 104.964,376.800 104.675 C 376.800 104.387,376.440 103.764,376.000 103.292 C 375.560 102.820,375.200 102.252,375.200 102.030 C 375.200 101.358,373.874 98.800,373.526 98.800 C 373.347 98.800,373.200 98.440,373.200 98.000 C 373.200 97.560,373.020 97.200,372.800 97.200 C 372.580 97.200,372.400 97.007,372.400 96.772 C 372.400 96.537,371.860 95.559,371.200 94.600 C 370.540 93.641,370.000 92.703,370.000 92.516 C 370.000 92.329,369.640 91.917,369.200 91.600 C 368.760 91.283,368.400 90.743,368.400 90.400 C 368.400 90.057,368.040 89.517,367.600 89.200 C 367.160 88.883,366.800 88.343,366.800 88.000 C 366.800 87.657,366.440 87.117,366.000 86.800 C 365.560 86.483,365.200 85.943,365.200 85.600 C 365.200 85.257,364.840 84.717,364.400 84.400 C 363.960 84.083,363.600 83.593,363.600 83.312 C 363.600 83.030,363.420 82.800,363.200 82.800 C 362.980 82.800,362.800 82.570,362.800 82.288 C 362.800 82.007,362.440 81.517,362.000 81.200 C 361.560 80.883,361.200 80.375,361.200 80.072 C 361.200 79.769,360.660 79.017,360.000 78.400 C 359.340 77.783,358.800 77.126,358.800 76.939 C 358.800 76.753,358.080 75.812,357.200 74.849 C 356.320 73.887,355.600 72.946,355.600 72.758 C 355.600 72.571,354.610 71.427,353.400 70.217 C 352.190 69.007,351.200 67.843,351.200 67.629 C 351.200 67.416,349.230 65.297,346.821 62.921 C 341.514 57.684,342.316 58.486,337.079 53.179 C 334.703 50.770,332.584 48.800,332.371 48.800 C 332.157 48.800,330.993 47.810,329.783 46.600 C 328.573 45.390,327.426 44.400,327.234 44.400 C 327.042 44.400,326.329 43.905,325.651 43.300 C 323.648 41.514,323.248 41.200,322.977 41.200 C 322.836 41.200,322.217 40.660,321.600 40.000 C 320.983 39.340,320.231 38.800,319.928 38.800 C 319.625 38.800,319.117 38.440,318.800 38.000 C 318.483 37.560,317.993 37.200,317.712 37.200 C 317.430 37.200,317.200 37.020,317.200 36.800 C 317.200 36.580,316.970 36.400,316.688 36.400 C 316.407 36.400,315.917 36.040,315.600 35.600 C 315.283 35.160,314.743 34.800,314.400 34.800 C 314.057 34.800,313.517 34.440,313.200 34.000 C 312.883 33.560,312.343 33.200,312.000 33.200 C 311.657 33.200,311.117 32.840,310.800 32.400 C 310.483 31.960,309.943 31.600,309.600 31.600 C 309.257 31.600,308.717 31.240,308.400 30.800 C 308.083 30.360,307.671 30.000,307.484 30.000 C 307.297 30.000,306.359 29.460,305.400 28.800 C 304.441 28.140,303.478 27.600,303.261 27.600 C 303.044 27.600,302.807 27.465,302.733 27.300 C 302.553 26.895,298.611 24.800,298.029 24.800 C 297.775 24.800,297.180 24.440,296.708 24.000 C 296.236 23.560,295.613 23.200,295.325 23.200 C 295.036 23.200,294.800 23.020,294.800 22.800 C 294.800 22.580,294.440 22.400,294.000 22.400 C 293.560 22.400,293.200 22.220,293.200 22.000 C 293.200 21.780,292.840 21.600,292.400 21.600 C 291.960 21.600,291.600 21.420,291.600 21.200 C 291.600 20.980,291.255 20.800,290.833 20.800 C 290.412 20.800,290.007 20.665,289.933 20.500 C 289.860 20.335,288.900 19.775,287.800 19.256 C 286.700 18.737,285.487 18.152,285.105 17.956 C 284.723 17.760,284.138 17.600,283.805 17.600 C 283.472 17.600,283.200 17.420,283.200 17.200 C 283.200 16.980,282.840 16.800,282.400 16.800 C 281.960 16.800,281.600 16.620,281.600 16.400 C 281.600 16.180,281.240 16.000,280.800 16.000 C 280.360 16.000,280.000 15.820,280.000 15.600 C 280.000 15.380,279.651 15.200,279.224 15.200 C 278.797 15.200,278.336 15.020,278.200 14.800 C 278.064 14.580,277.513 14.400,276.976 14.400 C 276.439 14.400,276.000 14.220,276.000 14.000 C 276.000 13.780,275.728 13.600,275.395 13.600 C 275.062 13.600,274.477 13.441,274.095 13.247 C 273.713 13.052,272.905 12.692,272.300 12.447 C 271.695 12.201,270.795 11.827,270.300 11.615 C 268.047 10.652,260.688 8.400,259.794 8.400 C 259.247 8.400,258.800 8.220,258.800 8.000 C 258.800 7.780,258.170 7.600,257.400 7.600 C 256.630 7.600,256.000 7.420,256.000 7.200 C 256.000 6.980,255.370 6.800,254.600 6.800 C 253.830 6.800,253.200 6.620,253.200 6.400 C 253.200 6.180,252.570 6.000,251.800 6.000 C 251.030 6.000,250.400 5.820,250.400 5.600 C 250.400 5.380,249.680 5.200,248.800 5.200 C 247.920 5.200,247.200 5.020,247.200 4.800 C 247.200 4.580,246.300 4.400,245.200 4.400 C 244.100 4.400,243.200 4.220,243.200 4.000 C 243.200 3.780,242.480 3.600,241.600 3.600 C 240.720 3.600,240.000 3.420,240.000 3.200 C 240.000 2.980,239.010 2.800,237.800 2.800 C 236.590 2.800,235.600 2.620,235.600 2.400 C 235.600 2.180,234.621 2.000,233.424 2.000 C 232.227 2.000,231.136 1.820,231.000 1.600 C 230.864 1.380,229.539 1.200,228.056 1.200 C 226.478 1.200,225.159 0.999,224.875 0.715 C 224.394 0.234,187.860 -0.116,179.003 0.275 M241.200 98.176 C 241.200 101.063,241.032 103.257,240.800 103.400 C 240.580 103.536,240.400 104.537,240.400 105.624 C 240.400 106.711,240.220 107.600,240.000 107.600 C 239.780 107.600,239.600 108.129,239.600 108.776 C 239.600 109.423,239.420 110.064,239.200 110.200 C 238.980 110.336,238.800 110.887,238.800 111.424 C 238.800 111.961,238.620 112.400,238.400 112.400 C 238.180 112.400,238.000 112.850,238.000 113.400 C 238.000 113.950,237.820 114.400,237.600 114.400 C 237.380 114.400,237.200 114.760,237.200 115.200 C 237.200 115.640,237.020 116.000,236.800 116.000 C 236.580 116.000,236.400 116.360,236.400 116.800 C 236.400 117.240,236.220 117.600,236.000 117.600 C 235.780 117.600,235.600 117.960,235.600 118.400 C 235.600 118.840,235.420 119.200,235.200 119.200 C 234.980 119.200,234.800 119.560,234.800 120.000 C 234.800 120.440,234.650 120.800,234.468 120.800 C 234.285 120.800,233.881 121.295,233.570 121.900 C 233.260 122.505,232.689 123.291,232.303 123.647 C 231.916 124.003,231.600 124.427,231.600 124.591 C 231.600 124.828,228.656 128.323,227.296 129.700 C 225.052 131.974,222.691 134.000,222.286 134.000 C 222.006 134.000,221.517 134.360,221.200 134.800 C 220.883 135.240,220.386 135.600,220.095 135.600 C 219.804 135.600,219.180 135.960,218.708 136.400 C 218.236 136.840,217.613 137.200,217.325 137.200 C 217.036 137.200,216.800 137.380,216.800 137.600 C 216.800 137.820,216.361 138.000,215.824 138.000 C 215.287 138.000,214.736 138.180,214.600 138.400 C 214.464 138.620,214.003 138.800,213.576 138.800 C 213.149 138.800,212.800 138.980,212.800 139.200 C 212.800 139.420,212.260 139.600,211.600 139.600 C 210.940 139.600,210.400 139.780,210.400 140.000 C 210.400 140.220,209.770 140.400,209.000 140.400 C 208.230 140.400,207.600 140.553,207.600 140.741 C 207.600 141.157,200.349 141.709,199.445 141.362 C 198.688 141.071,198.449 130.800,199.200 130.800 C 199.420 130.800,199.600 129.900,199.600 128.800 C 199.600 127.700,199.780 126.800,200.000 126.800 C 200.220 126.800,200.400 126.260,200.400 125.600 C 200.400 124.940,200.580 124.400,200.800 124.400 C 201.020 124.400,201.200 123.950,201.200 123.400 C 201.200 122.850,201.380 122.400,201.600 122.400 C 201.820 122.400,202.000 122.155,202.000 121.856 C 202.000 121.199,204.476 116.255,204.900 116.067 C 205.065 115.993,205.200 115.588,205.200 115.167 C 205.200 114.745,205.350 114.400,205.532 114.400 C 205.715 114.400,206.120 113.906,206.432 113.302 C 207.013 112.178,207.618 111.429,209.900 109.006 C 210.615 108.248,211.200 107.513,211.200 107.374 C 211.200 107.005,213.624 104.800,214.029 104.800 C 214.218 104.800,215.003 104.170,215.773 103.400 C 216.543 102.630,217.333 102.000,217.527 102.000 C 217.722 102.000,218.446 101.460,219.137 100.800 C 219.828 100.140,220.664 99.600,220.996 99.600 C 221.328 99.600,221.601 99.465,221.601 99.300 C 221.602 99.135,222.592 98.550,223.800 98.000 C 225.008 97.450,225.998 96.865,225.999 96.700 C 225.999 96.535,226.360 96.400,226.800 96.400 C 227.240 96.400,227.600 96.220,227.600 96.000 C 227.600 95.780,228.140 95.600,228.800 95.600 C 229.460 95.600,230.000 95.420,230.000 95.200 C 230.000 94.980,230.540 94.800,231.200 94.800 C 231.860 94.800,232.400 94.620,232.400 94.400 C 232.400 94.180,233.120 94.000,234.000 94.000 C 234.880 94.000,235.600 93.820,235.600 93.600 C 235.600 93.371,236.800 93.200,238.400 93.200 L 241.200 93.200 241.200 98.176 M242.800 142.000 C 242.800 142.220,243.790 142.400,245.000 142.400 C 246.210 142.400,247.200 142.580,247.200 142.800 C 247.200 143.020,248.100 143.200,249.200 143.200 C 250.300 143.200,251.200 143.380,251.200 143.600 C 251.200 143.820,251.639 144.000,252.176 144.000 C 252.713 144.000,253.264 144.180,253.400 144.400 C 253.536 144.620,254.076 144.800,254.600 144.800 C 255.124 144.800,255.664 144.980,255.800 145.200 C 255.936 145.420,256.397 145.600,256.824 145.600 C 257.251 145.600,257.600 145.746,257.600 145.925 C 257.600 146.104,258.230 146.498,259.000 146.800 C 259.770 147.102,260.400 147.496,260.400 147.675 C 260.400 147.854,260.678 148.000,261.017 148.000 C 261.356 148.000,262.020 148.360,262.492 148.800 C 262.964 149.240,263.587 149.600,263.875 149.600 C 264.164 149.600,264.400 149.780,264.400 150.000 C 264.400 150.220,264.670 150.400,265.000 150.400 C 265.329 150.400,266.341 151.120,267.248 152.000 C 268.155 152.880,269.058 153.600,269.256 153.600 C 269.640 153.600,274.800 158.634,274.800 159.009 C 274.800 159.261,275.370 159.979,276.700 161.401 C 277.731 162.504,277.881 163.600,277.000 163.600 C 276.670 163.600,276.400 163.750,276.400 163.932 C 276.400 164.115,275.905 164.520,275.300 164.832 C 274.695 165.145,273.390 166.210,272.400 167.200 C 271.410 168.190,270.125 169.245,269.544 169.544 C 268.963 169.843,268.243 170.563,267.944 171.144 C 267.645 171.725,266.770 172.830,266.000 173.600 C 265.230 174.370,264.345 175.495,264.032 176.100 C 263.720 176.705,263.315 177.200,263.132 177.200 C 262.950 177.200,262.800 177.455,262.800 177.767 C 262.800 178.078,262.665 178.393,262.500 178.467 C 262.068 178.659,260.400 181.972,260.400 182.638 C 260.400 182.947,260.220 183.200,260.000 183.200 C 259.780 183.200,259.600 183.549,259.600 183.976 C 259.600 184.403,259.441 184.851,259.246 184.971 C 259.052 185.092,258.771 185.998,258.623 186.986 C 258.475 187.973,258.184 188.886,257.977 189.014 C 257.770 189.142,257.600 189.867,257.600 190.624 C 257.600 191.381,257.420 192.000,257.200 192.000 C 256.975 192.000,256.800 193.125,256.800 194.576 C 256.800 195.993,256.620 197.264,256.400 197.400 C 256.177 197.538,256.000 199.404,256.000 201.624 C 256.000 204.008,256.160 205.600,256.400 205.600 C 256.622 205.600,256.800 206.667,256.800 208.000 C 256.800 209.333,256.978 210.400,257.200 210.400 C 257.420 210.400,257.600 211.120,257.600 212.000 C 257.600 212.880,257.756 213.600,257.946 213.600 C 258.136 213.600,258.404 214.425,258.542 215.433 C 258.816 217.426,261.542 223.357,262.811 224.719 C 263.245 225.185,263.600 225.760,263.600 225.997 C 263.600 226.233,264.230 227.057,265.000 227.827 C 265.770 228.597,266.400 229.402,266.400 229.616 C 266.400 230.129,271.152 234.800,271.674 234.800 C 271.897 234.800,272.583 235.340,273.200 236.000 C 273.817 236.660,274.485 237.200,274.685 237.200 C 274.885 237.200,275.398 237.523,275.825 237.918 C 276.251 238.312,278.083 239.347,279.896 240.218 C 283.042 241.728,283.930 242.701,282.800 243.400 C 282.580 243.536,282.400 244.087,282.400 244.624 C 282.400 245.161,282.220 245.600,282.000 245.600 C 281.780 245.600,281.600 245.962,281.600 246.405 C 281.600 246.848,281.441 247.523,281.247 247.905 C 281.052 248.287,280.671 249.140,280.400 249.800 C 280.129 250.460,279.748 251.313,279.553 251.695 C 279.359 252.077,279.200 252.662,279.200 252.995 C 279.200 253.328,279.020 253.600,278.800 253.600 C 278.580 253.600,278.400 253.960,278.400 254.400 C 278.400 254.840,278.220 255.200,278.000 255.200 C 277.780 255.200,277.600 255.446,277.600 255.747 C 277.600 256.048,276.970 257.525,276.200 259.028 C 275.430 260.532,274.800 261.995,274.800 262.281 C 274.800 262.566,274.620 262.800,274.400 262.800 C 274.180 262.800,274.000 263.078,274.000 263.417 C 274.000 263.756,273.640 264.420,273.200 264.892 C 272.760 265.364,272.400 265.987,272.400 266.275 C 272.400 266.564,272.220 266.800,272.000 266.800 C 271.780 266.800,271.600 267.120,271.600 267.512 C 271.600 267.903,271.240 268.483,270.800 268.800 C 270.360 269.117,270.000 269.657,270.000 270.000 C 270.000 270.343,269.640 270.883,269.200 271.200 C 268.760 271.517,268.400 272.057,268.400 272.400 C 268.400 272.743,268.040 273.283,267.600 273.600 C 267.160 273.917,266.800 274.330,266.800 274.517 C 266.800 274.704,266.575 275.094,266.300 275.384 C 265.160 276.585,264.400 277.633,264.400 278.005 C 264.400 278.222,264.250 278.400,264.068 278.400 C 263.885 278.400,263.480 278.895,263.168 279.500 C 262.855 280.105,262.136 281.050,261.569 281.600 C 261.002 282.150,260.012 283.408,259.369 284.395 C 258.002 286.495,255.020 289.600,254.371 289.600 C 254.123 289.600,253.444 290.107,252.860 290.726 C 252.277 291.345,250.810 292.380,249.600 293.026 C 248.390 293.672,247.340 294.335,247.267 294.500 C 247.193 294.665,246.709 294.800,246.190 294.800 C 245.672 294.800,245.136 294.980,245.000 295.200 C 244.864 295.420,244.313 295.600,243.776 295.600 C 243.239 295.600,242.800 295.763,242.800 295.963 C 242.800 296.163,241.855 296.422,240.700 296.539 C 239.545 296.656,237.925 296.873,237.100 297.020 C 236.107 297.197,235.600 297.137,235.600 296.844 C 235.600 296.561,234.584 296.400,232.800 296.400 C 231.200 296.400,230.000 296.229,230.000 296.000 C 230.000 295.780,229.471 295.600,228.824 295.600 C 228.177 295.600,227.536 295.420,227.400 295.200 C 227.264 294.980,226.801 294.800,226.371 294.800 C 225.941 294.800,225.277 294.636,224.895 294.435 C 222.495 293.173,219.599 292.000,218.884 292.000 C 218.424 292.000,217.936 291.820,217.800 291.600 C 217.664 291.380,217.023 291.200,216.376 291.200 C 215.729 291.200,215.200 291.020,215.200 290.800 C 215.200 290.580,214.581 290.400,213.824 290.400 C 213.067 290.400,212.336 290.220,212.200 290.000 C 212.064 289.780,210.883 289.600,209.576 289.600 C 208.259 289.600,207.200 289.422,207.200 289.200 C 207.200 288.965,205.800 288.800,203.800 288.800 C 201.800 288.800,200.400 288.965,200.400 289.200 C 200.400 289.422,199.341 289.600,198.024 289.600 C 196.717 289.600,195.536 289.780,195.400 290.000 C 195.264 290.220,194.544 290.400,193.800 290.400 C 193.056 290.400,192.336 290.580,192.200 290.800 C 192.064 291.020,191.434 291.200,190.800 291.200 C 190.166 291.200,189.545 291.366,189.419 291.569 C 189.294 291.772,188.614 292.065,187.909 292.220 C 186.697 292.486,186.334 292.629,184.405 293.600 C 183.968 293.820,183.338 294.000,183.005 294.000 C 182.672 294.000,182.400 294.180,182.400 294.400 C 182.400 294.620,181.961 294.800,181.424 294.800 C 180.887 294.800,180.336 294.980,180.200 295.200 C 180.064 295.420,179.524 295.600,179.000 295.600 C 178.476 295.600,177.936 295.780,177.800 296.000 C 177.664 296.220,176.753 296.400,175.776 296.400 C 174.799 296.400,174.000 296.580,174.000 296.800 C 174.000 297.037,172.541 297.200,170.424 297.200 C 168.457 297.200,166.736 297.020,166.600 296.800 C 166.464 296.580,165.733 296.400,164.976 296.400 C 164.219 296.400,163.600 296.220,163.600 296.000 C 163.600 295.780,163.364 295.600,163.075 295.600 C 160.496 295.600,147.200 285.184,147.200 283.164 C 147.200 282.964,146.480 282.059,145.600 281.152 C 144.720 280.245,144.000 279.295,144.000 279.040 C 144.000 278.785,143.640 278.317,143.200 278.000 C 142.760 277.683,142.400 277.276,142.400 277.095 C 142.400 276.914,142.217 276.549,141.993 276.283 C 140.447 274.451,140.000 273.839,140.000 273.557 C 140.000 273.381,139.550 272.786,139.000 272.236 C 138.450 271.686,138.000 270.998,138.000 270.706 C 138.000 270.415,137.640 269.917,137.200 269.600 C 136.760 269.283,136.400 268.786,136.400 268.495 C 136.400 268.204,136.040 267.580,135.600 267.108 C 135.160 266.636,134.800 266.013,134.800 265.725 C 134.800 265.436,134.620 265.200,134.400 265.200 C 134.180 265.200,134.000 264.840,134.000 264.400 C 134.000 263.960,133.820 263.600,133.600 263.600 C 133.380 263.600,133.200 263.364,133.200 263.075 C 133.200 262.787,132.840 262.164,132.400 261.692 C 131.960 261.220,131.600 260.556,131.600 260.217 C 131.600 259.878,131.420 259.600,131.200 259.600 C 130.980 259.600,130.800 259.330,130.800 259.000 C 130.800 258.670,130.620 258.400,130.400 258.400 C 130.180 258.400,130.000 258.040,130.000 257.600 C 130.000 257.160,129.820 256.800,129.600 256.800 C 129.380 256.800,129.200 256.440,129.200 256.000 C 129.200 255.560,129.020 255.200,128.800 255.200 C 128.580 255.200,128.400 254.840,128.400 254.400 C 128.400 253.960,128.220 253.600,128.000 253.600 C 127.780 253.600,127.600 253.060,127.600 252.400 C 127.600 251.740,127.420 251.200,127.200 251.200 C 126.980 251.200,126.800 250.840,126.800 250.400 C 126.800 249.960,126.620 249.600,126.400 249.600 C 126.180 249.600,126.000 249.240,126.000 248.800 C 126.000 248.360,125.820 248.000,125.600 248.000 C 125.380 248.000,125.201 247.595,125.202 247.100 C 125.204 246.030,123.929 242.257,123.500 242.067 C 123.335 241.993,123.200 241.408,123.200 240.767 C 123.200 240.125,123.020 239.600,122.800 239.600 C 122.580 239.600,122.400 239.208,122.400 238.728 C 122.400 237.808,121.740 235.472,121.151 234.305 C 120.958 233.923,120.800 233.079,120.800 232.429 C 120.800 231.779,120.620 231.136,120.400 231.000 C 120.180 230.864,120.000 230.144,120.000 229.400 C 120.000 228.656,119.820 227.936,119.600 227.800 C 119.380 227.664,119.200 226.753,119.200 225.776 C 119.200 224.799,119.020 224.000,118.800 224.000 C 118.580 224.000,118.400 223.100,118.400 222.000 C 118.400 220.900,118.220 220.000,118.000 220.000 C 117.770 220.000,117.600 218.760,117.600 217.080 C 117.600 215.474,117.414 213.974,117.186 213.746 C 116.362 212.922,117.150 190.342,118.035 189.420 C 118.236 189.211,118.400 188.266,118.400 187.320 C 118.400 186.374,118.580 185.600,118.800 185.600 C 119.020 185.600,119.200 184.880,119.200 184.000 C 119.200 183.120,119.380 182.400,119.600 182.400 C 119.820 182.400,120.000 181.860,120.000 181.200 C 120.000 180.540,120.180 180.000,120.400 180.000 C 120.620 180.000,120.800 179.460,120.800 178.800 C 120.800 178.140,120.980 177.600,121.200 177.600 C 121.420 177.600,121.600 177.277,121.600 176.882 C 121.600 176.487,122.410 174.552,123.399 172.582 C 124.388 170.612,125.198 168.725,125.199 168.388 C 125.200 168.052,125.560 167.517,126.000 167.200 C 126.440 166.883,126.800 166.343,126.800 166.000 C 126.800 165.657,127.160 165.117,127.600 164.800 C 128.040 164.483,128.400 163.979,128.400 163.680 C 128.400 163.382,129.120 162.446,130.000 161.600 C 130.880 160.754,131.600 159.928,131.600 159.763 C 131.600 159.382,134.577 156.542,136.480 155.106 C 137.278 154.504,138.176 153.784,138.475 153.506 C 139.816 152.260,142.392 150.400,142.777 150.400 C 143.009 150.400,143.200 150.220,143.200 150.000 C 143.200 149.780,143.560 149.600,144.000 149.600 C 144.440 149.600,144.800 149.420,144.800 149.200 C 144.800 148.980,145.160 148.800,145.600 148.800 C 146.040 148.800,146.401 148.665,146.403 148.500 C 146.407 148.141,148.344 147.200,149.080 147.200 C 149.366 147.200,149.600 147.020,149.600 146.800 C 149.600 146.580,149.960 146.400,150.400 146.400 C 150.840 146.400,151.200 146.220,151.200 146.000 C 151.200 145.780,151.740 145.600,152.400 145.600 C 153.060 145.600,153.600 145.420,153.600 145.200 C 153.600 144.980,154.140 144.800,154.800 144.800 C 155.460 144.800,156.000 144.620,156.000 144.400 C 156.000 144.180,156.630 144.000,157.400 144.000 C 158.170 144.000,158.800 143.820,158.800 143.600 C 158.800 143.378,159.867 143.200,161.200 143.200 C 162.533 143.200,163.600 143.022,163.600 142.800 C 163.600 142.563,165.067 142.400,167.200 142.400 C 169.333 142.400,170.800 142.563,170.800 142.800 C 170.800 143.026,171.933 143.200,173.400 143.200 C 174.867 143.200,176.000 143.374,176.000 143.600 C 176.000 143.820,176.720 144.000,177.600 144.000 C 178.480 144.000,179.200 144.180,179.200 144.400 C 179.200 144.620,179.740 144.800,180.400 144.800 C 181.060 144.800,181.600 144.980,181.600 145.200 C 181.600 145.420,182.140 145.600,182.800 145.600 C 183.460 145.600,184.000 145.780,184.000 146.000 C 184.000 146.220,184.540 146.400,185.200 146.400 C 185.860 146.400,186.400 146.580,186.400 146.800 C 186.400 147.020,186.760 147.200,187.200 147.200 C 187.640 147.200,188.000 147.380,188.000 147.600 C 188.000 147.820,188.360 148.000,188.800 148.000 C 189.240 148.000,189.600 148.180,189.600 148.400 C 189.600 148.620,190.140 148.800,190.800 148.800 C 191.460 148.800,192.000 148.980,192.000 149.200 C 192.000 149.420,192.450 149.600,193.000 149.600 C 193.550 149.600,194.000 149.780,194.000 150.000 C 194.000 150.220,194.619 150.400,195.376 150.400 C 196.133 150.400,196.864 150.580,197.000 150.800 C 197.138 151.023,199.004 151.200,201.224 151.200 C 203.608 151.200,205.200 151.040,205.200 150.800 C 205.200 150.580,205.830 150.400,206.600 150.400 C 207.370 150.400,208.000 150.220,208.000 150.000 C 208.000 149.780,208.540 149.600,209.200 149.600 C 209.860 149.600,210.400 149.420,210.400 149.200 C 210.400 148.980,210.760 148.800,211.200 148.800 C 211.640 148.800,212.000 148.620,212.000 148.400 C 212.000 148.180,212.439 148.000,212.976 148.000 C 213.513 148.000,214.064 147.820,214.200 147.600 C 214.336 147.380,214.797 147.200,215.224 147.200 C 215.651 147.200,216.000 147.020,216.000 146.800 C 216.000 146.580,216.349 146.400,216.776 146.400 C 217.203 146.400,217.664 146.220,217.800 146.000 C 217.936 145.780,218.487 145.600,219.024 145.600 C 219.561 145.600,220.000 145.420,220.000 145.200 C 220.000 144.980,220.630 144.800,221.400 144.800 C 222.170 144.800,222.800 144.620,222.800 144.400 C 222.800 144.180,223.340 144.000,224.000 144.000 C 224.660 144.000,225.200 143.820,225.200 143.600 C 225.200 143.380,226.100 143.200,227.200 143.200 C 228.300 143.200,229.200 143.020,229.200 142.800 C 229.200 142.569,230.467 142.400,232.200 142.400 C 233.933 142.400,235.200 142.231,235.200 142.000 C 235.200 141.761,236.733 141.600,239.000 141.600 C 241.267 141.600,242.800 141.761,242.800 142.000 " stroke="none" fill="#040404" fill-rule="evenodd"></path><path id="path1" d="" stroke="none" fill="#080404" fill-rule="evenodd"></path><path id="path2" d="" stroke="none" fill="#080404" fill-rule="evenodd"></path><path id="path3" d="" stroke="none" fill="#080404" fill-rule="evenodd"></path><path id="path4" d="" stroke="none" fill="#080404" fill-rule="evenodd"></path></g></svg>