<svg id="svg" version="1.1" xmlns="http://www.w3.org/2000/svg" xmlns:xlink="http://www.w3.org/1999/xlink" width="400" height="400" viewBox="0, 0, 400,400"><g id="svgg"><path id="path0" d="M278.196 108.807 C 278.058 109.030,277.792 109.118,277.605 109.003 C 277.418 108.887,277.017 109.041,276.714 109.344 C 276.411 109.647,275.744 110.027,275.233 110.189 C 274.098 110.550,271.600 113.055,271.600 113.834 C 271.600 114.145,271.420 114.400,271.200 114.400 C 270.980 114.400,270.800 114.760,270.800 115.200 C 270.800 115.640,270.620 116.000,270.400 116.000 C 270.180 116.000,270.000 116.540,270.000 117.200 C 270.000 117.860,269.820 118.400,269.600 118.400 C 269.369 118.400,269.200 119.667,269.200 121.400 C 269.200 123.133,269.369 124.400,269.600 124.400 C 269.820 124.400,270.000 124.940,270.000 125.600 C 270.000 126.260,270.180 126.800,270.400 126.800 C 270.620 126.800,270.800 127.160,270.800 127.600 C 270.800 128.040,270.980 128.400,271.200 128.400 C 271.420 128.400,271.600 128.692,271.600 129.049 C 271.600 129.406,284.495 142.591,300.256 158.349 L 328.912 187.000 180.575 187.101 C 82.485 187.167,32.104 187.336,31.839 187.601 C 31.620 187.820,31.116 188.000,30.720 188.000 C 30.324 188.000,30.000 188.150,30.000 188.332 C 30.000 188.515,29.505 188.919,28.900 189.230 C 27.152 190.127,26.176 191.380,26.353 192.500 C 26.379 192.665,26.175 192.755,25.900 192.700 C 25.625 192.645,25.445 192.825,25.500 193.100 C 25.555 193.375,25.420 193.600,25.200 193.600 C 24.980 193.600,24.800 194.050,24.800 194.600 C 24.800 195.150,24.620 195.600,24.400 195.600 C 24.158 195.600,24.000 197.333,24.000 200.000 C 24.000 202.667,24.158 204.400,24.400 204.400 C 24.620 204.400,24.800 204.850,24.800 205.400 C 24.800 205.950,24.980 206.400,25.200 206.400 C 25.420 206.400,25.560 206.535,25.511 206.700 C 25.277 207.490,27.335 209.960,28.900 210.768 C 29.505 211.080,30.000 211.485,30.000 211.668 C 30.000 211.850,30.349 212.000,30.776 212.000 C 31.203 212.000,31.664 212.180,31.800 212.400 C 31.964 212.666,82.004 212.800,180.624 212.800 C 262.341 212.800,329.200 212.898,329.200 213.018 C 329.200 213.138,328.750 213.686,328.200 214.236 C 327.650 214.786,327.200 215.408,327.200 215.618 C 327.200 215.828,326.930 216.000,326.600 216.000 C 326.270 216.000,326.000 216.163,326.000 216.363 C 326.000 216.743,320.799 222.002,313.207 229.300 C 310.746 231.665,308.844 233.600,308.980 233.600 C 309.115 233.600,307.234 235.580,304.800 238.000 C 302.366 240.420,300.200 242.400,299.987 242.400 C 299.774 242.400,299.600 242.670,299.600 243.000 C 299.600 243.330,299.456 243.600,299.280 243.600 C 298.810 243.600,272.400 269.760,272.400 270.226 C 272.400 270.445,272.040 270.883,271.600 271.200 C 271.160 271.517,270.800 272.097,270.800 272.488 C 270.800 272.880,270.620 273.200,270.400 273.200 C 270.180 273.200,270.000 273.819,270.000 274.576 C 270.000 275.333,269.820 276.064,269.600 276.200 C 269.380 276.336,269.200 277.607,269.200 279.024 C 269.200 280.475,269.375 281.600,269.600 281.600 C 269.820 281.600,270.000 282.140,270.000 282.800 C 270.000 283.460,270.180 284.000,270.400 284.000 C 270.620 284.000,270.800 284.360,270.800 284.800 C 270.800 285.240,270.980 285.600,271.200 285.600 C 271.420 285.600,271.600 285.876,271.600 286.213 C 271.600 290.150,283.170 293.274,288.596 290.802 C 290.736 289.827,372.919 207.696,374.164 205.289 C 375.192 203.299,375.239 197.321,374.244 195.076 C 373.783 194.034,362.967 182.935,340.084 160.019 C 321.668 141.576,302.846 122.700,298.258 118.072 C 293.589 113.362,289.693 109.743,289.410 109.852 C 289.131 109.959,288.788 109.747,288.648 109.381 C 288.504 109.005,288.140 108.814,287.809 108.941 C 287.488 109.064,287.119 108.993,286.989 108.783 C 286.669 108.265,278.517 108.287,278.196 108.807 " stroke="none" fill="#543c84" fill-rule="evenodd"></path><path id="path1" d="" stroke="none" fill="#583c84" fill-rule="evenodd"></path><path id="path2" d="" stroke="none" fill="#583c84" fill-rule="evenodd"></path><path id="path3" d="" stroke="none" fill="#583c84" fill-rule="evenodd"></path><path id="path4" d="" stroke="none" fill="#583c84" fill-rule="evenodd"></path></g></svg>