<svg width="56.7" height="56.7" xmlns="http://www.w3.org/2000/svg">

 <g>
  <title>background</title>
  <rect fill="none" id="canvas_background" height="402" width="582" y="-1" x="-1"/>
 </g>
 <g>
  <title>Layer 1</title>
  <path fill="#47366f" id="svg_2" d="m11.33835,3.557306c-0.95542,0.10557 -2.0323,0.44873 -2.9771,0.93965c-2.22234,1.17178 -3.87445,3.45215 -4.3126,5.96475c-0.09507,0.53311 -0.10033,1.25098 -0.10033,17.8415l0,17.2873l0.12147,0.53838c0.7601,3.43633 3.18819,5.86455 6.62458,6.62461l0.5384,0.12139l17.36645,0l17.36653,0l0.5384,-0.12139c3.4363,-0.76006 5.86448,-3.18828 6.62458,-6.62461l0.12138,-0.53838l0,-17.2873c0,-16.59053 -0.00526,-17.3084 -0.10023,-17.8415c-0.132,-0.7707 -0.39588,-1.54668 -0.79713,-2.34893c-1.25096,-2.51797 -3.7636,-4.25986 -6.5823,-4.56602c-0.64401,-0.06865 -33.809241,-0.06327 -34.432101,0.01055zm18.86025,8.77832c1.81584,0.22695 3.28326,0.66504 4.89327,1.45156c1.58352,0.77598 2.59698,1.50967 3.93776,2.84512c1.25631,1.26162 1.9531,2.21699 2.69207,3.70029c1.02935,2.06924 1.61528,4.529 1.71552,7.23691c0.03701,0.92363 0.01062,1.12959 -0.20058,1.39346c-0.40114,0.51211 -1.28272,0.42754 -1.58353,-0.14775c-0.09507,-0.19004 -0.12147,-0.35361 -0.15313,-1.09268c-0.0528,-1.13486 -0.1319,-1.86855 -0.29029,-2.74482c-0.62285,-3.43633 -2.26979,-6.18115 -4.89854,-8.1501c-2.19058,-1.64688 -4.45511,-2.44932 -7.42159,-2.62344c-1.00295,-0.05811 -1.17713,-0.09502 -1.40409,-0.26924c-0.42238,-0.33252 -0.44341,-1.11367 -0.03701,-1.47793c0.24811,-0.22705 0.42228,-0.25869 1.28272,-0.23232c0.44869,0.01583 1.10847,0.06866 1.46742,0.11094zm-12.06676,0.57002c0.18479,0.06338 0.46982,0.21113 0.63347,0.3167c1.00286,0.66514 3.79525,4.23867 4.70849,6.02285c0.52252,1.01875 0.69669,1.77363 0.53314,2.33311c-0.16901,0.60176 -0.44868,0.91855 -1.69973,1.92676c-0.50147,0.40635 -0.97129,0.82334 -1.04513,0.93428c-0.19005,0.27451 -0.34318,0.81289 -0.34318,1.19297c0.00536,0.88145 0.57541,2.48086 1.32499,3.71084c0.58057,0.95537 1.62044,2.17998 2.64979,3.11953c1.20878,1.10859 2.27505,1.86338 3.47857,2.45986c1.5466,0.77061 2.4915,0.96592 3.18302,0.64404c0.17417,-0.0792 0.35887,-0.18486 0.41701,-0.23223c0.0527,-0.04756 0.4592,-0.54375 0.90262,-1.09268c0.85508,-1.07695 1.05039,-1.25107 1.63632,-1.45166c0.74432,-0.25332 1.50442,-0.18477 2.26978,0.20586c0.58067,0.30088 1.84751,1.0874 2.66567,1.65742c1.07679,0.75488 3.37823,2.63408 3.68976,3.00889c0.54892,0.67559 0.64399,1.54121 0.27441,2.49678c-0.39062,1.00811 -1.91083,2.89785 -2.97184,3.70547c-0.96067,0.72852 -1.64158,1.00811 -2.53894,1.05039c-0.73896,0.03691 -1.04513,-0.02637 -1.99003,-0.41699c-7.41107,-3.05625 -13.32834,-7.61689 -18.0263,-13.88262c-2.45448,-3.27266 -4.32312,-6.6668 -5.60058,-10.1876c-0.74422,-2.05332 -0.78115,-2.94541 -0.16891,-3.9959c0.26398,-0.44336 1.38831,-1.54131 2.20647,-2.15361c1.36191,-1.01348 1.99003,-1.38828 2.4915,-1.49385c0.34308,-0.07392 0.93952,-0.01581 1.31963,0.12139zm12.43099,3.25694c3.20415,0.46973 5.68503,1.9583 7.31082,4.37588c0.91323,1.36182 1.48329,2.96123 1.6786,4.67676c0.06858,0.62822 0.06858,1.77363 -0.00526,1.96367c-0.06868,0.17949 -0.29038,0.42227 -0.48044,0.52256c-0.20584,0.10557 -0.64389,0.09502 -0.88674,-0.03164c-0.4065,-0.20586 -0.52787,-0.5332 -0.52787,-1.41992c0,-1.36719 -0.3537,-2.8082 -0.96593,-3.92725c-0.69679,-1.27744 -1.71024,-2.33311 -2.94542,-3.06689c-1.061,-0.6334 -2.62874,-1.10322 -4.05924,-1.21934c-0.51735,-0.04229 -0.80238,-0.14775 -0.99769,-0.3748c-0.30081,-0.34307 -0.33256,-0.80762 -0.0792,-1.19287c0.27451,-0.42765 0.69679,-0.4963 1.95837,-0.30616zm1.12433,3.98525c1.03987,0.22168 1.83699,0.61758 2.5179,1.25635c0.87622,0.82861 1.35664,1.83164 1.56773,3.27266c0.14252,0.93955 0.08446,1.30908 -0.24811,1.61523c-0.31141,0.28506 -0.88672,0.29561 -1.23517,0.02637c-0.25337,-0.19004 -0.33257,-0.39062 -0.39062,-0.93428c-0.06858,-0.72314 -0.1953,-1.22988 -0.41166,-1.69971c-0.46456,-0.99766 -1.28272,-1.51494 -2.66567,-1.68389c-0.64935,-0.0792 -0.84465,-0.15303 -1.05575,-0.40107c-0.38536,-0.45928 -0.23759,-1.20361 0.29555,-1.47803c0.20067,-0.10029 0.28512,-0.11094 0.72845,-0.08447c0.27449,0.01582 0.68099,0.06328 0.89735,0.11084z"/>
 </g>
</svg>