<svg id="svg" version="1.1" xmlns="http://www.w3.org/2000/svg" xmlns:xlink="http://www.w3.org/1999/xlink" width="400" height="400" viewBox="0, 0, 400,400"><g id="svgg"><path id="path0" d="M11.400 11.600 C 11.264 11.820,10.801 12.000,10.371 12.000 C 9.941 12.000,9.187 12.208,8.695 12.462 C 8.203 12.717,7.485 13.077,7.100 13.262 C 5.611 13.980,4.585 14.624,4.004 15.203 C 3.672 15.534,2.922 16.051,2.337 16.350 C 0.018 17.539,-0.063 18.120,0.075 32.535 L 0.200 45.670 1.400 46.656 C 2.060 47.197,3.098 48.082,3.707 48.620 C 4.316 49.159,5.004 49.600,5.235 49.600 C 5.467 49.600,5.936 49.879,6.277 50.220 C 6.618 50.560,7.415 50.943,8.048 51.070 C 8.682 51.196,9.200 51.458,9.200 51.650 C 9.200 51.843,9.639 52.000,10.176 52.000 C 10.713 52.000,11.264 52.180,11.400 52.400 C 11.540 52.627,13.530 52.800,16.000 52.800 C 18.470 52.800,20.460 52.627,20.600 52.400 C 20.736 52.180,21.276 52.000,21.800 52.000 C 22.324 52.000,22.864 51.820,23.000 51.600 C 23.136 51.380,23.597 51.200,24.024 51.200 C 24.451 51.200,24.800 51.020,24.800 50.800 C 24.800 50.580,25.070 50.400,25.400 50.400 C 25.730 50.400,26.000 50.220,26.000 50.000 C 26.000 49.780,26.267 49.600,26.593 49.600 C 27.198 49.600,29.031 48.149,30.554 46.465 C 31.019 45.951,31.985 44.922,32.700 44.178 C 33.415 43.435,34.000 42.551,34.000 42.213 C 34.000 41.876,34.135 41.599,34.300 41.597 C 34.706 41.593,35.600 39.614,35.600 38.720 C 35.600 38.324,35.780 38.000,36.000 38.000 C 36.220 38.000,36.400 37.226,36.400 36.280 C 36.400 35.334,36.625 34.075,36.900 33.483 L 37.400 32.406 54.876 32.403 C 66.099 32.401,72.441 32.543,72.600 32.800 C 72.736 33.020,74.187 33.200,75.824 33.200 C 77.541 33.200,78.800 33.369,78.800 33.600 C 78.800 33.820,79.430 34.000,80.200 34.000 C 80.970 34.000,81.600 34.180,81.600 34.400 C 81.600 34.620,82.005 34.804,82.500 34.809 C 82.995 34.814,83.850 35.170,84.400 35.600 C 84.950 36.030,85.534 36.386,85.697 36.391 C 86.514 36.416,91.200 41.121,91.200 41.916 C 91.200 42.085,91.537 42.466,91.949 42.763 C 92.365 43.063,92.617 43.612,92.517 43.996 C 92.415 44.387,92.609 44.794,92.961 44.930 C 93.325 45.069,93.488 45.427,93.350 45.785 C 93.221 46.123,93.314 46.400,93.557 46.400 C 93.801 46.400,94.000 46.820,94.000 47.333 C 94.000 47.847,94.122 48.389,94.271 48.538 C 94.665 48.931,96.378 54.075,96.390 54.900 C 96.395 55.285,96.560 55.600,96.756 55.600 C 97.091 55.600,97.317 56.522,97.858 60.103 C 97.982 60.929,98.245 61.705,98.442 61.826 C 98.639 61.948,98.800 62.656,98.800 63.400 C 98.800 64.144,98.980 64.864,99.200 65.000 C 99.420 65.136,99.600 65.856,99.600 66.600 C 99.600 67.344,99.780 68.064,100.000 68.200 C 100.220 68.336,100.400 69.067,100.400 69.824 C 100.400 70.581,100.580 71.200,100.800 71.200 C 101.020 71.200,101.200 71.920,101.200 72.800 C 101.200 73.680,101.380 74.400,101.600 74.400 C 101.820 74.400,102.000 75.120,102.000 76.000 C 102.000 76.880,102.180 77.600,102.400 77.600 C 102.620 77.600,102.800 78.320,102.800 79.200 C 102.800 80.080,102.980 80.800,103.200 80.800 C 103.420 80.800,103.600 81.520,103.600 82.400 C 103.600 83.280,103.780 84.000,104.000 84.000 C 104.220 84.000,104.400 84.720,104.400 85.600 C 104.400 86.480,104.580 87.200,104.800 87.200 C 105.020 87.200,105.200 87.830,105.200 88.600 C 105.200 89.370,105.380 90.000,105.600 90.000 C 105.820 90.000,106.000 90.720,106.000 91.600 C 106.000 92.480,106.180 93.200,106.400 93.200 C 106.620 93.200,106.800 93.920,106.800 94.800 C 106.800 95.680,106.980 96.400,107.200 96.400 C 107.420 96.400,107.600 97.120,107.600 98.000 C 107.600 98.880,107.762 99.600,107.960 99.600 C 108.158 99.600,108.423 100.455,108.550 101.500 C 108.677 102.545,108.848 103.912,108.929 104.538 C 109.010 105.164,109.252 105.794,109.467 105.938 C 109.683 106.082,109.828 106.701,109.791 107.314 C 109.753 107.927,109.875 108.522,110.061 108.638 C 110.247 108.753,110.400 109.557,110.400 110.424 C 110.400 111.291,110.580 112.000,110.800 112.000 C 111.020 112.000,111.200 112.720,111.200 113.600 C 111.200 114.480,111.380 115.200,111.600 115.200 C 111.820 115.200,112.000 115.920,112.000 116.800 C 112.000 117.680,112.180 118.400,112.400 118.400 C 112.620 118.400,112.800 119.019,112.800 119.776 C 112.800 120.533,112.980 121.264,113.200 121.400 C 113.420 121.536,113.600 122.256,113.600 123.000 C 113.600 123.744,113.780 124.464,114.000 124.600 C 114.220 124.736,114.400 125.456,114.400 126.200 C 114.400 126.944,114.580 127.664,114.800 127.800 C 115.020 127.936,115.200 128.656,115.200 129.400 C 115.200 130.144,115.380 130.864,115.600 131.000 C 115.820 131.136,116.000 131.856,116.000 132.600 C 116.000 133.344,116.180 134.064,116.400 134.200 C 116.620 134.336,116.800 135.067,116.800 135.824 C 116.800 136.581,116.980 137.200,117.200 137.200 C 117.420 137.200,117.600 137.909,117.600 138.776 C 117.600 139.643,117.780 140.464,118.000 140.600 C 118.220 140.736,118.400 141.456,118.400 142.200 C 118.400 142.944,118.580 143.664,118.800 143.800 C 119.020 143.936,119.200 144.656,119.200 145.400 C 119.200 146.144,119.380 146.864,119.600 147.000 C 119.820 147.136,120.000 147.856,120.000 148.600 C 120.000 149.344,120.180 150.064,120.400 150.200 C 120.620 150.336,120.800 151.056,120.800 151.800 C 120.800 152.544,120.980 153.264,121.200 153.400 C 121.420 153.536,121.600 154.267,121.600 155.024 C 121.600 155.781,121.780 156.400,122.000 156.400 C 122.220 156.400,122.400 157.120,122.400 158.000 C 122.400 158.880,122.580 159.600,122.800 159.600 C 123.020 159.600,123.200 160.320,123.200 161.200 C 123.200 162.080,123.380 162.800,123.600 162.800 C 123.820 162.800,124.000 163.520,124.000 164.400 C 124.000 165.280,124.180 166.000,124.400 166.000 C 124.620 166.000,124.800 166.720,124.800 167.600 C 124.800 168.480,124.992 169.200,125.227 169.200 C 125.468 169.200,125.546 169.539,125.406 169.980 C 125.270 170.409,125.413 171.264,125.725 171.880 C 126.036 172.496,126.214 173.213,126.121 173.473 C 126.028 173.733,126.198 174.453,126.500 175.073 C 126.802 175.693,127.018 176.609,126.979 177.110 C 126.940 177.610,127.064 178.116,127.254 178.233 C 127.444 178.351,127.600 179.056,127.600 179.800 C 127.600 180.544,127.780 181.264,128.000 181.400 C 128.220 181.536,128.400 182.256,128.400 183.000 C 128.400 183.744,128.580 184.464,128.800 184.600 C 129.020 184.736,129.200 185.456,129.200 186.200 C 129.200 186.944,129.380 187.664,129.600 187.800 C 129.820 187.936,130.000 188.667,130.000 189.424 C 130.000 190.181,130.180 190.800,130.400 190.800 C 130.620 190.800,130.800 191.520,130.800 192.400 C 130.800 193.280,130.980 194.000,131.200 194.000 C 131.420 194.000,131.600 194.720,131.600 195.600 C 131.600 196.480,131.780 197.200,132.000 197.200 C 132.220 197.200,132.400 197.920,132.400 198.800 C 132.400 199.680,132.580 200.400,132.800 200.400 C 133.020 200.400,133.200 201.120,133.200 202.000 C 133.200 202.880,133.380 203.600,133.600 203.600 C 133.820 203.600,134.000 204.219,134.000 204.976 C 134.000 205.733,134.180 206.464,134.400 206.600 C 134.620 206.736,134.800 207.456,134.800 208.200 C 134.800 208.944,134.980 209.664,135.200 209.800 C 135.420 209.936,135.600 210.656,135.600 211.400 C 135.600 212.144,135.780 212.864,136.000 213.000 C 136.220 213.136,136.400 213.856,136.400 214.600 C 136.400 215.344,136.580 216.064,136.800 216.200 C 137.020 216.336,137.200 217.056,137.200 217.800 C 137.200 218.544,137.380 219.264,137.600 219.400 C 137.820 219.536,138.000 220.256,138.000 221.000 C 138.000 221.744,138.180 222.464,138.400 222.600 C 138.620 222.736,138.800 223.456,138.800 224.200 C 138.800 224.944,138.980 225.664,139.200 225.800 C 139.420 225.936,139.600 226.656,139.600 227.400 C 139.600 228.144,139.780 228.864,140.000 229.000 C 140.220 229.136,140.400 229.856,140.400 230.600 C 140.400 231.344,140.580 232.064,140.800 232.200 C 141.020 232.336,141.200 232.872,141.200 233.391 C 141.200 233.911,141.464 235.385,141.786 236.668 C 142.108 237.950,142.466 239.450,142.581 240.000 C 142.849 241.276,143.478 243.921,144.033 246.100 C 144.270 247.035,144.560 248.476,144.675 249.303 C 144.790 250.129,145.045 250.905,145.242 251.026 C 145.439 251.148,145.600 251.856,145.600 252.600 C 145.600 253.344,145.780 254.064,146.000 254.200 C 146.220 254.336,146.400 255.067,146.400 255.824 C 146.400 256.581,146.580 257.200,146.800 257.200 C 147.020 257.200,147.200 257.920,147.200 258.800 C 147.200 259.680,147.380 260.400,147.600 260.400 C 147.820 260.400,148.000 261.120,148.000 262.000 C 148.000 262.880,148.180 263.600,148.400 263.600 C 148.620 263.600,148.800 264.320,148.800 265.200 C 148.800 266.080,148.980 266.800,149.200 266.800 C 149.420 266.800,149.600 267.520,149.600 268.400 C 149.600 269.280,149.780 270.000,150.000 270.000 C 150.220 270.000,150.400 270.619,150.400 271.376 C 150.400 272.133,150.580 272.864,150.800 273.000 C 151.020 273.136,151.200 273.867,151.200 274.624 C 151.200 275.381,151.380 276.000,151.600 276.000 C 151.820 276.000,152.000 276.720,152.000 277.600 C 152.000 278.480,152.180 279.200,152.400 279.200 C 152.620 279.200,152.800 279.920,152.800 280.800 C 152.800 281.680,152.980 282.400,153.200 282.400 C 153.420 282.400,153.600 283.120,153.600 284.000 C 153.600 284.880,153.780 285.600,154.000 285.600 C 154.220 285.600,154.400 286.320,154.400 287.200 C 154.400 288.080,154.580 288.800,154.800 288.800 C 155.020 288.800,155.200 289.430,155.200 290.200 C 155.200 290.970,155.380 291.600,155.600 291.600 C 155.820 291.600,156.000 292.309,156.000 293.176 C 156.000 294.043,156.180 294.864,156.400 295.000 C 156.620 295.136,156.800 295.856,156.800 296.600 C 156.800 297.344,156.980 298.064,157.200 298.200 C 157.420 298.336,157.600 299.056,157.600 299.800 C 157.600 300.544,157.756 301.249,157.947 301.367 C 158.138 301.485,158.410 302.441,158.551 303.491 C 158.835 305.595,158.971 306.290,159.529 308.480 C 159.737 309.294,159.808 310.059,159.687 310.180 C 159.566 310.301,159.677 310.400,159.933 310.400 C 160.210 310.400,160.400 311.042,160.400 311.976 C 160.400 312.843,160.580 313.664,160.800 313.800 C 161.020 313.936,161.200 314.667,161.200 315.424 C 161.200 316.181,161.380 316.800,161.600 316.800 C 161.820 316.800,162.000 317.419,162.000 318.176 C 162.000 318.933,162.180 319.664,162.400 319.800 C 162.620 319.936,162.800 320.476,162.800 321.000 C 162.800 321.524,162.980 322.064,163.200 322.200 C 163.420 322.336,163.600 322.876,163.600 323.400 C 163.600 323.924,163.780 324.464,164.000 324.600 C 164.220 324.736,164.400 325.287,164.400 325.824 C 164.400 326.361,164.580 326.800,164.800 326.800 C 165.020 326.800,165.200 327.340,165.200 328.000 C 165.200 328.660,165.380 329.200,165.600 329.200 C 165.820 329.200,166.000 329.560,166.000 330.000 C 166.000 330.440,166.180 330.800,166.400 330.800 C 166.620 330.800,166.800 331.160,166.800 331.600 C 166.800 332.040,166.980 332.400,167.200 332.400 C 167.420 332.400,167.600 332.760,167.600 333.200 C 167.600 333.640,167.780 334.000,168.000 334.000 C 168.220 334.000,168.400 334.360,168.400 334.800 C 168.400 335.240,168.580 335.600,168.800 335.600 C 169.020 335.600,169.200 335.870,169.200 336.200 C 169.200 336.530,169.380 336.800,169.600 336.800 C 169.820 336.800,170.000 336.978,170.000 337.195 C 170.000 337.938,176.400 344.800,177.092 344.800 C 177.274 344.800,177.683 345.160,178.000 345.600 C 178.317 346.040,178.897 346.400,179.288 346.400 C 179.680 346.400,180.000 346.558,180.000 346.750 C 180.000 346.943,180.531 347.357,181.179 347.671 L 182.359 348.242 181.180 349.621 C 180.532 350.380,180.001 351.225,180.001 351.500 C 180.000 351.775,179.820 352.000,179.600 352.000 C 179.380 352.000,179.200 352.360,179.200 352.800 C 179.200 353.240,179.020 353.600,178.800 353.600 C 178.580 353.600,178.400 353.960,178.400 354.400 C 178.400 354.840,178.220 355.200,178.000 355.200 C 177.780 355.200,177.600 355.560,177.600 356.000 C 177.600 356.440,177.420 356.800,177.200 356.800 C 176.980 356.800,176.800 357.340,176.800 358.000 C 176.800 358.660,176.617 359.200,176.394 359.200 C 176.170 359.200,176.015 359.695,176.048 360.300 C 176.081 360.905,175.941 361.850,175.737 362.400 C 175.241 363.734,175.358 373.195,175.884 374.204 C 176.112 374.642,176.232 375.405,176.152 375.900 C 176.071 376.395,176.184 376.800,176.403 376.800 C 176.621 376.800,176.800 377.340,176.800 378.000 C 176.800 378.660,176.980 379.200,177.200 379.200 C 177.420 379.200,177.600 379.560,177.600 380.000 C 177.600 380.440,177.780 380.800,178.000 380.800 C 178.220 380.800,178.400 381.160,178.400 381.600 C 178.400 382.040,178.580 382.400,178.800 382.400 C 179.020 382.400,179.200 382.760,179.200 383.200 C 179.200 383.640,179.380 384.000,179.600 384.000 C 179.820 384.000,180.000 384.236,180.000 384.525 C 180.000 384.813,180.320 385.398,180.711 385.825 C 181.102 386.251,181.857 387.230,182.388 388.000 C 182.920 388.770,183.892 389.850,184.548 390.400 C 185.204 390.950,186.333 391.985,187.057 392.700 C 187.781 393.415,188.610 394.000,188.898 394.000 C 189.187 394.000,189.683 394.360,190.000 394.800 C 190.317 395.240,190.857 395.600,191.200 395.600 C 191.543 395.600,192.083 395.960,192.400 396.400 C 192.717 396.840,193.297 397.200,193.688 397.200 C 194.080 397.200,194.400 397.380,194.400 397.600 C 194.400 397.820,194.749 398.000,195.176 398.000 C 195.603 398.000,196.064 398.180,196.200 398.400 C 196.336 398.620,196.782 398.800,197.190 398.800 C 197.599 398.800,198.008 399.025,198.100 399.300 C 198.340 400.021,216.939 400.021,217.660 399.300 C 217.935 399.025,218.574 398.800,219.080 398.800 C 219.586 398.800,220.000 398.620,220.000 398.400 C 220.000 398.180,220.360 398.000,220.800 398.000 C 221.240 398.000,221.600 397.820,221.600 397.600 C 221.600 397.380,221.960 397.200,222.400 397.200 C 222.840 397.200,223.200 397.020,223.200 396.800 C 223.200 396.580,223.430 396.400,223.712 396.400 C 223.993 396.400,224.483 396.040,224.800 395.600 C 225.117 395.160,225.607 394.800,225.888 394.800 C 226.169 394.800,227.141 394.080,228.048 393.200 C 228.955 392.320,229.945 391.600,230.248 391.600 C 230.552 391.600,230.800 391.438,230.800 391.241 C 230.800 391.043,231.700 389.962,232.800 388.839 C 233.900 387.715,234.800 386.567,234.800 386.286 C 234.800 386.006,235.160 385.517,235.600 385.200 C 236.040 384.883,236.400 384.303,236.400 383.912 C 236.400 383.520,236.535 383.199,236.700 383.197 C 237.059 383.193,238.000 381.256,238.000 380.520 C 238.000 380.234,238.141 380.000,238.313 380.000 C 238.485 380.000,238.860 379.145,239.146 378.100 C 239.433 377.055,239.823 375.840,240.013 375.400 C 241.157 372.752,241.151 363.320,240.004 360.600 C 239.819 360.160,239.433 358.945,239.146 357.900 C 238.860 356.855,238.485 356.000,238.313 356.000 C 238.141 356.000,238.000 355.640,238.000 355.200 C 238.000 354.760,237.820 354.400,237.600 354.400 C 237.380 354.400,237.200 354.040,237.200 353.600 C 237.200 352.809,237.467 352.800,260.200 352.800 C 275.267 352.800,283.200 352.938,283.200 353.200 C 283.200 353.420,283.020 353.600,282.800 353.600 C 282.580 353.600,282.400 353.960,282.400 354.400 C 282.400 354.840,282.220 355.200,282.000 355.200 C 281.780 355.200,281.600 355.560,281.600 356.000 C 281.600 356.440,281.420 356.800,281.200 356.800 C 280.980 356.800,280.800 357.340,280.800 358.000 C 280.800 358.660,280.620 359.200,280.400 359.200 C 280.180 359.200,280.000 359.909,280.000 360.776 C 280.000 361.643,279.820 362.464,279.600 362.600 C 279.069 362.928,279.069 373.072,279.600 373.400 C 279.820 373.536,280.000 374.357,280.000 375.224 C 280.000 376.091,280.180 376.800,280.400 376.800 C 280.620 376.800,280.800 377.340,280.800 378.000 C 280.800 378.660,280.980 379.200,281.200 379.200 C 281.420 379.200,281.600 379.560,281.600 380.000 C 281.600 380.440,281.780 380.800,282.000 380.800 C 282.220 380.800,282.400 381.160,282.400 381.600 C 282.400 382.040,282.580 382.400,282.800 382.400 C 283.020 382.400,283.200 382.760,283.200 383.200 C 283.200 383.640,283.380 384.000,283.600 384.000 C 283.820 384.000,284.000 384.270,284.000 384.600 C 284.000 384.930,284.180 385.200,284.400 385.200 C 284.620 385.200,284.800 385.470,284.800 385.800 C 284.800 386.130,284.941 386.400,285.114 386.400 C 285.286 386.400,285.726 386.895,286.091 387.500 C 286.896 388.835,288.141 390.142,290.374 392.000 C 291.300 392.770,292.625 393.895,293.318 394.500 C 294.011 395.105,294.808 395.600,295.089 395.600 C 295.370 395.600,295.600 395.746,295.600 395.925 C 295.600 396.104,296.230 396.498,297.000 396.800 C 297.770 397.102,298.400 397.496,298.400 397.675 C 298.400 397.854,298.749 398.000,299.176 398.000 C 299.603 398.000,300.064 398.180,300.200 398.400 C 300.336 398.620,300.782 398.800,301.190 398.800 C 301.599 398.800,302.008 399.025,302.100 399.300 C 302.341 400.025,321.258 400.025,321.500 399.300 C 321.592 399.025,321.976 398.800,322.354 398.800 C 323.221 398.800,325.193 397.898,325.197 397.500 C 325.199 397.335,325.560 397.200,326.000 397.200 C 326.440 397.200,326.800 397.020,326.800 396.800 C 326.800 396.580,327.160 396.400,327.600 396.400 C 328.040 396.400,328.400 396.250,328.400 396.068 C 328.400 395.885,328.892 395.480,329.493 395.168 C 330.094 394.855,331.111 394.105,331.752 393.500 C 332.394 392.895,333.086 392.400,333.291 392.400 C 333.634 392.400,335.006 391.037,337.645 388.077 C 338.220 387.432,339.120 386.116,339.645 385.152 C 340.170 384.188,340.825 383.162,341.100 382.871 C 341.375 382.581,341.600 382.006,341.600 381.595 C 341.600 381.184,341.780 380.736,342.000 380.600 C 342.220 380.464,342.400 379.913,342.400 379.376 C 342.400 378.839,342.580 378.400,342.800 378.400 C 343.020 378.400,343.200 377.860,343.200 377.200 C 343.200 376.540,343.380 376.000,343.600 376.000 C 343.820 376.000,344.000 375.201,344.000 374.224 C 344.000 373.247,344.180 372.336,344.400 372.200 C 344.623 372.062,344.800 370.204,344.800 368.000 C 344.800 365.796,344.623 363.938,344.400 363.800 C 344.180 363.664,344.000 362.753,344.000 361.776 C 344.000 360.799,343.820 360.000,343.600 360.000 C 343.380 360.000,343.200 359.460,343.200 358.800 C 343.200 358.140,343.020 357.600,342.800 357.600 C 342.580 357.600,342.400 357.251,342.400 356.824 C 342.400 356.397,342.220 355.936,342.000 355.800 C 341.780 355.664,341.600 355.126,341.600 354.605 C 341.600 354.084,341.375 353.412,341.100 353.113 C 340.639 352.612,340.204 351.915,339.038 349.811 C 338.797 349.377,338.131 348.564,337.559 348.005 C 336.626 347.094,336.518 346.687,336.518 344.078 C 336.518 340.374,334.290 336.400,332.213 336.400 C 331.876 336.400,331.600 336.220,331.600 336.000 C 331.600 335.735,309.741 335.600,266.824 335.600 C 224.071 335.600,201.963 335.464,201.800 335.200 C 201.664 334.980,200.314 334.800,198.800 334.800 C 197.286 334.800,195.936 334.620,195.800 334.400 C 195.664 334.180,195.023 334.000,194.376 334.000 C 193.729 334.000,193.200 333.820,193.200 333.600 C 193.200 333.380,192.838 333.200,192.395 333.200 C 191.504 333.200,190.260 332.569,189.045 331.500 C 188.607 331.115,188.095 330.800,187.906 330.800 C 187.420 330.800,185.600 328.920,185.600 328.418 C 185.600 328.188,185.450 328.000,185.268 328.000 C 185.085 328.000,184.680 327.505,184.368 326.900 C 184.056 326.295,183.711 325.710,183.601 325.600 C 183.123 325.124,182.400 323.561,182.400 323.005 C 182.400 322.672,182.220 322.400,182.000 322.400 C 181.780 322.400,181.600 322.051,181.600 321.624 C 181.600 321.197,181.420 320.736,181.200 320.600 C 180.980 320.464,180.800 319.913,180.800 319.376 C 180.800 318.839,180.620 318.400,180.400 318.400 C 180.180 318.400,180.000 317.781,180.000 317.024 C 180.000 316.267,179.820 315.536,179.600 315.400 C 179.380 315.264,179.200 314.623,179.200 313.976 C 179.200 313.329,179.020 312.800,178.800 312.800 C 178.580 312.800,178.400 312.181,178.400 311.424 C 178.400 310.667,178.220 309.936,178.000 309.800 C 177.780 309.664,177.600 308.933,177.600 308.176 C 177.600 307.419,177.420 306.800,177.200 306.800 C 176.980 306.800,176.800 306.080,176.800 305.200 C 176.800 304.320,176.620 303.600,176.400 303.600 C 176.180 303.600,176.000 302.880,176.000 302.000 C 176.000 301.120,175.856 300.400,175.679 300.400 C 175.503 300.400,175.141 299.005,174.875 297.300 C 174.109 292.391,173.934 291.607,173.556 291.373 C 173.360 291.252,173.200 290.623,173.200 289.976 L 173.200 288.800 247.400 288.800 C 296.600 288.800,321.600 288.665,321.600 288.400 C 321.600 288.180,321.960 288.000,322.400 288.000 C 322.840 288.000,323.200 287.820,323.200 287.600 C 323.200 287.380,323.404 287.200,323.653 287.200 C 324.229 287.200,325.999 285.163,326.000 284.500 C 326.000 284.225,326.180 284.000,326.400 284.000 C 326.620 284.000,326.800 283.460,326.800 282.800 C 326.800 282.140,326.980 281.600,327.200 281.600 C 327.420 281.600,327.600 281.161,327.600 280.624 C 327.600 280.087,327.780 279.536,328.000 279.400 C 328.220 279.264,328.400 278.803,328.400 278.376 C 328.400 277.949,328.580 277.600,328.800 277.600 C 329.020 277.600,329.200 277.060,329.200 276.400 C 329.200 275.740,329.380 275.200,329.600 275.200 C 329.820 275.200,330.000 274.851,330.000 274.424 C 330.000 273.997,330.180 273.536,330.400 273.400 C 330.620 273.264,330.800 272.803,330.800 272.376 C 330.800 271.949,330.980 271.600,331.200 271.600 C 331.420 271.600,331.600 271.060,331.600 270.400 C 331.600 269.740,331.780 269.200,332.000 269.200 C 332.220 269.200,332.400 268.851,332.400 268.424 C 332.400 267.997,332.580 267.536,332.800 267.400 C 333.020 267.264,333.200 266.713,333.200 266.176 C 333.200 265.639,333.380 265.200,333.600 265.200 C 333.820 265.200,334.000 264.660,334.000 264.000 C 334.000 263.340,334.180 262.800,334.400 262.800 C 334.620 262.800,334.800 262.451,334.800 262.024 C 334.800 261.597,334.980 261.136,335.200 261.000 C 335.420 260.864,335.600 260.313,335.600 259.776 C 335.600 259.239,335.780 258.800,336.000 258.800 C 336.220 258.800,336.400 258.350,336.400 257.800 C 336.400 257.250,336.580 256.800,336.800 256.800 C 337.020 256.800,337.200 256.451,337.200 256.024 C 337.200 255.597,337.380 255.136,337.600 255.000 C 337.820 254.864,338.000 254.324,338.000 253.800 C 338.000 253.276,338.180 252.736,338.400 252.600 C 338.620 252.464,338.800 251.913,338.800 251.376 C 338.800 250.839,338.941 250.400,339.113 250.400 C 339.285 250.400,339.677 249.549,339.984 248.509 C 340.291 247.468,340.779 246.163,341.069 245.609 C 341.358 245.054,341.596 244.105,341.598 243.500 C 341.599 242.895,341.780 242.400,342.000 242.400 C 342.220 242.400,342.400 241.950,342.400 241.400 C 342.400 240.850,342.580 240.400,342.800 240.400 C 343.020 240.400,343.200 239.950,343.200 239.400 C 343.200 238.850,343.380 238.400,343.600 238.400 C 343.820 238.400,344.000 237.950,344.000 237.400 C 344.000 236.850,344.180 236.400,344.400 236.400 C 344.620 236.400,344.800 235.860,344.800 235.200 C 344.800 234.540,344.980 234.000,345.200 234.000 C 345.420 234.000,345.600 233.640,345.600 233.200 C 345.600 232.760,345.780 232.400,346.000 232.400 C 346.220 232.400,346.400 231.860,346.400 231.200 C 346.400 230.540,346.580 230.000,346.800 230.000 C 347.020 230.000,347.200 229.561,347.200 229.024 C 347.200 228.487,347.380 227.936,347.600 227.800 C 347.820 227.664,348.000 227.203,348.000 226.776 C 348.000 226.349,348.180 226.000,348.400 226.000 C 348.620 226.000,348.800 225.561,348.800 225.024 C 348.800 224.487,348.980 223.936,349.200 223.800 C 349.420 223.664,349.600 223.113,349.600 222.576 C 349.600 222.039,349.780 221.600,350.000 221.600 C 350.220 221.600,350.400 221.251,350.400 220.824 C 350.400 220.397,350.580 219.936,350.800 219.800 C 351.020 219.664,351.200 219.113,351.200 218.576 C 351.200 218.039,351.347 217.600,351.528 217.600 C 351.708 217.600,352.100 216.700,352.400 215.600 C 352.700 214.500,353.092 213.600,353.272 213.600 C 353.453 213.600,353.600 213.060,353.600 212.400 C 353.600 211.740,353.747 211.200,353.928 211.200 C 354.108 211.200,354.500 210.300,354.800 209.200 C 355.100 208.100,355.492 207.200,355.672 207.200 C 355.853 207.200,356.000 206.874,356.000 206.475 C 356.000 206.076,356.360 205.005,356.800 204.094 C 357.240 203.184,357.600 202.171,357.600 201.843 C 357.600 201.515,357.759 201.149,357.954 201.029 C 358.148 200.908,358.429 199.998,358.578 199.005 C 358.727 198.012,359.018 197.200,359.225 197.200 C 359.431 197.200,359.600 196.660,359.600 196.000 C 359.600 195.340,359.780 194.800,360.000 194.800 C 360.220 194.800,360.400 194.451,360.400 194.024 C 360.400 193.597,360.580 193.136,360.800 193.000 C 361.020 192.864,361.200 192.313,361.200 191.776 C 361.200 191.239,361.380 190.800,361.600 190.800 C 361.820 190.800,362.000 190.350,362.000 189.800 C 362.000 189.250,362.180 188.800,362.400 188.800 C 362.620 188.800,362.800 188.350,362.800 187.800 C 362.800 187.250,362.980 186.800,363.200 186.800 C 363.420 186.800,363.600 186.350,363.600 185.800 C 363.600 185.250,363.780 184.800,364.000 184.800 C 364.220 184.800,364.400 184.260,364.400 183.600 C 364.400 182.940,364.580 182.400,364.800 182.400 C 365.020 182.400,365.200 182.051,365.200 181.624 C 365.200 181.197,365.380 180.736,365.600 180.600 C 365.820 180.464,366.000 179.913,366.000 179.376 C 366.000 178.839,366.180 178.400,366.400 178.400 C 366.620 178.400,366.800 177.961,366.800 177.424 C 366.800 176.887,366.980 176.336,367.200 176.200 C 367.420 176.064,367.600 175.603,367.600 175.176 C 367.600 174.749,367.780 174.400,368.000 174.400 C 368.220 174.400,368.400 173.961,368.400 173.424 C 368.400 172.887,368.580 172.336,368.800 172.200 C 369.020 172.064,369.200 171.513,369.200 170.976 C 369.200 170.439,369.380 170.000,369.600 170.000 C 369.820 170.000,370.000 169.651,370.000 169.224 C 370.000 168.797,370.180 168.336,370.400 168.200 C 370.620 168.064,370.800 167.513,370.800 166.976 C 370.800 166.439,370.980 166.000,371.200 166.000 C 371.420 166.000,371.600 165.638,371.600 165.195 C 371.600 164.752,371.780 164.032,372.000 163.595 C 372.220 163.158,372.580 162.442,372.800 162.005 C 373.020 161.568,373.200 160.863,373.200 160.439 C 373.200 160.014,373.335 159.607,373.500 159.533 C 373.929 159.343,375.204 155.570,375.202 154.500 C 375.201 154.005,375.380 153.600,375.600 153.600 C 375.820 153.600,376.000 153.251,376.000 152.824 C 376.000 152.397,376.180 151.936,376.400 151.800 C 376.620 151.664,376.800 151.113,376.800 150.576 C 376.800 150.039,376.980 149.600,377.200 149.600 C 377.420 149.600,377.600 149.161,377.600 148.624 C 377.600 148.087,377.780 147.536,378.000 147.400 C 378.220 147.264,378.400 146.803,378.400 146.376 C 378.400 145.949,378.580 145.600,378.800 145.600 C 379.020 145.600,379.200 145.060,379.200 144.400 C 379.200 143.740,379.380 143.200,379.600 143.200 C 379.820 143.200,380.000 142.750,380.000 142.200 C 380.000 141.650,380.180 141.200,380.400 141.200 C 380.620 141.200,380.800 140.851,380.800 140.424 C 380.800 139.997,380.980 139.536,381.200 139.400 C 381.420 139.264,381.600 138.713,381.600 138.176 C 381.600 137.639,381.780 137.200,382.000 137.200 C 382.220 137.200,382.400 136.761,382.400 136.224 C 382.400 135.687,382.580 135.136,382.800 135.000 C 383.020 134.864,383.200 134.403,383.200 133.976 C 383.200 133.549,383.380 133.200,383.600 133.200 C 383.820 133.200,384.000 132.660,384.000 132.000 C 384.000 131.340,384.180 130.800,384.400 130.800 C 384.628 130.800,384.800 129.608,384.800 128.024 C 384.800 126.497,384.620 125.136,384.400 125.000 C 384.180 124.864,384.000 124.489,384.000 124.166 C 384.000 123.153,380.527 120.000,379.411 120.000 C 378.855 120.000,378.400 119.820,378.400 119.600 C 378.400 119.343,374.596 119.200,367.789 119.200 L 357.178 119.200 351.989 113.989 C 349.135 111.123,346.800 108.882,346.800 109.010 C 346.800 109.138,345.585 107.968,344.100 106.410 C 339.219 101.290,330.400 92.423,330.400 92.635 C 330.400 92.749,329.185 91.568,327.700 90.012 C 321.161 83.157,315.161 77.200,314.796 77.200 C 314.578 77.200,314.400 76.930,314.400 76.600 C 314.400 76.270,314.245 76.000,314.056 76.000 C 313.704 76.000,313.209 75.512,302.792 64.890 C 299.496 61.530,296.800 58.884,296.800 59.010 C 296.800 59.251,292.667 55.014,289.600 51.630 C 288.610 50.538,287.496 49.634,287.124 49.622 C 286.752 49.610,286.336 49.420,286.200 49.200 C 285.874 48.673,279.600 48.673,279.600 49.200 C 279.600 49.420,279.285 49.606,278.900 49.613 C 278.035 49.628,276.718 50.585,277.073 50.940 C 277.216 51.083,277.003 51.200,276.600 51.200 C 276.197 51.200,275.968 51.301,276.092 51.425 C 276.216 51.549,275.624 52.337,274.776 53.176 C 273.929 54.016,273.347 54.814,273.484 54.951 C 273.621 55.088,273.510 55.200,273.238 55.200 C 272.599 55.200,271.600 56.199,271.600 56.838 C 271.600 57.110,271.488 57.221,271.351 57.084 C 271.214 56.947,270.416 57.529,269.576 58.376 C 268.737 59.224,267.994 59.879,267.925 59.833 C 267.856 59.787,265.961 61.605,263.713 63.874 C 261.466 66.143,259.704 68.000,259.798 68.000 C 259.892 68.000,259.264 68.698,258.402 69.551 C 257.540 70.404,256.947 71.214,257.084 71.351 C 257.221 71.488,257.110 71.600,256.838 71.600 C 256.199 71.600,255.200 72.599,255.200 73.238 C 255.200 73.510,255.088 73.621,254.951 73.484 C 254.814 73.347,254.004 73.940,253.151 74.802 C 252.298 75.664,251.597 76.241,251.594 76.084 C 251.591 75.928,251.433 76.044,251.245 76.341 C 250.733 77.149,250.386 76.826,237.196 63.287 C 234.778 60.805,232.800 58.876,232.800 59.001 C 232.800 59.126,231.000 57.415,228.800 55.200 C 226.600 52.985,224.800 51.032,224.800 50.860 C 224.800 50.689,224.063 50.155,223.162 49.674 C 221.416 48.742,216.000 48.383,216.000 49.200 C 216.000 49.420,215.586 49.600,215.081 49.600 C 214.513 49.600,213.279 50.441,211.853 51.800 C 210.584 53.010,209.640 54.000,209.755 54.000 C 209.870 54.000,208.667 55.317,207.082 56.928 C 205.497 58.538,204.110 59.827,204.000 59.793 C 203.654 59.685,193.287 70.354,193.516 70.583 C 193.636 70.702,193.433 70.800,193.067 70.800 C 192.700 70.800,192.400 70.986,192.400 71.214 C 192.400 71.442,191.397 72.567,190.171 73.714 C 187.290 76.411,176.411 87.290,173.714 90.171 C 172.567 91.397,171.442 92.400,171.214 92.400 C 170.986 92.400,170.800 92.700,170.800 93.067 C 170.800 93.433,170.702 93.636,170.583 93.516 C 170.354 93.287,159.685 103.654,159.793 104.000 C 159.827 104.110,158.538 105.497,156.928 107.082 C 155.317 108.667,154.000 109.876,154.000 109.768 C 154.000 109.660,151.868 111.738,149.262 114.386 L 144.525 119.200 137.662 119.200 C 131.067 119.200,130.800 119.169,130.800 118.400 C 130.800 117.960,130.620 117.600,130.400 117.600 C 130.180 117.600,130.000 116.880,130.000 116.000 C 130.000 115.120,129.820 114.400,129.600 114.400 C 129.380 114.400,129.200 113.680,129.200 112.800 C 129.200 111.920,129.020 111.200,128.800 111.200 C 128.580 111.200,128.400 110.570,128.400 109.800 C 128.400 109.030,128.220 108.400,128.000 108.400 C 127.780 108.400,127.600 107.691,127.600 106.824 C 127.600 105.957,127.420 105.136,127.200 105.000 C 126.980 104.864,126.800 104.144,126.800 103.400 C 126.800 102.656,126.620 101.936,126.400 101.800 C 126.180 101.664,126.000 100.963,126.000 100.243 C 126.000 99.523,125.865 98.800,125.700 98.637 C 125.535 98.474,125.168 96.959,124.884 95.271 C 123.971 89.838,123.917 89.600,123.597 89.600 C 123.423 89.600,123.181 88.835,123.059 87.900 C 122.634 84.640,122.309 83.191,121.956 82.973 C 121.760 82.852,121.600 82.144,121.600 81.400 C 121.600 80.656,121.420 79.936,121.200 79.800 C 120.980 79.664,120.800 78.944,120.800 78.200 C 120.800 77.456,120.620 76.736,120.400 76.600 C 120.180 76.464,120.000 75.744,120.000 75.000 C 120.000 74.256,119.820 73.536,119.600 73.400 C 119.380 73.264,119.200 72.544,119.200 71.800 C 119.200 71.056,119.020 70.336,118.800 70.200 C 118.580 70.064,118.400 69.344,118.400 68.600 C 118.400 67.856,118.220 67.136,118.000 67.000 C 117.780 66.864,117.600 66.144,117.600 65.400 C 117.600 64.656,117.420 63.936,117.200 63.800 C 116.980 63.664,116.800 62.944,116.800 62.200 C 116.800 61.456,116.620 60.736,116.400 60.600 C 116.180 60.464,116.000 59.733,116.000 58.976 C 116.000 58.219,115.820 57.600,115.600 57.600 C 115.380 57.600,115.200 56.880,115.200 56.000 C 115.200 55.120,115.020 54.400,114.800 54.400 C 114.580 54.400,114.400 53.680,114.400 52.800 C 114.400 51.920,114.220 51.200,114.000 51.200 C 113.780 51.200,113.600 50.660,113.600 50.000 C 113.600 49.340,113.420 48.800,113.200 48.800 C 112.980 48.800,112.800 48.260,112.800 47.600 C 112.800 46.940,112.620 46.400,112.400 46.400 C 112.180 46.400,112.000 45.961,112.000 45.424 C 112.000 44.887,111.820 44.336,111.600 44.200 C 111.380 44.064,111.200 43.513,111.200 42.976 C 111.200 42.439,111.020 42.000,110.800 42.000 C 110.580 42.000,110.400 41.640,110.400 41.200 C 110.400 40.760,110.220 40.400,110.000 40.400 C 109.780 40.400,109.600 40.040,109.600 39.600 C 109.600 39.160,109.420 38.800,109.200 38.800 C 108.980 38.800,108.800 38.509,108.800 38.154 C 108.800 37.375,106.876 33.705,105.900 32.625 C 105.515 32.198,105.200 31.706,105.200 31.531 C 105.200 30.790,98.624 24.000,97.906 24.000 C 97.679 24.000,97.203 23.684,96.847 23.297 C 96.491 22.911,95.705 22.340,95.100 22.030 C 94.495 21.719,94.000 21.315,94.000 21.132 C 94.000 20.950,93.655 20.800,93.233 20.800 C 92.812 20.800,92.407 20.665,92.333 20.500 C 92.112 20.001,88.778 18.400,87.962 18.400 C 87.543 18.400,87.200 18.220,87.200 18.000 C 87.200 17.780,86.660 17.600,86.000 17.600 C 85.340 17.600,84.800 17.420,84.800 17.200 C 84.800 16.980,84.080 16.800,83.200 16.800 C 82.320 16.800,81.600 16.620,81.600 16.400 C 81.600 16.178,80.541 16.000,79.224 16.000 C 77.917 16.000,76.736 15.820,76.600 15.600 C 76.440 15.340,67.796 15.200,51.976 15.200 C 38.138 15.200,27.600 15.047,27.600 14.847 C 27.600 14.652,27.285 14.393,26.900 14.271 C 26.515 14.149,25.660 13.741,25.000 13.364 C 23.011 12.228,22.447 12.000,21.629 12.000 C 21.199 12.000,20.736 11.820,20.600 11.600 C 20.460 11.373,18.470 11.200,16.000 11.200 C 13.530 11.200,11.540 11.373,11.400 11.600 M221.677 72.809 C 223.065 74.133,224.330 75.348,224.490 75.509 C 224.649 75.669,228.288 79.310,232.577 83.600 C 241.610 92.637,240.108 91.130,249.838 100.917 C 254.039 105.143,257.855 108.858,258.317 109.173 C 258.779 109.488,259.066 109.893,258.955 110.073 C 258.844 110.253,259.033 110.400,259.376 110.400 C 259.719 110.400,260.000 110.578,260.000 110.795 C 260.000 111.012,261.726 112.916,263.836 115.026 C 265.946 117.135,267.595 118.938,267.501 119.032 C 267.407 119.126,245.497 119.157,218.812 119.102 L 170.294 119.000 194.594 94.700 C 207.959 81.335,218.953 70.400,219.024 70.400 C 219.096 70.400,220.290 71.484,221.677 72.809 M307.423 94.569 C 320.721 107.862,331.600 118.842,331.600 118.969 C 331.600 119.096,322.939 119.200,312.353 119.200 L 293.106 119.200 280.175 106.245 C 273.063 99.120,267.144 93.390,267.022 93.512 C 266.900 93.634,266.800 93.433,266.800 93.067 C 266.800 92.700,266.639 92.400,266.442 92.400 C 266.246 92.400,265.495 91.849,264.773 91.175 L 263.462 89.950 268.231 85.105 C 274.818 78.413,282.919 70.400,283.098 70.400 C 283.180 70.400,294.126 81.276,307.423 94.569 M362.800 137.725 C 362.800 138.014,362.440 138.995,362.000 139.906 C 361.560 140.816,361.200 141.840,361.200 142.181 C 361.200 142.521,361.020 142.800,360.800 142.800 C 360.580 142.800,360.400 143.214,360.400 143.720 C 360.400 144.226,360.184 144.856,359.920 145.120 C 359.656 145.384,359.571 145.600,359.730 145.600 C 359.890 145.600,359.741 146.140,359.400 146.800 C 359.059 147.460,358.910 148.000,359.070 148.000 C 359.229 148.000,359.144 148.216,358.880 148.480 C 358.616 148.744,358.400 149.363,358.400 149.856 C 358.400 150.349,358.220 150.864,358.000 151.000 C 357.780 151.136,357.600 151.597,357.600 152.024 C 357.600 152.451,357.420 152.800,357.200 152.800 C 356.980 152.800,356.800 153.340,356.800 154.000 C 356.800 154.660,356.620 155.200,356.400 155.200 C 356.180 155.200,356.000 155.639,356.000 156.176 C 356.000 156.713,355.820 157.264,355.600 157.400 C 355.380 157.536,355.200 157.997,355.200 158.424 C 355.200 158.851,355.020 159.200,354.800 159.200 C 354.580 159.200,354.400 159.650,354.400 160.200 C 354.400 160.750,354.220 161.200,354.000 161.200 C 353.780 161.200,353.600 161.639,353.600 162.176 C 353.600 162.713,353.420 163.264,353.200 163.400 C 352.980 163.536,352.800 163.997,352.800 164.424 C 352.800 164.851,352.620 165.200,352.400 165.200 C 352.180 165.200,352.000 165.740,352.000 166.400 C 352.000 167.060,351.820 167.600,351.600 167.600 C 351.380 167.600,351.200 167.949,351.200 168.376 C 351.200 168.803,351.020 169.264,350.800 169.400 C 350.580 169.536,350.400 170.087,350.400 170.624 C 350.400 171.161,350.220 171.600,350.000 171.600 C 349.780 171.600,349.600 172.140,349.600 172.800 C 349.600 173.460,349.420 174.000,349.200 174.000 C 348.980 174.000,348.800 174.360,348.800 174.800 C 348.800 175.240,348.620 175.600,348.400 175.600 C 348.180 175.600,348.000 176.039,348.000 176.576 C 348.000 177.113,347.820 177.664,347.600 177.800 C 347.380 177.936,347.200 178.487,347.200 179.024 C 347.200 179.561,347.020 180.000,346.800 180.000 C 346.580 180.000,346.400 180.349,346.400 180.776 C 346.400 181.203,346.220 181.664,346.000 181.800 C 345.780 181.936,345.600 182.487,345.600 183.024 C 345.600 183.561,345.420 184.000,345.200 184.000 C 344.980 184.000,344.800 184.540,344.800 185.200 C 344.800 185.860,344.620 186.400,344.400 186.400 C 344.180 186.400,344.000 186.730,344.000 187.133 C 344.000 187.537,343.875 187.992,343.722 188.145 C 343.569 188.298,343.403 188.702,343.353 189.043 C 343.303 189.384,343.128 189.963,342.965 190.331 C 342.802 190.699,342.654 191.120,342.635 191.267 C 342.616 191.413,342.465 191.668,342.300 191.833 C 342.135 191.998,342.000 192.553,342.000 193.067 C 342.000 193.580,341.820 194.000,341.600 194.000 C 341.380 194.000,341.200 194.540,341.200 195.200 C 341.200 195.860,341.020 196.400,340.800 196.400 C 340.580 196.400,340.400 196.749,340.400 197.176 C 340.400 197.603,340.220 198.064,340.000 198.200 C 339.780 198.336,339.600 198.887,339.600 199.424 C 339.600 199.961,339.420 200.400,339.200 200.400 C 338.980 200.400,338.800 200.940,338.800 201.600 C 338.800 202.260,338.620 202.800,338.400 202.800 C 338.180 202.800,338.000 203.160,338.000 203.600 C 338.000 204.040,337.820 204.400,337.600 204.400 C 337.380 204.400,337.200 204.940,337.200 205.600 C 337.200 206.260,337.020 206.800,336.800 206.800 C 336.580 206.800,336.400 207.250,336.400 207.800 C 336.400 208.350,336.220 208.800,336.000 208.800 C 335.780 208.800,335.600 209.250,335.600 209.800 C 335.600 210.350,335.420 210.800,335.200 210.800 C 334.980 210.800,334.800 211.250,334.800 211.800 C 334.800 212.350,334.620 212.800,334.400 212.800 C 334.180 212.800,334.000 213.239,334.000 213.776 C 334.000 214.313,333.820 214.864,333.600 215.000 C 333.380 215.136,333.200 215.597,333.200 216.024 C 333.200 216.451,333.020 216.800,332.800 216.800 C 332.580 216.800,332.400 217.340,332.400 218.000 C 332.400 218.660,332.253 219.200,332.072 219.200 C 331.892 219.200,331.500 220.100,331.200 221.200 C 330.900 222.300,330.508 223.200,330.328 223.200 C 330.147 223.200,330.000 223.740,330.000 224.400 C 330.000 225.060,329.820 225.600,329.600 225.600 C 329.380 225.600,329.200 225.872,329.200 226.205 C 329.200 226.538,329.020 227.168,328.800 227.605 C 328.580 228.042,328.220 228.758,328.000 229.195 C 327.780 229.632,327.600 230.352,327.600 230.795 C 327.600 231.238,327.390 231.600,327.133 231.600 C 326.877 231.600,326.779 231.713,326.917 231.851 C 327.055 231.989,326.901 232.619,326.574 233.251 C 326.247 233.883,326.079 234.400,326.200 234.400 C 326.321 234.400,326.139 234.945,325.794 235.612 C 325.449 236.278,325.268 236.986,325.390 237.184 C 325.513 237.382,325.430 237.658,325.207 237.796 C 324.983 237.934,324.800 238.397,324.800 238.824 C 324.800 239.251,324.620 239.600,324.400 239.600 C 324.180 239.600,324.000 240.140,324.000 240.800 C 324.000 241.460,323.820 242.000,323.600 242.000 C 323.380 242.000,323.200 242.349,323.200 242.776 C 323.200 243.203,323.020 243.664,322.800 243.800 C 322.580 243.936,322.400 244.397,322.400 244.824 C 322.400 245.251,322.220 245.600,322.000 245.600 C 321.780 245.600,321.600 246.140,321.600 246.800 C 321.600 247.460,321.420 248.000,321.200 248.000 C 320.980 248.000,320.800 248.349,320.800 248.776 C 320.800 249.203,320.620 249.664,320.400 249.800 C 320.180 249.936,320.000 250.487,320.000 251.024 C 320.000 251.561,319.820 252.000,319.600 252.000 C 319.380 252.000,319.200 252.540,319.200 253.200 C 319.200 253.860,319.020 254.400,318.800 254.400 C 318.580 254.400,318.400 254.760,318.400 255.200 C 318.400 255.640,318.220 256.000,318.000 256.000 C 317.780 256.000,317.600 256.540,317.600 257.200 C 317.600 257.860,317.420 258.400,317.200 258.400 C 316.980 258.400,316.800 258.850,316.800 259.400 C 316.800 259.950,316.620 260.400,316.400 260.400 C 316.180 260.400,316.000 260.749,316.000 261.176 C 316.000 261.603,315.820 262.064,315.600 262.200 C 315.380 262.336,315.200 262.887,315.200 263.424 C 315.200 263.961,315.020 264.400,314.800 264.400 C 314.580 264.400,314.400 264.762,314.400 265.205 C 314.400 265.983,314.258 266.369,313.262 268.295 C 313.008 268.787,312.800 269.474,312.800 269.823 C 312.800 271.686,316.332 271.600,240.029 271.600 L 168.400 271.600 168.400 270.424 C 168.400 269.777,168.220 269.136,168.000 269.000 C 167.780 268.864,167.600 268.144,167.600 267.400 C 167.600 266.656,167.420 265.936,167.200 265.800 C 166.980 265.664,166.800 264.933,166.800 264.176 C 166.800 263.419,166.620 262.800,166.400 262.800 C 166.180 262.800,166.000 262.091,166.000 261.224 C 166.000 260.357,165.820 259.536,165.600 259.400 C 165.380 259.264,165.200 258.544,165.200 257.800 C 165.200 257.056,165.020 256.336,164.800 256.200 C 164.580 256.064,164.400 255.344,164.400 254.600 C 164.400 253.856,164.220 253.136,164.000 253.000 C 163.780 252.864,163.600 252.144,163.600 251.400 C 163.600 250.656,163.420 249.936,163.200 249.800 C 162.980 249.664,162.800 248.944,162.800 248.200 C 162.800 247.456,162.620 246.736,162.400 246.600 C 162.180 246.464,162.000 245.733,162.000 244.976 C 162.000 244.219,161.820 243.600,161.600 243.600 C 161.380 243.600,161.200 242.880,161.200 242.000 C 161.200 241.120,161.020 240.400,160.800 240.400 C 160.580 240.400,160.400 239.680,160.400 238.800 C 160.400 237.920,160.220 237.200,160.000 237.200 C 159.780 237.200,159.600 236.480,159.600 235.600 C 159.600 234.720,159.420 234.000,159.200 234.000 C 158.980 234.000,158.796 233.415,158.790 232.700 C 158.785 231.985,158.593 230.680,158.364 229.800 C 157.354 225.927,157.122 224.911,156.925 223.497 C 156.810 222.671,156.555 221.895,156.358 221.774 C 156.161 221.652,156.000 220.944,156.000 220.200 C 156.000 219.456,155.820 218.736,155.600 218.600 C 155.380 218.464,155.200 217.744,155.200 217.000 C 155.200 216.256,155.020 215.536,154.800 215.400 C 154.580 215.264,154.400 214.544,154.400 213.800 C 154.400 213.056,154.220 212.336,154.000 212.200 C 153.780 212.064,153.600 211.333,153.600 210.576 C 153.600 209.819,153.420 209.200,153.200 209.200 C 152.980 209.200,152.800 208.480,152.800 207.600 C 152.800 206.720,152.620 206.000,152.400 206.000 C 152.180 206.000,152.000 205.280,152.000 204.400 C 152.000 203.520,151.820 202.800,151.600 202.800 C 151.380 202.800,151.200 202.080,151.200 201.200 C 151.200 200.320,151.020 199.600,150.800 199.600 C 150.580 199.600,150.400 198.880,150.400 198.000 C 150.400 197.120,150.220 196.400,150.000 196.400 C 149.780 196.400,149.600 195.781,149.600 195.024 C 149.600 194.267,149.420 193.536,149.200 193.400 C 148.980 193.264,148.800 192.544,148.800 191.800 C 148.800 191.056,148.620 190.336,148.400 190.200 C 148.180 190.064,148.000 189.344,148.000 188.600 C 148.000 187.856,147.820 187.136,147.600 187.000 C 147.380 186.864,147.200 186.144,147.200 185.400 C 147.200 184.656,147.020 183.936,146.800 183.800 C 146.580 183.664,146.400 182.944,146.400 182.200 C 146.400 181.456,146.220 180.736,146.000 180.600 C 145.780 180.464,145.600 179.744,145.600 179.000 C 145.600 178.256,145.420 177.536,145.200 177.400 C 144.980 177.264,144.800 176.544,144.800 175.800 C 144.800 175.056,144.620 174.336,144.400 174.200 C 144.180 174.064,144.000 173.344,144.000 172.600 C 144.000 171.856,143.820 171.136,143.600 171.000 C 143.380 170.864,143.200 170.144,143.200 169.400 C 143.200 168.656,143.020 167.936,142.800 167.800 C 142.580 167.664,142.400 166.963,142.400 166.243 C 142.400 165.523,142.265 164.799,142.100 164.635 C 141.935 164.471,141.588 163.136,141.328 161.669 C 141.069 160.201,140.664 158.235,140.428 157.300 C 140.193 156.365,139.805 154.835,139.567 153.900 C 139.330 152.965,139.040 151.524,138.925 150.697 C 138.810 149.871,138.555 149.095,138.358 148.974 C 138.161 148.852,138.000 148.144,138.000 147.400 C 138.000 146.656,137.820 145.936,137.600 145.800 C 137.380 145.664,137.200 144.933,137.200 144.176 C 137.200 143.419,137.020 142.800,136.800 142.800 C 136.580 142.800,136.400 142.080,136.400 141.200 C 136.400 140.320,136.220 139.600,136.000 139.600 C 135.780 139.600,135.600 139.060,135.600 138.400 L 135.600 137.200 249.200 137.200 C 342.684 137.200,362.800 137.293,362.800 137.725 M211.400 353.200 C 211.536 353.420,212.267 353.600,213.024 353.600 C 213.781 353.600,214.400 353.780,214.400 354.000 C 214.400 354.220,214.760 354.400,215.200 354.400 C 215.640 354.400,216.000 354.568,216.000 354.773 C 216.000 354.978,216.357 355.259,216.793 355.398 C 217.757 355.704,220.800 358.567,220.800 359.169 C 220.800 359.406,220.980 359.600,221.200 359.600 C 221.420 359.600,221.600 359.960,221.600 360.400 C 221.600 360.840,221.780 361.200,222.000 361.200 C 222.220 361.200,222.400 361.740,222.400 362.400 C 222.400 363.060,222.580 363.600,222.800 363.600 C 223.042 363.600,223.200 365.333,223.200 368.000 C 223.200 370.667,223.042 372.400,222.800 372.400 C 222.580 372.400,222.400 372.940,222.400 373.600 C 222.400 374.260,222.264 374.800,222.098 374.800 C 221.931 374.800,221.540 375.378,221.227 376.084 C 220.306 378.164,216.451 381.600,215.038 381.600 C 214.687 381.600,214.400 381.780,214.400 382.000 C 214.400 382.220,213.770 382.400,213.000 382.400 C 212.230 382.400,211.600 382.580,211.600 382.800 C 211.600 383.037,210.133 383.200,208.000 383.200 C 205.867 383.200,204.400 383.037,204.400 382.800 C 204.400 382.580,203.984 382.400,203.475 382.400 C 201.362 382.400,195.600 378.523,195.600 377.101 C 195.600 376.909,195.420 376.864,195.200 377.000 C 194.980 377.136,194.800 376.877,194.800 376.424 C 194.800 375.971,194.620 375.600,194.400 375.600 C 194.180 375.600,194.000 375.240,194.000 374.800 C 194.000 374.360,193.820 374.000,193.600 374.000 C 193.380 374.000,193.200 373.291,193.200 372.424 C 193.200 371.557,193.020 370.736,192.800 370.600 C 192.580 370.464,192.400 369.384,192.400 368.200 C 192.400 367.016,192.580 365.936,192.800 365.800 C 193.020 365.664,193.200 364.753,193.200 363.776 C 193.200 362.799,193.380 362.000,193.600 362.000 C 193.820 362.000,194.000 361.640,194.000 361.200 C 194.000 360.760,194.180 360.400,194.400 360.400 C 194.620 360.400,194.800 360.112,194.800 359.760 C 194.800 359.164,195.745 358.132,198.061 356.200 C 199.523 354.980,202.364 353.600,203.414 353.600 C 203.930 353.600,204.464 353.420,204.600 353.200 C 204.736 352.980,206.266 352.800,208.000 352.800 C 209.734 352.800,211.264 352.980,211.400 353.200 M315.400 353.200 C 315.536 353.420,316.267 353.600,317.024 353.600 C 317.781 353.600,318.400 353.780,318.400 354.000 C 318.400 354.220,318.760 354.400,319.200 354.400 C 319.640 354.400,320.000 354.580,320.000 354.800 C 320.000 355.020,320.241 355.200,320.536 355.200 C 321.373 355.200,324.579 358.454,325.168 359.900 C 325.459 360.615,325.839 361.200,326.013 361.200 C 326.187 361.200,326.279 361.515,326.217 361.900 C 326.155 362.285,326.274 362.929,326.482 363.330 C 326.814 363.970,326.942 367.186,326.834 372.124 C 326.815 372.974,326.632 373.544,326.421 373.413 C 326.212 373.284,326.112 373.543,326.198 373.989 C 326.284 374.435,326.206 374.800,326.026 374.800 C 325.845 374.800,325.455 375.385,325.159 376.100 C 324.515 377.655,321.471 380.800,320.611 380.800 C 320.275 380.800,320.000 380.980,320.000 381.200 C 320.000 381.420,319.640 381.600,319.200 381.600 C 318.760 381.600,318.400 381.780,318.400 382.000 C 318.400 382.220,317.860 382.400,317.200 382.400 C 316.540 382.400,316.000 382.580,316.000 382.800 C 316.000 383.038,314.475 383.200,312.224 383.200 C 310.137 383.200,308.337 383.021,308.200 382.800 C 308.064 382.580,307.620 382.400,307.214 382.400 C 305.326 382.400,298.836 377.535,298.809 376.100 C 298.804 375.825,298.620 375.600,298.400 375.600 C 298.180 375.600,298.000 375.161,298.000 374.624 C 298.000 374.087,297.820 373.536,297.600 373.400 C 297.380 373.264,297.200 372.454,297.200 371.600 C 297.200 370.746,297.020 369.936,296.800 369.800 C 296.580 369.664,296.400 368.843,296.400 367.976 C 296.400 367.109,296.580 366.400,296.800 366.400 C 297.020 366.400,297.200 365.590,297.200 364.600 C 297.200 363.610,297.380 362.800,297.600 362.800 C 297.820 362.800,298.000 362.260,298.000 361.600 C 298.000 360.940,298.180 360.400,298.400 360.400 C 298.620 360.400,298.800 360.132,298.800 359.803 C 298.800 359.242,299.898 358.032,302.071 356.200 C 303.509 354.987,306.360 353.600,307.414 353.600 C 307.930 353.600,308.464 353.420,308.600 353.200 C 308.736 352.980,310.266 352.800,312.000 352.800 C 313.734 352.800,315.264 352.980,315.400 353.200 " stroke="none" fill="#543c84" fill-rule="evenodd"></path><path id="path1" d="M175.334 368.000 C 175.334 369.650,175.405 370.325,175.491 369.500 C 175.578 368.675,175.578 367.325,175.491 366.500 C 175.405 365.675,175.334 366.350,175.334 368.000 " stroke="none" fill="#583c84" fill-rule="evenodd"></path><path id="path2" d="M175.334 368.000 C 175.334 369.650,175.405 370.325,175.491 369.500 C 175.578 368.675,175.578 367.325,175.491 366.500 C 175.405 365.675,175.334 366.350,175.334 368.000 " stroke="none" fill="#583c84" fill-rule="evenodd"></path><path id="path3" d="M175.334 368.000 C 175.334 369.650,175.405 370.325,175.491 369.500 C 175.578 368.675,175.578 367.325,175.491 366.500 C 175.405 365.675,175.334 366.350,175.334 368.000 " stroke="none" fill="#583c84" fill-rule="evenodd"></path><path id="path4" d="M175.334 368.000 C 175.334 369.650,175.405 370.325,175.491 369.500 C 175.578 368.675,175.578 367.325,175.491 366.500 C 175.405 365.675,175.334 366.350,175.334 368.000 " stroke="none" fill="#583c84" fill-rule="evenodd"></path></g></svg>