<svg id="svg" version="1.1" xmlns="http://www.w3.org/2000/svg" xmlns:xlink="http://www.w3.org/1999/xlink" width="400" height="400" viewBox="0, 0, 400,400"><g id="svgg"><path id="path0" d="M379.400 32.000 C 379.547 32.238,379.071 32.400,378.224 32.400 C 377.441 32.400,376.800 32.580,376.800 32.800 C 376.800 33.020,376.530 33.200,376.200 33.200 C 375.870 33.200,375.600 33.380,375.600 33.600 C 375.600 33.820,375.387 34.000,375.126 34.000 C 374.865 34.000,374.280 34.347,373.826 34.770 C 373.372 35.194,372.734 35.599,372.410 35.670 C 371.609 35.846,370.800 36.634,370.800 37.238 C 370.800 37.510,370.691 37.624,370.557 37.491 C 370.240 37.174,369.229 38.109,369.466 38.500 C 369.565 38.665,369.473 38.800,369.260 38.800 C 368.734 38.800,364.975 42.491,365.100 42.885 C 365.155 43.058,365.056 43.155,364.880 43.100 C 364.460 42.969,355.200 52.268,355.200 52.822 C 355.200 53.056,355.065 53.170,354.900 53.076 C 354.505 52.851,352.781 54.648,353.093 54.959 C 353.225 55.092,353.122 55.200,352.865 55.200 C 352.282 55.200,342.962 64.440,343.100 64.880 C 343.155 65.056,343.058 65.155,342.885 65.100 C 342.491 64.975,338.800 68.734,338.800 69.260 C 338.800 69.473,338.665 69.565,338.500 69.466 C 338.109 69.229,337.174 70.240,337.491 70.557 C 337.624 70.691,337.510 70.800,337.238 70.800 C 336.595 70.800,335.564 71.831,335.886 72.152 C 336.022 72.289,335.940 72.400,335.703 72.400 C 335.147 72.400,331.369 76.072,331.500 76.485 C 331.555 76.658,331.465 76.758,331.300 76.707 C 330.908 76.585,326.585 80.908,326.707 81.300 C 326.758 81.465,326.658 81.555,326.485 81.500 C 326.072 81.369,322.400 85.147,322.400 85.703 C 322.400 85.940,322.289 86.022,322.152 85.886 C 321.842 85.576,320.800 86.585,320.800 87.195 C 320.800 87.444,320.665 87.565,320.500 87.466 C 320.109 87.229,319.174 88.240,319.491 88.557 C 319.624 88.691,319.540 88.800,319.303 88.800 C 318.747 88.800,314.969 92.472,315.100 92.885 C 315.155 93.058,315.056 93.155,314.880 93.100 C 314.460 92.969,305.200 102.268,305.200 102.822 C 305.200 103.056,305.065 103.170,304.900 103.076 C 304.505 102.851,302.781 104.648,303.093 104.959 C 303.225 105.092,303.122 105.200,302.865 105.200 C 302.282 105.200,292.962 114.440,293.100 114.880 C 293.155 115.056,293.058 115.155,292.885 115.100 C 292.491 114.975,288.800 118.734,288.800 119.260 C 288.800 119.473,288.665 119.565,288.500 119.466 C 288.109 119.229,287.174 120.240,287.491 120.557 C 287.624 120.691,287.510 120.800,287.238 120.800 C 286.966 120.800,286.494 121.049,286.190 121.352 C 285.887 121.656,285.750 122.016,285.886 122.152 C 286.022 122.289,285.940 122.400,285.703 122.400 C 285.147 122.400,281.369 126.072,281.500 126.485 C 281.555 126.658,281.465 126.758,281.300 126.707 C 280.908 126.585,276.585 130.908,276.707 131.300 C 276.758 131.465,276.658 131.555,276.485 131.500 C 276.072 131.369,272.400 135.147,272.400 135.703 C 272.400 135.940,272.289 136.022,272.152 135.886 C 271.842 135.576,270.800 136.585,270.800 137.195 C 270.800 137.444,270.665 137.565,270.500 137.466 C 270.109 137.229,269.174 138.240,269.491 138.557 C 269.624 138.691,269.540 138.800,269.303 138.800 C 268.747 138.800,264.969 142.472,265.100 142.885 C 265.155 143.058,265.056 143.155,264.880 143.100 C 264.460 142.969,255.200 152.268,255.200 152.822 C 255.200 153.056,255.065 153.170,254.900 153.076 C 254.505 152.851,252.781 154.648,253.093 154.959 C 253.225 155.092,253.122 155.200,252.865 155.200 C 252.282 155.200,242.962 164.440,243.100 164.880 C 243.155 165.056,243.058 165.155,242.885 165.100 C 242.491 164.975,238.800 168.734,238.800 169.260 C 238.800 169.473,238.665 169.565,238.500 169.466 C 238.109 169.229,237.174 170.240,237.491 170.557 C 237.624 170.691,237.510 170.800,237.238 170.800 C 236.595 170.800,235.564 171.831,235.886 172.152 C 236.022 172.289,235.940 172.400,235.703 172.400 C 235.147 172.400,231.369 176.072,231.500 176.485 C 231.555 176.658,231.465 176.758,231.300 176.707 C 230.908 176.585,226.585 180.908,226.707 181.300 C 226.758 181.465,226.658 181.555,226.485 181.500 C 226.072 181.369,222.400 185.147,222.400 185.703 C 222.400 185.940,222.289 186.022,222.152 185.886 C 221.842 185.576,220.800 186.585,220.800 187.195 C 220.800 187.444,220.665 187.565,220.500 187.466 C 220.109 187.229,219.174 188.240,219.491 188.557 C 219.624 188.691,219.540 188.800,219.303 188.800 C 218.747 188.800,214.969 192.472,215.100 192.885 C 215.155 193.058,215.056 193.155,214.880 193.100 C 214.460 192.969,205.200 202.268,205.200 202.822 C 205.200 203.056,205.065 203.170,204.900 203.076 C 204.505 202.851,202.781 204.648,203.093 204.959 C 203.225 205.092,203.102 205.200,202.819 205.200 C 202.537 205.200,201.807 205.771,201.198 206.468 L 200.091 207.737 194.945 202.497 C 192.115 199.616,189.043 196.480,188.118 195.529 C 184.323 191.628,179.632 187.302,179.423 187.510 C 179.300 187.633,179.200 187.538,179.200 187.300 C 179.200 187.061,177.670 185.291,175.800 183.365 C 173.930 181.440,172.400 179.715,172.400 179.532 C 172.400 179.349,172.124 179.200,171.787 179.200 C 171.451 179.200,171.056 178.889,170.910 178.509 C 170.635 177.793,169.042 176.315,167.238 175.103 C 166.667 174.719,166.338 174.404,166.507 174.403 C 166.676 174.401,165.686 173.257,164.307 171.860 C 162.928 170.463,161.680 169.385,161.532 169.464 C 161.385 169.543,161.001 169.344,160.680 169.023 C 160.358 168.701,159.984 168.550,159.848 168.686 C 159.711 168.822,159.600 168.710,159.600 168.438 C 159.600 167.436,157.350 166.000,155.782 166.000 C 155.198 166.000,154.860 165.827,155.000 165.600 C 155.160 165.341,153.404 165.200,150.024 165.200 C 146.808 165.200,144.800 165.354,144.800 165.600 C 144.800 165.820,144.384 166.000,143.876 166.000 C 143.360 166.000,142.020 166.795,140.841 167.802 C 139.680 168.793,138.611 169.532,138.465 169.444 C 138.098 169.222,137.191 170.258,137.491 170.557 C 137.624 170.691,137.510 170.800,137.238 170.800 C 136.569 170.800,135.600 171.811,135.600 172.509 C 135.600 172.821,135.240 173.402,134.800 173.800 C 134.360 174.198,134.000 174.766,134.000 175.062 C 134.000 175.358,133.820 175.600,133.600 175.600 C 133.380 175.600,133.200 175.870,133.200 176.200 C 133.200 176.530,133.020 176.800,132.800 176.800 C 132.580 176.800,132.400 177.441,132.400 178.224 C 132.400 179.071,132.238 179.547,132.000 179.400 C 131.744 179.242,131.600 180.521,131.600 182.953 C 131.600 185.055,131.779 186.863,132.000 187.000 C 132.220 187.136,132.400 187.777,132.400 188.424 C 132.400 189.071,132.580 189.600,132.800 189.600 C 133.020 189.600,133.200 190.010,133.200 190.512 C 133.200 191.013,133.560 191.683,134.000 192.000 C 134.440 192.317,134.800 192.787,134.800 193.045 C 134.800 193.303,136.870 195.626,139.400 198.209 C 141.930 200.791,144.000 203.079,144.000 203.295 C 144.000 203.510,144.261 203.586,144.580 203.463 C 144.987 203.307,145.086 203.433,144.912 203.886 C 144.747 204.316,144.820 204.435,145.132 204.242 C 145.389 204.083,145.600 204.156,145.600 204.405 C 145.600 204.978,146.607 206.000,147.171 206.000 C 147.407 206.000,147.600 206.191,147.600 206.424 C 147.600 206.657,147.784 206.733,148.010 206.594 C 148.235 206.455,148.370 206.506,148.310 206.709 C 148.170 207.178,157.868 216.799,158.173 216.494 C 158.298 216.369,158.400 216.534,158.400 216.861 C 158.400 217.568,160.219 219.247,160.587 218.880 C 160.727 218.739,160.712 218.965,160.552 219.382 C 160.324 219.974,160.403 220.085,160.910 219.890 C 161.390 219.706,161.494 219.810,161.310 220.290 C 161.122 220.781,161.229 220.875,161.751 220.674 C 162.165 220.515,162.343 220.569,162.195 220.808 C 161.919 221.254,162.909 222.400,163.571 222.400 C 163.807 222.400,164.000 222.591,164.000 222.824 C 164.000 223.057,164.184 223.133,164.410 222.994 C 164.635 222.855,164.770 222.979,164.710 223.270 C 164.649 223.562,164.825 223.755,165.100 223.700 C 165.375 223.645,165.557 223.735,165.504 223.900 C 165.378 224.292,177.279 236.229,177.671 236.105 C 177.836 236.052,177.856 236.309,177.716 236.674 C 177.521 237.182,177.624 237.276,178.151 237.074 C 178.559 236.918,178.742 236.970,178.599 237.201 C 178.331 237.635,180.119 239.600,180.782 239.600 C 181.012 239.600,181.200 239.791,181.200 240.024 C 181.200 240.257,181.384 240.333,181.610 240.194 C 181.835 240.055,181.970 240.091,181.910 240.275 C 181.744 240.781,189.923 248.800,190.606 248.800 C 190.933 248.800,191.200 248.946,191.200 249.125 C 191.200 249.304,191.830 249.698,192.600 250.000 C 193.370 250.302,194.000 250.696,194.000 250.875 C 194.000 251.054,194.720 251.200,195.600 251.200 C 196.480 251.200,197.200 251.335,197.200 251.500 C 197.200 251.665,198.459 251.800,199.999 251.800 C 201.538 251.800,202.798 251.665,202.799 251.500 C 202.800 251.335,203.520 251.200,204.400 251.200 C 205.280 251.200,206.000 251.020,206.000 250.800 C 206.000 250.580,206.360 250.400,206.800 250.400 C 207.240 250.400,207.600 250.220,207.600 250.000 C 207.600 249.780,207.870 249.600,208.200 249.600 C 208.530 249.600,208.800 249.420,208.800 249.200 C 208.800 248.980,209.072 248.800,209.405 248.800 C 209.738 248.800,211.720 247.090,213.810 245.000 C 215.900 242.910,217.799 241.200,218.029 241.200 C 218.259 241.200,218.353 241.047,218.237 240.860 C 218.122 240.673,218.471 240.283,219.014 239.993 C 219.556 239.702,220.000 239.195,220.000 238.866 C 220.000 238.536,220.108 238.375,220.240 238.507 C 220.553 238.820,223.200 236.172,223.200 235.547 C 223.200 235.283,223.311 235.178,223.448 235.314 C 223.819 235.686,224.890 234.469,224.602 234.003 C 224.465 233.781,224.541 233.600,224.772 233.600 C 225.319 233.600,233.600 225.319,233.600 224.772 C 233.600 224.541,233.781 224.465,234.003 224.602 C 234.469 224.890,235.686 223.819,235.314 223.448 C 235.178 223.311,235.283 223.200,235.547 223.200 C 236.172 223.200,238.820 220.553,238.507 220.240 C 238.375 220.108,238.536 220.000,238.866 220.000 C 239.195 220.000,239.702 219.556,239.993 219.014 C 240.283 218.471,240.673 218.122,240.860 218.237 C 241.047 218.353,241.200 218.262,241.200 218.036 C 241.200 217.811,243.180 215.634,245.600 213.200 C 248.020 210.766,250.000 208.606,250.000 208.400 C 250.000 208.194,250.300 208.140,250.666 208.281 C 251.113 208.452,251.236 208.383,251.042 208.068 C 250.867 207.784,251.008 207.600,251.400 207.600 C 251.756 207.600,251.936 207.420,251.800 207.200 C 251.664 206.980,251.732 206.800,251.950 206.800 C 252.469 206.800,256.800 202.469,256.800 201.950 C 256.800 201.732,256.980 201.664,257.200 201.800 C 257.420 201.936,257.600 201.756,257.600 201.400 C 257.600 201.008,257.784 200.867,258.068 201.042 C 258.383 201.236,258.452 201.113,258.281 200.666 C 258.140 200.300,258.194 200.000,258.400 200.000 C 258.606 200.000,260.766 198.020,263.200 195.600 C 265.634 193.180,267.811 191.200,268.036 191.200 C 268.262 191.200,268.353 191.047,268.237 190.860 C 268.122 190.673,268.471 190.283,269.014 189.993 C 269.556 189.702,270.000 189.195,270.000 188.866 C 270.000 188.536,270.108 188.375,270.240 188.507 C 270.553 188.820,273.200 186.172,273.200 185.547 C 273.200 185.283,273.311 185.178,273.448 185.314 C 273.819 185.686,274.890 184.469,274.602 184.003 C 274.465 183.781,274.541 183.600,274.772 183.600 C 275.319 183.600,283.600 175.319,283.600 174.772 C 283.600 174.541,283.781 174.465,284.003 174.602 C 284.469 174.890,285.686 173.819,285.314 173.448 C 285.178 173.311,285.283 173.200,285.547 173.200 C 286.172 173.200,288.820 170.553,288.507 170.240 C 288.375 170.108,288.536 170.000,288.866 170.000 C 289.195 170.000,289.702 169.556,289.993 169.014 C 290.283 168.471,290.673 168.122,290.860 168.237 C 291.047 168.353,291.200 168.262,291.200 168.036 C 291.200 167.811,293.180 165.634,295.600 163.200 C 298.020 160.766,300.000 158.606,300.000 158.400 C 300.000 158.194,300.300 158.140,300.666 158.281 C 301.113 158.452,301.236 158.383,301.042 158.068 C 300.867 157.784,301.008 157.600,301.400 157.600 C 301.756 157.600,301.936 157.420,301.800 157.200 C 301.664 156.980,301.732 156.800,301.950 156.800 C 302.169 156.800,303.350 155.798,304.574 154.574 C 305.798 153.350,306.800 152.169,306.800 151.950 C 306.800 151.732,306.980 151.664,307.200 151.800 C 307.420 151.936,307.600 151.756,307.600 151.400 C 307.600 151.008,307.784 150.867,308.068 151.042 C 308.383 151.236,308.452 151.113,308.281 150.666 C 308.140 150.300,308.194 150.000,308.400 150.000 C 308.606 150.000,310.766 148.020,313.200 145.600 C 315.634 143.180,317.811 141.200,318.036 141.200 C 318.262 141.200,318.353 141.047,318.237 140.860 C 318.122 140.673,318.471 140.283,319.014 139.993 C 319.556 139.702,320.000 139.195,320.000 138.866 C 320.000 138.536,320.108 138.375,320.240 138.507 C 320.553 138.820,323.200 136.172,323.200 135.547 C 323.200 135.283,323.311 135.178,323.448 135.314 C 323.819 135.686,324.890 134.469,324.602 134.003 C 324.465 133.781,324.541 133.600,324.772 133.600 C 325.002 133.600,327.083 131.708,329.395 129.395 C 331.708 127.083,333.600 125.002,333.600 124.772 C 333.600 124.541,333.781 124.465,334.003 124.602 C 334.469 124.890,335.686 123.819,335.314 123.448 C 335.178 123.311,335.283 123.200,335.547 123.200 C 336.172 123.200,338.820 120.553,338.507 120.240 C 338.375 120.108,338.536 120.000,338.866 120.000 C 339.195 120.000,339.702 119.556,339.993 119.014 C 340.283 118.471,340.673 118.122,340.860 118.237 C 341.047 118.353,341.200 118.262,341.200 118.036 C 341.200 117.811,343.180 115.634,345.600 113.200 C 348.020 110.766,350.000 108.606,350.000 108.400 C 350.000 108.194,350.300 108.140,350.666 108.281 C 351.113 108.452,351.236 108.383,351.042 108.068 C 350.867 107.784,351.008 107.600,351.400 107.600 C 351.756 107.600,351.936 107.420,351.800 107.200 C 351.664 106.980,351.732 106.800,351.950 106.800 C 352.469 106.800,356.800 102.469,356.800 101.950 C 356.800 101.732,356.980 101.664,357.200 101.800 C 357.420 101.936,357.600 101.756,357.600 101.400 C 357.600 101.008,357.784 100.867,358.068 101.042 C 358.383 101.236,358.452 101.113,358.281 100.666 C 358.140 100.300,358.194 100.000,358.400 100.000 C 358.606 100.000,360.766 98.020,363.200 95.600 C 365.634 93.180,367.811 91.200,368.036 91.200 C 368.262 91.200,368.353 91.047,368.237 90.860 C 368.122 90.673,368.471 90.283,369.014 89.993 C 369.556 89.702,370.000 89.195,370.000 88.866 C 370.000 88.536,370.108 88.375,370.240 88.507 C 370.553 88.820,373.200 86.172,373.200 85.547 C 373.200 85.283,373.311 85.178,373.448 85.314 C 373.819 85.686,374.890 84.469,374.602 84.003 C 374.465 83.781,374.541 83.600,374.772 83.600 C 375.319 83.600,383.600 75.319,383.600 74.772 C 383.600 74.541,383.781 74.465,384.003 74.602 C 384.469 74.890,385.686 73.819,385.314 73.448 C 385.178 73.311,385.283 73.200,385.547 73.200 C 386.172 73.200,388.820 70.553,388.507 70.240 C 388.375 70.108,388.536 70.000,388.866 70.000 C 389.195 70.000,389.702 69.556,389.993 69.014 C 390.283 68.471,390.673 68.122,390.860 68.237 C 391.047 68.353,391.200 68.259,391.200 68.029 C 391.200 67.799,392.910 65.900,395.000 63.810 C 397.090 61.720,398.800 59.753,398.800 59.438 C 398.800 59.124,399.025 58.792,399.300 58.700 C 399.679 58.574,399.800 56.471,399.800 50.000 C 399.800 43.529,399.679 41.426,399.300 41.300 C 399.025 41.208,398.800 40.865,398.800 40.536 C 398.800 39.845,393.736 34.800,393.042 34.800 C 392.786 34.800,392.317 34.440,392.000 34.000 C 391.683 33.560,391.013 33.200,390.512 33.200 C 390.010 33.200,389.600 33.020,389.600 32.800 C 389.600 32.580,389.071 32.400,388.424 32.400 C 387.777 32.400,387.136 32.220,387.000 32.000 C 386.863 31.779,385.055 31.600,382.953 31.600 C 380.521 31.600,379.242 31.744,379.400 32.000 " stroke="none" fill="#cc0404" fill-rule="evenodd"></path><path id="path1" d="M78.400 32.800 C 78.400 33.020,77.421 33.200,76.224 33.200 C 75.027 33.200,73.936 33.380,73.800 33.600 C 73.664 33.820,72.933 34.000,72.176 34.000 C 71.419 34.000,70.800 34.180,70.800 34.400 C 70.800 34.620,70.260 34.800,69.600 34.800 C 68.940 34.800,68.400 34.980,68.400 35.200 C 68.400 35.420,67.860 35.600,67.200 35.600 C 66.540 35.600,66.000 35.780,66.000 36.000 C 66.000 36.220,65.640 36.400,65.200 36.400 C 64.760 36.400,64.400 36.580,64.400 36.800 C 64.400 37.020,64.040 37.200,63.600 37.200 C 63.160 37.200,62.800 37.380,62.800 37.600 C 62.800 37.820,62.440 38.000,62.000 38.000 C 61.560 38.000,61.200 38.136,61.200 38.302 C 61.200 38.469,60.615 38.860,59.900 39.172 C 59.185 39.484,58.309 40.068,57.953 40.470 C 57.597 40.871,57.095 41.200,56.836 41.200 C 56.578 41.200,56.149 41.383,55.883 41.607 C 54.042 43.160,53.437 43.600,53.143 43.600 C 52.959 43.600,50.737 45.672,48.204 48.204 C 45.672 50.737,43.600 52.959,43.600 53.143 C 43.600 53.437,43.160 54.042,41.607 55.883 C 41.383 56.149,41.200 56.578,41.200 56.836 C 41.200 57.095,40.871 57.597,40.470 57.953 C 40.068 58.309,39.484 59.185,39.172 59.900 C 38.860 60.615,38.469 61.200,38.302 61.200 C 38.136 61.200,38.000 61.560,38.000 62.000 C 38.000 62.440,37.820 62.800,37.600 62.800 C 37.380 62.800,37.200 63.160,37.200 63.600 C 37.200 64.040,37.020 64.400,36.800 64.400 C 36.580 64.400,36.400 64.760,36.400 65.200 C 36.400 65.640,36.220 66.000,36.000 66.000 C 35.780 66.000,35.600 66.540,35.600 67.200 C 35.600 67.860,35.420 68.400,35.200 68.400 C 34.980 68.400,34.800 68.940,34.800 69.600 C 34.800 70.260,34.620 70.800,34.400 70.800 C 34.180 70.800,34.000 71.419,34.000 72.176 C 34.000 72.933,33.820 73.664,33.600 73.800 C 33.380 73.936,33.200 75.027,33.200 76.224 C 33.200 77.421,33.020 78.400,32.800 78.400 C 32.534 78.400,32.400 119.200,32.400 200.000 C 32.400 280.800,32.534 321.600,32.800 321.600 C 33.020 321.600,33.200 322.579,33.200 323.776 C 33.200 324.973,33.380 326.064,33.600 326.200 C 33.820 326.336,34.000 327.067,34.000 327.824 C 34.000 328.581,34.180 329.200,34.400 329.200 C 34.620 329.200,34.800 329.740,34.800 330.400 C 34.800 331.060,34.980 331.600,35.200 331.600 C 35.420 331.600,35.600 332.140,35.600 332.800 C 35.600 333.460,35.780 334.000,36.000 334.000 C 36.220 334.000,36.400 334.360,36.400 334.800 C 36.400 335.240,36.580 335.600,36.800 335.600 C 37.020 335.600,37.200 335.960,37.200 336.400 C 37.200 336.840,37.380 337.200,37.600 337.200 C 37.820 337.200,38.000 337.560,38.000 338.000 C 38.000 338.440,38.136 338.800,38.302 338.800 C 38.469 338.800,38.860 339.385,39.172 340.100 C 39.484 340.815,40.068 341.691,40.470 342.047 C 40.871 342.403,41.200 342.905,41.200 343.164 C 41.200 343.422,41.383 343.851,41.607 344.117 C 43.160 345.958,43.600 346.563,43.600 346.857 C 43.600 347.306,52.712 356.400,53.162 356.400 C 53.356 356.400,54.093 356.940,54.800 357.600 C 55.507 358.260,56.359 358.800,56.695 358.800 C 57.031 358.800,57.597 359.129,57.953 359.530 C 58.309 359.932,59.185 360.516,59.900 360.828 C 60.615 361.140,61.200 361.531,61.200 361.698 C 61.200 361.864,61.560 362.000,62.000 362.000 C 62.440 362.000,62.800 362.180,62.800 362.400 C 62.800 362.620,63.160 362.800,63.600 362.800 C 64.040 362.800,64.400 362.980,64.400 363.200 C 64.400 363.420,64.760 363.600,65.200 363.600 C 65.640 363.600,66.000 363.780,66.000 364.000 C 66.000 364.220,66.540 364.400,67.200 364.400 C 67.860 364.400,68.400 364.580,68.400 364.800 C 68.400 365.020,68.940 365.200,69.600 365.200 C 70.260 365.200,70.800 365.380,70.800 365.600 C 70.800 365.820,71.419 366.000,72.176 366.000 C 72.933 366.000,73.664 366.180,73.800 366.400 C 73.936 366.620,75.027 366.800,76.224 366.800 C 77.421 366.800,78.400 366.980,78.400 367.200 C 78.400 367.466,119.200 367.600,200.000 367.600 C 280.800 367.600,321.600 367.466,321.600 367.200 C 321.600 366.980,322.579 366.800,323.776 366.800 C 324.973 366.800,326.064 366.620,326.200 366.400 C 326.336 366.180,327.067 366.000,327.824 366.000 C 328.581 366.000,329.200 365.820,329.200 365.600 C 329.200 365.380,329.740 365.200,330.400 365.200 C 331.060 365.200,331.600 365.020,331.600 364.800 C 331.600 364.580,332.140 364.400,332.800 364.400 C 333.460 364.400,334.000 364.220,334.000 364.000 C 334.000 363.780,334.360 363.600,334.800 363.600 C 335.240 363.600,335.600 363.420,335.600 363.200 C 335.600 362.980,335.960 362.800,336.400 362.800 C 336.840 362.800,337.200 362.620,337.200 362.400 C 337.200 362.180,337.560 362.000,338.000 362.000 C 338.440 362.000,338.800 361.864,338.800 361.698 C 338.800 361.531,339.385 361.140,340.100 360.828 C 340.815 360.516,341.691 359.932,342.047 359.530 C 342.403 359.129,342.969 358.800,343.305 358.800 C 343.641 358.800,344.493 358.260,345.200 357.600 C 345.907 356.940,346.644 356.400,346.838 356.400 C 347.300 356.400,356.400 347.300,356.400 346.838 C 356.400 346.644,356.940 345.907,357.600 345.200 C 358.260 344.493,358.800 343.641,358.800 343.305 C 358.800 342.969,359.129 342.403,359.530 342.047 C 359.932 341.691,360.516 340.815,360.828 340.100 C 361.140 339.385,361.531 338.800,361.698 338.800 C 361.864 338.800,362.000 338.440,362.000 338.000 C 362.000 337.560,362.180 337.200,362.400 337.200 C 362.620 337.200,362.800 336.840,362.800 336.400 C 362.800 335.960,362.980 335.600,363.200 335.600 C 363.420 335.600,363.600 335.240,363.600 334.800 C 363.600 334.360,363.780 334.000,364.000 334.000 C 364.220 334.000,364.400 333.460,364.400 332.800 C 364.400 332.140,364.580 331.600,364.800 331.600 C 365.020 331.600,365.200 331.060,365.200 330.400 C 365.200 329.740,365.380 329.200,365.600 329.200 C 365.820 329.200,366.000 328.581,366.000 327.824 C 366.000 327.067,366.180 326.336,366.400 326.200 C 366.620 326.064,366.800 324.973,366.800 323.776 C 366.800 322.579,366.980 321.600,367.200 321.600 C 367.465 321.600,367.600 300.541,367.600 259.224 C 367.600 218.071,367.464 196.763,367.200 196.600 C 366.980 196.464,366.800 195.733,366.800 194.976 C 366.800 194.219,366.620 193.600,366.400 193.600 C 366.180 193.600,366.000 193.240,366.000 192.800 C 366.000 192.360,365.820 192.000,365.600 192.000 C 365.380 192.000,365.200 191.706,365.200 191.347 C 365.200 190.988,364.884 190.403,364.497 190.047 C 364.111 189.691,363.551 188.925,363.253 188.344 C 362.956 187.763,362.237 187.044,361.656 186.747 C 361.075 186.449,360.328 185.934,359.996 185.603 C 359.157 184.766,357.728 184.000,357.005 184.000 C 356.672 184.000,356.400 183.820,356.400 183.600 C 356.400 183.380,355.781 183.200,355.024 183.200 C 354.267 183.200,353.536 183.020,353.400 182.800 C 353.264 182.580,351.734 182.400,350.000 182.400 C 348.266 182.400,346.736 182.580,346.600 182.800 C 346.464 183.020,345.733 183.200,344.976 183.200 C 344.219 183.200,343.600 183.380,343.600 183.600 C 343.600 183.820,343.240 184.000,342.800 184.000 C 342.360 184.000,342.000 184.180,342.000 184.400 C 342.000 184.620,341.706 184.800,341.347 184.800 C 340.988 184.800,340.403 185.116,340.047 185.503 C 339.691 185.889,338.925 186.449,338.344 186.747 C 337.763 187.044,337.044 187.763,336.747 188.344 C 336.449 188.925,335.889 189.691,335.503 190.047 C 335.116 190.403,334.800 190.988,334.800 191.347 C 334.800 191.706,334.620 192.000,334.400 192.000 C 334.180 192.000,334.000 192.360,334.000 192.800 C 334.000 193.240,333.820 193.600,333.600 193.600 C 333.380 193.600,333.200 194.219,333.200 194.976 C 333.200 195.733,333.020 196.464,332.800 196.600 C 332.536 196.763,332.400 218.063,332.400 259.200 C 332.400 300.337,332.264 321.637,332.000 321.800 C 331.780 321.936,331.600 322.667,331.600 323.424 C 331.600 324.181,331.464 324.800,331.298 324.800 C 331.131 324.800,330.759 325.335,330.469 325.988 C 329.794 327.514,327.514 329.794,325.988 330.469 C 325.335 330.759,324.800 331.131,324.800 331.298 C 324.800 331.464,324.181 331.600,323.424 331.600 C 322.667 331.600,321.936 331.780,321.800 332.000 C 321.457 332.555,78.543 332.555,78.200 332.000 C 78.064 331.780,77.333 331.600,76.576 331.600 C 75.819 331.600,75.200 331.464,75.200 331.298 C 75.200 331.131,74.665 330.759,74.012 330.469 C 72.486 329.794,70.206 327.514,69.531 325.988 C 69.241 325.335,68.869 324.800,68.702 324.800 C 68.536 324.800,68.400 324.181,68.400 323.424 C 68.400 322.667,68.220 321.936,68.000 321.800 C 67.445 321.457,67.445 78.543,68.000 78.200 C 68.220 78.064,68.400 77.333,68.400 76.576 C 68.400 75.819,68.536 75.200,68.702 75.200 C 68.869 75.200,69.241 74.665,69.531 74.012 C 70.206 72.486,72.486 70.206,74.012 69.531 C 74.665 69.241,75.200 68.869,75.200 68.702 C 75.200 68.536,75.819 68.400,76.576 68.400 C 77.333 68.400,78.064 68.220,78.200 68.000 C 78.364 67.735,110.804 67.600,174.224 67.600 C 237.808 67.600,270.000 67.466,270.000 67.200 C 270.000 66.980,270.619 66.800,271.376 66.800 C 272.133 66.800,272.864 66.620,273.000 66.400 C 273.136 66.180,273.597 66.000,274.024 66.000 C 274.451 66.000,274.800 65.820,274.800 65.600 C 274.800 65.380,275.070 65.200,275.400 65.200 C 275.730 65.200,276.000 65.020,276.000 64.800 C 276.000 64.580,276.275 64.400,276.611 64.400 C 277.355 64.400,280.800 61.027,280.800 60.299 C 280.800 60.012,281.160 59.517,281.600 59.200 C 282.040 58.883,282.400 58.303,282.400 57.912 C 282.400 57.520,282.580 57.200,282.800 57.200 C 283.020 57.200,283.200 56.660,283.200 56.000 C 283.200 55.340,283.380 54.800,283.600 54.800 C 283.844 54.800,284.000 52.933,284.000 50.000 C 284.000 47.067,283.844 45.200,283.600 45.200 C 283.380 45.200,283.200 44.660,283.200 44.000 C 283.200 43.340,283.020 42.800,282.800 42.800 C 282.580 42.800,282.400 42.480,282.400 42.088 C 282.400 41.697,282.040 41.117,281.600 40.800 C 281.160 40.483,280.800 39.988,280.800 39.701 C 280.800 38.973,277.355 35.600,276.611 35.600 C 276.275 35.600,276.000 35.420,276.000 35.200 C 276.000 34.980,275.730 34.800,275.400 34.800 C 275.070 34.800,274.800 34.620,274.800 34.400 C 274.800 34.180,274.451 34.000,274.024 34.000 C 273.597 34.000,273.136 33.820,273.000 33.600 C 272.864 33.380,272.133 33.200,271.376 33.200 C 270.619 33.200,270.000 33.020,270.000 32.800 C 270.000 32.534,237.800 32.400,174.200 32.400 C 110.600 32.400,78.400 32.534,78.400 32.800 " stroke="none" fill="#040404" fill-rule="evenodd"></path><path id="path2" d="M328.460 78.651 C 327.943 79.202,327.596 79.729,327.689 79.822 C 327.782 79.915,328.374 79.454,329.004 78.796 C 329.634 78.138,329.981 77.611,329.775 77.624 C 329.569 77.638,328.977 78.100,328.460 78.651 M278.460 128.651 C 277.943 129.202,277.596 129.729,277.689 129.822 C 277.782 129.915,278.374 129.454,279.004 128.796 C 279.634 128.138,279.981 127.611,279.775 127.624 C 279.569 127.638,278.977 128.100,278.460 128.651 M228.460 178.651 C 227.943 179.202,227.596 179.729,227.689 179.822 C 227.782 179.915,228.374 179.454,229.004 178.796 C 229.634 178.138,229.981 177.611,229.775 177.624 C 229.569 177.638,228.977 178.100,228.460 178.651 M199.107 251.890 C 199.826 251.979,200.906 251.977,201.507 251.886 C 202.108 251.795,201.520 251.722,200.200 251.724 C 198.880 251.726,198.388 251.801,199.107 251.890 " stroke="none" fill="#d00404" fill-rule="evenodd"></path><path id="path3" d="" stroke="none" fill="#380404" fill-rule="evenodd"></path><path id="path4" d="" stroke="none" fill="#080404" fill-rule="evenodd"></path></g></svg>