<svg width="24.000000000000004" height="24.000000000000004" xmlns="http://www.w3.org/2000/svg">
 <title/>

 <g>
  <title>background</title>
  <rect fill="none" id="canvas_background" height="402" width="582" y="-1" x="-1"/>
 </g>
 <g>
  <title>Layer 1</title>
  <path id="svg_1" fill="#cc0015" d="m12,2a10,10 0 1 0 10,10a10,10 0 0 0 -10,-10zm3.21,11.79a1,1 0 0 1 0,1.42a1,1 0 0 1 -1.42,0l-1.79,-1.8l-1.79,1.8a1,1 0 0 1 -1.42,0a1,1 0 0 1 0,-1.42l1.8,-1.79l-1.8,-1.79a1,1 0 0 1 1.42,-1.42l1.79,1.8l1.79,-1.8a1,1 0 0 1 1.42,1.42l-1.8,1.79l1.8,1.79z"/>
 </g>
</svg>