<svg id="svg" version="1.1" xmlns="http://www.w3.org/2000/svg" xmlns:xlink="http://www.w3.org/1999/xlink" width="400" height="400" viewBox="0, 0, 400,400"><g id="svgg"><path id="path0" d="M98.200 136.800 C 98.064 137.020,97.243 137.200,96.376 137.200 C 95.509 137.200,94.800 137.380,94.800 137.600 C 94.800 137.820,94.440 138.000,94.000 138.000 C 93.560 138.000,93.200 138.180,93.200 138.400 C 93.200 138.620,93.015 138.800,92.789 138.800 C 92.255 138.800,88.800 142.255,88.800 142.789 C 88.800 143.015,88.620 143.200,88.400 143.200 C 88.180 143.200,88.000 143.560,88.000 144.000 C 88.000 144.440,87.820 144.800,87.600 144.800 C 87.380 144.800,87.200 145.509,87.200 146.376 C 87.200 147.243,87.020 148.064,86.800 148.200 C 86.580 148.336,86.400 149.146,86.400 150.000 C 86.400 150.854,86.580 151.664,86.800 151.800 C 87.020 151.936,87.200 152.757,87.200 153.624 C 87.200 154.491,87.380 155.200,87.600 155.200 C 87.820 155.200,88.000 155.560,88.000 156.000 C 88.000 156.440,88.180 156.800,88.400 156.800 C 88.620 156.800,88.800 156.992,88.800 157.226 C 88.800 157.460,89.712 158.540,90.827 159.626 C 91.941 160.712,92.748 161.600,92.618 161.600 C 92.489 161.600,95.492 164.662,99.292 168.403 C 103.091 172.145,106.716 175.724,107.347 176.357 C 116.612 185.644,122.755 191.758,124.373 193.300 C 125.469 194.345,126.280 195.200,126.174 195.200 C 125.959 195.200,138.655 207.772,141.221 210.100 C 142.130 210.925,142.764 211.600,142.629 211.600 C 142.494 211.600,145.492 214.662,149.292 218.403 C 153.091 222.145,156.716 225.724,157.347 226.357 C 166.612 235.644,172.755 241.758,174.373 243.300 C 175.469 244.345,176.280 245.200,176.174 245.200 C 175.994 245.200,187.977 257.095,190.984 259.900 C 191.750 260.615,192.663 261.200,193.012 261.200 C 193.361 261.200,193.536 261.380,193.400 261.600 C 193.264 261.820,193.523 262.000,193.976 262.000 C 194.429 262.000,194.800 262.180,194.800 262.400 C 194.800 262.646,196.800 262.800,200.000 262.800 C 203.200 262.800,205.200 262.646,205.200 262.400 C 205.200 262.180,205.560 262.000,206.000 262.000 C 206.440 262.000,206.800 261.820,206.800 261.600 C 206.800 261.380,206.985 261.200,207.211 261.200 C 207.746 261.200,208.952 260.064,217.761 251.253 C 221.801 247.212,225.646 243.366,226.306 242.706 C 227.866 241.146,241.146 227.866,242.706 226.306 C 243.366 225.646,247.237 221.777,251.308 217.708 C 260.263 208.757,258.757 210.263,267.708 201.308 C 271.777 197.237,275.646 193.366,276.306 192.706 C 277.866 191.146,291.146 177.866,292.706 176.306 C 312.587 156.427,311.200 157.854,311.200 157.279 C 311.200 157.015,311.380 156.800,311.600 156.800 C 311.820 156.800,312.000 156.440,312.000 156.000 C 312.000 155.560,312.180 155.200,312.400 155.200 C 312.620 155.200,312.800 154.491,312.800 153.624 C 312.800 152.757,312.980 151.936,313.200 151.800 C 313.420 151.664,313.600 150.854,313.600 150.000 C 313.600 149.146,313.420 148.336,313.200 148.200 C 312.980 148.064,312.800 147.243,312.800 146.376 C 312.800 145.509,312.620 144.800,312.400 144.800 C 312.180 144.800,312.000 144.440,312.000 144.000 C 312.000 143.560,311.820 143.200,311.600 143.200 C 311.380 143.200,311.200 143.023,311.200 142.807 C 311.200 142.240,307.825 138.800,307.269 138.800 C 307.011 138.800,306.800 138.620,306.800 138.400 C 306.800 138.180,306.440 138.000,306.000 138.000 C 305.560 138.000,305.200 137.820,305.200 137.600 C 305.200 137.380,304.491 137.200,303.624 137.200 C 302.757 137.200,301.936 137.020,301.800 136.800 C 301.478 136.280,298.522 136.280,298.200 136.800 C 298.064 137.020,297.243 137.200,296.376 137.200 C 295.509 137.200,294.800 137.380,294.800 137.600 C 294.800 137.820,294.440 138.000,294.000 138.000 C 293.560 138.000,293.200 138.180,293.200 138.400 C 293.200 138.620,293.008 138.800,292.774 138.800 C 292.540 138.800,291.460 139.712,290.374 140.827 C 289.288 141.941,288.400 142.750,288.400 142.624 C 288.400 142.497,285.639 145.140,282.265 148.497 C 278.891 151.854,276.171 154.655,276.221 154.723 C 276.353 154.901,271.439 159.863,271.200 159.794 C 271.090 159.762,268.439 162.315,265.310 165.468 C 262.180 168.621,259.696 171.200,259.789 171.200 C 259.883 171.200,258.843 172.337,257.479 173.726 C 256.116 175.115,254.910 176.222,254.800 176.186 C 254.448 176.071,243.272 187.539,243.507 187.774 C 243.632 187.898,243.433 188.000,243.067 188.000 C 242.700 188.000,242.400 188.175,242.400 188.389 C 242.400 188.897,238.897 192.400,238.389 192.400 C 238.175 192.400,238.000 192.700,238.000 193.067 C 238.000 193.433,237.901 193.634,237.779 193.512 C 237.577 193.310,229.029 201.728,223.500 207.574 C 222.235 208.912,221.200 209.919,221.200 209.813 C 221.200 209.707,218.622 212.180,215.472 215.310 C 212.322 218.439,209.782 221.056,209.829 221.124 C 209.985 221.352,205.180 226.000,204.788 226.000 C 204.574 226.000,204.400 226.300,204.400 226.667 C 204.400 227.033,204.289 227.223,204.154 227.087 C 204.019 226.952,203.029 227.744,201.954 228.847 L 200.000 230.853 198.046 228.847 C 196.971 227.744,195.981 226.952,195.846 227.087 C 195.711 227.223,195.600 227.045,195.600 226.694 C 195.600 226.342,195.285 225.944,194.900 225.810 C 194.515 225.677,193.570 224.845,192.800 223.962 C 191.037 221.941,178.800 209.554,178.800 209.791 C 178.800 209.887,177.945 209.069,176.900 207.974 C 170.647 201.417,162.425 193.308,162.229 193.504 C 162.103 193.630,162.000 193.445,162.000 193.094 C 162.000 192.742,161.685 192.347,161.300 192.217 C 160.915 192.087,160.150 191.432,159.600 190.760 C 158.347 189.231,145.200 175.914,145.200 176.174 C 145.200 176.280,144.345 175.470,143.300 174.376 C 138.912 169.780,128.800 159.597,128.800 159.774 C 128.800 159.879,127.945 159.070,126.900 157.975 C 121.889 152.727,111.600 142.412,111.600 142.637 C 111.600 142.777,110.736 141.970,109.680 140.845 C 108.623 139.720,107.543 138.800,107.280 138.800 C 107.016 138.800,106.800 138.620,106.800 138.400 C 106.800 138.180,106.440 138.000,106.000 138.000 C 105.560 138.000,105.200 137.820,105.200 137.600 C 105.200 137.380,104.491 137.200,103.624 137.200 C 102.757 137.200,101.936 137.020,101.800 136.800 C 101.664 136.580,100.854 136.400,100.000 136.400 C 99.146 136.400,98.336 136.580,98.200 136.800 " stroke="none" fill="#543c84" fill-rule="evenodd"></path><path id="path1" d="" stroke="none" fill="#583c84" fill-rule="evenodd"></path><path id="path2" d="" stroke="none" fill="#583c84" fill-rule="evenodd"></path><path id="path3" d="" stroke="none" fill="#583c84" fill-rule="evenodd"></path><path id="path4" d="" stroke="none" fill="#583c84" fill-rule="evenodd"></path></g></svg>