<svg id="svg" version="1.1" xmlns="http://www.w3.org/2000/svg" xmlns:xlink="http://www.w3.org/1999/xlink" width="400" height="400" viewBox="0, 0, 400,400"><g id="svgg"><path id="path0" d="M247.000 87.585 C 246.271 87.885,246.262 87.936,246.900 88.157 C 248.989 88.882,248.962 88.887,248.557 87.833 C 248.288 87.131,248.156 87.110,247.000 87.585 M251.439 87.494 C 251.307 87.626,251.200 87.896,251.200 88.094 C 251.200 88.586,252.903 88.305,253.074 87.785 C 253.219 87.342,251.838 87.096,251.439 87.494 M244.663 88.869 C 245.405 89.689,245.737 89.623,245.392 88.724 C 245.268 88.399,244.903 88.133,244.581 88.133 C 244.098 88.133,244.112 88.261,244.663 88.869 M254.800 88.867 C 254.800 89.270,254.959 89.600,255.153 89.600 C 255.348 89.600,255.593 89.270,255.698 88.867 C 255.815 88.420,255.677 88.133,255.345 88.133 C 255.045 88.133,254.800 88.463,254.800 88.867 M238.155 93.782 C 230.771 100.889,230.701 100.959,229.600 102.325 C 229.050 103.008,228.345 103.574,228.033 103.583 C 227.722 103.592,227.580 103.714,227.719 103.853 C 227.944 104.077,224.734 107.351,216.741 115.046 C 215.343 116.392,211.950 119.838,209.200 122.705 C 206.450 125.572,204.065 127.836,203.900 127.735 C 203.735 127.635,203.592 127.788,203.583 128.076 C 203.574 128.364,203.008 129.050,202.325 129.600 C 201.643 130.150,200.525 131.184,199.842 131.897 C 198.227 133.585,183.585 148.227,181.897 149.842 C 181.184 150.525,180.150 151.643,179.600 152.325 C 179.050 153.008,178.364 153.574,178.076 153.583 C 177.788 153.592,177.636 153.735,177.738 153.900 C 177.839 154.065,175.578 156.450,172.713 159.200 C 169.847 161.950,166.400 165.343,165.052 166.741 C 157.126 174.955,154.077 177.944,153.853 177.719 C 153.714 177.580,153.592 177.722,153.583 178.033 C 153.574 178.345,153.008 179.050,152.325 179.600 C 150.959 180.701,150.889 180.771,143.782 188.155 C 139.283 192.830,138.455 194.000,139.647 194.000 C 139.867 194.000,139.936 193.820,139.800 193.600 C 139.664 193.380,139.742 193.200,139.973 193.200 C 140.522 193.200,243.200 90.522,243.200 89.973 C 243.200 89.742,243.380 89.664,243.600 89.800 C 243.820 89.936,244.000 89.867,244.000 89.647 C 244.000 88.455,242.830 89.283,238.155 93.782 M256.456 89.165 C 255.792 89.576,259.408 93.359,260.180 93.063 C 260.590 92.906,260.690 93.039,260.521 93.520 C 260.328 94.068,260.385 94.105,260.812 93.709 C 261.472 93.098,257.238 88.682,256.456 89.165 M260.800 95.567 C 260.800 96.058,261.058 96.400,261.429 96.400 C 261.802 96.400,262.006 96.128,261.929 95.733 C 261.735 94.730,260.800 94.592,260.800 95.567 M261.695 97.300 C 261.213 97.898,261.808 99.766,262.370 99.419 C 262.805 99.150,262.822 96.800,262.388 96.800 C 262.229 96.800,261.917 97.025,261.695 97.300 M261.600 101.564 C 261.600 102.190,261.870 102.926,262.200 103.200 C 262.714 103.627,262.800 103.496,262.800 102.292 C 262.800 101.411,262.576 100.800,262.200 100.655 C 261.753 100.484,261.600 100.716,261.600 101.564 M260.800 104.622 C 260.800 105.440,256.171 110.273,237.655 128.787 C 220.750 145.689,214.604 152.074,214.862 152.465 C 215.136 152.881,215.435 152.750,216.207 151.878 C 216.753 151.260,217.200 150.880,217.200 151.032 C 217.200 151.184,217.603 150.789,218.096 150.154 C 219.256 148.660,220.697 147.200,221.010 147.200 C 221.354 147.200,222.393 146.128,222.224 145.948 C 221.956 145.661,227.137 140.870,227.431 141.133 C 227.594 141.280,227.625 141.218,227.500 140.996 C 227.374 140.774,228.056 139.874,229.016 138.996 C 231.522 136.703,234.059 134.183,240.585 127.500 C 243.754 124.255,246.569 121.600,246.840 121.600 C 247.112 121.600,247.227 121.493,247.096 121.363 C 246.823 121.090,251.139 116.800,251.686 116.800 C 251.885 116.800,251.936 116.620,251.800 116.400 C 251.664 116.180,251.844 116.000,252.200 116.000 C 252.556 116.000,252.753 115.847,252.638 115.661 C 252.377 115.239,255.253 112.592,255.800 112.751 C 256.020 112.815,256.075 112.742,255.922 112.589 C 255.769 112.436,256.844 111.116,258.310 109.656 C 259.776 108.195,260.998 106.820,261.027 106.600 C 261.055 106.380,261.106 105.964,261.139 105.676 C 261.173 105.388,261.342 105.240,261.515 105.348 C 261.688 105.455,261.866 105.105,261.911 104.571 C 261.963 103.942,261.781 103.600,261.396 103.600 C 261.024 103.600,260.800 103.984,260.800 104.622 M196.707 169.622 C 190.166 176.210,184.620 181.600,184.384 181.600 C 184.147 181.600,184.064 181.780,184.200 182.000 C 184.336 182.220,184.167 182.400,183.824 182.400 C 183.481 182.400,183.245 182.625,183.300 182.900 C 183.355 183.175,183.175 183.355,182.900 183.300 C 182.625 183.245,182.400 183.481,182.400 183.824 C 182.400 184.167,182.220 184.336,182.000 184.200 C 181.780 184.064,181.600 184.139,181.600 184.367 C 181.600 184.594,178.270 188.127,174.200 192.216 C 165.740 200.716,166.340 199.715,168.400 201.903 C 169.280 202.837,170.000 203.811,170.000 204.067 C 170.000 204.324,170.113 204.420,170.251 204.282 C 170.574 203.959,179.583 212.901,179.337 213.300 C 179.236 213.465,179.444 213.600,179.800 213.600 C 180.156 213.600,180.336 213.780,180.200 214.000 C 180.064 214.220,180.182 214.400,180.462 214.400 C 180.988 214.400,184.800 218.349,184.800 218.893 C 184.800 219.062,185.040 219.200,185.334 219.200 C 185.965 219.200,188.000 221.385,188.000 222.063 C 188.000 222.322,188.115 222.418,188.255 222.278 C 188.533 222.000,198.800 232.304,198.800 232.860 C 198.800 233.047,199.015 233.200,199.278 233.200 C 199.823 233.200,202.000 235.181,202.000 235.676 C 202.000 235.856,203.295 237.217,204.877 238.701 C 206.459 240.186,208.498 242.165,209.408 243.100 C 211.027 244.763,212.000 245.237,212.000 244.363 C 212.000 244.123,210.110 242.057,207.800 239.772 C 205.490 237.487,203.600 235.404,203.600 235.142 C 203.600 234.881,203.486 234.781,203.346 234.921 C 203.206 235.060,202.601 234.556,202.000 233.800 C 201.399 233.044,200.794 232.540,200.654 232.679 C 200.514 232.819,200.400 232.633,200.400 232.267 C 200.400 231.900,200.175 231.599,199.900 231.599 C 199.625 231.598,199.040 231.059,198.600 230.400 C 198.160 229.741,197.657 229.202,197.483 229.201 C 197.003 229.199,182.083 214.050,182.324 213.809 C 182.439 213.694,182.314 213.600,182.045 213.600 C 181.516 213.600,168.400 200.622,168.400 200.098 C 168.400 199.453,169.662 198.000,170.223 198.000 C 170.540 198.000,170.800 197.830,170.800 197.622 C 170.800 197.083,184.743 183.200,185.285 183.200 C 185.531 183.200,185.619 183.086,185.480 182.947 C 185.216 182.683,187.957 179.753,188.367 179.862 C 188.495 179.896,188.832 179.671,189.116 179.362 C 189.399 179.053,189.552 178.800,189.454 178.800 C 189.151 178.800,195.380 172.529,195.726 172.486 C 195.905 172.464,196.715 171.684,197.526 170.754 C 200.102 167.797,202.324 165.657,202.566 165.899 C 202.695 166.028,202.800 165.823,202.800 165.443 C 202.800 165.063,202.980 164.864,203.200 165.000 C 203.420 165.136,203.600 165.091,203.600 164.901 C 203.600 164.710,204.950 163.164,206.600 161.465 C 209.542 158.437,210.100 157.578,209.100 157.622 C 208.825 157.634,203.248 163.034,196.707 169.622 M138.133 194.581 C 138.133 194.903,138.399 195.268,138.724 195.392 C 139.623 195.737,139.689 195.405,138.869 194.663 C 138.261 194.112,138.133 194.098,138.133 194.581 M137.461 197.290 C 137.257 198.069,137.719 198.776,138.445 198.794 C 138.780 198.802,138.379 196.834,137.998 196.599 C 137.829 196.494,137.587 196.806,137.461 197.290 M137.549 201.300 C 137.254 201.878,137.406 203.199,137.754 203.084 C 138.338 202.892,138.584 201.200,138.028 201.200 C 137.793 201.200,137.577 201.245,137.549 201.300 M138.133 205.345 C 138.133 205.677,138.420 205.815,138.867 205.698 C 139.270 205.593,139.600 205.348,139.600 205.153 C 139.600 204.959,139.270 204.800,138.867 204.800 C 138.463 204.800,138.133 205.045,138.133 205.345 M139.108 206.476 C 139.015 206.756,140.977 209.022,143.469 211.512 C 145.961 214.001,148.000 216.210,148.000 216.419 C 148.000 216.629,148.225 216.801,148.500 216.801 C 148.775 216.802,149.355 217.332,149.789 217.979 C 150.222 218.627,150.649 219.085,150.736 218.997 C 150.973 218.760,152.000 219.876,152.000 220.371 C 152.000 220.607,152.170 220.800,152.378 220.800 C 152.826 220.800,164.400 232.311,164.400 232.758 C 164.400 232.927,164.847 233.304,165.393 233.596 C 165.940 233.889,166.492 234.459,166.620 234.864 C 166.749 235.269,166.996 235.600,167.170 235.600 C 167.632 235.600,180.800 248.747,180.800 249.209 C 180.800 249.424,180.957 249.600,181.148 249.600 C 181.637 249.600,198.000 265.914,198.000 266.401 C 198.000 266.620,198.225 266.801,198.500 266.801 C 198.775 266.802,199.355 267.332,199.789 267.979 C 200.222 268.627,200.649 269.085,200.736 268.997 C 200.955 268.778,202.000 269.859,202.000 270.304 C 202.000 270.502,202.444 270.902,202.986 271.193 C 203.529 271.483,203.878 271.873,203.763 272.060 C 203.647 272.247,203.742 272.400,203.973 272.400 C 204.442 272.400,214.400 282.302,214.400 282.768 C 214.400 282.931,214.847 283.304,215.393 283.596 C 215.940 283.889,216.492 284.459,216.620 284.864 C 216.749 285.269,216.996 285.600,217.170 285.600 C 217.632 285.600,230.800 298.747,230.800 299.209 C 230.800 299.424,230.944 299.600,231.119 299.600 C 231.646 299.600,241.972 309.894,241.709 310.157 C 241.576 310.291,241.767 310.400,242.133 310.400 C 242.500 310.400,242.800 310.591,242.800 310.824 C 242.800 311.057,242.972 311.141,243.183 311.011 C 244.009 310.500,241.450 307.872,191.807 258.248 C 135.755 202.218,139.350 205.750,139.108 206.476 M217.300 249.865 C 216.440 250.212,217.233 252.000,218.247 252.000 C 218.414 252.000,227.742 261.235,238.976 272.522 C 258.669 292.309,260.493 294.020,261.011 293.183 C 261.141 292.972,261.057 292.800,260.824 292.800 C 260.591 292.800,260.400 292.519,260.400 292.176 C 260.400 291.833,260.265 291.630,260.100 291.724 C 259.737 291.930,254.046 286.088,254.332 285.801 C 254.443 285.691,254.368 285.600,254.167 285.600 C 253.576 285.599,251.589 283.744,251.874 283.460 C 252.017 283.317,251.960 283.200,251.749 283.200 C 251.195 283.200,238.426 270.507,238.702 270.231 C 238.829 270.104,238.623 270.000,238.243 270.000 C 237.863 270.000,237.644 269.853,237.755 269.673 C 237.866 269.494,237.426 269.034,236.778 268.651 C 236.130 268.268,235.600 267.695,235.600 267.377 C 235.600 267.060,235.375 266.787,235.100 266.771 C 234.825 266.754,233.835 265.848,232.900 264.756 C 231.965 263.664,231.200 262.875,231.200 263.003 C 231.200 263.132,230.750 262.786,230.200 262.236 C 229.650 261.686,229.200 261.018,229.200 260.752 C 229.200 260.485,229.094 260.373,228.964 260.503 C 228.653 260.814,221.234 253.489,221.467 253.100 C 221.566 252.935,221.445 252.800,221.197 252.800 C 220.638 252.800,218.041 250.092,218.326 249.807 C 218.578 249.555,217.985 249.588,217.300 249.865 M260.989 294.927 C 260.824 295.334,260.890 295.850,261.140 296.100 C 261.815 296.775,262.182 296.128,261.705 295.104 C 261.319 294.275,261.260 294.260,260.989 294.927 M261.774 297.761 C 261.498 298.862,261.851 299.739,262.428 299.383 C 262.919 299.079,262.907 297.313,262.412 297.007 C 262.198 296.875,261.911 297.214,261.774 297.761 M261.640 301.300 C 261.216 302.440,261.498 303.214,262.233 302.932 C 262.879 302.684,263.018 300.400,262.387 300.400 C 262.160 300.400,261.824 300.805,261.640 301.300 M260.960 304.160 C 260.814 304.542,260.892 305.052,261.134 305.294 C 261.454 305.614,261.646 305.545,261.840 305.040 C 261.986 304.658,261.908 304.148,261.666 303.906 C 261.346 303.586,261.154 303.655,260.960 304.160 M260.241 306.467 C 260.355 306.650,260.251 306.800,260.010 306.800 C 259.770 306.800,258.949 307.424,258.187 308.187 C 257.424 308.949,256.800 309.770,256.800 310.010 C 256.800 310.251,256.650 310.355,256.467 310.241 C 256.283 310.128,256.133 310.267,256.133 310.551 C 256.133 310.835,256.365 311.067,256.649 311.067 C 256.933 311.067,257.072 310.917,256.959 310.733 C 256.845 310.550,256.949 310.400,257.190 310.400 C 257.430 310.400,258.251 309.776,259.013 309.013 C 259.776 308.251,260.400 307.430,260.400 307.190 C 260.400 306.949,260.550 306.845,260.733 306.959 C 260.917 307.072,261.067 306.933,261.067 306.649 C 261.067 306.365,260.835 306.133,260.551 306.133 C 260.267 306.133,260.128 306.283,260.241 306.467 M244.618 311.171 C 244.492 311.375,244.765 311.662,245.224 311.808 C 246.174 312.109,246.606 311.856,246.216 311.227 C 245.892 310.702,244.929 310.668,244.618 311.171 M253.798 311.203 C 253.495 311.694,254.595 312.174,255.187 311.808 C 255.421 311.663,255.509 311.377,255.383 311.172 C 255.078 310.678,254.111 310.697,253.798 311.203 M251.300 311.640 C 250.805 311.824,250.400 312.160,250.400 312.387 C 250.400 313.018,252.684 312.879,252.932 312.233 C 253.214 311.498,252.440 311.216,251.300 311.640 M247.298 311.858 C 246.452 312.212,247.176 312.800,248.457 312.800 C 249.246 312.800,249.609 312.626,249.502 312.300 C 249.324 311.761,248.112 311.518,247.298 311.858 " stroke="none" fill="#fcfcfc" fill-rule="evenodd"></path><path id="path1" d="" stroke="none" fill="#100fcfc" fill-rule="evenodd"></path><path id="path2" d="" stroke="none" fill="#100fcfc" fill-rule="evenodd"></path><path id="path3" d="" stroke="none" fill="#100fcfc" fill-rule="evenodd"></path><path id="path4" d="" stroke="none" fill="#100fcfc" fill-rule="evenodd"></path></g></svg>