<?xml version="1.0" standalone="no"?>
<!DOCTYPE svg PUBLIC "-//W3C//DTD SVG 20010904//EN"
 "http://www.w3.org/TR/2001/REC-SVG-20010904/DTD/svg10.dtd">
<svg version="1.0" xmlns="http://www.w3.org/2000/svg"
 width="512.000000pt" height="512.000000pt" viewBox="0 0 512.000000 512.000000"
 preserveAspectRatio="xMidYMid meet">

<g transform="translate(0.000000,512.000000) scale(0.100000,-0.100000)"
fill="#000000" stroke="none">
<path d="M2402 4670 c-180 -48 -334 -173 -411 -331 -72 -152 -72 -152 -69
-964 4 -803 0 -752 76 -900 52 -101 173 -220 272 -268 102 -50 177 -67 290
-67 173 0 312 55 434 170 83 79 136 163 174 275 l27 80 3 714 c3 620 1 725
-13 795 -44 227 -203 406 -432 487 -87 31 -255 35 -351 9z"/>
<path d="M1074 2673 c12 -178 54 -330 141 -508 139 -288 386 -534 680 -679
112 -55 294 -118 375 -131 89 -13 80 27 80 -366 l0 -349 210 0 210 0 0 349 c0
393 -9 353 80 366 81 13 263 76 375 131 465 230 788 695 821 1187 l7 97 -181
0 -182 0 0 -56 c0 -79 -36 -245 -72 -334 -73 -178 -209 -352 -368 -470 -134
-99 -328 -181 -500 -211 -96 -16 -284 -16 -380 0 -391 68 -724 329 -868 681
-36 89 -72 255 -72 334 l0 56 -182 0 -181 0 7 -97z"/>
</g>
</svg>
