<svg id="svg" version="1.1" xmlns="http://www.w3.org/2000/svg" xmlns:xlink="http://www.w3.org/1999/xlink" width="400" height="400" viewBox="0, 0, 400,400"><g id="svgg"><path id="path0" d="M147.593 87.604 C 147.288 87.793,146.907 87.866,146.747 87.767 C 146.586 87.668,146.347 87.762,146.215 87.976 C 146.083 88.190,145.728 88.271,145.428 88.155 C 145.127 88.040,144.761 88.139,144.615 88.376 C 144.469 88.612,144.649 88.921,145.015 89.061 C 145.393 89.206,145.828 89.079,146.021 88.767 C 146.229 88.430,146.890 88.262,147.727 88.334 C 148.600 88.410,149.170 88.256,149.303 87.908 C 149.544 87.281,148.435 87.084,147.593 87.604 M151.030 87.949 C 151.550 88.454,152.010 88.589,152.447 88.363 C 152.803 88.179,153.208 88.142,153.347 88.281 C 153.486 88.420,153.600 88.304,153.600 88.024 C 153.600 87.740,153.340 87.614,153.013 87.740 C 152.690 87.864,152.319 87.793,152.189 87.583 C 152.059 87.372,151.572 87.200,151.106 87.200 C 150.272 87.200,150.271 87.210,151.030 87.949 M154.000 88.775 C 154.000 88.981,154.348 89.124,154.772 89.092 C 155.197 89.060,155.456 88.891,155.349 88.717 C 155.075 88.273,154.000 88.320,154.000 88.775 M142.856 89.613 C 142.156 90.196,142.074 90.400,142.542 90.400 C 142.888 90.400,143.365 90.040,143.600 89.600 C 144.126 88.618,144.049 88.619,142.856 89.613 M156.400 89.176 C 156.400 89.383,156.583 89.666,156.807 89.804 C 157.030 89.942,157.134 90.183,157.038 90.338 C 156.942 90.494,157.389 90.923,158.032 91.292 C 159.463 92.114,159.558 91.796,158.200 90.729 C 157.650 90.296,157.200 89.685,157.200 89.371 C 157.200 89.057,157.020 88.800,156.800 88.800 C 156.580 88.800,156.400 88.969,156.400 89.176 M139.451 93.053 C 138.705 94.077,138.705 94.079,139.551 93.626 C 140.018 93.376,140.400 92.908,140.400 92.586 C 140.400 91.812,140.331 91.846,139.451 93.053 M160.162 93.662 C 160.004 93.917,160.050 94.016,160.265 93.883 C 160.479 93.751,160.907 93.993,161.215 94.421 C 161.524 94.850,162.007 95.200,162.288 95.200 C 162.753 95.200,162.972 95.710,162.847 96.500 C 162.768 97.002,163.933 96.835,164.241 96.300 C 164.399 96.025,164.398 95.917,164.238 96.059 C 164.079 96.201,163.233 95.616,162.358 94.759 C 160.589 93.025,160.563 93.012,160.162 93.662 M138.339 94.676 C 138.239 95.206,138.097 95.786,138.016 96.000 C 137.876 96.364,137.557 97.786,137.415 98.673 C 137.314 99.307,137.437 99.484,137.864 99.320 C 138.264 99.167,138.413 98.641,138.330 97.679 C 138.256 96.814,138.401 96.200,138.704 96.099 C 138.977 96.008,139.200 95.689,139.200 95.390 C 139.200 94.792,138.437 94.159,138.339 94.676 M163.800 97.200 C 163.664 97.420,163.823 97.600,164.153 97.600 C 164.483 97.600,164.864 97.420,165.000 97.200 C 165.136 96.980,164.977 96.800,164.647 96.800 C 164.317 96.800,163.936 96.980,163.800 97.200 M165.070 98.162 C 164.926 98.538,165.024 98.752,165.314 98.695 C 165.581 98.643,165.755 98.825,165.700 99.100 C 165.645 99.375,165.839 99.600,166.130 99.600 C 166.422 99.600,167.085 100.052,167.604 100.604 C 168.261 101.304,168.636 101.465,168.840 101.135 C 169.141 100.648,167.642 99.200,166.837 99.200 C 166.597 99.200,166.445 99.065,166.500 98.900 C 166.555 98.735,166.440 98.570,166.245 98.534 C 166.049 98.498,165.759 98.258,165.600 98.001 C 165.396 97.670,165.241 97.717,165.070 98.162 M169.311 102.072 C 169.343 102.661,169.548 103.111,169.767 103.072 C 169.985 103.032,170.180 103.270,170.200 103.600 C 170.220 103.930,170.453 104.155,170.718 104.100 C 170.983 104.045,171.200 104.281,171.200 104.624 C 171.200 104.967,171.380 105.136,171.600 105.000 C 171.820 104.864,172.000 105.033,172.000 105.376 C 172.000 105.719,172.135 105.979,172.300 105.953 C 173.049 105.834,173.600 106.036,173.600 106.429 C 173.600 106.664,173.870 107.127,174.200 107.457 C 174.530 107.787,174.800 107.868,174.800 107.637 C 174.800 107.406,173.836 106.268,172.658 105.108 C 171.479 103.949,170.489 102.865,170.458 102.700 C 170.426 102.535,170.272 102.413,170.116 102.430 C 169.959 102.446,169.701 102.131,169.542 101.730 C 169.321 101.174,169.266 101.255,169.311 102.072 M137.700 102.600 C 137.700 103.150,137.888 103.600,138.117 103.600 C 138.346 103.600,138.420 103.486,138.281 103.347 C 138.142 103.208,138.208 102.758,138.428 102.347 C 138.731 101.782,138.691 101.600,138.264 101.600 C 137.929 101.600,137.700 102.006,137.700 102.600 M138.400 104.576 C 138.400 105.467,139.026 105.644,139.092 104.772 C 139.124 104.348,138.981 104.000,138.775 104.000 C 138.569 104.000,138.400 104.259,138.400 104.576 M138.800 106.800 C 138.800 107.020,139.042 107.200,139.337 107.200 C 139.632 107.200,140.577 108.042,141.437 109.071 C 143.986 112.122,144.267 112.355,144.267 111.418 C 144.267 111.097,144.086 110.947,143.865 111.083 C 143.624 111.233,143.569 111.058,143.727 110.645 C 143.872 110.267,143.831 110.057,143.636 110.178 C 143.245 110.419,140.800 107.819,140.800 107.162 C 140.800 106.937,140.632 106.856,140.428 106.983 C 140.223 107.109,139.942 107.030,139.804 106.807 C 139.481 106.284,138.800 106.279,138.800 106.800 M175.200 107.825 C 175.200 108.291,176.355 109.197,176.549 108.883 C 176.658 108.705,176.400 108.343,175.974 108.077 C 175.548 107.811,175.200 107.698,175.200 107.825 M177.867 111.100 C 178.300 111.485,178.772 112.115,178.915 112.500 C 179.058 112.885,179.461 113.200,179.811 113.200 C 180.161 113.200,180.336 113.380,180.200 113.600 C 180.064 113.820,180.233 114.000,180.576 114.000 C 181.456 114.000,181.363 113.732,180.027 112.426 C 179.382 111.796,178.977 111.143,179.127 110.976 C 179.277 110.808,179.187 110.794,178.928 110.942 C 178.668 111.091,178.342 111.030,178.204 110.807 C 178.066 110.583,177.756 110.400,177.515 110.400 C 177.275 110.400,177.433 110.715,177.867 111.100 M145.045 112.974 C 145.177 113.318,145.457 113.600,145.666 113.600 C 145.876 113.600,145.933 113.784,145.794 114.010 C 145.655 114.235,145.689 114.394,145.870 114.363 C 146.722 114.215,147.221 114.443,146.962 114.862 C 146.785 115.148,146.852 115.215,147.138 115.038 C 147.415 114.867,147.600 115.013,147.600 115.400 C 147.600 115.756,147.780 115.936,148.000 115.800 C 148.220 115.664,148.403 115.878,148.406 116.276 C 148.411 116.869,148.479 116.895,148.778 116.422 C 149.032 116.021,148.908 115.640,148.372 115.175 C 147.947 114.807,147.600 114.379,147.600 114.225 C 147.600 113.747,146.608 112.920,145.684 112.627 C 144.990 112.406,144.856 112.480,145.045 112.974 M181.606 114.324 C 181.603 114.629,181.391 114.727,181.100 114.559 C 180.810 114.392,180.740 114.424,180.933 114.636 C 181.117 114.836,181.477 115.008,181.733 115.018 C 181.990 115.028,182.155 115.253,182.100 115.518 C 182.045 115.783,182.302 116.000,182.671 116.000 C 183.040 116.000,183.832 116.585,184.432 117.300 C 185.031 118.015,185.668 118.457,185.847 118.281 C 186.198 117.935,183.912 115.600,183.222 115.600 C 182.990 115.600,182.845 115.465,182.900 115.300 C 182.955 115.135,182.840 114.970,182.645 114.934 C 182.449 114.898,182.137 114.628,181.951 114.334 C 181.677 113.902,181.611 113.900,181.606 114.324 M149.200 117.018 C 149.200 117.381,149.484 117.587,149.891 117.518 C 150.283 117.451,150.594 117.660,150.609 118.000 C 150.624 118.330,150.853 118.555,151.118 118.500 C 151.383 118.445,151.600 118.659,151.600 118.976 C 151.600 119.293,151.780 119.664,152.000 119.800 C 152.903 120.358,152.315 118.654,151.231 117.569 C 149.938 116.276,149.200 116.076,149.200 117.018 M186.017 118.979 C 185.609 119.471,185.672 119.540,186.400 119.400 C 187.165 119.253,187.206 119.313,186.736 119.893 C 186.304 120.426,186.302 120.492,186.727 120.237 C 187.081 120.024,187.326 120.194,187.472 120.755 C 187.593 121.215,187.850 121.492,188.045 121.372 C 188.240 121.251,188.400 121.444,188.400 121.800 C 188.400 122.156,188.580 122.336,188.800 122.200 C 189.020 122.064,189.200 122.154,189.200 122.400 C 189.200 122.646,189.380 122.736,189.600 122.600 C 189.820 122.464,190.000 122.594,190.000 122.888 C 190.000 123.183,190.350 123.676,190.779 123.985 C 191.207 124.293,191.450 124.738,191.320 124.973 C 191.189 125.208,191.334 125.158,191.641 124.862 C 192.117 124.403,192.067 124.233,191.300 123.713 C 190.805 123.377,190.400 122.854,190.400 122.551 C 190.400 122.248,190.162 122.000,189.872 122.000 C 189.310 122.000,187.600 120.229,187.600 119.646 C 187.600 118.838,186.514 118.380,186.017 118.979 M154.077 121.974 C 154.343 122.400,154.696 122.664,154.863 122.561 C 155.335 122.269,154.779 121.200,154.154 121.200 C 153.700 121.200,153.685 121.347,154.077 121.974 M157.733 124.983 C 157.733 125.303,157.985 125.662,158.292 125.780 C 158.599 125.898,158.721 126.203,158.564 126.459 C 158.406 126.715,158.439 126.823,158.638 126.701 C 158.837 126.579,159.450 127.086,160.000 127.828 C 160.550 128.571,161.255 129.183,161.567 129.189 C 161.878 129.195,162.019 129.314,161.880 129.453 C 161.741 129.592,162.084 130.065,162.642 130.505 C 163.458 131.147,163.749 131.203,164.129 130.793 C 164.500 130.391,164.455 130.333,163.920 130.521 C 163.414 130.699,163.304 130.594,163.490 130.110 C 163.676 129.624,163.571 129.526,163.069 129.718 C 162.701 129.859,162.400 129.846,162.400 129.687 C 162.399 129.529,161.949 128.877,161.400 128.238 C 160.850 127.599,160.400 127.218,160.400 127.393 C 160.400 127.567,159.844 127.010,159.165 126.155 C 158.486 125.300,157.886 124.555,157.832 124.500 C 157.778 124.445,157.733 124.662,157.733 124.983 M194.000 126.939 C 194.000 127.328,195.558 128.800,195.971 128.800 C 196.233 128.800,196.336 128.980,196.200 129.200 C 196.064 129.420,196.154 129.600,196.400 129.600 C 196.646 129.600,196.736 129.780,196.600 130.000 C 196.464 130.220,196.644 130.400,197.000 130.400 C 197.356 130.400,197.549 130.560,197.428 130.755 C 197.308 130.950,197.585 131.207,198.045 131.328 C 198.504 131.448,198.762 131.738,198.617 131.973 C 198.471 132.208,198.643 132.400,199.000 132.400 C 199.379 132.400,199.532 132.587,199.368 132.852 C 199.199 133.125,199.306 133.231,199.640 133.120 C 199.944 133.019,200.522 133.355,200.925 133.868 C 201.328 134.381,201.915 134.800,202.229 134.800 C 202.727 134.800,202.998 135.546,202.847 136.500 C 202.821 136.665,203.017 136.755,203.282 136.700 C 203.547 136.645,203.772 136.825,203.782 137.100 C 203.804 137.718,204.527 137.818,204.723 137.230 C 204.802 136.994,204.672 136.800,204.433 136.800 C 204.195 136.800,204.000 136.519,204.000 136.176 C 204.000 135.833,203.820 135.664,203.600 135.800 C 203.380 135.936,203.200 135.796,203.200 135.488 C 203.200 134.874,199.994 131.742,199.522 131.895 C 199.361 131.948,199.343 131.693,199.482 131.330 C 199.658 130.873,199.585 130.762,199.247 130.971 C 198.734 131.288,196.400 129.164,196.400 128.380 C 196.400 128.145,196.229 128.058,196.020 128.188 C 195.811 128.317,195.445 128.057,195.206 127.611 C 194.844 126.934,194.000 126.464,194.000 126.939 M164.125 131.456 C 163.786 131.595,163.834 131.864,164.297 132.404 C 164.652 132.819,165.091 133.068,165.271 132.956 C 165.826 132.613,165.636 132.000,164.976 132.000 C 164.633 132.000,164.464 131.820,164.600 131.600 C 164.866 131.170,164.845 131.163,164.125 131.456 M166.800 133.971 C 166.800 134.486,167.962 135.600,168.498 135.600 C 168.741 135.600,168.517 135.150,168.000 134.600 C 166.971 133.505,166.800 133.415,166.800 133.971 M169.355 135.900 C 169.537 136.211,169.412 136.400,169.024 136.400 C 168.681 136.400,168.400 136.574,168.400 136.787 C 168.400 137.001,168.700 137.060,169.066 136.919 C 169.483 136.759,169.633 136.823,169.468 137.090 C 169.323 137.324,169.485 137.624,169.828 137.755 C 170.176 137.889,170.324 138.199,170.164 138.459 C 169.991 138.738,170.051 138.816,170.313 138.654 C 170.976 138.244,170.723 136.851,169.845 136.084 C 169.415 135.708,169.194 135.625,169.355 135.900 M204.800 138.224 C 204.800 138.567,204.980 138.736,205.200 138.600 C 205.420 138.464,205.600 138.639,205.600 138.989 C 205.600 139.339,205.915 139.742,206.300 139.885 C 206.685 140.028,207.315 140.500,207.700 140.933 C 208.085 141.367,208.400 141.522,208.400 141.277 C 208.400 140.833,205.425 137.600,205.016 137.600 C 204.897 137.600,204.800 137.881,204.800 138.224 M173.062 140.299 C 172.947 140.486,173.018 140.900,173.220 141.219 C 173.422 141.539,173.591 141.664,173.594 141.499 C 173.599 141.266,176.098 143.906,176.694 144.773 C 176.760 144.869,176.995 144.765,177.216 144.544 C 177.486 144.274,177.353 143.900,176.809 143.409 C 176.364 143.006,176.000 142.807,176.000 142.967 C 176.000 143.126,175.719 142.976,175.374 142.632 C 175.030 142.288,174.879 141.780,175.039 141.503 C 175.198 141.226,175.183 141.132,175.005 141.293 C 174.827 141.454,174.364 141.220,173.976 140.773 C 173.589 140.326,173.177 140.113,173.062 140.299 M210.162 143.662 C 210.004 143.917,210.050 144.016,210.265 143.883 C 210.479 143.751,210.907 143.993,211.215 144.421 C 211.524 144.850,212.007 145.200,212.288 145.200 C 212.753 145.200,212.972 145.710,212.847 146.500 C 212.768 147.002,213.933 146.835,214.241 146.300 C 214.399 146.025,214.398 145.917,214.238 146.059 C 214.079 146.201,213.233 145.616,212.358 144.759 C 210.589 143.025,210.563 143.012,210.162 143.662 M178.397 146.011 C 177.895 146.328,177.915 146.389,178.524 146.394 C 178.986 146.398,179.145 146.581,178.965 146.900 C 178.739 147.300,178.790 147.300,179.221 146.900 C 179.933 146.240,179.231 145.483,178.397 146.011 M179.859 147.104 C 179.605 147.515,181.211 149.400,182.291 149.958 C 183.038 150.344,183.144 150.320,182.949 149.812 C 182.821 149.478,182.555 149.304,182.358 149.426 C 182.161 149.548,182.000 149.367,182.000 149.024 C 182.000 148.681,181.719 148.400,181.376 148.400 C 181.033 148.400,180.835 148.265,180.934 148.100 C 181.034 147.935,180.874 147.577,180.579 147.304 C 180.284 147.031,179.960 146.941,179.859 147.104 M213.800 147.200 C 213.664 147.420,213.823 147.600,214.153 147.600 C 214.483 147.600,214.864 147.420,215.000 147.200 C 215.136 146.980,214.977 146.800,214.647 146.800 C 214.317 146.800,213.936 146.980,213.800 147.200 M215.070 148.162 C 214.926 148.538,215.024 148.752,215.314 148.695 C 215.581 148.643,215.755 148.825,215.700 149.100 C 215.645 149.375,215.839 149.600,216.130 149.600 C 216.422 149.600,217.085 150.052,217.604 150.604 C 218.261 151.304,218.636 151.465,218.840 151.135 C 219.141 150.648,217.642 149.200,216.837 149.200 C 216.597 149.200,216.445 149.065,216.500 148.900 C 216.555 148.735,216.440 148.570,216.245 148.534 C 216.049 148.498,215.759 148.258,215.600 148.001 C 215.396 147.670,215.241 147.717,215.070 148.162 M219.311 152.072 C 219.343 152.661,219.548 153.111,219.767 153.072 C 219.985 153.032,220.180 153.270,220.200 153.600 C 220.220 153.930,220.453 154.155,220.718 154.100 C 220.983 154.045,221.200 154.281,221.200 154.624 C 221.200 154.967,221.380 155.136,221.600 155.000 C 221.820 154.864,222.000 155.033,222.000 155.376 C 222.000 155.719,222.135 155.979,222.300 155.953 C 223.049 155.834,223.600 156.036,223.600 156.429 C 223.600 156.664,223.870 157.127,224.200 157.457 C 224.530 157.787,224.800 157.868,224.800 157.637 C 224.800 157.406,223.836 156.268,222.658 155.108 C 221.479 153.949,220.489 152.865,220.458 152.700 C 220.426 152.535,220.272 152.413,220.116 152.430 C 219.959 152.446,219.701 152.131,219.542 151.730 C 219.321 151.174,219.266 151.255,219.311 152.072 M225.200 157.825 C 225.200 158.291,226.355 159.197,226.549 158.883 C 226.658 158.705,226.400 158.343,225.974 158.077 C 225.548 157.811,225.200 157.698,225.200 157.825 M191.409 158.785 C 191.278 158.997,191.537 159.537,191.985 159.985 C 192.433 160.433,192.804 160.665,192.809 160.500 C 192.814 160.335,193.144 160.624,193.542 161.142 C 194.137 161.915,194.267 161.959,194.267 161.388 C 194.267 160.184,191.885 158.016,191.409 158.785 M227.867 161.100 C 228.300 161.485,228.772 162.115,228.915 162.500 C 229.058 162.885,229.461 163.200,229.811 163.200 C 230.161 163.200,230.336 163.380,230.200 163.600 C 230.064 163.820,230.233 164.000,230.576 164.000 C 231.456 164.000,231.363 163.732,230.027 162.426 C 229.382 161.796,228.977 161.143,229.127 160.976 C 229.277 160.808,229.187 160.794,228.928 160.942 C 228.668 161.091,228.342 161.030,228.204 160.807 C 228.066 160.583,227.756 160.400,227.515 160.400 C 227.275 160.400,227.433 160.715,227.867 161.100 M194.912 162.027 C 194.946 162.481,195.265 162.800,195.685 162.800 C 196.582 162.800,196.577 162.730,195.627 161.916 C 194.901 161.294,194.857 161.301,194.912 162.027 M231.606 164.324 C 231.603 164.629,231.391 164.727,231.100 164.559 C 230.810 164.392,230.740 164.424,230.933 164.636 C 231.117 164.836,231.477 165.008,231.733 165.018 C 231.990 165.028,232.155 165.253,232.100 165.518 C 232.045 165.783,232.302 166.000,232.671 166.000 C 233.040 166.000,233.832 166.585,234.432 167.300 C 235.031 168.015,235.668 168.457,235.847 168.281 C 236.198 167.935,233.912 165.600,233.222 165.600 C 232.990 165.600,232.845 165.465,232.900 165.300 C 232.955 165.135,232.840 164.970,232.645 164.934 C 232.449 164.898,232.137 164.628,231.951 164.334 C 231.677 163.902,231.611 163.900,231.606 164.324 M198.687 167.084 C 198.796 167.368,199.057 167.600,199.266 167.600 C 199.476 167.600,199.519 167.392,199.362 167.138 C 199.179 166.843,199.253 166.785,199.565 166.979 C 199.834 167.145,199.948 167.558,199.818 167.897 C 199.616 168.424,199.676 168.435,200.235 167.971 C 200.645 167.631,200.721 167.374,200.441 167.280 C 200.196 167.199,200.096 166.968,200.219 166.768 C 200.343 166.569,200.004 166.442,199.467 166.486 C 198.852 166.537,198.563 166.759,198.687 167.084 M200.578 168.436 C 200.393 168.736,200.443 168.821,200.709 168.656 C 200.948 168.509,201.251 168.732,201.384 169.151 C 201.672 170.058,203.067 170.550,203.067 169.745 C 203.067 169.445,202.886 169.200,202.665 169.200 C 202.444 169.200,201.952 168.918,201.571 168.574 C 201.045 168.098,200.807 168.065,200.578 168.436 M236.017 168.979 C 235.609 169.471,235.672 169.540,236.400 169.400 C 237.165 169.253,237.206 169.313,236.736 169.893 C 236.304 170.426,236.302 170.492,236.727 170.237 C 237.081 170.024,237.326 170.194,237.472 170.755 C 237.593 171.215,237.850 171.492,238.045 171.372 C 238.240 171.251,238.400 171.444,238.400 171.800 C 238.400 172.156,238.580 172.336,238.800 172.200 C 239.020 172.064,239.200 172.154,239.200 172.400 C 239.200 172.646,239.380 172.736,239.600 172.600 C 239.820 172.464,240.000 172.594,240.000 172.888 C 240.000 173.183,240.350 173.676,240.779 173.985 C 241.207 174.293,241.450 174.738,241.320 174.973 C 241.189 175.208,241.334 175.158,241.641 174.862 C 242.117 174.403,242.067 174.233,241.300 173.713 C 240.805 173.377,240.400 172.854,240.400 172.551 C 240.400 172.248,240.162 172.000,239.872 172.000 C 239.310 172.000,237.600 170.229,237.600 169.646 C 237.600 168.838,236.514 168.380,236.017 168.979 M205.419 173.365 C 205.844 173.675,206.328 173.844,206.496 173.741 C 206.775 173.568,206.961 174.180,206.847 174.900 C 206.821 175.065,207.081 175.200,207.424 175.200 C 207.767 175.200,207.948 175.361,207.826 175.558 C 207.585 175.949,208.783 176.550,209.124 176.209 C 209.239 176.094,209.123 176.000,208.867 176.000 C 208.610 176.000,208.400 175.839,208.400 175.641 C 208.400 174.912,206.196 172.800,205.434 172.800 C 204.659 172.800,204.658 172.808,205.419 173.365 M244.000 176.939 C 244.000 177.328,245.558 178.800,245.971 178.800 C 246.233 178.800,246.336 178.980,246.200 179.200 C 246.064 179.420,246.154 179.600,246.400 179.600 C 246.646 179.600,246.736 179.780,246.600 180.000 C 246.464 180.220,246.644 180.400,247.000 180.400 C 247.356 180.400,247.549 180.560,247.428 180.755 C 247.308 180.950,247.585 181.207,248.045 181.328 C 248.504 181.448,248.762 181.738,248.617 181.973 C 248.471 182.208,248.643 182.400,249.000 182.400 C 249.379 182.400,249.532 182.587,249.368 182.852 C 249.199 183.125,249.306 183.231,249.640 183.120 C 249.944 183.019,250.522 183.355,250.925 183.868 C 251.328 184.381,251.915 184.800,252.229 184.800 C 252.727 184.800,252.998 185.546,252.847 186.500 C 252.821 186.665,253.017 186.755,253.282 186.700 C 253.547 186.645,253.772 186.825,253.782 187.100 C 253.804 187.718,254.527 187.818,254.723 187.230 C 254.802 186.994,254.672 186.800,254.433 186.800 C 254.195 186.800,254.000 186.519,254.000 186.176 C 254.000 185.833,253.820 185.664,253.600 185.800 C 253.380 185.936,253.200 185.796,253.200 185.488 C 253.200 184.874,249.994 181.742,249.522 181.895 C 249.361 181.948,249.343 181.693,249.482 181.330 C 249.658 180.873,249.585 180.762,249.247 180.971 C 248.734 181.288,246.400 179.164,246.400 178.380 C 246.400 178.145,246.229 178.058,246.020 178.188 C 245.811 178.317,245.445 178.057,245.206 177.611 C 244.844 176.934,244.000 176.464,244.000 176.939 M210.824 178.676 C 211.120 179.158,211.776 179.773,212.281 180.043 C 212.787 180.314,213.200 180.775,213.200 181.068 C 213.200 181.360,213.470 181.600,213.800 181.600 C 214.130 181.600,214.400 181.864,214.400 182.186 C 214.400 182.508,214.748 182.958,215.174 183.186 C 216.794 184.053,216.722 183.532,214.966 181.700 C 213.965 180.655,213.043 179.860,212.917 179.934 C 212.792 180.008,212.579 179.918,212.445 179.734 C 212.310 179.550,211.770 179.040,211.243 178.600 L 210.287 177.800 210.824 178.676 M218.204 185.613 C 218.474 186.463,220.104 188.400,220.549 188.400 C 221.051 188.400,223.200 190.540,223.200 191.039 C 223.200 191.318,223.560 191.660,224.000 191.800 C 224.440 191.940,224.800 192.222,224.800 192.427 C 224.800 192.632,225.081 192.800,225.424 192.800 C 225.767 192.800,225.936 192.980,225.800 193.200 C 225.664 193.420,225.743 193.600,225.976 193.600 C 226.209 193.600,226.400 193.881,226.400 194.224 C 226.400 194.567,226.566 194.744,226.769 194.619 C 226.973 194.493,227.549 194.978,228.050 195.695 C 229.304 197.491,230.400 198.181,230.400 197.176 C 230.400 196.943,230.220 196.864,230.000 197.000 C 229.780 197.136,229.600 196.956,229.600 196.600 C 229.600 196.244,229.420 196.064,229.200 196.200 C 228.980 196.336,228.800 196.256,228.800 196.022 C 228.800 195.788,227.991 194.743,227.002 193.699 C 226.013 192.654,225.203 191.646,225.202 191.457 C 225.201 191.269,224.921 191.222,224.579 191.353 C 224.238 191.484,224.063 191.422,224.190 191.215 C 224.318 191.009,224.057 190.645,223.611 190.406 C 223.165 190.167,222.800 189.698,222.800 189.362 C 222.800 188.999,222.611 188.870,222.332 189.042 C 222.011 189.240,221.950 189.108,222.137 188.621 C 222.339 188.093,222.254 187.971,221.805 188.143 C 221.472 188.271,221.200 188.201,221.200 187.987 C 221.200 187.774,220.975 187.645,220.700 187.700 C 220.425 187.755,220.245 187.575,220.300 187.300 C 220.355 187.025,220.119 186.800,219.776 186.800 C 219.433 186.800,219.264 186.620,219.400 186.400 C 219.536 186.180,219.462 186.000,219.236 186.000 C 219.010 186.000,218.929 185.730,219.055 185.400 C 219.204 185.014,219.047 184.800,218.616 184.800 C 218.125 184.800,218.015 185.017,218.204 185.613 M254.800 188.224 C 254.800 188.567,254.980 188.736,255.200 188.600 C 255.420 188.464,255.600 188.639,255.600 188.989 C 255.600 189.339,255.882 189.733,256.227 189.866 C 256.572 189.998,257.674 190.892,258.677 191.853 C 259.680 192.814,260.703 193.594,260.950 193.587 C 261.198 193.580,261.088 193.337,260.706 193.048 C 260.325 192.758,260.145 192.375,260.306 192.196 C 260.468 192.018,260.375 192.001,260.100 192.159 C 259.791 192.337,259.600 192.209,259.600 191.824 C 259.600 191.481,259.445 191.245,259.256 191.300 C 259.067 191.355,258.089 190.545,257.084 189.500 C 255.102 187.441,254.800 187.272,254.800 188.224 M260.600 195.200 C 260.464 195.420,260.623 195.600,260.953 195.600 C 261.283 195.600,261.664 195.420,261.800 195.200 C 261.936 194.980,261.777 194.800,261.447 194.800 C 261.117 194.800,260.736 194.980,260.600 195.200 M261.909 197.837 C 262.054 198.594,262.199 198.729,262.448 198.337 C 262.959 197.529,262.868 196.800,262.255 196.800 C 261.885 196.800,261.774 197.132,261.909 197.837 M230.695 197.855 C 230.232 198.590,231.520 199.449,232.117 198.804 C 232.503 198.387,232.464 198.330,231.925 198.519 C 231.485 198.673,231.203 198.520,231.116 198.078 C 231.027 197.630,230.884 197.554,230.695 197.855 M231.956 200.100 C 231.696 200.595,231.236 201.146,230.933 201.325 C 230.631 201.503,230.488 201.818,230.615 202.025 C 230.976 202.609,231.600 202.466,231.600 201.800 C 231.600 201.470,231.751 201.200,231.936 201.200 C 232.120 201.200,232.477 200.750,232.727 200.200 C 233.297 198.949,232.607 198.859,231.956 200.100 M261.804 201.993 C 261.509 202.471,261.883 203.200,262.424 203.200 C 262.910 203.200,262.913 202.117,262.428 201.817 C 262.223 201.691,261.942 201.770,261.804 201.993 M229.200 203.000 C 228.926 203.330,228.435 203.600,228.108 203.600 C 227.760 203.600,227.604 203.835,227.732 204.167 C 227.852 204.479,227.691 204.833,227.375 204.954 C 227.059 205.076,226.800 205.461,226.800 205.811 C 226.800 206.161,226.620 206.336,226.400 206.200 C 226.180 206.064,226.000 206.143,226.000 206.376 C 226.000 206.609,226.145 206.800,226.322 206.800 C 226.743 206.800,229.200 204.261,229.200 203.825 C 229.200 203.640,229.515 203.249,229.900 202.957 C 230.285 202.665,230.397 202.420,230.149 202.413 C 229.901 202.406,229.474 202.670,229.200 203.000 M260.433 204.913 C 260.525 204.975,260.885 205.243,261.233 205.507 C 261.742 205.893,261.867 205.871,261.867 205.394 C 261.867 205.067,261.507 204.800,261.067 204.800 C 260.627 204.800,260.342 204.851,260.433 204.913 M259.896 206.580 C 259.513 206.859,259.200 207.278,259.200 207.511 C 259.200 207.743,258.975 208.014,258.700 208.112 C 258.409 208.216,258.348 208.439,258.555 208.645 C 258.761 208.852,258.984 208.791,259.088 208.500 C 259.186 208.225,259.552 208.000,259.900 208.000 C 260.248 208.000,260.416 207.883,260.273 207.740 C 260.130 207.596,260.307 207.264,260.667 207.001 C 261.027 206.737,261.157 206.421,260.956 206.297 C 260.755 206.172,260.278 206.300,259.896 206.580 M221.926 210.185 C 220.154 211.812,219.945 212.815,221.380 212.794 C 221.611 212.791,221.559 212.635,221.264 212.448 C 220.846 212.183,220.961 211.875,221.790 211.047 C 222.374 210.463,223.051 210.108,223.294 210.258 C 223.585 210.438,223.643 210.288,223.463 209.821 C 223.261 209.293,223.346 209.171,223.795 209.343 C 224.128 209.471,224.400 209.411,224.400 209.211 C 224.400 208.305,223.653 208.599,221.926 210.185 M257.600 209.000 C 257.600 209.330,257.892 209.600,258.249 209.600 C 258.780 209.600,258.808 209.491,258.400 209.000 C 258.126 208.670,257.834 208.400,257.751 208.400 C 257.668 208.400,257.600 208.670,257.600 209.000 M256.800 209.687 C 256.800 210.042,256.575 210.424,256.300 210.535 C 256.025 210.646,255.980 210.748,256.200 210.762 C 257.122 210.821,257.811 210.051,257.297 209.537 C 256.901 209.141,256.800 209.172,256.800 209.687 M255.360 211.440 C 255.536 211.899,255.438 212.023,255.025 211.865 C 254.668 211.728,254.344 211.947,254.192 212.426 C 254.055 212.858,253.747 213.091,253.508 212.943 C 253.224 212.767,253.154 212.980,253.306 213.560 C 253.507 214.332,253.455 214.378,252.899 213.923 C 252.343 213.467,252.291 213.515,252.493 214.301 C 252.630 214.831,252.567 215.103,252.339 214.962 C 251.741 214.592,247.229 219.069,247.713 219.553 C 247.983 219.823,247.812 219.876,247.195 219.715 C 246.587 219.556,246.366 219.621,246.543 219.908 C 246.691 220.147,246.458 220.455,246.026 220.592 C 245.547 220.744,245.328 221.068,245.465 221.425 C 245.623 221.838,245.499 221.936,245.040 221.760 C 244.543 221.569,244.455 221.678,244.663 222.221 C 244.851 222.710,244.789 222.840,244.465 222.640 C 243.952 222.323,242.681 223.348,243.086 223.752 C 243.222 223.889,243.011 224.000,242.618 224.000 C 242.005 224.000,241.979 224.093,242.436 224.644 C 242.853 225.146,243.010 225.171,243.148 224.757 C 243.333 224.202,247.099 220.400,247.464 220.400 C 247.579 220.400,248.131 220.040,248.691 219.600 C 249.250 219.160,249.504 218.800,249.254 218.800 C 249.004 218.800,248.800 218.601,248.800 218.357 C 248.800 218.114,249.053 218.012,249.362 218.130 C 249.969 218.363,251.364 217.097,250.953 216.687 C 250.817 216.550,250.996 216.147,251.352 215.790 C 251.789 215.353,252.000 215.305,252.000 215.641 C 252.000 215.921,252.438 215.728,253.000 215.200 C 253.550 214.683,253.998 214.067,253.996 213.830 C 253.994 213.594,254.560 212.934,255.253 212.364 C 256.344 211.467,256.419 211.293,255.812 211.060 C 255.278 210.855,255.170 210.946,255.360 211.440 M218.800 213.461 C 218.250 213.751,217.962 213.991,218.159 213.994 C 218.357 213.997,217.907 214.423,217.159 214.939 C 216.412 215.456,215.837 216.062,215.882 216.286 C 215.928 216.510,214.983 217.551,213.782 218.598 C 212.582 219.645,211.600 220.761,211.600 221.079 C 211.600 221.562,211.704 221.553,212.229 221.029 C 212.574 220.683,213.044 220.400,213.271 220.400 C 213.499 220.400,213.586 220.139,213.463 219.820 C 213.315 219.434,213.433 219.315,213.818 219.462 C 214.164 219.595,214.516 219.361,214.697 218.876 C 215.038 217.967,217.947 214.763,219.278 213.830 C 220.414 213.035,220.088 212.783,218.800 213.461 M209.024 223.083 C 208.671 224.003,209.121 224.250,209.841 223.531 C 210.387 222.984,210.390 222.882,209.864 222.680 C 209.524 222.549,209.162 222.723,209.024 223.083 M206.993 225.374 C 206.380 226.143,205.698 226.661,205.477 226.524 C 205.251 226.384,205.200 226.477,205.362 226.738 C 205.531 227.012,205.393 227.200,205.024 227.200 C 204.635 227.200,204.400 227.555,204.400 228.142 C 204.400 228.862,204.094 229.172,203.100 229.455 C 202.121 229.735,201.782 230.070,201.726 230.813 C 201.682 231.403,201.734 231.516,201.856 231.095 C 201.969 230.707,202.227 230.493,202.430 230.619 C 202.634 230.744,202.800 230.678,202.800 230.472 C 202.800 230.266,203.320 229.882,203.955 229.619 C 204.827 229.258,205.071 228.927,204.950 228.270 C 204.863 227.792,204.898 227.625,205.029 227.900 C 205.386 228.652,206.014 228.501,205.719 227.734 C 205.545 227.280,205.616 227.163,205.942 227.364 C 206.205 227.527,206.370 227.488,206.310 227.279 C 206.249 227.070,206.710 226.322,207.333 225.616 C 207.956 224.910,208.386 224.252,208.287 224.154 C 208.189 224.056,207.607 224.604,206.993 225.374 M241.200 225.400 C 241.200 225.730,241.492 226.000,241.849 226.000 C 242.380 226.000,242.408 225.891,242.000 225.400 C 241.726 225.070,241.434 224.800,241.351 224.800 C 241.268 224.800,241.200 225.070,241.200 225.400 M240.400 226.144 C 240.400 226.531,240.220 226.736,240.000 226.600 C 239.780 226.464,239.600 226.644,239.600 227.000 C 239.600 227.392,239.416 227.533,239.132 227.358 C 238.811 227.160,238.750 227.292,238.937 227.779 C 239.139 228.307,239.054 228.429,238.605 228.257 C 237.951 228.006,237.760 228.605,238.373 228.983 C 238.578 229.110,238.999 228.852,239.309 228.409 C 239.618 227.967,240.019 227.739,240.200 227.903 C 240.381 228.066,240.406 227.986,240.256 227.725 C 240.106 227.463,240.302 227.069,240.692 226.849 C 241.259 226.529,241.300 226.349,240.900 225.945 C 240.498 225.539,240.400 225.578,240.400 226.144 M236.800 229.843 C 236.800 230.636,237.488 230.868,237.758 230.165 C 238.081 229.323,238.086 229.333,237.400 229.333 C 237.070 229.333,236.800 229.563,236.800 229.843 M236.100 230.738 C 236.234 231.251,236.166 231.503,235.933 231.359 C 235.397 231.027,233.530 232.840,233.768 233.460 C 233.875 233.740,233.740 233.875,233.460 233.768 C 232.840 233.530,231.027 235.397,231.359 235.933 C 231.503 236.166,231.251 236.234,230.738 236.100 C 230.147 235.945,229.965 236.020,230.161 236.337 C 230.794 237.361,232.948 236.050,232.509 234.908 C 232.350 234.492,232.456 234.357,232.836 234.493 C 233.628 234.778,234.796 233.656,234.504 232.893 C 234.328 232.436,234.436 232.328,234.893 232.504 C 236.048 232.947,237.371 230.800,236.337 230.161 C 236.020 229.965,235.945 230.147,236.100 230.738 M198.053 234.153 C 196.238 235.765,195.910 236.400,196.890 236.400 C 197.087 236.400,197.136 236.220,197.000 236.000 C 196.864 235.780,197.044 235.600,197.400 235.600 C 197.792 235.600,197.933 235.416,197.758 235.132 C 197.560 234.811,197.692 234.750,198.179 234.937 C 198.722 235.145,198.831 235.057,198.640 234.560 C 198.456 234.080,198.560 233.976,199.040 234.160 C 199.497 234.335,199.623 234.237,199.467 233.829 C 199.320 233.448,199.545 233.207,200.122 233.124 C 200.701 233.042,200.838 232.894,200.524 232.690 C 200.231 232.501,199.278 233.065,198.053 234.153 M229.333 237.417 C 229.333 237.785,229.562 237.947,229.899 237.817 C 230.211 237.698,230.551 237.600,230.656 237.600 C 230.761 237.600,230.736 237.420,230.600 237.200 C 230.216 236.578,229.333 236.729,229.333 237.417 M228.257 238.605 C 228.429 239.054,228.307 239.139,227.779 238.937 C 227.292 238.750,227.160 238.811,227.358 239.132 C 227.533 239.416,227.392 239.600,227.000 239.600 C 226.644 239.600,226.464 239.780,226.600 240.000 C 226.736 240.220,226.531 240.400,226.144 240.400 C 225.578 240.400,225.539 240.498,225.945 240.900 C 226.349 241.300,226.529 241.259,226.849 240.692 C 227.069 240.302,227.463 240.106,227.725 240.256 C 227.986 240.406,228.066 240.381,227.903 240.200 C 227.739 240.019,227.967 239.618,228.409 239.309 C 228.852 238.999,229.110 238.578,228.983 238.373 C 228.605 237.760,228.006 237.951,228.257 238.605 M191.566 240.724 C 190.375 241.992,190.203 242.533,191.152 242.026 C 191.618 241.776,192.000 241.388,192.000 241.162 C 192.000 240.937,192.180 240.864,192.400 241.000 C 192.620 241.136,192.800 240.967,192.800 240.624 C 192.800 239.830,192.372 239.865,191.566 240.724 M224.800 241.351 C 224.800 241.434,225.070 241.726,225.400 242.000 C 225.891 242.408,226.000 242.380,226.000 241.849 C 226.000 241.492,225.730 241.200,225.400 241.200 C 225.070 241.200,224.800 241.268,224.800 241.351 M224.000 242.618 C 224.000 243.011,223.889 243.222,223.752 243.086 C 223.348 242.681,222.323 243.952,222.640 244.465 C 222.840 244.789,222.710 244.851,222.221 244.663 C 221.678 244.455,221.569 244.543,221.760 245.040 C 221.936 245.499,221.838 245.623,221.425 245.465 C 221.068 245.328,220.744 245.547,220.592 246.026 C 220.455 246.458,220.147 246.691,219.908 246.543 C 219.621 246.366,219.556 246.587,219.715 247.195 C 219.876 247.812,219.823 247.983,219.553 247.713 C 219.069 247.229,214.592 251.741,214.962 252.339 C 215.103 252.567,214.831 252.630,214.301 252.493 C 213.515 252.291,213.467 252.343,213.923 252.899 C 214.378 253.455,214.332 253.507,213.560 253.306 C 212.980 253.154,212.767 253.224,212.943 253.508 C 213.091 253.747,212.858 254.055,212.426 254.192 C 211.947 254.344,211.728 254.668,211.865 255.025 C 212.023 255.438,211.899 255.536,211.440 255.360 C 210.946 255.170,210.855 255.278,211.060 255.812 C 211.293 256.419,211.467 256.344,212.364 255.253 C 212.934 254.560,213.594 253.994,213.830 253.996 C 214.067 253.998,214.683 253.550,215.200 253.000 C 215.728 252.438,215.921 252.000,215.641 252.000 C 215.305 252.000,215.353 251.789,215.790 251.352 C 216.147 250.996,216.550 250.817,216.687 250.953 C 217.097 251.364,218.363 249.969,218.130 249.362 C 218.012 249.053,218.114 248.800,218.357 248.800 C 218.601 248.800,218.800 249.004,218.800 249.254 C 218.800 249.504,219.160 249.250,219.600 248.691 C 220.040 248.131,220.400 247.579,220.400 247.464 C 220.400 247.099,224.202 243.333,224.757 243.148 C 225.171 243.010,225.146 242.853,224.644 242.436 C 224.093 241.979,224.000 242.005,224.000 242.618 M182.485 249.620 C 181.436 250.573,181.251 250.957,181.572 251.508 C 181.921 252.107,181.978 252.065,181.994 251.200 C 182.009 250.379,182.089 250.307,182.444 250.800 C 182.808 251.306,182.840 251.291,182.650 250.700 C 182.488 250.197,182.643 250.000,183.200 250.000 C 183.727 250.000,183.901 249.807,183.743 249.395 C 183.571 248.946,183.693 248.861,184.221 249.063 C 184.708 249.250,184.840 249.189,184.642 248.868 C 184.224 248.191,183.951 248.286,182.485 249.620 M180.400 252.200 C 180.400 252.530,180.173 252.800,179.896 252.800 C 179.205 252.800,177.133 254.769,177.389 255.182 C 177.569 255.473,177.172 255.744,176.096 256.067 C 175.049 256.380,174.692 257.600,175.647 257.600 C 175.867 257.600,175.936 257.420,175.800 257.200 C 175.664 256.980,175.742 256.800,175.973 256.800 C 176.680 256.800,178.389 255.106,178.121 254.672 C 177.970 254.428,178.128 254.364,178.514 254.512 C 178.989 254.694,179.094 254.589,178.912 254.114 C 178.754 253.703,178.824 253.568,179.104 253.741 C 179.347 253.891,179.660 253.827,179.800 253.600 C 179.940 253.373,180.251 253.308,180.489 253.455 C 180.739 253.609,180.809 253.539,180.655 253.289 C 180.508 253.051,180.570 252.742,180.793 252.604 C 181.316 252.281,181.321 251.600,180.800 251.600 C 180.580 251.600,180.400 251.870,180.400 252.200 M210.400 256.333 C 210.400 256.590,210.119 256.800,209.776 256.800 C 209.433 256.800,209.264 256.980,209.400 257.200 C 209.536 257.420,209.797 257.600,209.981 257.600 C 210.390 257.600,210.899 256.366,210.609 256.076 C 210.494 255.961,210.400 256.077,210.400 256.333 M208.400 257.751 C 208.400 257.834,208.670 258.126,209.000 258.400 C 209.491 258.808,209.600 258.780,209.600 258.249 C 209.600 257.892,209.330 257.600,209.000 257.600 C 208.670 257.600,208.400 257.668,208.400 257.751 M173.738 258.617 C 173.608 258.957,173.613 259.347,173.751 259.484 C 173.888 259.621,174.000 259.423,174.000 259.043 C 174.000 258.663,174.168 258.456,174.372 258.583 C 174.577 258.709,174.858 258.630,174.996 258.407 C 175.134 258.183,174.961 258.000,174.611 258.000 C 174.261 258.000,173.868 258.278,173.738 258.617 M207.600 259.000 C 207.600 259.330,207.892 259.600,208.249 259.600 C 208.780 259.600,208.808 259.491,208.400 259.000 C 208.126 258.670,207.834 258.400,207.751 258.400 C 207.668 258.400,207.600 258.670,207.600 259.000 M206.800 259.687 C 206.800 260.042,206.575 260.424,206.300 260.535 C 206.025 260.646,205.980 260.748,206.200 260.762 C 207.122 260.821,207.811 260.051,207.297 259.537 C 206.901 259.141,206.800 259.172,206.800 259.687 M172.582 259.971 C 172.708 260.175,172.449 260.457,172.006 260.598 C 171.563 260.739,171.200 261.143,171.200 261.497 C 171.200 262.008,171.405 261.947,172.200 261.200 C 173.259 260.205,173.477 259.600,172.776 259.600 C 172.543 259.600,172.456 259.767,172.582 259.971 M205.360 261.440 C 205.536 261.899,205.438 262.023,205.025 261.865 C 204.668 261.728,204.344 261.947,204.192 262.426 C 204.055 262.858,203.747 263.091,203.508 262.943 C 203.224 262.767,203.154 262.980,203.306 263.560 C 203.507 264.332,203.455 264.378,202.899 263.923 C 202.343 263.467,202.291 263.515,202.493 264.301 C 202.630 264.831,202.567 265.103,202.339 264.962 C 201.741 264.592,197.229 269.069,197.713 269.553 C 197.983 269.823,197.812 269.876,197.195 269.715 C 196.587 269.556,196.366 269.621,196.543 269.908 C 196.691 270.147,196.458 270.455,196.026 270.592 C 195.547 270.744,195.328 271.068,195.465 271.425 C 195.623 271.838,195.499 271.936,195.040 271.760 C 194.543 271.569,194.455 271.678,194.663 272.221 C 194.851 272.710,194.789 272.840,194.465 272.640 C 193.952 272.323,192.681 273.348,193.086 273.752 C 193.222 273.889,193.011 274.000,192.618 274.000 C 192.005 274.000,191.979 274.093,192.436 274.644 C 192.853 275.146,193.010 275.171,193.148 274.757 C 193.333 274.202,197.099 270.400,197.464 270.400 C 197.579 270.400,198.131 270.040,198.691 269.600 C 199.250 269.160,199.504 268.800,199.254 268.800 C 199.004 268.800,198.800 268.601,198.800 268.357 C 198.800 268.114,199.053 268.012,199.362 268.130 C 199.969 268.363,201.364 267.097,200.953 266.687 C 200.817 266.550,200.996 266.147,201.352 265.790 C 201.789 265.353,202.000 265.305,202.000 265.641 C 202.000 265.921,202.438 265.728,203.000 265.200 C 203.550 264.683,203.998 264.067,203.996 263.830 C 203.994 263.594,204.560 262.934,205.253 262.364 C 206.344 261.467,206.419 261.293,205.812 261.060 C 205.278 260.855,205.170 260.946,205.360 261.440 M168.062 263.962 C 167.682 264.196,167.729 264.406,168.258 264.835 C 168.640 265.146,168.828 265.190,168.674 264.934 C 168.521 264.678,168.612 264.396,168.878 264.307 C 169.177 264.208,169.209 264.053,168.961 263.900 C 168.742 263.764,168.337 263.792,168.062 263.962 M165.402 266.797 C 165.267 267.015,165.324 267.493,165.528 267.858 C 165.831 268.398,165.900 268.324,165.900 267.461 C 165.900 266.321,165.788 266.172,165.402 266.797 M164.000 268.000 C 163.670 268.213,163.490 268.404,163.600 268.424 C 163.710 268.445,164.085 268.517,164.433 268.585 C 164.782 268.654,165.067 268.460,165.067 268.155 C 165.067 267.504,164.822 267.469,164.000 268.000 M161.345 271.000 C 161.218 271.330,160.844 271.600,160.514 271.600 C 160.163 271.600,160.004 271.833,160.131 272.163 C 160.269 272.523,159.996 272.815,159.373 272.971 C 158.838 273.105,158.400 273.417,158.400 273.664 C 158.400 273.910,158.085 274.342,157.701 274.623 C 157.316 274.904,157.116 275.249,157.256 275.389 C 157.396 275.530,157.978 275.211,158.549 274.682 C 159.120 274.153,159.470 273.603,159.327 273.460 C 159.184 273.317,159.333 273.200,159.658 273.200 C 160.243 273.200,162.400 271.216,162.400 270.678 C 162.400 270.150,161.574 270.402,161.345 271.000 M191.200 275.400 C 191.200 275.730,191.492 276.000,191.849 276.000 C 192.380 276.000,192.408 275.891,192.000 275.400 C 191.726 275.070,191.434 274.800,191.351 274.800 C 191.268 274.800,191.200 275.070,191.200 275.400 M190.400 276.144 C 190.400 276.531,190.220 276.736,190.000 276.600 C 189.780 276.464,189.600 276.644,189.600 277.000 C 189.600 277.392,189.416 277.533,189.132 277.358 C 188.811 277.160,188.750 277.292,188.937 277.779 C 189.139 278.307,189.054 278.429,188.605 278.257 C 187.951 278.006,187.760 278.605,188.373 278.983 C 188.578 279.110,188.999 278.852,189.309 278.409 C 189.618 277.967,190.019 277.739,190.200 277.903 C 190.381 278.066,190.406 277.986,190.256 277.725 C 190.106 277.463,190.302 277.069,190.692 276.849 C 191.259 276.529,191.300 276.349,190.900 275.945 C 190.498 275.539,190.400 275.578,190.400 276.144 M155.474 276.840 C 155.326 277.405,155.081 277.577,154.727 277.363 C 154.374 277.151,154.398 277.290,154.800 277.786 C 155.342 278.453,155.413 278.460,155.530 277.857 C 155.602 277.490,155.810 277.283,155.993 277.396 C 156.176 277.509,156.231 277.241,156.116 276.801 C 155.852 275.789,155.747 275.796,155.474 276.840 M153.600 278.151 C 153.600 278.234,153.870 278.526,154.200 278.800 C 154.691 279.208,154.800 279.180,154.800 278.649 C 154.800 278.292,154.530 278.000,154.200 278.000 C 153.870 278.000,153.600 278.068,153.600 278.151 M152.909 279.043 C 153.227 279.360,151.891 280.781,150.729 281.360 C 150.126 281.661,149.786 282.220,149.729 283.008 C 149.653 284.056,149.696 284.107,150.080 283.431 C 150.320 283.008,151.301 281.878,152.259 280.920 C 154.198 278.981,154.290 278.800,153.333 278.800 C 152.967 278.800,152.776 278.909,152.909 279.043 M186.800 279.843 C 186.800 280.636,187.488 280.868,187.758 280.165 C 188.081 279.323,188.086 279.333,187.400 279.333 C 187.070 279.333,186.800 279.563,186.800 279.843 M186.100 280.738 C 186.234 281.251,186.166 281.503,185.933 281.359 C 185.397 281.027,183.530 282.840,183.768 283.460 C 183.875 283.740,183.740 283.875,183.460 283.768 C 182.840 283.530,181.027 285.397,181.359 285.933 C 181.503 286.166,181.251 286.234,180.738 286.100 C 180.147 285.945,179.965 286.020,180.161 286.337 C 180.794 287.361,182.948 286.050,182.509 284.908 C 182.350 284.492,182.456 284.357,182.836 284.493 C 183.628 284.778,184.796 283.656,184.504 282.893 C 184.328 282.436,184.436 282.328,184.893 282.504 C 186.048 282.947,187.371 280.800,186.337 280.161 C 186.020 279.965,185.945 280.147,186.100 280.738 M147.860 284.702 C 147.703 284.957,147.355 285.112,147.087 285.048 C 146.819 284.984,146.756 285.014,146.946 285.114 C 147.137 285.215,146.609 285.906,145.774 286.649 C 144.938 287.392,144.448 288.000,144.685 288.000 C 144.922 288.000,145.679 287.473,146.368 286.830 C 147.057 286.186,147.823 285.592,148.070 285.510 C 148.318 285.427,148.436 285.108,148.333 284.800 C 148.199 284.398,148.065 284.370,147.860 284.702 M179.333 287.417 C 179.333 287.785,179.562 287.947,179.899 287.817 C 180.211 287.698,180.551 287.600,180.656 287.600 C 180.761 287.600,180.736 287.420,180.600 287.200 C 180.216 286.578,179.333 286.729,179.333 287.417 M178.257 288.605 C 178.429 289.054,178.307 289.139,177.779 288.937 C 177.292 288.750,177.160 288.811,177.358 289.132 C 177.533 289.416,177.392 289.600,177.000 289.600 C 176.644 289.600,176.464 289.780,176.600 290.000 C 176.736 290.220,176.531 290.400,176.144 290.400 C 175.578 290.400,175.539 290.498,175.945 290.900 C 176.349 291.300,176.529 291.259,176.849 290.692 C 177.069 290.302,177.463 290.106,177.725 290.256 C 177.986 290.406,178.066 290.381,177.903 290.200 C 177.739 290.019,177.967 289.618,178.409 289.309 C 178.852 288.999,179.110 288.578,178.983 288.373 C 178.605 287.760,178.006 287.951,178.257 288.605 M174.800 291.351 C 174.800 291.434,175.070 291.726,175.400 292.000 C 175.891 292.408,176.000 292.380,176.000 291.849 C 176.000 291.492,175.730 291.200,175.400 291.200 C 175.070 291.200,174.800 291.268,174.800 291.351 M174.000 292.618 C 174.000 293.011,173.889 293.222,173.752 293.086 C 173.348 292.681,172.323 293.952,172.640 294.465 C 172.840 294.789,172.710 294.851,172.221 294.663 C 171.678 294.455,171.569 294.543,171.760 295.040 C 171.936 295.499,171.838 295.623,171.425 295.465 C 171.068 295.328,170.744 295.547,170.592 296.026 C 170.455 296.458,170.147 296.691,169.908 296.543 C 169.621 296.366,169.556 296.587,169.715 297.195 C 169.876 297.812,169.823 297.983,169.553 297.713 C 169.069 297.229,164.592 301.741,164.962 302.339 C 165.103 302.567,164.831 302.630,164.301 302.493 C 163.515 302.291,163.467 302.343,163.923 302.899 C 164.378 303.455,164.332 303.507,163.560 303.306 C 162.980 303.154,162.767 303.224,162.943 303.508 C 163.091 303.747,162.858 304.055,162.426 304.192 C 161.947 304.344,161.728 304.668,161.865 305.025 C 162.023 305.438,161.899 305.536,161.440 305.360 C 160.946 305.170,160.855 305.278,161.060 305.812 C 161.293 306.419,161.467 306.344,162.364 305.253 C 162.934 304.560,163.594 303.994,163.830 303.996 C 164.067 303.998,164.683 303.550,165.200 303.000 C 165.728 302.438,165.921 302.000,165.641 302.000 C 165.305 302.000,165.353 301.789,165.790 301.352 C 166.147 300.996,166.550 300.817,166.687 300.953 C 167.097 301.364,168.363 299.969,168.130 299.362 C 168.012 299.053,168.114 298.800,168.357 298.800 C 168.601 298.800,168.800 299.004,168.800 299.254 C 168.800 299.504,169.160 299.250,169.600 298.691 C 170.040 298.131,170.400 297.579,170.400 297.464 C 170.400 297.099,174.202 293.333,174.757 293.148 C 175.171 293.010,175.146 292.853,174.644 292.436 C 174.093 291.979,174.000 292.005,174.000 292.618 M139.257 292.756 C 138.845 293.017,138.830 293.171,139.196 293.397 C 139.461 293.561,139.967 293.404,140.324 293.047 C 141.057 292.314,140.287 292.104,139.257 292.756 M138.500 294.625 C 137.829 295.351,137.870 295.865,138.621 296.153 C 138.962 296.284,139.141 296.228,139.018 296.030 C 138.895 295.831,138.952 295.608,139.144 295.534 C 139.336 295.460,139.382 295.104,139.246 294.742 C 139.040 294.191,138.918 294.172,138.500 294.625 M137.317 297.738 C 137.361 299.279,137.470 299.397,138.339 298.846 C 138.917 298.480,138.838 297.121,138.245 297.213 C 138.049 297.243,137.751 297.045,137.583 296.772 C 137.409 296.490,137.294 296.909,137.317 297.738 M137.637 300.670 C 137.669 300.852,137.659 301.090,137.614 301.200 C 137.231 302.156,137.213 303.739,137.590 303.365 C 138.215 302.747,138.484 300.899,137.993 300.596 C 137.766 300.455,137.606 300.489,137.637 300.670 M139.290 306.470 C 138.731 307.029,139.355 308.000,140.273 308.000 C 140.589 308.000,140.737 308.178,140.603 308.395 C 140.458 308.630,140.637 308.684,141.045 308.527 C 141.512 308.348,141.638 308.414,141.440 308.735 C 141.275 309.002,141.419 309.309,141.772 309.445 C 142.115 309.576,142.278 309.890,142.134 310.142 C 141.990 310.394,142.018 310.468,142.196 310.306 C 142.375 310.145,142.758 310.325,143.048 310.706 C 143.337 311.088,143.580 311.197,143.587 310.948 C 143.594 310.700,142.725 309.580,141.656 308.459 C 140.587 307.338,139.807 306.326,139.923 306.210 C 140.039 306.095,140.049 306.000,139.947 306.000 C 139.844 306.000,139.548 306.212,139.290 306.470 M160.400 306.333 C 160.400 306.590,160.119 306.800,159.776 306.800 C 159.433 306.800,159.264 306.980,159.400 307.200 C 159.536 307.420,159.797 307.600,159.981 307.600 C 160.390 307.600,160.899 306.366,160.609 306.076 C 160.494 305.961,160.400 306.077,160.400 306.333 M158.400 307.751 C 158.400 307.834,158.670 308.126,159.000 308.400 C 159.491 308.808,159.600 308.780,159.600 308.249 C 159.600 307.892,159.330 307.600,159.000 307.600 C 158.670 307.600,158.400 307.668,158.400 307.751 M158.000 308.800 C 158.000 309.020,157.773 309.200,157.496 309.200 C 156.801 309.200,155.904 310.693,156.411 311.007 C 156.628 311.141,156.913 310.970,157.045 310.628 C 157.176 310.285,157.445 310.104,157.642 310.226 C 157.839 310.348,158.000 310.167,158.000 309.824 C 158.000 309.481,158.180 309.200,158.400 309.200 C 158.620 309.200,158.800 309.020,158.800 308.800 C 158.800 308.580,158.620 308.400,158.400 308.400 C 158.180 308.400,158.000 308.580,158.000 308.800 M145.092 310.642 C 144.931 310.802,144.800 311.209,144.800 311.547 C 144.800 311.997,144.918 312.042,145.245 311.715 C 145.490 311.470,145.621 311.063,145.537 310.810 C 145.452 310.557,145.252 310.481,145.092 310.642 M154.800 311.067 C 154.800 311.507,155.067 311.867,155.394 311.867 C 155.871 311.867,155.893 311.742,155.507 311.233 C 155.243 310.885,154.975 310.525,154.913 310.433 C 154.851 310.342,154.800 310.627,154.800 311.067 M146.800 312.255 C 146.800 312.868,147.529 312.959,148.337 312.448 C 148.729 312.199,148.594 312.054,147.837 311.909 C 147.132 311.774,146.800 311.885,146.800 312.255 M151.798 312.003 C 151.661 312.224,151.838 312.517,152.192 312.652 C 152.958 312.946,153.385 312.622,153.016 312.027 C 152.684 311.489,152.122 311.478,151.798 312.003 " stroke="none" fill="#fcfcfc" fill-rule="evenodd"></path><path id="path1" d="" stroke="none" fill="#100fcfc" fill-rule="evenodd"></path><path id="path2" d="" stroke="none" fill="#100fcfc" fill-rule="evenodd"></path><path id="path3" d="" stroke="none" fill="#100fcfc" fill-rule="evenodd"></path><path id="path4" d="" stroke="none" fill="#100fcfc" fill-rule="evenodd"></path></g></svg>