<?xml version="1.0" standalone="no"?>
<!DOCTYPE svg PUBLIC "-//W3C//DTD SVG 20010904//EN"
 "http://www.w3.org/TR/2001/REC-SVG-20010904/DTD/svg10.dtd">
<svg version="1.0" xmlns="http://www.w3.org/2000/svg"
 width="512.000000pt" height="512.000000pt" viewBox="0 0 512.000000 512.000000"
 preserveAspectRatio="xMidYMid meet">

<g transform="translate(0.000000,512.000000) scale(0.100000,-0.100000)"
fill="#000000" stroke="none">
<path d="M1872 3993 c-37 -7 -98 -75 -106 -117 -17 -92 -44 -60 607 -713 l602
-603 -602 -602 c-651 -654 -624 -622 -607 -714 9 -49 69 -109 118 -118 92 -17
54 -51 783 678 587 586 673 676 684 713 27 93 52 63 -664 781 -359 359 -664
662 -679 673 -27 20 -95 31 -136 22z"/>
</g>
</svg>
