<svg width="32" height="32" xmlns="http://www.w3.org/2000/svg">

 <g>
  <title>background</title>
  <rect fill="none" id="canvas_background" height="402" width="582" y="-1" x="-1"/>
 </g>
 <g>
  <title>Layer 1</title>
  <path fill="#47366f" stroke="#47366f" id="svg_1" d="m29.6,5.2c-0.3,-0.2 -0.6,-0.3 -0.9,-0.1c-4.3,1.4 -8.7,0.3 -12,-2.8c-0.4,-0.4 -1,-0.4 -1.4,0c-3.3,3.1 -7.7,4.2 -12,2.8c-0.3,-0.2 -0.6,-0.1 -0.9,0.1c-0.2,0.2 -0.4,0.5 -0.4,0.8c0,15.7 6.9,20.9 13.6,23.9c0.1,0.1 0.3,0.1 0.4,0.1s0.3,0 0.4,-0.1c6.7,-3 13.6,-8.2 13.6,-23.9c0,-0.3 -0.2,-0.6 -0.4,-0.8zm-7.9,8.5l-6,6c-0.2,0.2 -0.4,0.3 -0.7,0.3s-0.5,-0.1 -0.7,-0.3l-3,-3c-0.4,-0.4 -0.4,-1 0,-1.4s1,-0.4 1.4,0l2.3,2.3l5.3,-5.3c0.4,-0.4 1,-0.4 1.4,0s0.4,1 0,1.4z"/>
 </g>
</svg>