<?xml version="1.0" standalone="no"?>
<!DOCTYPE svg PUBLIC "-//W3C//DTD SVG 20010904//EN"
 "http://www.w3.org/TR/2001/REC-SVG-20010904/DTD/svg10.dtd">
<svg version="1.0" xmlns="http://www.w3.org/2000/svg"
 width="512.000000pt" height="512.000000pt" viewBox="0 0 512.000000 512.000000"
 preserveAspectRatio="xMidYMid meet">

<g transform="translate(0.000000,512.000000) scale(0.100000,-0.100000)"
fill="#000000" stroke="none">
<path d="M2235 4911 c-82 -21 -145 -72 -186 -151 -23 -44 -24 -52 -27 -350
l-3 -306 -74 -28 c-106 -40 -258 -127 -364 -206 l-91 -69 -227 131 c-282 162
-300 171 -379 171 -75 0 -133 -25 -186 -80 -37 -39 -315 -512 -336 -572 -31
-89 -1 -211 67 -276 18 -16 141 -93 274 -170 218 -127 242 -143 240 -165 -1
-14 -8 -84 -14 -157 -10 -104 -10 -158 0 -260 7 -70 13 -139 14 -152 2 -22
-23 -39 -240 -165 -133 -78 -257 -154 -274 -171 -78 -74 -101 -202 -55 -301
44 -94 288 -509 320 -543 48 -52 119 -81 196 -81 81 0 87 3 373 169 l228 132
66 -52 c93 -75 254 -169 366 -215 l96 -39 3 -300 c3 -280 4 -303 24 -345 31
-67 68 -106 132 -137 l57 -28 330 0 330 0 57 28 c64 31 101 70 132 137 20 42
21 65 24 345 l3 300 82 33 c112 45 264 133 364 209 l83 63 226 -131 c284 -164
293 -169 374 -169 77 0 148 29 196 81 32 34 277 450 320 544 46 98 23 226 -55
300 -18 17 -141 93 -274 170 -217 126 -242 143 -240 165 1 14 7 84 14 156 11
123 4 302 -17 414 -4 23 11 34 233 160 131 74 256 151 277 170 84 76 110 203
62 306 -48 104 -289 510 -324 547 -53 55 -111 80 -187 80 -79 0 -104 -12 -387
-176 l-218 -126 -91 69 c-106 79 -259 166 -364 206 l-74 28 -3 301 -3 300 -28
57 c-30 61 -64 95 -131 131 -40 21 -52 22 -361 24 -176 1 -333 -2 -350 -6z
m660 -141 c79 -38 80 -42 83 -410 3 -367 -1 -348 86 -376 138 -45 335 -157
470 -267 45 -37 78 -57 95 -57 15 0 135 63 295 155 148 85 282 157 297 160 43
10 113 -26 142 -72 13 -21 83 -141 155 -267 112 -194 132 -236 132 -271 0 -76
-21 -94 -310 -260 -146 -84 -273 -164 -283 -177 -18 -24 -18 -28 -1 -114 13
-64 18 -137 18 -259 0 -122 -5 -195 -18 -259 -17 -86 -17 -90 1 -113 10 -14
137 -93 283 -177 287 -166 310 -185 310 -258 0 -47 11 -25 -162 -326 -77 -134
-151 -250 -163 -258 -41 -27 -84 -34 -124 -20 -20 7 -150 78 -289 159 -163 94
-264 147 -282 147 -19 0 -48 -16 -87 -48 -139 -115 -266 -190 -433 -257 -63
-25 -117 -48 -120 -51 -3 -3 -7 -155 -10 -337 -6 -368 -6 -372 -74 -413 -29
-18 -55 -19 -341 -19 -352 0 -357 1 -395 80 -19 39 -20 63 -20 357 0 287 -2
316 -17 330 -10 9 -65 34 -123 57 -130 50 -281 138 -397 231 -59 48 -95 70
-114 70 -17 0 -123 -56 -281 -147 -278 -161 -311 -176 -356 -164 -74 22 -61 4
-251 335 -111 194 -131 235 -131 271 0 76 21 94 310 261 146 84 273 163 283
177 18 23 18 27 1 113 -24 120 -24 393 -1 519 16 85 16 91 -1 113 -9 13 -136
92 -282 176 -300 174 -315 187 -307 271 4 42 27 89 147 295 78 135 147 251
153 259 21 25 96 53 126 46 15 -3 149 -75 297 -160 163 -94 280 -155 296 -155
17 0 45 16 80 46 122 105 327 224 472 274 103 35 96 8 96 368 0 298 1 318 21
358 14 30 32 48 62 63 40 20 58 21 331 21 268 0 293 -1 331 -20z"/>
<path d="M2470 3359 c-294 -34 -554 -236 -661 -512 -17 -44 -37 -125 -46 -185
-14 -95 -14 -116 0 -212 60 -412 390 -701 802 -701 552 0 939 534 769 1059
-118 362 -484 595 -864 551z m265 -146 c232 -57 428 -255 490 -493 23 -86 23
-244 0 -330 -86 -330 -398 -546 -737 -508 -371 40 -644 383 -598 749 51 414
440 682 845 582z"/>
</g>
</svg>
