<?xml version="1.0" standalone="no"?>
<!DOCTYPE svg PUBLIC "-//W3C//DTD SVG 20010904//EN"
 "http://www.w3.org/TR/2001/REC-SVG-20010904/DTD/svg10.dtd">
<svg version="1.0" xmlns="http://www.w3.org/2000/svg"
 width="512.000000pt" height="512.000000pt" viewBox="0 0 512.000000 512.000000"
 preserveAspectRatio="xMidYMid meet">

<g transform="translate(0.000000,512.000000) scale(0.100000,-0.100000)"
fill="#000000" stroke="none">
<path d="M3691 4455 c-113 -25 -225 -89 -316 -180 -134 -133 -195 -280 -195
-470 l-1 -100 -706 -342 -707 -342 -39 35 c-67 61 -153 110 -244 140 -78 26
-102 29 -208 28 -102 0 -132 -5 -202 -28 -210 -69 -375 -245 -433 -460 -18
-66 -21 -100 -18 -195 7 -187 63 -315 196 -448 57 -58 92 -82 165 -117 97 -47
210 -76 297 -76 137 0 317 67 428 159 l58 48 707 -345 707 -346 0 -101 c0
-189 61 -336 195 -470 128 -129 285 -195 465 -195 180 0 337 66 465 195 92 92
142 177 176 300 28 104 24 276 -10 375 -69 202 -229 359 -436 427 -67 22 -98
26 -195 26 -97 0 -128 -4 -195 -26 -87 -29 -167 -73 -240 -133 -26 -22 -52
-38 -58 -36 -7 1 -326 156 -709 344 l-698 342 0 101 0 101 706 343 706 342 50
-42 c74 -62 154 -107 243 -136 67 -22 98 -26 195 -26 97 0 128 4 195 26 207
68 366 224 436 427 34 99 38 271 10 375 -34 123 -84 208 -176 300 -130 131
-287 195 -470 194 -44 0 -109 -7 -144 -14z"/>
</g>
</svg>
