<?xml version="1.0" standalone="no"?>
<!DOCTYPE svg PUBLIC "-//W3C//DTD SVG 20010904//EN"
 "http://www.w3.org/TR/2001/REC-SVG-20010904/DTD/svg10.dtd">
<svg version="1.0" xmlns="http://www.w3.org/2000/svg"
 width="512.000000pt" height="512.000000pt" viewBox="0 0 512.000000 512.000000"
 preserveAspectRatio="xMidYMid meet">

<g transform="translate(0.000000,512.000000) scale(0.100000,-0.100000)"
fill="#000000" stroke="none">
<path d="M2310 4194 c-357 -56 -669 -214 -920 -464 -255 -255 -415 -567 -471
-925 -17 -103 -17 -387 0 -490 56 -358 216 -670 471 -925 257 -257 572 -412
940 -466 151 -22 400 -14 545 16 315 66 591 210 813 424 251 242 398 501 478
841 27 114 29 132 29 355 0 223 -2 241 -29 355 -80 340 -227 599 -478 841
-222 214 -497 357 -813 424 -135 29 -428 36 -565 14z m1323 -802 l187 -187
-835 -835 -835 -835 -432 432 -433 433 190 190 190 190 242 -242 243 -243 643
643 c353 353 644 642 647 642 3 0 90 -84 193 -188z"/>
</g>
</svg>
