<?xml version="1.0" standalone="no"?>
<!DOCTYPE svg PUBLIC "-//W3C//DTD SVG 20010904//EN"
 "http://www.w3.org/TR/2001/REC-SVG-20010904/DTD/svg10.dtd">
<svg version="1.0" xmlns="http://www.w3.org/2000/svg"
 width="512.000000pt" height="512.000000pt" viewBox="0 0 512.000000 512.000000"
 preserveAspectRatio="xMidYMid meet">

<g transform="translate(0.000000,512.000000) scale(0.100000,-0.100000)"
fill="#000000" stroke="none">
<path d="M2495 3345 c-17 -9 -330 -316 -697 -683 -722 -724 -689 -686 -672
-778 9 -49 69 -109 118 -118 92 -17 60 -44 714 608 l602 601 598 -597 c657
-656 633 -636 724 -608 52 15 105 69 114 115 17 91 47 55 -674 777 -367 368
-681 675 -698 683 -40 19 -90 19 -129 0z"/>
</g>
</svg>
